<svg xmlns="http://www.w3.org/2000/svg" fill="none" viewBox="0 38.94 707.46 504.52">
<path d="M325.449 478.481C503.009 478.481 646.949 381.103 646.949 260.981C646.949 140.86 503.009 43.4814 325.449 43.4814C147.89 43.4814 3.94922 140.86 3.94922 260.981C3.94922 381.103 147.89 478.481 325.449 478.481Z" fill="#A9A9A9"/>
<path d="M644.289 260.941C644.629 261.841 645.429 261.321 645.219 258.881L643.869 257.211L644.289 260.941Z" fill="#B4B4B4"/>
<path d="M645.809 244.361C644.809 241.531 643.249 238.411 642.289 240.431C643.899 243.071 643.529 243.811 645.289 246.721C645.461 247.712 645.484 248.723 645.359 249.721C645.219 250.441 644.969 250.821 644.719 250.631C645.099 251.471 644.649 254.441 645.529 255.721C645.976 253.958 646.151 252.137 646.049 250.321C645.902 248.261 645.519 246.225 644.909 244.251C645.089 243.341 645.549 244.181 645.809 244.361Z" fill="#B4B4B4"/>
<path d="M490.551 72.3315L491.951 73.0615C491.504 72.7813 491.036 72.5371 490.551 72.3315V72.3315Z" fill="#B4B4B4"/>
<path d="M343.6 41.2515C344.75 41.2515 345.23 41.1615 345.29 41.0415C344.22 41.0815 343.35 41.1215 343.6 41.2515Z" fill="#B4B4B4"/>
<path d="M317.801 39.5114L319.321 39.5814C318.825 39.4522 318.307 39.4283 317.801 39.5114V39.5114Z" fill="#B4B4B4"/>
<path d="M490.55 72.3312L486.96 70.4512C486.54 70.7412 488.76 71.5112 490.55 72.3312Z" fill="#B4B4B4"/>
<path d="M635.471 212.941C635.748 213.609 636.083 214.251 636.471 214.861C636.211 214.231 635.961 213.631 635.721 212.991C635.636 212.984 635.552 212.967 635.471 212.941Z" fill="#B4B4B4"/>
<path d="M550.18 101.941L551.18 102.611C551.559 102.686 551.944 102.726 552.33 102.731L550.18 101.941Z" fill="#B4B4B4"/>
<path d="M590.581 133.572C589.781 132.722 588.711 133.272 588.051 133.322C588.932 133.486 589.747 133.899 590.401 134.512C590.571 134.372 590.631 134.082 590.581 133.572Z" fill="#B4B4B4"/>
<path d="M635.689 200.701C635.939 201.121 636.149 201.551 636.379 201.981C636.189 201.651 635.929 201.071 635.689 200.701Z" fill="#B4B4B4"/>
<path d="M518.48 83.4914C518.462 83.2808 518.378 83.0813 518.24 82.9214C518.17 83.0514 518.28 83.2514 518.48 83.4914Z" fill="#B4B4B4"/>
<path d="M630.711 316.431C630.771 316.501 630.841 316.431 630.891 316.501C630.871 316.191 630.871 316.081 630.711 316.431Z" fill="#B4B4B4"/>
<path d="M647.24 260.941V261.761C647.433 261.862 647.644 261.924 647.86 261.941L647.24 260.941Z" fill="#B4B4B4"/>
<path d="M270.42 41.1516H270.64C271.87 40.8816 271.16 40.9916 270.42 41.1516Z" fill="#B4B4B4"/>
<path d="M10.6391 319.291C9.72909 314.291 14.8491 326.291 13.1091 318.971C12.9591 319.801 8.93909 313.271 10.6391 319.291Z" fill="#B4B4B4"/>
<path d="M635.171 211.631C634.931 211.001 634.691 210.361 634.471 209.711C634.666 210.365 634.899 211.006 635.171 211.631Z" fill="#B4B4B4"/>
<path d="M13.1097 318.941L12.9297 318.191L13.1097 318.941Z" fill="#B4B4B4"/>
<path d="M164.51 67.5113C164.91 67.6018 165.323 67.6221 165.73 67.5713C165.66 67.4813 165.37 67.4313 164.51 67.5113Z" fill="#B4B4B4"/>
<path d="M243.211 47.4214L241.211 47.6314C241.881 47.5989 242.549 47.5288 243.211 47.4214V47.4214Z" fill="#B4B4B4"/>
<path d="M126.67 86.4014C125.727 86.7053 124.834 87.1467 124.02 87.7114C124.175 87.6883 124.329 87.6549 124.48 87.6114C125.108 87.0466 125.857 86.6327 126.67 86.4014Z" fill="#B4B4B4"/>
<path d="M89.2695 109.462C89.5095 109.402 89.7895 109.272 90.0595 109.172L91.1495 108.312L89.2695 109.462Z" fill="#B4B4B4"/>
<path d="M547.369 412.681C548.087 412.474 548.834 412.39 549.579 412.431C548.589 412.131 553.669 408.421 547.369 412.681Z" fill="#B4B4B4"/>
<path d="M636.06 212.662C635.646 212.455 635.327 212.097 635.17 211.662C635.36 212.112 635.54 212.552 635.71 212.972C635.87 213.012 636.07 212.942 636.06 212.662Z" fill="#B4B4B4"/>
<path d="M129.26 95.0513L123.26 98.1713C124.93 97.3413 127.13 96.2213 129.26 95.0513Z" fill="#B4B4B4"/>
<path d="M250.33 467.862L251.87 467.942C251.364 467.834 250.844 467.807 250.33 467.862Z" fill="#B4B4B4"/>
<path d="M106.04 108.731C104.785 109.089 103.572 109.579 102.42 110.191C102.223 110.391 102.055 110.616 101.92 110.861L106.04 108.731Z" fill="#B4B4B4"/>
<path d="M582.87 382.571C578.14 386.921 581.64 385.691 581.21 387.241C575.73 392.721 577.81 388.811 575.36 389.991C571.99 393.421 569.99 396.811 567.12 398.991C566.76 398.991 566.12 399.331 566.61 398.581C565.61 399.769 564.494 400.854 563.28 401.821C561.94 402.961 560.42 404.141 558.84 405.291C555.74 407.651 552.48 409.981 550.42 412.291C550.151 412.401 549.86 412.445 549.57 412.421C550.79 412.501 551.34 413.041 551.47 413.601C549.03 415.231 547.47 417.391 545.98 417.181C546.84 416.7 547.537 415.972 547.98 415.091C547.2 415.771 546.43 416.461 545.63 417.091C544.09 417.241 544.92 416.591 546.04 415.771C547.16 414.951 548.6 413.961 548.31 413.531C543.62 417.231 538.23 421.831 534.06 423.821C532.58 423.161 543.06 417.921 537.16 420.031C539.29 419.031 541.37 417.871 543.45 416.761C537.74 417.821 547.16 414.601 541.74 415.301C533.74 419.851 533.28 421.301 525.01 425.491C523.54 427.151 526.15 426.141 524.67 427.801C522.675 429.243 520.5 430.416 518.2 431.291C516.898 431.775 515.535 432.074 514.15 432.181C511.85 432.411 510.02 432.551 506.02 435.401C504.14 437.291 503.96 439.281 497.25 441.251L498.79 438.891C494.65 440.641 493.66 441.601 492.6 442.541C491.54 443.481 490.37 444.321 485.78 445.591C487.12 444.411 492.17 442.481 490.84 442.821C484.7 443.961 487.16 445.261 482.76 446.961L481.36 446.031C472.49 449.651 462.77 454.031 452.6 457.241C453.06 456.681 454.68 455.761 452.18 456.061C439.51 460.561 424.42 463.231 411.59 464.851L406.94 466.851C405.81 467.051 404.75 466.721 405.94 466.271C400.94 466.691 405.81 467.051 403.5 467.911C400.67 468.461 399.64 467.861 401.38 467.221C399.23 467.841 396.6 468.531 393.72 469.161C390.84 469.791 387.72 470.461 384.54 470.981C378.763 472.048 372.895 472.547 367.02 472.471L368.81 471.951C366.2 472.013 363.621 472.531 361.19 473.481C358.875 474.393 356.368 474.706 353.9 474.391L355.19 474.111C339.31 474.661 321.69 475.761 309.63 473.581C308.45 474.391 304.52 474.021 300.76 473.751C297 473.481 293.41 473.191 292.81 474.331C283.81 472.451 286.46 472.331 273.87 470.241C270.5 469.761 268.66 471.141 264.44 470.831L264.49 469.591C262.55 469.781 260.6 469.961 258.65 470.101L255.85 468.191C254.54 468.111 253.22 468.021 251.9 467.901C253.44 468.241 255.12 468.961 254.83 469.281C251.545 468.999 248.3 468.365 245.15 467.391C242.25 466.491 240.15 465.581 240.15 465.261C235.31 464.701 230.48 464.071 225.66 463.341C226.08 462.931 228.5 463.291 230.45 463.341C222.59 462.891 229.35 461.801 222.15 461.341C223.02 461.841 221.48 461.941 221.27 462.141C217.97 460.601 210.13 458.691 204.27 457.341L205.61 456.821C195.28 453.741 183.67 450.771 172.34 446.491C174.34 447.491 174.93 448.151 174.64 448.491C174.35 448.831 173.13 448.851 171.44 448.281L170.57 446.551C168.13 446.491 173.88 448.331 169.11 447.551C164.91 445.801 166.79 445.091 169.37 445.611C167.59 445.121 165.84 444.611 164.08 444.031C163.92 443.551 165.2 443.841 165.69 443.501C164.5 443.451 162.41 442.291 160.2 441.101C157.99 439.911 155.64 438.941 153.87 438.941L153.75 438.461L140.46 432.581C138.6 431.711 136.78 430.911 134.9 430.011C133.02 429.111 131.06 428.141 128.9 427.011C128.2 427.901 124.9 425.871 121.9 425.221C115.73 421.361 109.32 416.431 102.03 411.681C96.65 408.681 100.03 411.461 97.36 410.461C97.47 409.901 95.7 408.461 94.46 407.281C93.22 406.101 92.46 405.401 94.52 406.421C90.23 403.421 87.52 401.421 84.52 399.301C81.52 397.181 78.26 394.791 73.02 390.731C73.82 392.001 74.92 393.211 74.02 392.921C72.1 391.451 70.2 388.971 70.79 388.831L71.33 389.171C65.33 384.791 59.63 378.231 54.66 371.751C49.69 365.271 45.34 358.881 41.03 354.751L41.51 355.211C40.15 353.701 38.8 352.211 37.51 350.591L35.51 348.241L33.62 345.831C30.73 341.031 36.09 348.231 34.38 344.411C33.3593 343.226 32.4013 341.987 31.51 340.701C30.65 339.491 29.85 338.321 29.16 337.141C28.47 335.961 27.82 334.841 27.16 333.721C26.5 332.601 26.04 331.471 25.5 330.371C24.4 328.201 23.5 325.991 22.5 323.811C21.5 321.631 20.38 319.381 19.15 316.971C18.94 312.561 16.4 305.731 14.24 298.341C12.08 290.951 10.51 283.001 10.87 277.371L10.25 278.091C9.25 275.301 10.31 274.571 10.25 272.461C9.72 272.801 9.9 275.631 9.35 273.881C8.59414 267.709 8.36999 261.482 8.68 255.271C9.01252 248.947 9.83498 242.658 11.14 236.461C13.8056 224.098 17.9627 212.103 23.52 200.741C24.2482 199.285 24.7924 197.743 25.14 196.151C25.2669 195.207 25.3203 194.254 25.3 193.301C25.3406 192.23 25.5815 191.175 26.01 190.191C26.3482 189.414 26.7425 188.662 27.19 187.941C27.75 187.081 28.45 186.081 29.35 184.941L28.87 188.391C32.833 179.828 37.8086 171.77 43.69 164.391C49.52 156.821 55.87 149.791 61.87 142.801C61.32 143.801 61.58 144.101 60.33 145.381C61.4055 144.651 62.41 143.82 63.33 142.901C64.44 141.901 65.6 140.661 66.64 139.511C68.75 137.221 70.41 135.141 70.17 134.821C72.34 132.951 71.17 134.891 72.71 134.021C75.96 131.851 79.3 126.711 81.53 126.141C81.9 126.041 80.87 127.061 80.38 127.581C81.9386 126.05 83.5883 124.614 85.32 123.281C87.13 121.801 88.43 120.671 87.12 120.961C92.9 117.161 97.49 112.721 102.46 110.191C104.76 107.121 112.73 104.271 112.82 102.191C113.09 103.111 115.82 101.811 119.03 100.021C120.62 99.1414 122.29 98.0914 123.8 97.1114C125.084 96.3069 126.322 95.4323 127.51 94.4914C126.51 95.6714 131.13 93.1914 129.97 94.6714C131.918 93.6717 133.814 92.5737 135.65 91.3814C137.04 90.4714 137.74 89.7714 137.14 89.5514C141.74 88.4514 145.73 86.1014 149.36 84.0714C151.022 83.1032 152.742 82.2382 154.51 81.4814C155.974 80.8462 157.566 80.5587 159.16 80.6414C171.761 74.3821 184.794 69.035 198.16 64.6414C198.16 66.4414 184.02 69.2014 185.16 70.8914C191.05 68.5214 195.69 66.5314 200.38 64.7114C202.72 63.8014 205.1 62.9914 207.64 62.1814C210.18 61.3714 212.94 60.6914 216.03 60.0114C219.27 59.4814 214.41 61.2114 213.42 61.8014C225.58 57.9214 237.42 56.4514 248.42 53.6014C247.713 54.0317 246.934 54.3299 246.12 54.4814C248.32 54.0614 251.29 53.9014 250.91 53.1314L248.79 53.7014C246.93 53.4014 249.02 52.4314 251.62 51.4414C254.22 50.4514 257.35 49.5414 257.51 49.1914C255.79 50.6314 258.6 50.3614 261.13 50.1914C263.66 50.0214 265.93 50.1014 263.13 51.9614C264.57 51.6214 266.35 50.9614 265.94 50.4914C268.13 50.3714 268.85 50.6014 266.74 51.4914C268.897 51.1611 271.02 50.6322 273.08 49.9114C274.968 49.2688 276.938 48.8984 278.93 48.8114C278.93 49.2114 277.5 49.5014 276.8 50.0414C281.092 48.5295 285.6 47.7224 290.15 47.6514C289.8 47.9214 290.53 48.1714 288.71 48.3114C299.19 47.4114 306.55 45.0814 318.18 45.6214C314.79 47.3814 322.13 46.1614 322.75 47.6214C324.82 47.4414 326.89 47.3014 328.96 47.1814L326.47 46.4314C329.19 46.4314 331.76 46.2114 334.24 46.0514C336.637 45.844 339.048 45.8674 341.44 46.1214L337.37 46.6314C340.78 46.6314 344.18 46.6314 347.59 46.7114L341.87 46.0214C347.42 45.4914 341.35 44.1114 348.61 44.8414C347.87 44.8414 349.24 44.9314 351.14 45.1414C353.082 45.2958 355.003 45.6544 356.87 46.2114V46.2114C360.044 45.7603 363.268 45.7974 366.43 46.3214C367.43 46.8914 365.43 47.8914 366.1 48.3214C367.48 47.8214 370.67 48.0314 373.95 48.2514C377.23 48.4714 380.59 48.7814 382.35 48.3114C381.19 48.4914 381.04 49.3114 381.35 49.4714L383.69 48.7314C386.16 49.3814 386.51 49.5814 386.02 50.1514C393.53 51.3314 383.88 47.9214 392.72 49.9814C392.097 50.0702 391.469 50.107 390.84 50.0914C399.75 51.7614 408.27 52.1814 416.36 54.2914C417.42 55.2914 415.61 55.0014 413.86 54.7114C412.11 54.4214 410.4 54.1714 411.67 55.0414C423.48 56.9614 436.36 58.4514 447.48 61.9214L445.48 61.1814C446.54 60.3814 448.57 61.1814 451.05 62.3214C453.682 63.7175 456.501 64.7279 459.42 65.3214C458 65.0314 457.28 65.8814 457.72 65.7714C465.2 68.4414 473.34 70.2214 484.85 73.9314H483.26C485.37 74.9314 488.19 76.2214 491.09 77.4114C493.99 78.6014 496.87 79.8014 499.07 80.9414C500.66 81.0514 503.28 82.3114 501.99 80.8714C508.48 85.4914 515.32 88.3314 521.93 91.2914C528.54 94.2514 534.93 97.2914 540.16 101.971C538.74 101.121 536.54 100.351 537.66 101.031C539.393 101.951 541.107 102.908 542.8 103.901C544.51 104.901 546.21 105.841 547.89 106.901C547.61 105.621 546.89 105.551 545.2 103.631C547.693 104.418 550.054 105.578 552.2 107.071C547.4 104.661 551.44 108.301 553 110.071C552.85 109.621 553.67 109.811 553.67 109.461C557.79 114.341 555.67 108.461 561.83 114.341L561.18 114.461L565.18 116.831C566.594 117.632 567.933 118.559 569.18 119.601C569.4 120.461 568.67 120.031 567.79 119.461C566.91 118.891 565.86 118.221 565.5 118.461C569.32 121.291 574.18 122.731 576.81 126.351C575.05 125.281 572.81 123.351 571.05 122.351C573.91 126.271 574.49 126.411 577.05 128.801L576.81 128.561C578.68 130.491 580.61 132.361 582.43 134.331L581.16 132.691C584.163 133.781 586.856 135.583 589.01 137.941L592.72 141.551C594.135 142.86 595.639 144.069 597.22 145.171C590.57 140.681 595.61 144.911 594.33 145.301C595.48 147.021 597.33 149.561 596.44 149.141C597.878 150.152 599.098 151.441 600.03 152.931C600.593 153.697 601.2 154.428 601.85 155.121C602.66 156.002 603.562 156.793 604.54 157.481C604.46 157.691 605.1 158.481 605.59 159.201C606.08 159.921 606.39 160.611 605.74 160.581C608.99 164.241 605.57 159.251 606.2 159.271C607.691 160.675 609.031 162.23 610.2 163.911C611.43 165.731 612.72 167.671 613.93 169.791C616.46 173.941 618.99 178.521 622.55 182.721C623.86 184.721 624.99 186.181 625.97 187.501C626.95 188.821 627.87 189.941 628.67 191.041C629.47 192.141 630.3 193.241 631.18 194.541C632.222 196.071 633.167 197.664 634.01 199.311C634.32 200.801 633.75 200.381 633.1 199.601C632.45 198.821 631.73 197.661 631.73 197.661C632.42 199.971 633.2 201.901 633.94 203.811C634.68 205.721 635.6 207.521 636.54 209.571C635.91 208.831 635.96 209.811 636.01 211.231C637.3 214.571 638.13 213.061 639.01 217.751C638.022 216.892 637.154 215.903 636.43 214.811C636.83 215.811 637.26 216.741 637.7 217.711C638.14 218.681 638.53 219.651 638.95 220.631C639.826 222.606 640.597 224.626 641.26 226.681C640.87 227.961 639.64 224.361 638.83 222.991C640.4 227.621 642.23 235.191 643.47 236.541L643.32 233.351C643.67 235.121 642.58 234.421 642.13 233.171C641.476 231.75 641.135 230.206 641.13 228.641C641.081 228.007 641.235 227.373 641.57 226.831C641.91 227.831 642.21 228.831 642.5 229.831C643.32 228.011 642.5 224.941 641.22 221.601C640.55 219.951 639.85 218.211 639.1 216.541C638.391 214.971 637.764 213.366 637.22 211.731C638.05 212.371 638.81 213.041 639.62 213.731C638.55 211.791 637.33 209.921 636.18 208.051C636.12 206.611 636.66 205.371 637.96 208.251C637.788 206.834 637.314 205.47 636.57 204.251C635.912 203.174 635.496 201.966 635.35 200.711C635.35 200.251 635.46 200.401 635.68 200.711L633.43 196.821C634.1 197.481 634.2 195.651 635.09 198.271C634.79 197.305 634.457 196.395 634.09 195.541C633.73 194.711 633.35 193.931 632.97 193.191C632.292 191.88 631.541 190.608 630.72 189.381C629.26 187.181 628.16 185.531 627.94 183.911L628.36 184.451C625.36 179.701 624.95 179.661 624.64 179.931C624.33 180.201 624.08 180.831 621.33 177.671C621.23 175.551 621.03 173.461 620.85 171.321L619.24 171.071C618.63 170.071 617.41 168.181 618.05 168.251C614.93 165.201 618.05 169.151 615.97 167.561C615.306 166.125 614.495 164.761 613.55 163.491C612.55 162.091 611.47 160.711 610.44 159.441C608.44 156.861 606.73 154.731 607.08 153.621C605.08 152.691 609.89 158.151 605.65 154.021C605.702 153.669 605.682 153.309 605.589 152.965C605.496 152.621 605.333 152.3 605.11 152.021C604.527 151.296 603.878 150.626 603.17 150.021C602.38 149.301 601.5 148.521 600.65 147.651C599.741 146.787 598.938 145.817 598.26 144.761C600.1 145.171 602.94 149.091 600.21 144.711C598.51 144.191 596.92 142.321 595.28 140.271C593.839 138.196 592.187 136.276 590.35 134.541C589.24 135.411 583.21 128.541 577.41 124.341C577.73 124.341 575.34 121.931 572.11 119.141L569.66 116.941L567.06 114.751L562.43 110.861L562.74 110.781C560.84 111.191 555.42 106.961 551.07 104.491C551.71 103.881 552.67 104.061 555.14 105.261C553.85 104.371 552.52 103.531 551.21 102.651C550.02 102.441 548.67 101.811 545.99 100.341L547.58 100.051C542.25 96.7014 536.17 94.5214 529.48 89.9714C528.61 90.6614 533.69 95.5114 525.94 92.0714C525.94 91.4314 526.11 90.4514 528.16 91.3114C526.868 90.8969 525.637 90.3118 524.5 89.5714L527.92 90.3714C524.92 88.2714 525.92 90.1214 523.33 88.6914C523.75 88.0214 521.67 87.1914 522.33 86.8314C523.03 87.1114 524.46 88.2814 525.58 88.5514C522.73 86.8814 519.4 84.6314 518.48 83.5514C518.48 84.0714 518 84.4914 515.78 83.5514C510.14 80.8414 514.29 81.7314 511.16 79.8014C509.54 79.6514 506.16 77.4214 505.57 78.4714C504.612 78.0757 503.813 77.372 503.3 76.4714C500.16 75.5414 489.3 70.7014 492.2 73.2414L492.93 73.6314L492.42 73.4814C482.21 70.5014 472.12 64.9414 461.87 62.2214L462 61.8514C455.89 60.3514 448.53 58.1014 444 57.7514C442.21 57.2714 439.94 55.9514 440.83 55.6914C436.11 54.7714 435.48 55.0914 428.89 52.8614C433.74 53.3014 427.41 51.8614 433.82 53.5114C427.82 51.7214 426.56 50.8214 419.82 50.5114C422.27 49.9914 415.47 48.3114 412.48 48.0714C413.88 48.5614 415.26 49.0714 416.64 49.6214C413.35 49.0814 410.49 48.5214 407.64 47.8814L409.45 46.8814C403.29 44.9314 397.45 44.7314 392.04 44.5114C386.63 44.2914 381.58 44.0614 376.87 42.2014C373.4 42.7414 383.7 43.6214 380.57 44.3714C374.77 43.4914 368.84 41.0614 366.99 40.8714C358.99 39.5114 359.34 42.2014 350.99 41.2114C352.04 41.7714 352.99 43.0114 346.7 43.2114C340.87 42.7714 339.55 40.9414 343.28 40.6814C344.69 40.6814 345.36 40.8814 345.28 41.0414C347.19 40.9514 349.69 40.8514 347.39 40.2414L346.6 40.6814C343.71 40.0314 335.6 39.8814 337.52 39.1614C333.07 39.4914 335.61 39.9414 338.87 40.2214C336.99 40.0014 335.31 39.8614 333.73 39.7814C332.15 39.7014 330.66 39.7214 329.17 39.7214C326.17 39.7214 323.17 39.7814 319.29 39.5814C320.53 39.8414 321.68 40.3814 320.45 40.3914C314.75 40.1314 313.45 40.4714 312.71 40.7914C311.97 41.1114 311.6 41.5414 307.71 41.7914C303.31 41.2614 309.22 40.0014 301.48 40.9414C296.71 40.7114 300.4 39.7114 302.28 39.2614C299.046 39.7986 295.764 39.9896 292.49 39.8314C289.54 39.7614 286.95 39.5514 284.92 39.6214L288.7 38.9414C286.48 39.3514 284.65 39.4514 282.78 39.6414L285 40.4014C282.79 40.4014 280.94 40.6014 280.94 40.2014C278.75 41.0314 282.81 41.6114 278.43 42.8814C275.43 42.6514 269.65 44.3614 268.5 43.2014C277.69 42.6014 267.34 42.0614 275.07 40.9914C273.251 41.351 271.404 41.5517 269.55 41.5914C269.21 41.4814 269.83 41.2914 270.42 41.1514C265.97 41.0714 265.01 41.6214 264.02 42.2314C263.03 42.8414 262.02 43.5714 257.52 44.2314C258.57 43.3614 255.23 43.2314 253.77 43.5814C257.42 43.0514 255.69 44.4914 252.44 45.5214C246.58 45.9314 246.23 46.9414 243.21 47.4214C244.37 47.2914 245.53 47.1814 246.69 47.0814C245.69 47.9614 242.76 48.3914 238.8 49.3414C238.36 48.8614 242.37 48.3414 240.9 48.3414C238.79 49.3414 236.22 49.4914 233.43 49.6914C232.03 49.7814 230.58 49.8714 229.1 50.0714C227.574 50.2838 226.073 50.6489 224.62 51.1614C221.62 51.3214 224.05 49.9214 221.47 50.1614C214.78 52.6814 213.75 50.9714 206.71 53.5814C209.04 53.9914 209.32 53.5814 204.51 55.8914C206.44 55.2314 208.39 54.6214 210.34 54.0114C212.29 53.4014 214.23 52.7714 216.19 52.2014C213.75 53.2014 211.34 54.3714 208.92 55.4614C210.71 55.0114 212.55 54.3814 214.23 53.8114C215.627 53.3266 217.053 52.9292 218.5 52.6214C215.05 54.2514 215.38 53.9214 217.27 54.2914C214.716 54.3238 212.196 54.8856 209.87 55.9414C207.35 57.0088 204.706 57.7579 202 58.1714L201.53 55.8514C192.77 57.2514 186.89 61.3714 175.95 64.5614C177.15 64.2814 178.34 64.0014 179.55 63.7514C178.97 64.4314 177.32 65.0314 175.41 65.6914C173.436 66.2752 171.505 66.9936 169.63 67.8414C169.63 66.9714 167.41 67.5214 165.76 67.6214C166.14 68.0614 157.96 70.6214 157.6 72.4914L152.51 73.4914C143.87 76.7814 143.8 79.7514 135.77 83.3614C137.77 81.4214 133.91 82.6614 138.99 79.5314C136.31 80.7814 133.87 81.8714 134.07 82.3714C132.28 82.6614 127.25 87.0214 124.51 87.6414C123.58 88.5414 123.62 89.4714 120.68 90.9914C120.29 90.9914 120.5 90.6414 120.5 90.6414C120.66 90.9614 116.26 93.6414 119.2 92.9914C114.66 94.1514 109.2 97.3914 104.01 100.821C101.41 102.501 98.9 104.271 96.54 105.731C94.5115 107.101 92.3507 108.263 90.09 109.201C84.94 113.111 78.97 118.111 74.51 121.941C74.64 121.521 74.27 121.621 75.17 120.941C68.51 125.601 72.81 125.821 65.46 131.321C61.16 133.561 68.58 127.501 66.1 129.131C64.77 128.601 62.76 130.551 60.45 133.051C59.3 134.321 58.08 135.721 56.8 137.051C55.6232 138.304 54.3043 139.415 52.87 140.361L53.81 139.171C49.81 141.971 46.54 148.271 41.52 154.171C41.52 154.171 41.58 153.731 41.24 153.891C40.64 155.111 39.86 156.561 38.94 158.131L35.94 163.131L34.28 165.761L32.66 168.431C31.57 170.181 30.55 171.921 29.66 173.531C30.06 171.041 31.04 170.401 29.41 171.021C27.73 173.911 31.29 171.101 28 176.851C27.21 177.631 26.09 178.971 25 180.131C23.91 181.291 22.94 182.311 22.3 182.321L23.83 179.551L25.43 176.831C23.9272 178.073 22.7699 179.682 22.07 181.501C21.19 183.371 20.45 185.321 19.59 186.761L19.24 186.091C17.7346 189.041 16.5543 192.146 15.72 195.351C14.8243 198.702 13.6983 201.986 12.35 205.181L13.19 204.361C13.0856 205.444 12.8712 206.513 12.55 207.551C12.3248 208.178 12.0189 208.773 11.64 209.321C10.6268 210.761 10.0504 212.462 9.98 214.221L7.98 215.381C7.76 216.301 7.57 217.591 7.31 219.091C7.05 220.591 6.76 222.311 6.53 224.091C6.3 225.871 5.98 227.801 5.78 229.671C5.58 231.541 5.29 233.351 5.11 235.021C4.89107 232.356 4.94132 229.676 5.26 227.021C5.45 225.491 5.64 223.931 5.82 222.441C6 220.951 6.27 219.561 6.42 218.331C6.17 219.231 5.81 220.441 5.48 221.801C5.15 223.161 4.84 224.671 4.55 226.121C4.05584 228.302 3.83746 230.536 3.9 232.771C3.93507 231.136 4.17015 229.51 4.6 227.931C4.69894 233.948 4.36475 239.963 3.6 245.931C2.86 245.531 2.34 246.521 1.92 248.331C1.47091 250.732 1.19354 253.161 1.09 255.601C0.78 261.291 0.98 267.801 0 270.601C1 277.181 1.68 283.691 2.75 290.461C3.78575 297.635 5.48983 304.695 7.84 311.551C8.13 308.551 8.49 309.641 9.03 311.231C9.57 312.821 10.42 314.911 11.41 314.041L12.85 317.581C13.0472 318.009 13.1787 318.464 13.24 318.931L13.9 321.561L14.65 324.181L15.4 326.801L16.24 329.391C16.72 332.021 14.24 326.561 13.94 327.071C15.52 330.671 15.67 331.521 15.59 332.071C15.51 332.621 15.23 332.981 16.16 335.451C16.3 334.781 16.9 335.251 17.68 336.401C18.7055 338.006 19.6241 339.676 20.43 341.401L19.37 338.401C19.03 337.401 18.72 336.401 18.37 335.341C19.5667 337.065 20.6426 338.869 21.59 340.741C22.25 342.171 22.59 343.331 23.03 344.481C23.4368 345.763 23.9451 347.01 24.55 348.211C25.5885 350.066 26.8113 351.812 28.2 353.421L25.54 350.941C26.42 352.081 27.54 353.771 28.92 355.641C29.61 356.581 30.33 357.581 31.08 358.641L33.47 361.711C35.0389 363.689 36.7077 365.584 38.47 367.391C39.7893 368.784 41.2659 370.019 42.87 371.071C43.29 372.011 43.63 373.471 41.87 371.661C46.4764 377.135 51.5306 382.216 56.98 386.851C62.32 391.591 67.55 395.851 71.13 399.661L69.96 399.461C72.02 400.941 73.96 401.461 76.08 403.861C75.8 403.951 74.92 403.691 75.8 404.451C76.39 404.781 77.86 405.621 79.47 406.671C81.1217 407.647 82.6784 408.776 84.12 410.041L81.45 408.851C85.6027 412.42 90.1727 415.473 95.06 417.941C97.19 419.051 99.3 420.041 101.45 421.131C103.6 422.221 105.84 423.331 108.22 424.681C107.74 425.421 109.64 427.241 112.22 429.241C114.8 431.241 118.04 433.331 120.22 434.661L119.95 434.801C125.9 438.159 132.098 441.058 138.49 443.471C144.41 445.771 150.3 447.721 156.92 450.111C160.6 452.631 167.41 455.601 175 458.351C182.59 461.101 190.89 463.791 197.51 466.241C195.51 465.311 198.22 465.051 200.67 465.541C202.491 466.115 204.358 466.533 206.25 466.791C208.02 467.111 209.3 467.441 208.84 468.161L207.72 467.831C208.72 468.911 210.89 469.771 213.45 470.531C216.01 471.291 218.98 471.861 221.56 472.481L222.87 470.641C229.26 473.641 238.24 475.161 246.43 476.231C254.62 477.301 262.07 477.911 265.64 479.761C269.01 479.681 273.12 480.101 276.45 479.951L276.16 481.061C280.75 481.631 284.16 482.061 287.92 482.401C291.68 482.741 295.65 482.961 301.37 483.131L299 483.821C305.45 484.191 307.27 480.971 313.18 481.041L314.92 482.771C326.13 482.991 337.57 484.331 348.6 482.261C348.43 482.521 348.12 483.021 346.3 483.171C348.95 483.111 354.08 483.091 358.3 482.821C362.52 482.551 365.79 481.931 364.74 480.821C364.99 482.371 376.3 479.941 382.22 478.551L381.42 479.761C383.88 478.761 385.12 478.121 386.64 477.611C388.865 476.913 391.133 476.359 393.43 475.951C395.12 475.851 395.02 476.621 392.76 476.661C398.42 476.421 396.95 475.021 403.76 474.481L401.37 475.601C407.1 474.751 406.59 474.431 409.57 473.041C413.07 471.991 420.38 471.221 421.44 472.041C422.08 471.281 425 469.791 428.39 469.341C428.92 469.621 427.76 470.111 427.18 470.341C436.81 468.921 440.87 465.751 447.56 465.041C447.79 465.361 448.26 465.421 448.82 465.381C445.11 466.381 441.74 467.271 439.36 467.841C438.223 468.18 437.064 468.438 435.89 468.611C436.14 469.611 442.23 468.231 437.76 470.851C442.46 468.851 450.28 465.081 456.22 463.751C456.514 463.75 456.806 463.787 457.09 463.861L456.52 464.151C457.777 463.878 458.996 463.451 460.15 462.881C462.05 462.461 463.26 462.211 465.05 461.661C466 462.271 472 459.851 474.95 458.851C474.34 457.851 478.23 456.681 474.33 457.091C474.82 456.991 473.83 457.431 471.89 458.091C471.474 458.245 471.066 458.422 470.67 458.621C470.722 458.563 470.779 458.51 470.84 458.461C468.91 459.131 466.41 460.041 463.53 460.951C465.915 459.387 468.604 458.344 471.42 457.891C472.7 456.721 474.09 455.411 474.9 454.751C479.41 454.851 487.38 452.751 488.79 453.171C493.1 451.171 498.23 448.901 502.79 446.531C504.96 445.455 507.073 444.267 509.12 442.971C510.76 441.986 512.283 440.819 513.66 439.491C515.95 438.061 516.66 438.661 517.75 438.491C516.504 439.192 515.302 439.966 514.15 440.811C518.79 438.021 528.3 433.341 528.69 431.401C531.83 430.071 531.16 430.821 530.69 431.321C530.22 431.821 530.04 432.111 534.02 429.681L533.15 430.681C541.74 427.151 547.67 422.371 553.58 417.351C559.49 412.331 565.44 407.101 574.31 401.881C573.09 402.621 572.48 402.991 572.1 402.981C581.61 396.281 590.29 387.931 598.33 379.121C602.33 374.701 606.17 370.121 609.94 365.601L620.94 351.971C624.88 346.711 624.41 345.561 625.85 341.801C626.45 341.601 627.02 341.391 627.6 341.181C628.31 338.951 629.06 336.771 629.66 334.531C630.094 333.443 630.585 332.378 631.13 331.341C631.64 330.341 632.13 329.341 632.74 328.341L636.27 322.661C637.531 320.619 638.647 318.49 639.61 316.291C640.686 313.698 641.448 310.985 641.88 308.211L640.63 309.471C641 308.471 641.42 307.081 641.86 305.651C642.3 304.221 642.65 302.651 643.04 301.311C643.8 298.581 644.32 296.441 644.71 296.911C644.428 295.851 644.542 294.724 645.03 293.741H645.67C645.86 291.931 646.07 290.131 646.22 288.331L646.57 282.921C647.34 278.821 647.92 279.211 648.57 279.131C648.87 279.131 649.18 278.931 649.52 278.011C650.015 276.149 650.33 274.244 650.46 272.321C650.458 269.613 650.224 266.91 649.76 264.241C649.33 261.761 648.85 260.091 648.62 260.941C648.56 262.781 648.14 265.611 647.51 265.721L647.26 261.601C646.34 261.221 645.4 260.251 644.53 260.601C643.66 260.951 642.86 262.671 642.02 267.521C642.28 269.801 642.55 272.101 642.68 274.401L641.57 276.501C641.72 274.601 641.92 272.701 642.02 270.791C641.556 272.114 641.332 273.51 641.36 274.911C641.36 276.121 641.61 277.241 641.7 278.421C641.008 279.179 640.541 280.114 640.35 281.121C640.64 283.401 640.8 285.691 641.02 288.021C640.15 288.671 640.17 284.811 638.9 289.121C639.08 292.361 641.12 286.481 640.59 291.711C639.09 294.711 638.59 293.621 638.38 297.531C637.79 297.931 637.69 297.071 637.84 295.531C637.765 296.492 637.631 297.447 637.44 298.391L636.74 301.441C636.32 303.441 635.87 305.251 636.08 306.251C635.505 307.179 635.029 308.164 634.66 309.191C634.19 310.341 633.75 311.591 633.33 312.721C632.48 314.981 631.6 316.721 630.86 316.251C630.523 319.347 629.742 322.378 628.54 325.251C628.83 322.251 627.54 324.861 625.99 327.951C624.44 331.041 622.44 334.501 621.79 333.281C621.581 334.738 621.153 336.154 620.52 337.481C619.81 339.091 618.81 340.841 617.76 342.691L614.35 348.241C613.17 350.061 612.12 351.901 611.21 353.571C611.361 352.932 611.64 352.33 612.03 351.801C611.088 353.052 610.044 354.222 608.91 355.301C608.05 356.131 607.28 356.791 606.29 357.741C606.74 358.431 606.03 360.141 605 362.101C603.97 364.061 602.57 366.241 601.76 367.911C597.17 370.911 602.45 364.321 600.24 364.611C601.42 365.251 595.24 372.251 597.24 371.611C593.83 373.921 594.57 373.851 592.24 374.451C593.16 376.301 589.92 377.361 588.41 380.541C586 382.221 585.41 382.151 584.92 382.271C584.43 382.391 584.02 382.701 581.92 385.071C579.26 386.941 582.87 382.571 582.87 382.571ZM452.69 457.641L455.69 456.691L452.69 457.641ZM440.32 461.101C441.85 460.761 443.73 460.261 445.71 459.691C446.25 459.951 445.89 460.461 444.63 460.791C445.24 460.351 442.26 460.941 440.32 461.101V461.101ZM468.82 460.771C466.91 461.581 466.18 461.601 465.82 461.461C466.74 461.141 467.82 460.731 469.21 460.181C469.26 460.121 469.36 460.041 469.4 459.981C469.289 460.284 469.108 460.555 468.87 460.771H468.82Z" fill="#B4B4B4"/>
<path d="M471.87 458.191C472.124 458.06 472.384 457.943 472.65 457.841C472.21 457.841 471.81 457.931 471.4 457.991L470.82 458.561L471.87 458.191Z" fill="#B4B4B4"/>
<path d="M492.199 73.1815L491.949 73.0615C492.124 73.1564 492.282 73.2778 492.419 73.4215C492.34 73.3473 492.266 73.2671 492.199 73.1815V73.1815Z" fill="#B4B4B4"/>
<path d="M264.51 469.392L264.5 469.672L265.64 469.572L264.51 469.392Z" fill="#B4B4B4"/>
<path d="M553.051 110.031C553.196 110.326 553.4 110.588 553.651 110.801C553.496 110.512 553.293 110.252 553.051 110.031V110.031Z" fill="#B4B4B4"/>
<path d="M577.09 128.812L580.09 131.972C578.81 130.562 577.87 129.582 577.09 128.812Z" fill="#B4B4B4"/>
<path d="M593.66 145.332C593.879 145.394 594.111 145.394 594.33 145.332V145.332H593.66Z" fill="#B4B4B4"/>
<path d="M246.111 54.5415C245.813 54.5927 245.519 54.6629 245.231 54.7515C243.181 55.3515 244.581 55.0015 246.111 54.5415Z" fill="#B4B4B4"/>
<path d="M356.809 46.2114C355.619 46.3414 354.439 46.4714 353.199 46.5214C355.179 46.7314 356.719 46.8414 356.809 46.2114Z" fill="#B4B4B4"/>
<path d="M129.93 94.7212L129.26 95.0712L129.93 94.7212Z" fill="#B4B4B4"/>
<path d="M348.029 46.2315C349.739 46.501 351.471 46.5981 353.199 46.5215C351.487 46.2845 349.758 46.1876 348.029 46.2315V46.2315Z" fill="#B4B4B4"/>
<path d="M640.689 232.832L640.869 233.942C640.939 233.942 641.009 233.942 641.069 234.042L640.689 232.832Z" fill="#B4B4B4"/>
<path d="M641.07 234.031L641.41 235.221C641.385 234.805 641.269 234.399 641.07 234.031V234.031Z" fill="#B4B4B4"/>
<path d="M642.12 237.751L641.41 235.221C641.476 236.103 641.718 236.963 642.12 237.751V237.751Z" fill="#B4B4B4"/>
<path d="M632.311 203.371L631.801 203.201C631.865 203.27 631.945 203.322 632.034 203.351C632.123 203.381 632.218 203.388 632.311 203.371V203.371Z" fill="#B4B4B4"/>
<path d="M628.369 194.941C629.289 196.941 629.929 200.371 631.369 203.101L631.769 203.251C630.689 202.101 629.969 196.501 628.369 194.941Z" fill="#B4B4B4"/>
<path d="M611.699 158.721C613.289 160.881 614.759 163.141 616.259 165.351C615.789 163.971 615.149 162.121 617.419 165.031C614.919 160.541 615.029 161.101 615.009 161.711C615.009 162.021 614.949 162.331 614.519 162.041C613.464 161.037 612.519 159.924 611.699 158.721V158.721Z" fill="#B4B4B4"/>
<path d="M595.74 139.501C598.91 142.501 596.16 139.031 596.5 139.021C594.29 137.321 593.76 136.941 595.74 139.501Z" fill="#B4B4B4"/>
<path d="M439.22 54.8616L439.87 53.9416C436.63 53.2916 439.76 54.3516 439.22 54.8616Z" fill="#B4B4B4"/>
<path d="M404.711 52.9414C405.711 53.3214 406.711 53.7314 407.711 54.1314L409.371 53.4814L404.711 52.9414Z" fill="#B4B4B4"/>
<path d="M385.789 42.7216H387.259C385.399 42.6116 383.549 42.4716 381.689 42.3916C383.059 42.5016 384.419 42.6216 385.789 42.7216Z" fill="#B4B4B4"/>
<path d="M95.1191 104.152L96.6591 104.622C98.4191 103.202 98.0191 101.732 95.1191 104.152Z" fill="#B4B4B4"/>
<path d="M12.0508 203.812C10.4283 205.765 9.38867 208.135 9.05078 210.652C10.1708 207.882 11.6108 205.262 12.0508 203.812Z" fill="#B4B4B4"/>
<path d="M228.949 473.601L226.279 473.451C227.919 473.701 229.569 473.921 231.219 474.131L228.949 473.601Z" fill="#B4B4B4"/>
<g opacity="0.3">
<path opacity="0.8" d="M472.094 503.045C637.224 437.348 736.881 298.109 694.684 192.045C652.487 85.9816 484.414 53.2581 319.284 118.955C154.154 184.652 54.4967 323.892 96.6941 429.955C138.891 536.019 306.964 568.742 472.094 503.045Z" fill="#A9A9A9"/>
<path opacity="0.3" d="M690.92 194.681C691.64 195.351 692.37 194.511 691.26 192.381L689.09 191.461L690.92 194.681Z" fill="#B4B4B4"/>
<path opacity="0.3" d="M686.869 178.761C684.749 176.641 681.949 174.551 681.529 176.901C682.506 177.471 683.401 178.171 684.189 178.981C685.071 179.829 686.052 180.567 687.109 181.181C688.389 183.241 688.549 185.181 687.809 185.071C688.549 185.661 689.049 188.591 690.539 189.341C690.435 187.542 689.994 185.778 689.239 184.141C688.348 182.315 687.192 180.63 685.809 179.141C685.659 178.181 686.469 178.721 686.869 178.761Z" fill="#B4B4B4"/>
<path opacity="0.3" d="M479.949 83.9414L481.489 84.1114C480.982 84.0058 480.467 83.9489 479.949 83.9414V83.9414Z" fill="#B4B4B4"/>
<path opacity="0.3" d="M334.6 110.482C335.6 110.072 336.04 109.762 336.05 109.602C335.09 110.052 334.31 110.432 334.6 110.482Z" fill="#B4B4B4"/>
<path opacity="0.3" d="M310.25 117.881L311.68 117.421C311.171 117.444 310.677 117.602 310.25 117.881V117.881Z" fill="#B4B4B4"/>
<path opacity="0.3" d="M479.949 83.9412C478.629 83.7712 477.299 83.6312 475.949 83.5112C475.709 84.0812 478.009 83.8512 479.949 83.9412Z" fill="#B4B4B4"/>
<path opacity="0.3" d="M664.939 154.781C665.477 155.248 666.052 155.67 666.659 156.041L665.219 154.691C665.13 154.733 665.036 154.764 664.939 154.781V154.781Z" fill="#B4B4B4"/>
<path opacity="0.3" d="M545.369 87.2812L546.559 87.4812C546.944 87.3531 547.315 87.189 547.669 86.9912C546.869 87.0712 546.129 87.1912 545.369 87.2812Z" fill="#B4B4B4"/>
<path opacity="0.3" d="M594.319 99.7713C593.259 99.3313 592.409 100.521 591.789 100.951C592.649 100.646 593.584 100.621 594.459 100.881C594.512 100.696 594.527 100.503 594.503 100.312C594.479 100.121 594.416 99.9372 594.319 99.7713V99.7713Z" fill="#B4B4B4"/>
<path opacity="0.3" d="M661.311 142.872L662.481 143.702C662.171 143.492 661.681 143.102 661.311 142.872Z" fill="#B4B4B4"/>
<path opacity="0.3" d="M509.52 82.9416C509.444 82.72 509.291 82.5324 509.09 82.4116C509.08 82.5716 509.25 82.7516 509.52 82.9416Z" fill="#B4B4B4"/>
<path opacity="0.3" d="M696.869 249.862C696.969 249.862 697.029 249.862 697.119 249.862C696.999 249.582 696.869 249.492 696.869 249.862Z" fill="#B4B4B4"/>
<path opacity="0.3" d="M694.35 193.332L694.7 194.052C694.968 194.054 695.234 194.013 695.49 193.932L694.35 193.332Z" fill="#B4B4B4"/>
<path opacity="0.3" d="M267.26 136.001L267.45 135.931C268.47 135.221 267.87 135.571 267.26 136.001Z" fill="#B4B4B4"/>
<path opacity="0.3" d="M123.249 481.331C121.959 479.111 123.659 480.281 125.139 481.191C126.619 482.101 127.939 482.701 125.799 479.631C125.869 480.531 119.509 476.351 123.249 481.331Z" fill="#B4B4B4"/>
<path opacity="0.3" d="M664.229 153.721C663.779 153.251 663.319 152.721 662.879 152.261C663.289 152.783 663.741 153.271 664.229 153.721V153.721Z" fill="#B4B4B4"/>
<path opacity="0.3" d="M125.799 479.631L125.369 479.001L125.799 479.631Z" fill="#B4B4B4"/>
<path opacity="0.3" d="M178.969 197.291C179.393 197.286 179.811 197.194 180.199 197.021C180.079 196.941 179.779 196.941 178.969 197.291Z" fill="#B4B4B4"/>
<path opacity="0.3" d="M244.77 151.941L242.99 152.801C243.6 152.55 244.194 152.263 244.77 151.941V151.941Z" fill="#B4B4B4"/>
<path opacity="0.3" d="M150.65 227.832C149.876 228.413 149.201 229.115 148.65 229.912C148.803 229.858 148.948 229.784 149.08 229.692C149.432 228.945 149.973 228.303 150.65 227.832V227.832Z" fill="#B4B4B4"/>
<path opacity="0.3" d="M123.65 261.621C123.894 261.472 124.127 261.309 124.35 261.131L125.07 259.971L123.65 261.621Z" fill="#B4B4B4"/>
<path opacity="0.3" d="M651.629 365.522C652.292 365.12 653.025 364.849 653.789 364.722C652.599 364.642 655.959 359.472 651.629 365.522Z" fill="#B4B4B4"/>
<path opacity="0.3" d="M665.51 154.231C665.272 154.25 665.033 154.214 664.811 154.125C664.589 154.037 664.391 153.899 664.23 153.721C664.56 154.071 664.89 154.381 665.23 154.721C665.46 154.641 665.62 154.531 665.51 154.231Z" fill="#B4B4B4"/>
<path opacity="0.3" d="M157.711 236.562C156.151 238.142 154.651 239.782 153.141 241.402C154.471 240.092 156.101 238.302 157.711 236.562Z" fill="#B4B4B4"/>
<path opacity="0.3" d="M398.4 520.431L399.87 519.941C399.351 520 398.851 520.167 398.4 520.431V520.431Z" fill="#B4B4B4"/>
<path opacity="0.3" d="M140.869 256.832C139.759 257.483 138.749 258.292 137.869 259.232C137.769 259.501 137.711 259.784 137.699 260.072C138.699 258.942 139.759 257.942 140.869 256.832Z" fill="#B4B4B4"/>
<path opacity="0.3" d="M674.129 325.941C672.709 328.731 672.719 329.571 673.189 329.941C673.659 330.311 674.529 330.221 674.679 331.061C673.109 334.521 672.389 335.121 671.799 335.061C671.209 335.001 670.799 334.351 669.739 335.231C667.859 339.541 667.419 343.511 665.479 346.461C665.079 346.521 664.619 347.041 664.729 346.161C663.359 351.231 656.639 358.571 654.629 364.331C654.391 364.515 654.108 364.632 653.809 364.671C654.268 364.552 654.751 364.561 655.204 364.699C655.658 364.837 656.064 365.097 656.379 365.451C654.719 367.801 654.099 370.451 652.479 370.571C653.126 369.828 653.481 368.876 653.479 367.891L652.059 370.601C649.059 371.691 654.059 366.981 653.059 366.201C649.989 371.201 646.869 377.481 643.549 380.591C642.599 380.401 644.179 378.301 645.359 376.691C646.539 375.081 647.279 373.941 644.829 375.801C646.429 374.131 648.069 372.481 649.649 370.801C644.309 373.321 652.359 367.601 647.139 369.671C645.014 372.062 643.05 374.591 641.259 377.241C640.529 378.241 639.799 379.321 638.859 380.511C637.919 381.701 636.739 383.011 635.159 384.641C634.519 386.801 636.659 385.051 636.009 387.221C632.299 392.611 629.739 393.731 627.569 394.581C625.399 395.431 623.569 395.971 621.049 400.151C620.589 401.421 620.549 402.601 619.929 403.961C619.309 405.321 618.119 406.881 615.249 408.791L615.599 405.791C609.069 411.701 613.849 411.291 606.109 416.581C606.849 414.931 610.819 411.431 609.689 412.161C604.249 415.081 607.289 415.831 603.819 418.891L601.979 418.241C595.099 424.621 587.819 432.121 579.639 438.661C579.799 437.901 580.899 436.401 578.639 437.461C568.639 446.041 555.639 453.611 544.329 459.331L540.959 463.111C539.959 463.691 538.819 463.611 539.729 462.751C535.189 464.751 539.979 463.681 538.229 465.381C535.849 466.901 534.599 466.541 535.909 465.261C531.475 468.77 526.83 472.002 521.999 474.941C519.309 476.591 516.529 478.081 513.889 479.411C511.485 480.59 508.998 481.592 506.449 482.411L507.859 481.211C505.454 482.151 503.296 483.629 501.549 485.531C499.878 487.345 497.676 488.584 495.259 489.071L496.309 488.301C481.959 494.351 466.379 501.971 454.439 503.911C453.739 505.311 450.009 506.341 446.439 507.441C442.869 508.541 439.529 509.561 439.499 511.131C430.559 512.401 432.859 511.221 420.589 513.741C417.339 514.491 416.299 516.871 412.359 518.191L411.869 516.721C410.199 517.721 408.529 518.721 406.869 519.721L403.529 518.631L399.869 519.941C401.389 519.681 403.219 519.851 403.089 520.341C400.014 521.365 396.815 521.97 393.579 522.141C390.579 522.321 388.309 522.141 388.159 521.761C385.869 522.471 383.579 523.131 381.279 523.761C378.979 524.391 376.669 525.071 374.359 525.681C374.559 525.001 376.889 524.411 378.669 523.681C371.439 526.571 377.029 522.331 370.399 524.951C371.399 525.131 370.059 525.951 369.949 526.271C367.348 526.143 364.741 526.284 362.169 526.691C359.039 527.041 355.649 527.691 352.759 528.171L353.759 526.981C343.259 528.031 331.659 529.861 319.809 530.361C324.069 530.641 323.199 532.531 319.709 532.881L318.249 531.301C316.029 532.381 321.919 531.801 317.339 533.181C312.869 533.181 314.339 531.431 316.819 530.811L311.439 531.541C311.119 531.061 312.379 530.791 312.689 530.151C310.489 531.221 303.409 528.661 300.229 530.371L299.929 529.881L285.709 529.761C281.709 529.701 277.939 529.651 273.139 529.281C272.989 529.971 271.979 530.171 270.629 530.281C269.111 530.328 267.601 530.519 266.119 530.851C259.119 529.651 251.439 527.521 243.049 526.131C237.049 525.721 241.109 526.981 238.289 527.311C238.099 525.961 229.739 524.311 234.289 524.311C229.289 523.311 226.089 522.641 222.569 521.901C220.799 521.551 218.949 521.151 216.749 520.691C214.549 520.231 212.009 519.691 208.829 518.981C210.019 519.881 211.469 520.571 210.549 520.741C208.219 520.281 205.549 518.601 206.119 518.131L206.749 518.201C199.529 516.871 191.939 513.031 185.019 509.031C178.099 505.031 171.799 500.911 166.179 499.231L166.809 499.431L161.339 497.011C159.559 496.141 157.739 495.291 155.959 494.401C151.559 491.141 159.199 495.401 156.299 492.501C151.367 490.251 146.818 487.241 142.819 483.581L140.189 481.241C139.329 480.451 138.479 479.641 137.599 478.871C135.799 477.331 134.019 475.701 131.859 474.151C130.309 469.951 125.409 464.891 120.669 459.151C115.929 453.411 111.339 446.981 109.859 441.661L109.389 442.661C107.239 440.661 108.259 439.431 107.489 437.541C106.999 438.111 108.159 440.601 106.939 439.271C100.954 428.621 97.023 416.942 95.3491 404.841C93.7071 392.693 93.603 380.386 95.0391 368.211C95.288 366.639 95.2337 365.033 94.8791 363.481C94.6278 362.555 94.2897 361.654 93.8691 360.791C93.4308 359.811 93.2189 358.745 93.2491 357.671C93.4225 355.609 93.9116 353.585 94.6991 351.671C95.0191 352.821 95.4291 353.971 95.7991 355.111C96.2091 346.051 98.4891 336.961 101.409 328.191C104.329 319.421 107.869 310.941 110.959 302.491C110.849 303.621 111.279 303.851 110.529 305.431C111.349 304.458 112.044 303.386 112.599 302.241C113.279 300.911 113.939 299.431 114.529 298.021C115.649 295.201 116.419 292.691 116.009 292.431C117.439 290.021 117.099 292.281 118.349 291.011C120.769 288.011 121.759 282.011 123.859 280.851C124.199 280.661 123.639 281.971 123.359 282.611C124.079 280.151 129.609 272.921 127.169 274.161C131.419 268.881 133.909 263.081 137.819 259.231C138.219 257.331 140.179 255.161 141.819 253.161C143.459 251.161 144.989 249.411 144.489 248.281C145.879 250.011 153.489 240.281 155.589 236.421C155.129 237.941 158.589 234.131 158.199 236.011C159.636 234.415 160.992 232.746 162.259 231.011C163.189 229.651 163.529 228.721 162.819 228.631C166.909 226.291 169.689 222.701 172.289 219.551C174.889 216.401 177.239 213.701 180.289 213.231C185.209 207.841 190.199 202.861 195.179 198.131C200.159 193.401 205.179 189.031 210.339 184.851C210.839 185.901 207.959 188.131 205.239 190.341C202.519 192.551 199.929 194.711 200.909 195.471C203.199 193.361 205.189 191.391 207.079 189.551C208.969 187.711 210.729 185.971 212.549 184.301C216.442 180.625 220.685 177.339 225.219 174.491C228.049 172.941 224.219 176.321 223.599 177.261C233.309 169.351 243.769 164.081 252.699 157.391C252.779 157.591 251.869 158.391 250.979 159.121C252.829 157.941 255.529 156.821 254.799 156.061L253.099 157.381C251.219 157.631 252.699 155.861 254.659 153.901C256.619 151.941 259.099 149.901 259.079 149.461C258.169 151.671 260.649 150.461 262.969 149.461C265.289 148.461 267.389 147.801 265.689 150.841C266.859 149.981 268.219 148.691 267.599 148.241C269.599 147.391 270.359 147.421 268.829 149.151C270.695 148.07 272.421 146.763 273.969 145.261C275.401 143.919 277.06 142.842 278.869 142.081C279.079 142.531 277.869 143.351 277.489 144.201C280.697 141.061 284.506 138.601 288.689 136.971C288.489 137.401 289.289 137.451 287.689 138.221C296.869 133.711 302.579 128.471 313.469 124.941C311.179 128.191 317.319 124.151 318.579 125.651C320.379 124.711 322.209 123.801 324.039 122.901H321.419C323.781 121.936 326.088 120.841 328.329 119.621C330.402 118.529 332.598 117.686 334.869 117.111L331.399 119.211L336.039 117.311L340.719 115.491L335.119 116.701C339.919 114.001 333.779 114.701 340.699 112.801C340.049 113.131 341.319 112.681 343.129 112.191C344.974 111.635 346.883 111.322 348.809 111.261V111.261C351.449 109.521 354.405 108.315 357.509 107.711C358.669 107.971 357.319 109.931 358.079 110.111C359.079 108.971 362.079 108.001 365.079 106.961C368.079 105.921 371.299 104.961 372.679 103.711C371.679 104.381 371.919 105.341 372.329 105.441L374.109 103.631C376.619 103.401 377.019 103.501 376.829 104.351C384.109 102.711 373.929 102.631 382.829 101.441C382.179 101.711 382.549 101.801 381.189 102.341C389.939 100.701 397.759 97.6113 405.919 96.6413C407.279 97.3413 405.549 97.7713 403.859 98.1913C402.169 98.6113 400.519 99.0113 402.029 99.5013C407.749 98.1413 413.629 96.5013 419.519 95.0413C425.266 93.57 431.116 92.5337 437.019 91.9413H434.889C435.499 90.5313 437.669 90.6013 440.349 90.7813C443.029 90.9613 446.269 91.3413 449.069 90.4213C447.689 90.7613 447.379 92.0713 447.719 91.7413C455.519 91.4313 463.529 89.6913 475.349 88.4813L473.899 89.2113C478.509 89.6213 486.009 89.3113 490.959 89.6713C492.439 88.9813 495.279 89.1913 493.579 88.1413C501.199 90.1413 508.449 90.0813 515.579 90.0213C522.709 89.9613 529.639 90.0213 536.129 92.6213C534.529 92.4013 532.229 92.6713 533.509 92.8513L539.259 93.3513L544.999 93.9713C544.289 92.6813 543.619 93.0413 541.359 91.7613C543.918 91.2958 546.542 91.3264 549.089 91.8513C543.809 91.6513 548.819 93.6913 550.889 94.7313C550.589 94.3113 551.419 94.0713 551.299 93.6813C554.069 95.2513 554.419 94.7713 555.079 94.2213C555.739 93.6713 556.689 93.0713 560.589 94.6613L560.029 95.1613C561.569 95.3513 563.089 95.4213 564.619 95.5513C566.205 95.6819 567.774 95.9768 569.299 96.4313C570.299 98.0713 565.939 96.2213 565.469 97.2413C570.009 98.2413 575.089 97.1213 578.799 99.6313C576.799 99.3713 574.019 98.6313 572.009 98.4613C576.009 101.221 576.639 100.961 579.839 102.211L579.519 102.081C581.979 103.081 584.389 104.081 586.799 105.171L585.039 104.171C588.359 103.411 591.229 104.301 594.279 105.381C597.572 106.821 601.038 107.829 604.589 108.381C596.659 107.381 602.939 109.041 601.799 110.211C602.639 110.791 603.719 111.481 604.459 112.031C605.199 112.581 605.589 113.031 605.109 113.031C606.831 113.313 608.462 113.998 609.869 115.031C611.642 116.195 613.656 116.94 615.759 117.211C615.759 117.751 619.239 119.061 617.929 119.761C622.339 121.631 617.329 118.491 617.929 118.141C619.873 118.687 621.724 119.523 623.419 120.621C625.279 121.701 627.089 123.101 629.029 124.481C632.997 127.659 637.303 130.389 641.869 132.621C643.869 133.751 645.469 134.691 646.869 135.421L650.779 137.421C653.722 138.793 656.5 140.494 659.059 142.491C659.849 143.781 659.059 143.691 658.179 143.281C657.299 142.871 656.109 142.181 656.109 142.181C657.435 143.856 658.875 145.436 660.419 146.911C661.819 148.341 663.349 149.591 665.049 151.021C664.139 150.651 664.499 151.581 664.989 152.931C667.439 155.421 667.919 153.471 670.379 157.481C669.063 157.221 667.797 156.752 666.629 156.091C669.629 158.891 672.929 161.461 675.779 164.691C675.779 166.121 673.269 163.341 671.869 162.541C675.099 166.051 679.689 172.111 681.529 172.731C681.119 171.731 680.729 170.801 680.269 169.861C681.269 171.291 679.809 171.231 678.879 170.301C675.759 167.471 675.879 165.171 676.149 164.681C676.819 165.451 677.539 166.191 678.149 166.991C678.224 165.776 677.87 164.573 677.149 163.591C676.27 162.249 675.228 161.02 674.049 159.931C672.799 158.701 671.419 157.461 670.049 156.271C668.783 155.154 667.578 153.969 666.439 152.721C667.519 152.891 668.639 153.051 669.719 153.261C667.869 152.051 666.009 150.861 664.149 149.721C663.589 148.391 663.769 146.901 666.149 148.901C665.489 147.659 664.53 146.601 663.359 145.821C662.319 145.125 661.472 144.175 660.899 143.061C660.709 142.641 660.899 142.701 661.259 142.921C660.039 142.061 658.879 141.171 657.629 140.371C658.559 140.621 658.079 138.771 659.869 140.841C657.788 138.312 655.272 136.175 652.439 134.531C650.249 133.121 648.439 132.221 647.799 130.661L648.409 130.971C647.075 129.984 645.636 129.146 644.119 128.471C643.399 128.201 643.229 128.351 643.119 128.581C642.869 129.071 642.849 129.781 638.999 128.211C638.199 126.211 637.399 124.041 636.499 122.021L634.769 122.721C633.839 122.071 632.019 120.781 632.679 120.481C628.529 119.211 632.949 121.411 630.349 121.001C629.216 119.93 627.964 118.99 626.619 118.201C625.169 117.351 623.619 116.551 622.219 115.781C619.349 114.331 617.019 113.001 616.999 111.651C614.749 111.811 621.239 114.781 615.709 112.911C615.539 111.381 613.969 110.751 611.969 110.101C609.649 109.585 607.441 108.657 605.449 107.361C607.389 106.701 611.449 109.361 607.339 106.171C605.499 106.621 603.339 105.571 601.079 104.261C598.819 102.951 596.489 101.421 594.419 100.931C593.609 102.571 585.579 98.4913 578.629 97.1413C578.939 96.8913 575.829 95.7613 571.849 94.3913L565.539 92.3913C563.429 91.7613 561.429 91.1413 559.859 90.6113L560.109 90.3613C558.479 91.8713 551.949 90.1513 547.039 89.6813C547.419 88.6813 548.369 88.3613 551.039 88.3713L546.469 87.5413C545.289 87.9413 543.809 88.0113 540.819 87.7413L542.179 86.5713C536.049 85.6913 529.669 86.3513 521.879 84.7013C521.339 85.9313 527.749 88.8713 519.419 88.8913C519.169 88.1913 518.969 86.9613 521.169 86.8913C519.84 87.0652 518.492 87.0417 517.169 86.8213C518.309 86.5313 519.449 86.2113 520.589 85.9413C517.049 85.1113 518.589 86.7513 515.789 86.4013C515.919 85.4013 513.719 85.5313 514.189 84.7813C514.929 84.7813 516.659 85.3913 517.789 85.0913C516.138 84.866 514.499 84.5556 512.879 84.1613C511.707 83.9141 510.576 83.5035 509.519 82.9413C509.769 83.5113 509.439 84.2613 507.059 84.2513C500.909 84.0313 505.009 82.9613 501.439 82.3013C499.919 82.8913 495.999 82.1113 495.869 83.5813C494.816 83.5795 493.807 83.1627 493.059 82.4213C491.449 82.7113 487.729 82.7513 484.849 82.9013C481.969 83.0513 479.959 83.4113 481.769 84.1713L482.579 84.2613L482.059 84.3313C471.709 85.9213 460.409 84.2213 450.139 85.7913V85.3013C447.089 85.8413 443.679 86.3013 440.509 86.7913C437.711 87.1655 434.956 87.8051 432.279 88.7013C430.479 88.9513 427.899 88.3913 428.589 87.7013C426.279 88.1913 425.019 88.6313 423.479 88.9513C421.238 89.3617 418.967 89.5957 416.689 89.6513C421.229 88.0113 414.939 89.1313 421.389 88.2513C418.319 88.4913 416.389 88.5313 414.489 88.7813C412.073 89.1131 409.716 89.7865 407.489 90.7813C409.489 89.1313 402.639 90.0513 399.849 91.0513C401.319 91.0513 402.779 91.0513 404.249 91.0513C401.069 91.8613 398.249 92.3613 395.369 92.8413L396.549 90.9413C393.534 91.126 390.55 91.663 387.659 92.5413C384.899 93.3813 382.329 94.4113 379.829 95.3713C377.459 96.3808 375.028 97.2392 372.549 97.9413C370.167 98.6482 367.68 98.9391 365.199 98.8013C362.309 100.801 371.999 97.8013 369.499 99.8713C363.879 101.151 357.429 100.641 355.679 101.141C353.074 101.521 350.615 102.58 348.549 104.211C346.439 105.928 343.95 107.117 341.289 107.681C342.489 107.921 343.919 109.051 338.289 111.621C332.789 113.301 330.769 111.621 334.049 109.961C335.339 109.451 336.049 109.411 336.049 109.621C337.739 108.801 339.969 107.751 337.599 107.901L337.079 108.711C334.159 109.041 326.699 111.881 328.079 110.321C324.159 112.321 326.669 111.871 329.809 111.051C327.999 111.491 326.399 111.951 324.929 112.451C323.459 112.951 322.099 113.451 320.739 114.031C318.009 115.101 315.289 116.271 311.639 117.441C312.889 117.291 314.189 117.511 313.069 117.961C307.729 119.711 306.729 120.521 306.159 121.181C305.589 121.841 305.499 122.461 302.069 124.081C297.769 125.001 302.619 121.481 295.939 125.271C291.429 126.631 294.379 124.271 295.889 123.041C293.161 124.761 290.215 126.106 287.129 127.041C284.359 127.941 281.869 128.591 280.019 129.361L283.139 127.361C281.483 128.408 279.759 129.344 277.979 130.161L280.399 130.301C278.399 131.041 276.729 131.891 276.539 131.431C274.899 133.121 278.939 132.431 275.479 135.361C272.629 136.081 268.029 139.951 266.409 139.011C274.669 135.291 264.779 138.081 271.459 134.291C269.939 135.302 268.312 136.144 266.609 136.801C266.239 136.801 266.729 136.371 267.219 136.011C263.029 137.401 262.369 138.301 261.749 139.331C261.129 140.361 260.559 141.561 256.629 143.731C257.189 142.391 253.989 143.291 252.809 144.181C255.979 142.411 255.039 144.621 252.499 146.841C247.169 149.121 247.359 150.451 244.729 151.901L247.849 150.431C247.299 151.781 244.769 153.131 241.519 155.431C240.859 155.021 244.359 153.131 242.989 153.621C239.989 157.241 233.579 157.501 228.989 161.811C226.259 162.891 227.849 160.561 225.509 161.621C223.741 163.333 221.673 164.706 219.409 165.671C217.06 166.664 214.914 168.081 213.079 169.851C215.499 169.601 215.619 169.151 212.079 173.081C215.179 170.541 218.279 167.971 221.449 165.501C219.639 167.421 217.859 169.351 216.099 171.321C219.049 169.221 221.959 166.321 223.859 165.321C221.379 168.191 221.529 167.731 223.509 167.571C220.969 168.231 219.079 169.821 217.199 171.571C215.32 173.51 213.138 175.132 210.739 176.371L209.139 173.891C201.369 177.971 197.739 184.281 188.649 190.831L191.759 188.951C191.549 189.881 190.239 190.951 188.679 192.241C187.057 193.465 185.523 194.801 184.089 196.241C183.699 195.241 181.749 196.481 180.179 197.051C180.489 197.271 178.939 198.611 177.369 200.171C175.799 201.731 174.289 203.571 174.579 204.631C173.052 205.431 171.532 206.251 170.019 207.091C167.474 209.152 165.387 211.719 163.889 214.631C162.453 217.463 160.542 220.026 158.239 222.211C159.299 219.591 156.019 221.941 159.559 217.211C157.509 219.281 155.559 221.041 156.029 221.551C155.219 221.961 154.029 223.661 152.829 225.411C151.629 227.161 150.269 229.031 149.019 229.701C148.519 230.901 149.019 231.881 146.819 234.281C146.439 234.421 146.469 233.951 146.469 233.951C146.819 234.281 143.619 238.221 146.319 236.791C144.085 238.195 142.065 239.913 140.319 241.891C138.379 244.031 136.459 246.441 134.639 248.891L131.949 252.511C131.069 253.701 130.219 254.861 129.359 255.921C127.911 257.855 126.232 259.605 124.359 261.131C120.999 266.541 117.089 273.131 114.229 278.131C114.169 277.661 113.819 277.861 114.469 276.981C111.999 280.141 112.069 281.611 111.979 283.111C111.889 284.611 111.759 286.251 109.179 289.971C105.579 293.281 110.699 285.341 108.799 287.591C107.069 287.361 105.799 289.831 104.589 292.961C103.939 294.511 103.299 296.231 102.589 297.861C101.902 299.43 101.004 300.897 99.9191 302.221L100.359 300.791C97.3591 304.621 96.8191 311.791 94.0191 318.791C94.0191 318.791 93.8691 318.341 93.5691 318.581C93.4937 320.179 93.3066 321.77 93.0091 323.341C92.7391 325.131 92.3691 327.061 91.9491 329.031C91.5291 331.001 91.1491 333.031 90.7491 335.031C90.3491 337.031 89.9791 338.971 89.6791 340.781C88.9691 338.271 89.8391 337.391 88.2291 338.431C87.6091 341.671 90.4291 338.001 89.3391 344.431C88.1891 346.341 86.7291 350.871 85.2691 351.271C85.5991 349.211 85.9891 347.171 86.3591 345.131C85.1791 346.511 84.8091 348.521 84.6191 350.551C84.6256 352.471 84.4684 354.388 84.1491 356.281L83.4391 355.751C83.2258 357.66 83.1323 359.581 83.1591 361.501C83.2191 363.041 83.3791 364.301 83.5191 365.581C83.6591 366.861 83.7991 368.141 83.8791 369.751C83.8791 370.561 83.9391 371.441 83.8791 372.441C83.8191 373.441 83.8791 374.571 83.8291 375.841L84.4491 374.841C85.3491 377.651 85.0591 378.791 84.7491 379.961C84.1947 381.623 84.2335 383.425 84.8591 385.061L82.9691 386.841C83.2791 388.681 83.9691 391.901 84.8491 395.421L87.5691 405.971C86.9392 404.955 86.4164 403.876 86.0091 402.751C85.4601 401.397 84.9828 400.015 84.5791 398.611C84.1691 397.141 83.7291 395.611 83.3691 394.191C83.0091 392.771 82.6891 391.371 82.3691 390.191C82.5598 392.831 82.8936 395.458 83.3691 398.061C83.4991 398.781 83.6291 399.481 83.7791 400.151C83.9291 400.821 84.1091 401.431 84.2791 401.991C84.4972 402.844 84.8338 403.662 85.2791 404.421C84.8591 402.991 84.0591 401.211 84.1491 399.711C86.3691 403.971 88.1491 409.581 89.9791 416.571C87.9791 416.441 88.9791 421.141 90.6791 426.511C92.3791 431.881 94.9991 437.781 94.8491 440.851C98.3291 446.481 101.379 452.201 104.849 458.031C108.463 464.253 112.716 470.082 117.539 475.421C116.109 469.421 120.609 478.661 122.209 475.881C124.779 478.261 125.689 479.231 125.759 479.601C126.759 481.071 127.889 482.491 128.969 483.941C130.049 485.391 131.199 486.771 132.329 488.191C133.649 490.551 129.329 486.461 129.149 487.191C131.979 489.881 132.399 490.661 132.529 491.271C132.659 491.881 132.469 492.341 134.219 494.321C134.149 493.551 134.929 493.691 136.119 494.401C137.732 495.394 139.234 496.557 140.599 497.871C139.229 496.211 137.849 494.571 136.519 492.871C138.35 493.863 140.061 495.061 141.619 496.441C142.606 497.334 143.51 498.315 144.319 499.371C145.125 500.45 146.063 501.424 147.109 502.271C148.753 503.59 150.574 504.671 152.519 505.481C151.379 505.121 150.209 504.801 149.079 504.401C150.319 505.081 152.079 506.071 154.079 507.261C156.079 508.451 158.339 509.691 160.639 510.891C165.269 513.231 170.059 515.191 173.069 515.251C173.799 516.001 174.619 517.321 172.299 516.451C178.229 519.581 185.299 521.961 192.089 523.951C198.879 525.941 205.239 527.681 209.959 529.871L208.789 530.291C211.219 530.831 213.309 530.151 216.089 531.711C215.859 531.971 214.929 532.161 216.029 532.511C216.689 532.581 218.369 532.671 220.259 532.901C222.142 533.101 223.999 533.496 225.799 534.081C224.799 534.141 223.799 534.221 222.869 534.251C228.016 535.919 233.38 536.825 238.789 536.941C241.159 537.031 243.469 537.061 245.859 537.091C247.049 537.091 248.259 537.151 249.509 537.221C250.759 537.291 252.039 537.351 253.379 537.481C253.019 539.691 263.019 541.731 268.049 542.481L267.849 542.771C274.547 543.51 281.296 543.657 288.019 543.211C294.279 542.871 300.369 542.211 307.279 541.721C311.589 542.891 318.899 542.951 326.839 542.621C334.779 542.291 343.339 541.481 350.299 541.371C348.149 541.221 350.449 539.621 352.849 539.111C356.129 539.201 361.519 536.441 361.279 538.511L360.129 538.631C362.829 540.281 369.379 538.781 374.519 537.951L374.919 535.201C381.919 535.991 390.649 533.911 398.489 531.731C406.329 529.551 413.319 527.291 417.349 528.011C420.349 526.521 424.269 525.441 427.209 523.911L427.429 525.321C431.849 524.211 435.159 523.371 438.679 522.321C442.199 521.271 445.949 519.991 451.229 518.031L449.379 519.731C455.429 517.731 455.619 513.281 461.029 511.191L463.409 512.561C473.729 508.691 484.829 506.141 494.029 499.911C494.029 500.271 493.949 500.961 492.339 501.761C493.539 501.241 495.339 500.571 497.279 499.761C499.219 498.951 501.349 498.071 503.229 497.191C506.979 495.401 509.749 493.621 508.229 492.731C509.229 494.411 518.549 487.851 523.389 484.301L523.219 485.961C525.039 484.021 525.909 482.891 527.069 481.791C528.803 480.28 530.659 478.915 532.619 477.711C534.159 477.051 534.439 477.961 532.339 478.711C537.509 476.591 535.469 475.491 541.609 472.711L539.899 474.711C544.899 471.901 544.249 471.711 546.379 469.221C548.19 467.821 550.169 466.652 552.269 465.741C554.419 464.741 556.409 464.131 557.109 464.431C557.359 463.431 559.399 460.821 562.389 459.281C563.029 459.431 562.179 460.341 561.739 460.801C565.122 458.986 568.264 456.751 571.089 454.151C573.319 452.018 575.879 450.259 578.669 448.941C578.878 449.064 579.116 449.129 579.359 449.129C579.602 449.129 579.84 449.064 580.049 448.941C573.909 453.391 568.819 456.761 569.229 456.341C569.949 457.411 575.149 454.111 572.129 458.341C573.899 456.561 576.129 453.961 578.669 451.501C580.979 449.044 583.562 446.86 586.369 444.991C586.661 444.904 586.965 444.863 587.269 444.871L586.869 445.361C587.937 444.677 588.906 443.849 589.749 442.901C591.185 442.071 592.567 441.152 593.889 440.151C594.499 440.341 595.979 439.371 597.589 438.091C599.199 436.811 600.949 435.231 602.149 434.271C601.069 433.361 604.279 430.971 600.659 432.471C601.099 432.241 600.319 432.971 598.789 434.301C598.459 434.591 598.152 434.905 597.869 435.241C597.869 435.171 597.869 435.091 597.949 435.011C596.439 436.321 594.409 438.011 592.089 439.821C593.598 437.437 595.718 435.5 598.229 434.211C598.869 432.521 599.609 430.721 600.069 429.771C602.66 428.928 605.167 427.846 607.559 426.541C609.999 425.271 612.109 424.171 612.929 424.251C614.549 422.551 616.329 420.721 618.169 418.881C620.009 417.041 621.809 415.101 623.529 413.231C625.249 411.361 626.779 409.451 628.059 407.681C629.197 406.139 630.134 404.459 630.849 402.681C632.459 400.561 633.489 401.001 634.479 400.581C633.629 401.881 632.339 403.171 632.019 404.021C633.639 401.891 636.279 398.971 638.449 396.311C640.619 393.651 642.279 391.241 641.989 390.141C646.989 385.661 640.799 394.091 646.609 386.971L646.219 388.271C653.219 382.351 656.929 375.761 660.579 369.031C664.229 362.301 667.869 355.451 674.689 347.941C673.769 349.011 673.319 349.551 672.899 349.621C679.619 340.351 684.959 329.751 689.459 318.901C691.719 313.481 693.809 308.001 695.799 302.541C697.789 297.081 699.799 291.681 701.799 286.331C702.61 284.3 703.041 282.138 703.069 279.951C703.069 278.441 702.789 277.201 702.709 275.191L704.459 274.091C704.329 271.781 704.049 269.461 703.839 267.181C703.839 262.401 705.209 258.451 706.249 254.041C706.509 252.941 706.759 251.811 706.969 250.651C707.179 249.491 707.299 248.271 707.379 247.011C707.488 245.697 707.488 244.376 707.379 243.061C707.274 241.605 707.047 240.16 706.699 238.741C706.389 239.281 706.079 239.811 705.749 240.341C705.749 239.251 705.669 237.861 705.569 236.341C705.469 234.821 705.309 233.341 705.169 231.931C704.929 229.141 704.729 226.991 705.349 227.281C704.982 226.881 704.71 226.404 704.553 225.885C704.395 225.366 704.356 224.818 704.439 224.281L705.209 224.041C704.729 222.301 704.209 220.581 703.689 218.871C703.169 217.161 702.549 215.481 701.979 213.791C701.319 209.731 702.129 209.851 702.809 209.521C703.489 209.191 704.069 208.401 702.419 202.521C701.932 201.292 701.371 200.093 700.739 198.931C700.409 198.301 700.059 197.681 699.739 197.081C699.419 196.481 698.999 195.911 698.639 195.391C697.219 193.311 696.059 192.011 696.109 192.891C696.709 194.601 697.259 197.391 696.559 197.771L694.759 194.121C693.549 194.201 692.109 193.751 691.229 194.491C690.672 195.086 690.37 195.876 690.389 196.691C690.358 198.428 690.502 200.163 690.819 201.871L692.529 204.791C693.089 205.791 693.599 206.791 694.139 207.791L693.639 210.141C693.099 208.371 692.589 206.591 692.029 204.821C691.889 208.151 693.379 209.771 694.509 211.821C693.992 212.73 693.798 213.788 693.959 214.821C695.119 216.761 696.309 218.731 697.409 220.761C696.639 221.681 695.159 218.211 695.359 222.571C696.879 225.421 696.899 219.341 698.359 224.251C697.729 227.581 696.759 226.741 698.099 230.351C697.539 230.931 697.099 230.181 696.659 228.751C697.196 230.633 697.575 232.556 697.789 234.501C698.069 236.501 698.329 238.261 698.999 239.101C698.716 240.131 698.565 241.193 698.549 242.261C698.489 243.471 698.549 244.761 698.549 245.941C698.469 248.291 698.289 250.181 697.199 249.941C698.101 252.853 698.51 255.895 698.409 258.941C697.319 256.031 697.099 258.891 696.629 262.221C696.159 265.551 695.459 269.371 694.179 268.421C694.633 269.81 694.79 271.278 694.639 272.731C694.522 274.643 694.271 276.544 693.889 278.421C693.689 279.421 693.479 280.481 693.279 281.521L692.589 284.641C692.189 286.721 691.759 288.731 691.589 290.641C691.436 290.002 691.468 289.333 691.679 288.711C690.359 292.651 689.269 293.571 688.039 295.951C688.899 296.511 688.919 298.351 688.679 300.521C688.439 302.691 687.959 305.191 687.889 307.051C684.289 311.131 686.889 303.311 684.579 304.181C685.359 304.341 684.959 306.541 684.579 308.551C684.199 310.561 683.729 312.401 684.669 311.851C682.109 315.001 682.799 314.721 680.519 315.901C681.519 316.711 681.219 317.581 680.709 318.701C679.927 319.983 679.464 321.434 679.359 322.931C675.779 327.481 676.669 323.211 674.529 329.071C673.529 330.191 673.439 329.441 673.639 328.411C673.758 327.58 673.921 326.755 674.129 325.941V325.941ZM579.869 439.101L582.279 437.171C581.799 437.541 581.109 438.111 579.869 439.101ZM569.689 446.521C570.969 445.671 572.549 444.601 574.169 443.391C574.809 443.521 574.719 444.211 573.679 444.941C574.099 444.281 571.499 445.771 569.729 446.521H569.689ZM597.079 438.091C595.609 439.511 594.889 439.721 594.499 439.671C595.229 439.051 596.099 438.331 597.179 437.321C597.179 437.241 597.249 437.111 597.259 437.031C597.305 437.391 597.257 437.756 597.119 438.091H597.079Z" fill="#B4B4B4"/>
<path opacity="0.3" d="M598.789 434.341C598.969 434.125 599.162 433.921 599.369 433.731C598.969 433.901 598.599 434.071 598.229 434.251C598.139 434.531 598.039 434.811 597.949 435.051L598.789 434.341Z" fill="#B4B4B4"/>
<path opacity="0.3" d="M481.77 84.1616H481.49C481.689 84.1959 481.881 84.2599 482.06 84.3516C481.87 84.2616 481.87 84.2116 481.77 84.1616Z" fill="#B4B4B4"/>
<path opacity="0.3" d="M411.811 516.431L411.911 516.761L412.891 516.191L411.811 516.431Z" fill="#B4B4B4"/>
<path opacity="0.3" d="M550.869 94.7812C551.1 95.0171 551.385 95.1923 551.699 95.2912C551.457 95.0707 551.175 94.8977 550.869 94.7812Z" fill="#B4B4B4"/>
<path opacity="0.3" d="M579.869 102.261C581.159 102.831 582.459 103.391 583.739 104.011C582.482 103.358 581.19 102.774 579.869 102.261V102.261Z" fill="#B4B4B4"/>
<path opacity="0.3" d="M601.15 110.651C601.395 110.587 601.617 110.456 601.79 110.271V110.271L601.15 110.651Z" fill="#B4B4B4"/>
<path opacity="0.3" d="M250.97 159.151C250.718 159.305 250.474 159.472 250.24 159.651C248.59 160.941 249.75 160.131 250.97 159.151Z" fill="#B4B4B4"/>
<path opacity="0.3" d="M348.87 111.271C347.87 111.881 346.87 112.481 345.74 113.011C347.58 112.501 349.03 112.051 348.87 111.271Z" fill="#B4B4B4"/>
<path opacity="0.3" d="M158.219 236.031L157.719 236.581L158.219 236.031Z" fill="#B4B4B4"/>
<path opacity="0.3" d="M340.869 114.621C342.537 114.289 344.156 113.748 345.689 113.011C344.031 113.38 342.416 113.92 340.869 114.621V114.621Z" fill="#B4B4B4"/>
<path opacity="0.3" d="M677.15 170.701L677.71 171.631C677.749 171.606 677.794 171.593 677.84 171.593C677.886 171.593 677.932 171.606 677.97 171.631L677.15 170.701Z" fill="#B4B4B4"/>
<path opacity="0.3" d="M677.969 171.622C678.239 171.922 678.509 172.222 678.769 172.542C678.479 172.062 678.189 171.682 677.969 171.622Z" fill="#B4B4B4"/>
<path opacity="0.3" d="M680.4 174.521L678.77 172.521C679.131 173.318 679.692 174.007 680.4 174.521V174.521Z" fill="#B4B4B4"/>
<path opacity="0.3" d="M658.539 147.372L657.939 147.502C658.043 147.529 658.151 147.532 658.255 147.509C658.36 147.487 658.457 147.439 658.539 147.372V147.372Z" fill="#B4B4B4"/>
<path opacity="0.3" d="M651.719 141.321C652.489 142.081 653.329 143.191 654.279 144.321C655.221 145.517 656.283 146.613 657.449 147.591L657.939 147.491C657.159 147.281 656.169 145.901 655.079 144.491C653.989 143.081 652.769 141.681 651.719 141.321Z" fill="#B4B4B4"/>
<path opacity="0.3" d="M623.23 114.292C625.48 115.702 627.74 117.062 629.92 118.562C629.01 117.382 627.8 115.812 630.98 117.562C629.976 116.623 628.877 115.792 627.701 115.082C627.301 114.892 627.42 115.182 627.51 115.502C627.68 116.142 627.72 116.942 623.23 114.292Z" fill="#B4B4B4"/>
<path opacity="0.3" d="M601.279 103.182C605.279 104.582 601.539 102.422 601.849 102.232C599.139 101.712 598.489 101.592 601.279 103.182Z" fill="#B4B4B4"/>
<path opacity="0.3" d="M426.74 87.4516L426.98 86.1216C423.76 86.7616 427.02 86.6116 426.74 87.4516Z" fill="#B4B4B4"/>
<path opacity="0.3" d="M394.939 99.9914C396.019 99.9914 397.089 100.051 398.169 100.101L399.379 98.6514C397.869 99.0814 396.409 99.5214 394.939 99.9914Z" fill="#B4B4B4"/>
<path opacity="0.3" d="M373.48 95.8315L374.82 95.2915C373.1 95.9015 371.37 96.5015 369.65 97.1515C370.93 96.7015 372.2 96.2515 373.48 95.8315Z" fill="#B4B4B4"/>
<path opacity="0.3" d="M127.119 254.611L128.979 254.741C130.069 252.791 128.929 251.351 127.119 254.611Z" fill="#B4B4B4"/>
<path opacity="0.3" d="M82.9702 374.721C82.4598 375.772 82.1479 376.907 82.0502 378.071C81.8992 379.416 82.0251 380.777 82.4202 382.071C82.4202 380.591 82.6002 379.121 82.7602 377.841C82.9429 376.812 83.0134 375.766 82.9702 374.721V374.721Z" fill="#B4B4B4"/>
<path opacity="0.3" d="M381.62 536.102C380.81 536.432 379.99 536.782 379.17 537.102C380.75 536.682 382.32 536.211 383.9 535.771L381.62 536.102Z" fill="#B4B4B4"/>
</g>
<path d="M227.7 244.941V248.331L227.26 356.771C227.253 358.499 227.588 360.21 228.244 361.808C228.901 363.405 229.866 364.857 231.085 366.081C232.304 367.305 233.752 368.275 235.347 368.938C236.943 369.6 238.653 369.941 240.38 369.941H473.08C474.803 369.943 476.51 369.604 478.102 368.945C479.695 368.286 481.141 367.32 482.36 366.102C483.579 364.883 484.545 363.436 485.204 361.844C485.863 360.251 486.201 358.545 486.2 356.821V235.101C486.205 233.375 485.87 231.665 485.213 230.068C484.556 228.472 483.59 227.021 482.371 225.798C481.152 224.576 479.704 223.606 478.11 222.944C476.516 222.282 474.806 221.941 473.08 221.941H240.61C238.862 221.941 237.132 222.29 235.521 222.967C233.91 223.645 232.451 224.637 231.229 225.886C230.006 227.135 229.046 228.616 228.404 230.242C227.762 231.867 227.451 233.604 227.49 235.351L227.7 244.941Z" fill="#C3ECE4"/>
<path d="M236.699 219.481V357.481H414.699V225.481L236.699 219.481Z" fill="#63CCB3"/>
<path d="M474.699 223.481H423.699V357.481H474.699V223.481Z" fill="#63CCB3"/>
<path d="M248.199 183.941H284.199V232.941C284.199 232.941 268.199 259.941 248.199 232.941V183.941Z" fill="#F9D7B9"/>
<path d="M226.609 190.611L213.199 224.941C213.199 224.941 217.199 259.941 248.199 232.941V183.941H236.319C234.217 183.947 232.166 184.586 230.434 185.776C228.701 186.966 227.368 188.651 226.609 190.611V190.611Z" fill="#F9922B"/>
<path d="M485.789 190.621L499.199 224.941C499.199 224.941 495.199 259.941 464.199 232.941V183.941H476.079C478.183 183.946 480.235 184.586 481.968 185.778C483.701 186.971 485.033 188.659 485.789 190.621Z" fill="#F9D7B9"/>
<path d="M284.199 183.941H320.199V232.941C320.199 232.941 304.199 259.941 284.199 232.941V183.941Z" fill="#F9922B"/>
<path d="M320.199 183.941H356.199V232.941C356.199 232.941 340.199 259.941 320.199 232.941V183.941Z" fill="#F9D7B9"/>
<path d="M356.199 183.941H392.199V232.941C392.199 232.941 376.199 259.941 356.199 232.941V183.941Z" fill="#F9922B"/>
<path d="M392.199 183.941H428.199V232.941C428.199 232.941 412.199 259.941 392.199 232.941V183.941Z" fill="#F9D7B9"/>
<path d="M428.199 183.941H464.199V232.941C464.199 232.941 448.199 259.941 428.199 232.941V183.941Z" fill="#F9922B"/>
<path d="M371.72 271.651H290.9C284.273 271.651 278.9 277.024 278.9 283.651V309.151C278.9 315.779 284.273 321.151 290.9 321.151H371.72C378.348 321.151 383.72 315.779 383.72 309.151V283.651C383.72 277.024 378.348 271.651 371.72 271.651Z" fill="#F9922B"/>
<path d="M299.555 282.713H308.411C309.515 282.713 310.535 282.845 311.471 283.109C312.431 283.373 313.247 283.769 313.919 284.297C314.615 284.801 315.155 285.461 315.539 286.277C315.947 287.069 316.151 288.005 316.151 289.085C316.151 290.549 315.743 291.749 314.927 292.685C314.111 293.597 313.055 294.269 311.759 294.701V294.773C312.527 294.821 313.247 295.025 313.919 295.385C314.591 295.721 315.167 296.177 315.647 296.753C316.151 297.305 316.547 297.953 316.835 298.697C317.123 299.441 317.267 300.245 317.267 301.109C317.267 302.261 317.027 303.281 316.547 304.169C316.091 305.033 315.455 305.765 314.639 306.365C313.823 306.965 312.875 307.421 311.795 307.733C310.715 308.045 309.551 308.201 308.303 308.201H299.555V282.713ZM303.011 293.297H307.727C308.375 293.297 308.987 293.237 309.563 293.117C310.139 292.973 310.643 292.745 311.075 292.433C311.507 292.121 311.843 291.725 312.083 291.245C312.347 290.765 312.479 290.177 312.479 289.481C312.479 288.473 312.155 287.597 311.507 286.853C310.859 286.109 309.839 285.737 308.447 285.737H303.011V293.297ZM303.011 305.177H308.087C308.615 305.177 309.191 305.129 309.815 305.033C310.463 304.913 311.063 304.697 311.615 304.385C312.167 304.049 312.635 303.605 313.019 303.053C313.403 302.501 313.595 301.769 313.595 300.857C313.595 299.345 313.103 298.217 312.119 297.473C311.135 296.705 309.803 296.321 308.123 296.321H303.011V305.177ZM325.219 282.713V298.337C325.219 299.129 325.327 299.957 325.543 300.821C325.759 301.661 326.119 302.441 326.623 303.161C327.127 303.881 327.787 304.469 328.603 304.925C329.419 305.381 330.427 305.609 331.627 305.609C332.827 305.609 333.835 305.381 334.651 304.925C335.467 304.469 336.127 303.881 336.631 303.161C337.135 302.441 337.495 301.661 337.711 300.821C337.927 299.957 338.035 299.129 338.035 298.337V282.713H341.491V298.877C341.491 300.365 341.239 301.721 340.735 302.945C340.231 304.145 339.535 305.189 338.647 306.077C337.759 306.965 336.715 307.649 335.515 308.129C334.315 308.609 333.019 308.849 331.627 308.849C330.235 308.849 328.939 308.609 327.739 308.129C326.539 307.649 325.495 306.965 324.607 306.077C323.719 305.189 323.023 304.145 322.519 302.945C322.015 301.721 321.763 300.365 321.763 298.877V282.713H325.219ZM353.591 297.329L343.943 282.713H348.371L355.319 293.909L362.483 282.713H366.695L357.047 297.329V308.201H353.591V297.329Z" fill="white"/>
<path d="M193.469 308.472C196.67 307.519 199.634 305.904 202.169 303.732C204.069 302.102 207.499 298.592 206.639 297.042C205.639 295.332 200.269 297.492 199.349 295.742C198.849 294.802 200.119 293.652 202.179 290.352C204.239 287.052 206.179 283.862 206.319 279.912C206.319 278.582 206.459 275.672 204.689 274.522C202.919 273.372 200.009 274.782 199.689 274.952C193.919 278.042 193.749 287.952 193.049 287.852C192.519 287.762 193.319 282.442 191.909 275.852C191.509 273.962 190.689 270.162 189.569 270.142C187.469 270.142 185.939 283.322 184.399 283.192C183.399 283.112 183.809 277.672 180.269 271.332C179.199 269.422 178.009 267.332 176.729 267.472C174.729 267.672 173.429 273.342 173.139 277.472C172.499 286.472 176.139 293.312 174.769 294.012C173.709 294.542 171.599 290.642 169.869 291.232C168.139 291.822 167.769 296.431 168.869 300.051C169.594 302.31 170.905 304.336 172.669 305.922C179.979 312.462 191.869 308.942 193.469 308.472Z" fill="#18A357"/>
<path d="M191.52 308.631C193.57 308.035 195.472 307.012 197.1 305.631C198.32 304.581 200.51 302.331 199.96 301.331C199.41 300.331 195.88 301.621 195.29 300.491C194.97 299.891 195.78 299.151 197.1 297.031C198.42 294.911 199.67 292.871 199.76 290.331C199.76 289.491 199.85 287.611 198.76 286.881C197.67 286.151 195.76 287.041 195.55 287.161C191.85 289.161 191.74 295.501 191.29 295.431C190.84 295.361 191.47 291.961 190.56 287.721C190.3 286.501 189.78 284.071 189.06 284.051C187.71 284.051 186.73 292.511 185.74 292.431C185.11 292.371 185.36 288.881 183.09 284.821C182.41 283.591 181.64 282.251 180.82 282.341C179.52 282.471 178.7 286.101 178.52 288.761C178.1 294.561 180.45 298.921 179.52 299.371C178.84 299.711 177.52 297.211 176.38 297.591C175.24 297.971 175.03 300.931 175.75 303.241C176.212 304.696 177.054 306.001 178.19 307.021C182.87 311.201 190.5 308.941 191.52 308.631Z" fill="#077B46"/>
<path d="M201.17 314.151C201.52 315.421 201.72 317.151 196.97 329.551C195.55 333.261 194.19 336.611 191.47 343.311C187.25 353.701 187.87 352.311 186.68 355.171C183.59 362.511 181.59 366.501 177.59 374.481C175.229 378.742 172.456 382.761 169.31 386.481C168.368 387.688 167.155 388.658 165.77 389.311C165.32 389.521 162.9 390.631 160.99 390.011C157.99 389.011 157.06 384.141 156.69 381.851C154.4 367.711 156.24 348.481 156.49 345.851C157.49 335.461 160.37 325.301 161.17 314.851C161.32 312.931 161.61 308.621 164.71 305.331C167.64 302.241 171.57 301.631 174.35 301.201C180.757 300.335 187.263 301.751 192.73 305.201C196.21 307.461 199.98 309.841 201.17 314.151Z" fill="#F9922B" stroke="#F9922B" stroke-width="2" stroke-miterlimit="10" stroke-linecap="round"/>
<path d="M190.45 323.881C190.37 324.041 189.55 323.541 186.25 322.701C185.042 322.368 183.816 322.101 182.58 321.901C180.37 321.581 177.53 321.451 177.2 321.431C175.72 321.371 175.2 321.431 175.15 321.211C175.05 320.781 177.45 319.511 179.71 319.211C185.35 318.401 190.68 323.461 190.45 323.881Z" fill="#E2662E"/>
<path d="M168.131 379.451C168.131 379.511 167.801 379.301 166.541 378.921C166.085 378.765 165.621 378.635 165.151 378.531C164.311 378.361 163.221 378.261 163.091 378.241C162.521 378.191 162.321 378.191 162.311 378.111C162.301 378.031 163.221 377.511 164.101 377.431C164.885 377.419 165.661 377.596 166.363 377.948C167.064 378.3 167.671 378.815 168.131 379.451V379.451Z" fill="#E2662E"/>
<path d="M170.76 341.941C170.76 341.991 170.42 341.791 169.17 341.401C168.715 341.246 168.251 341.119 167.78 341.021C166.93 340.851 165.84 340.741 165.71 340.731C165.15 340.671 164.95 340.671 164.93 340.601C164.91 340.531 165.85 339.991 166.73 339.921C167.514 339.911 168.29 340.089 168.991 340.44C169.692 340.792 170.299 341.307 170.76 341.941V341.941Z" fill="#E2662E"/>
<path d="M170.089 370.021C170.039 370.121 169.539 369.781 167.509 369.151C166.765 368.9 166.007 368.693 165.239 368.531C163.869 368.251 162.109 368.081 161.899 368.051C160.979 367.961 160.649 367.961 160.629 367.841C160.609 367.721 162.119 366.841 163.539 366.741C167.089 366.431 170.249 369.771 170.089 370.021Z" fill="#E2662E"/>
<path d="M178.789 356.941C178.709 357.071 178.039 356.601 175.249 355.741C174.236 355.401 173.204 355.117 172.159 354.891C170.289 354.511 167.869 354.271 167.579 354.241C166.319 354.121 165.879 354.121 165.849 353.961C165.779 353.591 167.849 352.611 169.849 352.441C174.679 351.941 178.999 356.541 178.789 356.941Z" fill="#E2662E"/>
<path d="M135.689 311.681C137.639 309.947 139.2 307.821 140.269 305.441C141.069 303.651 142.269 300.031 141.199 299.221C140.129 298.411 136.849 301.661 135.609 300.721C134.949 300.221 135.469 298.991 135.819 295.981C136.169 292.971 136.489 290.061 135.269 287.221C134.869 286.271 133.969 284.171 132.329 283.951C130.689 283.731 129.109 285.691 128.939 285.951C125.939 290.061 129.059 297.121 128.529 297.271C127.999 297.421 126.929 293.371 123.729 289.151C122.809 287.951 120.969 285.541 120.169 285.891C118.669 286.561 121.989 296.421 120.859 296.891C120.139 297.161 118.599 293.191 113.989 289.891C112.609 288.891 111.069 287.821 110.209 288.341C108.849 289.161 109.829 293.591 110.999 296.611C113.549 303.211 118.409 306.801 117.649 307.761C117.079 308.481 114.299 306.431 113.269 307.421C112.239 308.411 113.509 311.801 115.499 313.981C116.768 315.336 118.372 316.333 120.149 316.871C127.489 318.991 134.729 312.531 135.689 311.681Z" fill="#18A357"/>
<path d="M134.371 312.442C135.619 311.328 136.62 309.965 137.311 308.442C137.821 307.302 138.62 304.972 137.9 304.442C137.18 303.912 135.11 306.002 134.32 305.442C133.89 305.122 134.221 304.332 134.451 302.442C134.836 300.571 134.715 298.631 134.1 296.822C133.83 296.212 133.26 294.822 132.21 294.722C131.16 294.622 130.141 295.842 130.031 295.992C128.081 298.622 130.11 303.152 129.77 303.252C129.43 303.352 128.77 300.752 126.69 298.042C126.1 297.272 124.921 295.722 124.411 295.952C123.411 296.382 125.581 302.712 124.851 302.952C124.381 303.122 123.401 300.572 120.451 298.452C119.561 297.812 118.571 297.122 118.021 297.452C117.141 297.982 117.771 300.822 118.521 302.762C120.161 306.992 123.27 309.302 122.79 309.912C122.31 310.522 120.641 309.062 119.981 309.702C119.321 310.342 120.131 312.512 121.411 313.902C122.232 314.772 123.266 315.413 124.411 315.762C129.101 317.132 133.751 312.992 134.371 312.442Z" fill="#077B46"/>
<path d="M143.02 313.131C143.69 313.911 144.4 315.051 145.18 325.411C145.41 328.511 145.56 331.331 145.87 336.971C146.35 345.721 146.33 344.561 146.43 346.971C146.68 353.181 146.6 356.671 146.43 363.641C146.174 367.43 145.551 371.184 144.57 374.851C144.301 376.017 143.767 377.105 143.01 378.031C142.222 379.06 141.113 379.795 139.86 380.121C137.42 380.441 135.13 377.271 134.11 375.781C127.79 366.551 122.69 352.341 122 350.431C119.24 342.751 117.91 334.611 115 326.981C114.46 325.571 113.23 322.431 114.33 319.081C115.33 315.911 117.94 314.181 119.76 312.951C124.007 310.211 129.084 309.053 134.1 309.681C137.29 310.061 140.75 310.481 143.02 313.131Z" fill="#F9922B" stroke="#F9922B" stroke-width="2" stroke-miterlimit="10" stroke-linecap="round"/>
<path d="M138.691 323.582C138.691 323.722 137.941 323.632 135.321 324.142C134.358 324.303 133.406 324.524 132.471 324.802C130.791 325.302 128.751 326.162 128.471 326.262C127.401 326.702 127.041 326.892 126.941 326.782C126.731 326.512 128.001 324.782 129.501 323.832C133.261 321.402 138.701 323.202 138.691 323.582Z" fill="#E2662E"/>
<path d="M141.4 370.282C141.4 370.332 141.11 370.282 140.09 370.432C139.717 370.471 139.346 370.534 138.98 370.622C138.33 370.782 137.53 371.072 137.43 371.102C137.01 371.252 136.87 371.322 136.83 371.272C136.79 371.222 137.28 370.542 137.83 370.192C138.388 369.917 139.005 369.782 139.626 369.798C140.248 369.813 140.857 369.979 141.4 370.282Z" fill="#E2662E"/>
<path d="M130.779 342.942C130.779 342.992 130.489 342.942 129.469 343.092C129.096 343.131 128.725 343.194 128.359 343.282C127.835 343.415 127.318 343.575 126.809 343.762C126.389 343.912 126.249 343.982 126.209 343.932C126.169 343.882 126.659 343.202 127.209 342.852C127.766 342.574 128.383 342.437 129.006 342.452C129.628 342.468 130.237 342.636 130.779 342.942Z" fill="#E2662E"/>
<path d="M139.65 362.941C139.65 363.031 139.18 362.941 137.53 363.181C136.921 363.251 136.316 363.358 135.72 363.501C134.66 363.761 133.35 364.221 133.2 364.281C132.52 364.521 132.29 364.631 132.2 364.551C132.11 364.471 132.93 363.361 133.89 362.801C136.33 361.421 139.67 362.731 139.65 362.941Z" fill="#E2662E"/>
<path d="M141.43 350.791C141.43 350.911 140.78 350.791 138.53 351.121C137.7 351.218 136.875 351.362 136.06 351.551C134.61 351.911 132.82 352.551 132.61 352.611C131.68 352.951 131.36 353.091 131.29 352.991C131.22 352.891 132.29 351.361 133.6 350.591C136.87 348.691 141.46 350.471 141.43 350.791Z" fill="#E2662E"/>
<path d="M518.649 371.482C529.529 371.482 538.349 362.662 538.349 351.782C538.349 340.902 529.529 332.082 518.649 332.082C507.769 332.082 498.949 340.902 498.949 351.782C498.949 362.662 507.769 371.482 518.649 371.482Z" fill="#EC5A3F"/>
<path d="M513.027 338.993C513.956 335.019 512.922 331.379 510.717 330.863C508.512 330.348 505.971 333.152 505.042 337.126C504.113 341.1 505.147 344.74 507.352 345.255C509.557 345.771 512.097 342.967 513.027 338.993Z" fill="#2FAB6A"/>
<path d="M517.9 343.82C520.029 343.027 520.596 339.274 519.168 335.438C517.739 331.601 514.856 329.134 512.727 329.926C510.599 330.719 510.031 334.471 511.46 338.308C512.888 342.144 515.772 344.612 517.9 343.82Z" fill="#2FAB6A"/>
<path d="M521.977 340.267C523.439 338.538 522.097 335 518.98 332.365C515.864 329.73 512.152 328.996 510.69 330.725C509.228 332.455 510.57 335.992 513.687 338.627C516.803 341.262 520.515 341.996 521.977 340.267Z" fill="#2FAB6A"/>
<path d="M507.15 328.072L507.28 328.122L507.14 328.062C507.207 328.098 507.278 328.128 507.35 328.152L507.75 328.372C507.899 328.452 508.043 328.542 508.18 328.642C508.23 328.642 508.43 328.852 508.25 328.692C508.07 328.532 508.25 328.692 508.31 328.742C508.558 328.949 508.792 329.173 509.01 329.412C509.06 329.472 509.1 329.532 509.16 329.592C509.22 329.652 509.01 329.392 509.16 329.592C509.31 329.792 509.36 329.862 509.45 330.012C509.612 330.273 509.759 330.543 509.89 330.822C510.04 331.112 509.77 330.492 509.89 330.822L509.98 331.032C510.03 331.182 510.07 331.322 510.11 331.472C510.16 331.632 510.2 331.796 510.23 331.962C510.225 332.038 510.225 332.115 510.23 332.192C510.23 332.382 510.23 331.832 510.23 332.112C510.255 332.444 510.255 332.779 510.23 333.112C510.229 333.309 510.267 333.505 510.342 333.687C510.417 333.87 510.527 334.036 510.667 334.175C510.806 334.315 510.972 334.425 511.155 334.5C511.337 334.575 511.533 334.613 511.73 334.612C512.125 334.601 512.5 334.44 512.78 334.161C513.059 333.882 513.22 333.506 513.23 333.112C513.304 331.41 512.833 329.728 511.885 328.313C510.937 326.897 509.562 325.821 507.96 325.242C507.577 325.137 507.168 325.189 506.823 325.386C506.478 325.583 506.225 325.909 506.12 326.292C506.022 326.668 506.07 327.068 506.256 327.409C506.442 327.751 506.751 328.009 507.12 328.132L507.15 328.072Z" fill="#2FAB6A"/>
<path d="M495.499 400.481C502.983 400.481 509.049 394.415 509.049 386.931C509.049 379.448 502.983 373.381 495.499 373.381C488.016 373.381 481.949 379.448 481.949 386.931C481.949 394.415 488.016 400.481 495.499 400.481Z" fill="#EC5A3F"/>
<path d="M491.639 378.131C492.277 375.399 491.566 372.897 490.049 372.543C488.533 372.188 486.786 374.115 486.147 376.847C485.508 379.579 486.22 382.081 487.736 382.436C489.253 382.791 491 380.863 491.639 378.131Z" fill="#2FAB6A"/>
<path d="M493.641 381.806C495.101 381.265 495.494 378.693 494.519 376.063C493.544 373.432 491.569 371.738 490.109 372.28C488.649 372.821 488.255 375.392 489.231 378.023C490.206 380.654 492.18 382.347 493.641 381.806Z" fill="#2FAB6A"/>
<path d="M497.787 378.991C498.792 377.802 497.87 375.369 495.728 373.558C493.585 371.747 491.033 371.242 490.028 372.432C489.022 373.621 489.944 376.054 492.087 377.865C494.229 379.676 496.781 380.18 497.787 378.991Z" fill="#2FAB6A"/>
<path d="M487.471 371.072L487.651 371.142L487.291 370.992C487.622 371.132 487.935 371.314 488.221 371.532L487.911 371.292C488.21 371.527 488.482 371.796 488.721 372.092L488.481 371.792C488.728 372.098 488.936 372.434 489.101 372.792L488.951 372.432C489.104 372.8 489.208 373.186 489.261 373.582L489.211 373.182C489.236 373.458 489.236 373.735 489.211 374.012C489.211 374.409 489.369 374.791 489.65 375.072C489.932 375.354 490.313 375.512 490.711 375.512C491.109 375.512 491.49 375.354 491.772 375.072C492.053 374.791 492.211 374.409 492.211 374.012C492.275 372.789 491.95 371.577 491.281 370.552C490.57 369.443 489.517 368.597 488.281 368.142C488.091 368.088 487.891 368.074 487.695 368.098C487.499 368.122 487.31 368.184 487.138 368.282C486.966 368.379 486.815 368.51 486.693 368.666C486.572 368.822 486.483 369.001 486.431 369.192C486.378 369.384 486.364 369.584 486.389 369.782C486.415 369.979 486.48 370.17 486.581 370.342C486.791 370.669 487.11 370.914 487.481 371.032L487.471 371.072Z" fill="#2FAB6A"/>
<path d="M559.449 382.812C565.8 382.812 570.949 377.663 570.949 371.312C570.949 364.96 565.8 359.812 559.449 359.812C553.098 359.812 547.949 364.96 547.949 371.312C547.949 377.663 553.098 382.812 559.449 382.812Z" fill="#EC5A3F"/>
<path d="M556.179 363.851C556.721 361.533 556.114 359.41 554.823 359.108C553.532 358.806 552.047 360.44 551.505 362.758C550.963 365.076 551.57 367.2 552.86 367.501C554.151 367.803 555.637 366.169 556.179 363.851Z" fill="#2FAB6A"/>
<path d="M557.874 366.965C559.116 366.504 559.453 364.322 558.626 362.09C557.798 359.858 556.12 358.422 554.877 358.883C553.634 359.343 553.298 361.526 554.125 363.758C554.952 365.99 556.631 367.426 557.874 366.965Z" fill="#2FAB6A"/>
<path d="M561.382 364.56C562.238 363.548 561.458 361.482 559.64 359.945C557.822 358.408 555.655 357.983 554.799 358.995C553.944 360.008 554.724 362.074 556.541 363.611C558.359 365.147 560.527 365.573 561.382 364.56Z" fill="#2FAB6A"/>
<path d="M552.57 362.072L552.72 362.132L552.37 361.982C552.65 362.1 552.912 362.254 553.15 362.442L552.85 362.202C553.101 362.403 553.329 362.631 553.53 362.882L553.3 362.582C553.51 362.852 553.685 363.148 553.82 363.462L553.67 363.102C553.803 363.422 553.893 363.758 553.94 364.102L553.88 363.702C553.905 363.934 553.905 364.169 553.88 364.402C553.889 364.798 554.046 365.176 554.32 365.462C554.605 365.738 554.984 365.895 555.38 365.902C555.777 365.897 556.157 365.739 556.44 365.462C556.707 365.171 556.863 364.796 556.88 364.402C556.935 363.324 556.648 362.257 556.06 361.352C555.792 360.907 555.455 360.509 555.06 360.172C554.566 359.739 553.996 359.4 553.38 359.172C553.191 359.117 552.992 359.101 552.796 359.125C552.6 359.148 552.411 359.211 552.239 359.309C552.068 359.407 551.917 359.538 551.797 359.695C551.677 359.851 551.59 360.03 551.54 360.222C551.487 360.414 551.473 360.614 551.499 360.812C551.525 361.009 551.59 361.2 551.69 361.372C551.897 361.699 552.212 361.943 552.58 362.062L552.57 362.072Z" fill="#2FAB6A"/>
<path d="M356.199 165.481C356.199 165.481 302.199 107.481 356.199 92.4814C410.199 107.481 356.199 165.481 356.199 165.481Z" fill="#F9922B"/>
<path d="M356.199 133.481C363.379 133.481 369.199 127.661 369.199 120.481C369.199 113.302 363.379 107.481 356.199 107.481C349.02 107.481 343.199 113.302 343.199 120.481C343.199 127.661 349.02 133.481 356.199 133.481Z" fill="white"/>
</svg>