<?xml version="1.0" standalone="no"?>
<!DOCTYPE svg PUBLIC "-//W3C//DTD SVG 20010904//EN"
 "http://www.w3.org/TR/2001/REC-SVG-20010904/DTD/svg10.dtd">
<svg version="1.0" xmlns="http://www.w3.org/2000/svg"
 width="944.000000pt" height="944.000000pt" viewBox="0 0 944.000000 944.000000"
 preserveAspectRatio="xMidYMid meet">
<metadata>
Created by potrace 1.14, written by Peter Selinger 2001-2017
</metadata>
<g transform="translate(0.000000,944.000000) scale(0.100000,-0.100000)"
fill="#000000" stroke="none">
<path d="M3699 9027 c-63 -26 -141 -112 -189 -207 -22 -44 -39 -81 -38 -82 0
-2 -4 -25 -11 -53 -17 -72 -19 -179 -4 -265 15 -87 18 -100 25 -120 48 -137
90 -239 129 -314 84 -159 101 -191 108 -196 3 -3 16 -26 28 -52 32 -68 7 -64
-60 9 -89 98 -407 416 -407 408 0 -4 -8 1 -17 11 -10 11 -40 37 -68 59 -27 21
-54 44 -60 49 -5 6 -39 31 -75 56 -36 24 -71 50 -78 56 -6 7 -21 16 -32 19
-11 3 -20 11 -20 16 0 5 -4 9 -10 9 -5 0 -34 16 -64 35 -30 19 -61 35 -68 35
-8 0 -23 7 -35 15 -30 21 -92 16 -105 -8 -17 -32 -2 -107 43 -212 7 -16 13
-32 14 -35 0 -3 15 -35 33 -72 18 -37 32 -71 32 -74 -1 -4 2 -10 7 -13 4 -3
19 -28 33 -56 13 -27 32 -62 43 -77 10 -16 15 -28 12 -28 -3 0 2 -12 13 -27
24 -35 119 -231 138 -286 26 -73 27 -104 6 -116 -15 -8 -32 -1 -88 36 -38 25
-71 49 -74 53 -3 3 -27 21 -55 40 -27 19 -52 36 -55 39 -7 8 -130 91 -134 91
-2 0 -33 17 -67 38 -35 21 -77 44 -94 52 -16 8 -32 17 -35 20 -3 3 -18 10 -35
16 -16 7 -64 25 -105 42 -83 34 -110 44 -125 48 -5 1 -29 9 -52 18 -24 8 -43
13 -43 10 0 -2 -9 0 -21 6 -28 16 -54 21 -126 25 -84 5 -118 -10 -142 -60 -10
-22 -16 -42 -12 -45 3 -3 7 -26 9 -53 7 -129 172 -439 346 -652 23 -27 48 -58
56 -69 59 -75 272 -275 391 -368 95 -73 110 -84 254 -187 155 -110 184 -134
209 -172 16 -25 15 -27 -2 -49 -17 -21 -26 -22 -172 -24 -203 -3 -228 -14
-250 -103 -5 -19 -3 -36 3 -42 6 -6 8 -11 4 -11 -11 0 38 -105 74 -157 30 -45
165 -185 218 -227 52 -40 143 -95 206 -122 59 -26 82 -44 55 -44 -5 0 -9 -3
-8 -7 1 -5 -11 -35 -26 -68 -59 -128 -86 -263 -81 -405 6 -144 29 -234 98
-380 33 -71 146 -253 168 -270 19 -15 193 -261 304 -430 70 -107 136 -206 145
-220 9 -14 19 -33 23 -42 3 -10 11 -18 16 -18 5 0 14 -12 20 -27 6 -16 37 -70
68 -120 81 -130 315 -511 333 -542 8 -14 21 -31 28 -39 6 -7 12 -18 12 -23 0
-6 6 -17 13 -24 31 -35 42 -50 41 -55 -1 -3 16 -31 37 -62 22 -31 39 -61 39
-67 0 -5 3 -11 8 -13 8 -3 118 -164 140 -204 7 -13 17 -24 23 -24 5 0 9 -4 9
-10 0 -9 43 -71 86 -123 8 -9 14 -21 14 -26 0 -5 4 -11 8 -13 4 -1 44 -50 87
-108 43 -58 90 -119 104 -136 14 -17 33 -41 41 -54 8 -12 20 -28 26 -34 5 -6
38 -46 72 -89 34 -44 69 -86 77 -94 8 -8 15 -17 15 -21 0 -4 19 -27 41 -51 23
-25 53 -61 67 -80 15 -20 35 -43 44 -52 10 -9 18 -19 18 -22 0 -3 10 -17 23
-30 12 -13 42 -47 67 -77 25 -29 52 -61 61 -71 36 -41 126 -143 149 -169 14
-15 59 -65 100 -110 149 -165 520 -532 664 -655 102 -88 152 -129 206 -170 36
-27 67 -52 70 -55 17 -22 231 -139 262 -144 7 -1 19 -5 25 -9 35 -22 174 -33
215 -17 75 28 96 41 147 91 63 64 120 165 160 287 27 84 29 94 26 252 -1 91
-3 165 -4 165 -1 0 -4 32 -6 70 -3 68 -9 132 -20 225 -3 25 -8 68 -10 95 -5
56 -13 118 -20 155 -5 25 -10 61 -19 130 -5 37 -10 62 -27 147 -6 29 -10 55
-11 58 0 2 -6 28 -15 57 -8 29 -16 66 -19 81 -2 16 -7 34 -11 40 -4 7 -8 17
-9 22 -1 6 -14 55 -29 110 -15 55 -29 107 -31 115 -2 8 -10 40 -19 70 -9 30
-18 62 -20 70 -2 8 -4 15 -5 15 -1 0 -3 8 -5 17 -6 34 -96 344 -111 381 -7 20
-13 38 -13 40 2 3 -21 85 -38 137 -15 45 -19 56 -23 75 -1 6 -8 26 -16 45 -8
19 -19 51 -24 70 -5 19 -23 76 -40 125 -17 50 -32 95 -34 100 -1 6 -4 15 -7
20 -3 6 -12 30 -19 55 -7 25 -17 49 -22 55 -4 5 -8 17 -8 27 0 10 -4 26 -10
36 -5 9 -21 51 -36 92 -14 41 -42 118 -61 170 -19 52 -36 100 -37 105 -3 11
-4 12 -43 114 -14 35 -26 71 -28 80 -2 9 -23 66 -45 126 -60 161 -81 219 -84
230 -2 6 -6 17 -9 25 -3 8 -29 80 -57 160 -52 147 -85 238 -100 275 -4 11 -13
34 -18 50 -18 51 -112 309 -119 325 -3 8 -7 17 -8 20 -6 19 -18 49 -27 70 -6
14 -12 30 -14 35 -3 14 -53 144 -69 180 -7 17 -30 73 -50 125 -51 128 -103
251 -115 272 -5 10 -10 25 -10 33 0 8 -5 15 -11 15 -6 0 -9 6 -7 12 3 7 1 17
-4 23 -4 5 -34 62 -65 125 -92 187 -137 249 -218 300 -60 38 -191 97 -218 98
-4 0 -20 3 -35 7 -59 12 -112 17 -234 18 -71 0 -128 4 -128 8 0 6 16 46 50
124 12 29 47 144 56 185 4 19 9 40 11 45 12 44 28 138 38 240 5 51 6 282 2
315 -2 14 -8 45 -12 70 -5 25 -8 48 -7 53 1 4 -2 7 -8 7 -5 0 -10 5 -10 11 0
22 -42 69 -61 69 -10 0 -19 5 -19 11 0 8 -4 9 -13 0 -8 -6 -16 -9 -19 -6 -10
10 -94 -56 -187 -147 -117 -115 -161 -148 -206 -155 -29 -5 -39 -1 -63 25 -16
17 -29 36 -30 44 -1 7 -8 49 -16 93 -8 44 -17 103 -20 130 -3 28 -8 62 -10 77
-8 52 -18 113 -23 133 -2 11 -6 39 -10 63 -3 24 -21 103 -39 175 -49 186 -48
182 -80 255 -13 29 -24 54 -24 57 0 2 -16 32 -37 67 -83 143 -211 282 -308
334 -74 40 -145 47 -206 21z"/>
</g>
</svg>
