<svg width="632" height="632" viewBox="0 0 632 632" fill="none" xmlns="http://www.w3.org/2000/svg">
<path d="M135.666 492.116L137.14 474.283C137.772 466.49 138.193 460.171 138.474 456.029L138.755 452.027C139.317 442.69 139.667 438.477 141.212 432.229C142.405 427.314 143.88 421.066 148.302 414.185C152.515 407.586 157.218 403.794 163.115 398.95C167.328 395.44 171.68 392 177.858 388.63C182.07 386.313 184.527 385.4 192.39 382.873L210.011 376.905C212.258 376.133 213.802 375.501 217.944 374.237C223.209 372.622 226.439 371.71 229.106 371.008C231.985 370.235 234.02 369.674 237.882 368.199C244.972 365.531 248.412 363.495 249.605 362.723C251.992 361.249 254.66 359.564 257.328 356.615C259.995 353.666 261.61 351.841 261.821 350.507C262.031 349.313 261.47 347.699 260.206 344.68C259.434 342.925 259.083 342.433 256.626 339.274C254.871 337.097 252.694 334.289 249.746 330.147C244.06 322.143 241.322 318.141 238.724 312.665C236.337 307.61 234.582 301.994 231.985 286.688C229.808 274.121 228.404 265.766 227.702 253.691C227.281 246.319 226.789 237.403 227.702 225.608C228.685 212.619 229.457 203.211 234.442 191.838C241.181 176.462 251.501 167.335 254.941 164.316C273.334 148.098 293.272 144.799 305.206 142.763C317.281 140.797 329.707 138.691 345.082 143.184C361.228 147.888 375.129 158.208 386.361 173.795C397.804 189.521 400.612 204.686 404.122 223.923C406.369 236.139 408.335 246.6 407.071 260.992C405.597 277.842 400.753 293.428 392.679 307.259C390.363 311.261 388.186 314.28 385.799 317.58C382.991 321.441 379.832 325.934 375.128 334.219C371.759 340.046 370.776 342.503 370.355 345.733C370.144 347.769 369.653 351.63 371.548 355.562C373.444 359.494 376.884 361.6 380.253 363.636C381.728 364.548 388.327 366.725 394.645 368.901C399.91 370.657 407.001 372.973 415.636 375.501C417.391 375.992 422.867 377.537 430.168 379.432C434.941 380.696 437.539 381.258 439.434 381.679C442.243 382.311 443.928 382.662 447.367 383.785C460.566 387.998 466.533 392.351 470.254 395.65C473.694 398.669 476.151 401.759 477.204 403.092C480.924 407.937 483.101 412.641 484.716 416.572C486.12 419.942 488.296 425.699 490.613 435.318C491.104 437.424 492.929 445.217 494.333 456.099C495.176 462.909 495.597 468.666 495.808 473.019L496.65 490.15L135.666 492.116ZM326.127 173.514C321.493 173.514 316.649 174.286 310.682 175.339C301.135 176.954 288.077 179.13 276.704 189.1C274.457 191.066 268.42 196.401 264.629 205.107C261.961 211.215 261.47 216.34 260.487 228.346C259.715 238.245 260.136 245.687 260.487 251.865C261.119 262.677 262.382 270.119 264.348 281.282C266.665 295.043 267.858 297.641 268.42 298.834C270.245 302.766 272.351 305.504 276.353 311.05C279.02 314.771 280.846 317.088 282.39 318.984C285.409 322.775 288.007 326.075 290.534 332.042C292.64 337.168 296.08 345.522 294.325 356.124C292.429 367.216 285.9 374.237 281.618 378.941C276.002 385.119 270.315 388.7 266.946 390.806C265.05 391.93 260.066 395.089 249.535 399.091C244.411 401.056 241.602 401.759 237.811 402.812C235.424 403.443 232.546 404.286 227.843 405.69L221.244 407.937C219.067 408.709 216.329 409.762 209.52 412.009L202.57 414.255C197.796 415.8 196.251 416.151 193.724 417.555C189.652 419.802 186.844 422.119 184.036 424.436C178.7 428.788 177.366 429.982 176.103 431.948C174.839 433.984 174.278 435.809 173.295 440.092C172.171 444.585 172.101 447.464 171.68 454.133L171.399 458.135C171.399 458.486 171.399 458.767 171.329 459.118L461.408 457.644C460.355 450.202 459.162 444.866 458.74 443.251C456.985 436.09 455.371 431.737 454.388 429.28C453.194 426.331 452.352 424.787 451.158 423.172C450.737 422.61 449.825 421.557 448.561 420.434C446.244 418.328 441.189 416.502 437.399 415.238C435.292 414.536 434.169 414.326 432.414 413.904C430.238 413.413 427.359 412.781 422.024 411.377C414.442 409.411 408.545 407.726 406.79 407.235C397.383 404.567 389.871 402.11 384.185 400.214C373.654 396.633 367.898 394.668 363.334 391.929C358.42 388.91 348.241 382.732 342.063 370.095C335.955 357.457 337.359 345.803 337.851 341.942C339.044 332.042 342.695 325.022 346.626 318.071C352.172 308.382 355.893 303.117 359.122 298.624C360.947 296.096 362.562 293.779 364.387 290.76C370.004 281.142 373.444 270.26 374.426 258.254C375.339 248.285 374.005 241.124 371.899 230.171C368.389 211.215 366.634 202.509 359.824 193.242C356.946 189.31 349.364 178.849 335.885 174.918C332.445 173.935 329.356 173.514 326.127 173.514Z" fill="black"/>
<path d="M151.669 477.302L151.809 475.407C152.441 467.473 152.862 461.084 153.143 456.872L153.424 452.94C153.915 444.936 154.126 441.215 155.46 435.809C156.653 431.035 157.636 426.893 160.655 422.189C163.603 417.626 166.692 415.098 172.309 410.465C175.889 407.586 179.54 404.567 184.805 401.689C188.385 399.723 190.491 399.021 196.81 396.985C198.635 396.353 200.881 395.651 203.619 394.738C210.078 392.562 212.816 391.579 214.852 390.877C216.888 390.104 218.362 389.613 222.153 388.419C227.137 386.875 230.226 386.032 232.753 385.33C236.053 384.418 238.44 383.786 242.863 382.101C246.935 380.556 252.761 378.169 257.044 375.431C259.782 373.746 263.854 371.148 267.996 366.655C271.716 362.653 275.156 358.792 276.139 353.035C277.052 347.488 275.226 342.995 273.541 339.063C271.997 335.342 270.593 333.587 267.855 330.147C266.24 328.111 264.204 325.513 261.467 321.722C256.552 314.842 254.095 311.402 251.778 306.487C250.304 303.328 248.76 299.326 246.233 284.302C244.197 272.296 242.792 264.433 242.161 252.849C241.81 246.6 241.248 237.965 242.161 226.802C243.144 214.305 243.775 206.792 247.707 197.736C253.112 185.379 261.326 178.148 264.415 175.41C279.649 162 296.287 159.192 307.379 157.366C318.752 155.471 328.511 153.856 340.726 157.437C360.172 163.123 370.773 177.727 374.213 182.501C383.62 195.489 385.937 207.916 389.447 226.661C391.623 238.175 393.308 247.302 392.185 259.729C390.851 274.473 386.709 287.952 379.759 299.817C377.653 303.398 375.687 306.136 373.581 309.085C370.562 313.297 367.122 318.071 362.068 326.988C358.207 333.798 356.241 338.081 355.469 343.978C355.118 346.786 354.205 354.158 357.996 362.021C361.787 369.885 368.105 373.676 372.247 376.203C375.055 377.888 379.548 379.433 389.587 382.873C396.748 385.33 403.839 387.507 411.21 389.613C412.825 390.104 418.581 391.719 426.093 393.685C431.077 395.019 433.815 395.581 435.851 396.002C438.168 396.493 439.642 396.844 442.52 397.757C453.051 401.127 457.474 404.286 460.071 406.603C461.826 408.148 463.581 410.043 465.056 411.939C467.232 414.817 468.917 417.766 470.742 422.189C472.708 426.963 474.393 432.369 475.937 438.758C477.341 444.586 478.535 451.255 479.377 457.925C480.009 463.12 480.5 468.456 480.711 473.651L480.781 475.407L151.669 477.302ZM326.124 158.77C320.156 158.77 314.4 159.753 308.152 160.806C297.481 162.562 281.404 165.3 266.872 178.078C263.924 180.675 256.131 187.556 251.006 199.21C247.286 207.775 246.654 215.077 245.741 227.153C244.899 238.105 245.39 246.53 245.741 252.708C246.443 264.082 247.777 271.875 249.813 283.74C252.34 298.343 253.744 302.134 255.148 305.083C257.325 309.717 259.712 313.016 264.485 319.756C267.153 323.548 269.189 326.005 270.733 328.041C273.471 331.481 275.156 333.587 276.841 337.73C278.596 341.942 280.772 347.137 279.649 353.596C278.456 360.407 274.524 364.76 270.593 368.972C266.17 373.816 261.818 376.554 258.939 378.31C255.289 380.556 250.304 382.943 244.126 385.26C239.563 387.015 237.106 387.647 233.736 388.56C231.209 389.262 228.12 390.104 223.206 391.649C219.485 392.842 218.011 393.334 216.045 394.036C213.939 394.808 211.271 395.791 204.672 397.968C201.934 398.88 199.688 399.582 197.792 400.214C191.544 402.25 189.649 402.882 186.349 404.637C181.365 407.376 177.995 410.114 174.415 413.062C168.869 417.626 166.061 419.872 163.463 423.944C160.795 428.157 159.883 431.878 158.689 436.582C157.426 441.777 157.215 445.077 156.724 453.151L156.443 457.153C156.162 461.014 155.811 466.771 155.249 473.862L477.411 472.177C477.131 467.614 476.709 462.98 476.148 458.487C475.305 451.887 474.182 445.428 472.778 439.671C470.602 430.474 468.425 425.349 467.794 423.664C466.109 419.521 464.635 416.854 462.599 414.186C461.265 412.43 459.65 410.745 458.035 409.341C455.859 407.376 451.717 404.427 441.678 401.197C438.94 400.285 437.606 400.004 435.36 399.512C433.324 399.091 430.586 398.459 425.531 397.125C417.949 395.159 412.193 393.474 410.578 393.053C403.137 390.877 395.976 388.7 388.745 386.243C378.495 382.803 373.862 381.188 370.773 379.292C366.49 376.695 359.4 372.412 355.188 363.636C350.905 354.86 351.958 346.716 352.309 343.697C353.152 336.606 355.89 331.411 359.33 325.373C364.455 316.316 367.965 311.472 370.983 307.189C373.09 304.241 374.915 301.643 376.951 298.203C383.62 286.759 387.692 273.77 388.955 259.518C390.008 247.583 388.394 238.667 386.288 227.363C382.848 209.039 380.601 196.963 371.615 184.607C368.316 180.043 358.207 166.142 339.954 160.806C335.11 159.332 330.547 158.77 326.124 158.77Z" fill="#010101"/>
<path d="M134.05 493.871L136.998 452.027C137.63 442.479 137.981 438.197 139.526 431.878C140.719 426.823 142.264 420.364 146.827 413.273C151.109 406.533 155.883 402.601 161.92 397.687C166.273 394.106 170.696 390.596 176.944 387.226C181.297 384.839 183.894 383.926 191.265 381.469L209.167 375.431C211.414 374.589 213.028 374.027 217.311 372.693C221.804 371.289 224.893 370.446 227.42 369.744C231.422 368.621 233.457 368.129 237.178 366.725C240.407 365.532 245.041 363.636 248.481 361.53C250.798 360.056 253.395 358.441 256.063 355.562C257.888 353.596 259.924 351.35 260.134 350.367C260.275 349.454 259.362 347.348 258.59 345.452C257.958 343.838 257.748 343.557 255.22 340.397C253.044 337.659 251.008 334.991 248.27 331.27C242.584 323.337 239.846 319.265 237.108 313.578C234.651 308.313 232.826 302.555 230.228 287.18C228.052 274.543 226.648 266.188 225.946 253.972C225.524 246.741 225.033 237.473 225.946 225.678C226.999 212.479 227.771 202.931 232.825 191.277C239.635 175.69 249.815 166.704 253.606 163.334C272.42 146.695 292.709 143.325 304.854 141.289C317.139 139.253 329.776 137.147 345.501 141.78C361.999 146.554 376.18 157.085 387.693 172.952C399.277 188.96 402.155 204.265 405.736 223.712C408.052 236.069 410.018 246.67 408.684 261.273C407.139 278.474 402.225 294.341 394.012 308.242C391.695 312.244 389.448 315.403 387.061 318.773C384.324 322.635 381.164 327.058 376.531 335.202C373.091 341.24 372.319 343.346 371.968 346.154C371.757 347.91 371.266 351.42 373.021 355.001C374.706 358.511 377.795 360.407 381.024 362.372C382.498 363.215 389.448 365.602 395.065 367.427C402.015 369.814 408.895 371.921 416.055 374.027C418.232 374.659 423.567 376.133 430.517 377.958L439.363 380.065C442.522 380.767 444.277 381.188 447.857 382.311C458.388 385.681 465.619 389.473 471.305 394.527C473.762 396.634 476.219 399.231 478.396 402.11C481.485 406.112 483.801 410.254 486.258 416.011C488.505 421.487 490.47 427.665 492.225 435.037C493.7 441.496 495.034 448.728 496.016 455.959C496.719 461.716 497.21 467.403 497.491 473.09L498.193 490.15L481.274 492.046L134.05 493.871ZM326.125 175.269C321.071 175.269 316.227 176.182 310.891 177.095C300.993 178.78 288.707 180.816 277.755 190.434C275.368 192.54 269.752 197.525 266.102 205.809C263.574 211.637 263.083 216.621 262.1 228.487C261.328 238.245 261.819 245.898 262.1 251.515C262.732 262.397 263.996 269.698 265.891 280.651C268.278 294.622 269.401 297.009 269.963 298.132C271.718 301.924 273.824 304.662 277.826 310.208C280.283 313.648 282.108 315.965 283.582 317.791C286.671 321.722 289.479 325.233 292.077 331.411C294.253 336.606 297.763 345.242 295.938 356.335C293.972 367.919 287.303 375.22 282.81 380.065C276.773 386.664 270.805 390.315 267.646 392.281C263.294 395.019 257.397 397.827 249.955 400.635C244.83 402.601 242.022 403.374 238.301 404.356C235.704 405.059 232.825 405.831 228.192 407.305L204.955 415.169C198.215 417.345 196.741 417.696 194.284 419.1C190.353 421.206 187.755 423.453 184.947 425.77C179.612 430.123 178.488 431.106 177.435 432.791C176.242 434.686 175.821 436.231 174.768 440.513C173.715 444.726 173.644 447.464 173.293 454.134L173.083 457.293L459.371 455.819C458.668 451.466 457.896 447.253 456.984 443.392C455.158 435.88 453.403 431.527 452.771 429.912C451.508 426.753 450.665 425.419 449.682 424.085C448.98 423.172 448.138 422.33 447.296 421.557C445.681 420.153 441.96 418.398 436.765 416.783C434.799 416.151 433.746 415.941 432.132 415.59C429.815 415.098 426.867 414.396 421.461 412.992C413.598 410.956 407.561 409.201 405.946 408.709C398.434 406.533 391.063 404.216 383.622 401.759C372.6 398.038 367.053 396.212 362.35 393.264C357.295 390.175 346.905 383.856 340.517 370.797C334.128 357.528 335.603 345.523 336.094 341.591C337.287 331.551 341.079 324.32 345.15 317.229C350.696 307.47 354.487 302.205 357.787 297.571C359.542 295.043 361.157 292.867 362.912 289.848C368.387 280.51 371.687 269.839 372.74 258.044C373.582 248.425 372.319 241.335 370.283 230.593C366.773 211.847 365.018 203.282 358.419 194.225C355.681 190.434 348.38 180.324 335.462 176.533C332.303 175.69 329.425 175.269 326.125 175.269Z" fill="black"/>
<path d="M591.493 341.801C580.471 455.397 498.966 554.46 387.905 583.666C274.386 613.505 153.497 568.291 87.0147 471.685C21.3047 376.273 24.885 245.126 93.2627 152.311C161.5 59.7074 284.425 17.7935 394.855 51.142C505.424 84.4906 584.403 184.256 592.265 299.396C593.248 313.508 592.757 327.69 591.493 341.801C589.317 366.936 628.35 370.586 630.596 345.382C642.11 213.813 569.73 87.4393 450.666 30.5712C332.164 -26.0161 184.597 -0.0392362 92.4203 93.407C-0.879479 188.117 -26.644 334.71 32.1159 454.695C90.3844 573.697 219.137 644.045 350.697 630.284C479.028 616.875 590.932 520.199 621.961 394.808C626.033 378.52 628.982 362.021 630.596 345.312C633.054 320.248 593.95 316.597 591.493 341.801Z" fill="#010101"/>
</svg>
