<svg width="935" height="427" viewBox="0 0 935 427" fill="none" xmlns="http://www.w3.org/2000/svg">
<path d="M3.39453 165.213H213.703" stroke="#C4C4C4" stroke-width="5" stroke-linecap="round" stroke-linejoin="round" stroke-dasharray="10 10"/>
<path d="M213.198 34.9794H215.698V44.938H213.198V54.8966H215.698V64.8552H213.198V74.8138H215.698V84.7725H213.198V94.7311H215.698V104.69H213.198V114.648H215.698V124.607H213.198V134.566H215.698V144.524H213.198V154.483H215.698V164.441H213.198V174.4H215.698V184.359H213.198V194.317H215.698V204.276H213.198V214.234H215.698V224.193H213.198V234.152H215.698V244.11H213.198V254.069H215.698V264.028H213.198V273.986H215.698V283.945H213.198V286.424H210.818V288.924H201.059V286.424H191.3V288.924H181.541V286.424H171.782V288.924H162.023V286.424H152.264V288.924H142.505V286.424H132.746V288.924H122.987V286.424H113.228V288.924H103.469V286.424H93.7104V288.924H83.9514V286.424H74.1924V288.924H64.4334V286.424H54.6745V288.924H44.9155V286.424H35.1565V288.924H25.3975V286.424H15.6385V288.924H5.8795V286.424H3.5V283.945H1V273.986H3.5V264.028H1V254.069H3.5V244.11H1V234.152H3.5V224.193H1V214.234H3.5V204.276H1V194.317H3.5V184.359H1V174.4H3.5V164.441H1V154.483H3.5V144.524H1V134.566H3.5V124.607H1V114.648H3.5V104.69H1V94.7311H3.5V84.7724H1V74.8138H3.5V64.8552H1V54.8966H3.5V44.938H1V34.9794H3.5V30C3.5 28.1602 3.68032 26.365 4.02349 24.6303L1.57102 24.1452C2.34965 20.2093 3.89814 16.5503 6.05304 13.3316L8.13046 14.7224C10.1389 11.7224 12.7223 9.13892 15.7223 7.13047L14.3315 5.05305C17.5503 2.89815 21.2093 1.34965 25.1451 0.571024L25.6303 3.02349C27.365 2.68032 29.1602 2.5 31 2.5H35.8343V0H45.5029V2.5H55.1715V0H64.8402V2.5H74.5088V0H84.1774V2.5H93.846V0H103.515V2.5H113.183V0H122.852V2.5H132.52V0H142.189V2.5H151.858V0H161.526V2.5H171.195V0H180.863V2.5H185.698C187.538 2.5 189.333 2.68032 191.067 3.02349L191.553 0.571023C195.488 1.34965 199.148 2.89814 202.366 5.05304L200.975 7.13046C203.975 9.1389 206.559 11.7223 208.567 14.7223L210.645 13.3315C212.8 16.5503 214.348 20.2093 215.127 24.1451L212.674 24.6303C213.017 26.365 213.198 28.1602 213.198 30V34.9794Z" stroke="#C4C4C4" stroke-width="5" stroke-dasharray="10 10"/>
<rect x="18.5586" y="181.176" width="171.599" height="12.7701" rx="6.38506" fill="#C4C4C4"/>
<rect x="18.5586" y="201.129" width="115.729" height="12.7701" rx="6.38506" fill="#C4C4C4"/>
<rect x="18.5586" y="241.834" width="59.86" height="12.7701" rx="6.38506" fill="#C4C4C4"/>
<rect x="18.5586" y="262.586" width="81.4096" height="12.7701" rx="6.38506" fill="#C4C4C4"/>
<path d="M482.395 165.213H692.703" stroke="#C4C4C4" stroke-width="5" stroke-linecap="round" stroke-linejoin="round" stroke-dasharray="10 10"/>
<path d="M692.198 34.9794H694.698V44.938H692.198V54.8966H694.698V64.8552H692.198V74.8138H694.698V84.7725H692.198V94.7311H694.698V104.69H692.198V114.648H694.698V124.607H692.198V134.566H694.698V144.524H692.198V154.483H694.698V164.441H692.198V174.4H694.698V184.359H692.198V194.317H694.698V204.276H692.198V214.234H694.698V224.193H692.198V234.152H694.698V244.11H692.198V254.069H694.698V264.028H692.198V273.986H694.698V283.945H692.198V286.424H689.818V288.924H680.059V286.424H670.3V288.924H660.541V286.424H650.782V288.924H641.023V286.424H631.264V288.924H621.505V286.424H611.746V288.924H601.987V286.424H592.228V288.924H582.469V286.424H572.71V288.924H562.951V286.424H553.192V288.924H543.433V286.424H533.674V288.924H523.915V286.424H514.156V288.924H504.397V286.424H494.638V288.924H484.879V286.424H482.5V283.945H480V273.986H482.5V264.028H480V254.069H482.5V244.11H480V234.152H482.5V224.193H480V214.234H482.5V204.276H480V194.317H482.5V184.359H480V174.4H482.5V164.441H480V154.483H482.5V144.524H480V134.566H482.5V124.607H480V114.648H482.5V104.69H480V94.7311H482.5V84.7724H480V74.8138H482.5V64.8552H480V54.8966H482.5V44.938H480V34.9794H482.5V30C482.5 28.1602 482.68 26.365 483.023 24.6303L480.571 24.1452C481.35 20.2093 482.898 16.5503 485.053 13.3316L487.13 14.7224C489.139 11.7224 491.722 9.13892 494.722 7.13047L493.332 5.05305C496.55 2.89815 500.209 1.34965 504.145 0.571024L504.63 3.02349C506.365 2.68032 508.16 2.5 510 2.5H514.834V0H524.503V2.5H534.172V0H543.84V2.5H553.509V0H563.177V2.5H572.846V0H582.515V2.5H592.183V0H601.852V2.5H611.52V0H621.189V2.5H630.858V0H640.526V2.5H650.195V0H659.863V2.5H664.698C666.538 2.5 668.333 2.68032 670.067 3.02349L670.553 0.571023C674.488 1.34965 678.148 2.89814 681.366 5.05304L679.975 7.13046C682.975 9.1389 685.559 11.7223 687.567 14.7223L689.645 13.3315C691.8 16.5503 693.348 20.2093 694.127 24.1451L691.674 24.6303C692.017 26.365 692.198 28.1602 692.198 30V34.9794Z" stroke="#C4C4C4" stroke-width="5" stroke-dasharray="10 10"/>
<rect x="497.559" y="181.176" width="171.599" height="12.7701" rx="6.38506" fill="#C4C4C4"/>
<rect x="497.559" y="201.129" width="115.729" height="12.7701" rx="6.38506" fill="#C4C4C4"/>
<rect x="497.559" y="241.834" width="59.86" height="12.7701" rx="6.38506" fill="#C4C4C4"/>
<rect x="497.559" y="262.586" width="81.4096" height="12.7701" rx="6.38506" fill="#C4C4C4"/>
<path d="M243.092 165.213H453.4" stroke="#C4C4C4" stroke-width="5" stroke-linecap="round" stroke-linejoin="round" stroke-dasharray="10 10"/>
<path d="M452.896 34.9794H455.396V44.938H452.896V54.8966H455.396V64.8552H452.896V74.8138H455.396V84.7725H452.896V94.7311H455.396V104.69H452.896V114.648H455.396V124.607H452.896V134.566H455.396V144.524H452.896V154.483H455.396V164.441H452.896V174.4H455.396V184.359H452.896V194.317H455.396V204.276H452.896V214.234H455.396V224.193H452.896V234.152H455.396V244.11H452.896V254.069H455.396V264.028H452.896V273.986H455.396V283.945H452.896V286.424H450.516V288.924H440.758V286.424H430.999V288.924H421.24V286.424H411.481V288.924H401.722V286.424H391.963V288.924H382.204V286.424H372.445V288.924H362.686V286.424H352.927V288.924H343.168V286.424H333.409V288.924H323.65V286.424H313.891V288.924H304.132V286.424H294.373V288.924H284.614V286.424H274.855V288.924H265.096V286.424H255.337V288.924H245.578V286.424H243.198V283.945H240.698V273.986H243.198V264.028H240.698V254.069H243.198V244.11H240.698V234.152H243.198V224.193H240.698V214.234H243.198V204.276H240.698V194.317H243.198V184.359H240.698V174.4H243.198V164.441H240.698V154.483H243.198V144.524H240.698V134.566H243.198V124.607H240.698V114.648H243.198V104.69H240.698V94.7311H243.198V84.7724H240.698V74.8138H243.198V64.8552H240.698V54.8966H243.198V44.938H240.698V34.9794H243.198V30C243.198 28.1602 243.379 26.365 243.722 24.6303L241.269 24.1452C242.048 20.2093 243.596 16.5503 245.751 13.3316L247.829 14.7224C249.837 11.7224 252.421 9.13892 255.421 7.13047L254.03 5.05305C257.249 2.89815 260.908 1.34965 264.843 0.571024L265.329 3.02349C267.063 2.68032 268.858 2.5 270.698 2.5H275.533V0H285.201V2.5H294.87V0H304.538V2.5H314.207V0H323.876V2.5H333.544V0H343.213V2.5H352.881V0H362.55V2.5H372.219V0H381.887V2.5H391.556V0H401.225V2.5H410.893V0H420.562V2.5H425.396C427.236 2.5 429.031 2.68032 430.766 3.02349L431.251 0.571023C435.187 1.34965 438.846 2.89814 442.064 5.05304L440.674 7.13046C443.674 9.1389 446.257 11.7223 448.266 14.7223L450.343 13.3315C452.498 16.5503 454.046 20.2093 454.825 24.1451L452.373 24.6303C452.716 26.365 452.896 28.1602 452.896 30V34.9794Z" stroke="#C4C4C4" stroke-width="5" stroke-dasharray="10 10"/>
<rect x="258.257" y="181.176" width="158.828" height="12.7701" rx="6.38506" fill="#C4C4C4"/>
<rect x="258.257" y="201.129" width="92.5834" height="12.7701" rx="6.38506" fill="#C4C4C4"/>
<rect x="258.257" y="241.834" width="67.0432" height="12.7701" rx="6.38506" fill="#C4C4C4"/>
<rect x="258.257" y="262.586" width="78.217" height="12.7701" rx="6.38506" fill="#C4C4C4"/>
<path d="M722.092 165.213H932.4" stroke="#C4C4C4" stroke-width="5" stroke-linecap="round" stroke-linejoin="round" stroke-dasharray="10 10"/>
<path d="M931.896 34.9794H934.396V44.938H931.896V54.8966H934.396V64.8552H931.896V74.8138H934.396V84.7725H931.896V94.7311H934.396V104.69H931.896V114.648H934.396V124.607H931.896V134.566H934.396V144.524H931.896V154.483H934.396V164.441H931.896V174.4H934.396V184.359H931.896V194.317H934.396V204.276H931.896V214.234H934.396V224.193H931.896V234.152H934.396V244.11H931.896V254.069H934.396V264.028H931.896V273.986H934.396V283.945H931.896V286.424H929.516V288.924H919.758V286.424H909.999V288.924H900.24V286.424H890.481V288.924H880.722V286.424H870.963V288.924H861.204V286.424H851.445V288.924H841.686V286.424H831.927V288.924H822.168V286.424H812.409V288.924H802.65V286.424H792.891V288.924H783.132V286.424H773.373V288.924H763.614V286.424H753.855V288.924H744.096V286.424H734.337V288.924H724.578V286.424H722.198V283.945H719.698V273.986H722.198V264.028H719.698V254.069H722.198V244.11H719.698V234.152H722.198V224.193H719.698V214.234H722.198V204.276H719.698V194.317H722.198V184.359H719.698V174.4H722.198V164.441H719.698V154.483H722.198V144.524H719.698V134.566H722.198V124.607H719.698V114.648H722.198V104.69H719.698V94.7311H722.198V84.7724H719.698V74.8138H722.198V64.8552H719.698V54.8966H722.198V44.938H719.698V34.9794H722.198V30C722.198 28.1602 722.379 26.365 722.722 24.6303L720.269 24.1452C721.048 20.2093 722.596 16.5503 724.751 13.3316L726.829 14.7224C728.837 11.7224 731.421 9.13892 734.421 7.13047L733.03 5.05305C736.249 2.89815 739.908 1.34965 743.843 0.571024L744.329 3.02349C746.063 2.68032 747.858 2.5 749.698 2.5H754.533V0H764.201V2.5H773.87V0H783.538V2.5H793.207V0H802.876V2.5H812.544V0H822.213V2.5H831.881V0H841.55V2.5H851.219V0H860.887V2.5H870.556V0H880.225V2.5H889.893V0H899.562V2.5H904.396C906.236 2.5 908.031 2.68032 909.766 3.02349L910.251 0.571023C914.187 1.34965 917.846 2.89814 921.064 5.05304L919.674 7.13046C922.674 9.1389 925.257 11.7223 927.266 14.7223L929.343 13.3315C931.498 16.5503 933.046 20.2093 933.825 24.1451L931.373 24.6303C931.716 26.365 931.896 28.1602 931.896 30V34.9794Z" stroke="#C4C4C4" stroke-width="5" stroke-dasharray="10 10"/>
<rect x="737.257" y="181.176" width="158.828" height="12.7701" rx="6.38506" fill="#C4C4C4"/>
<rect x="737.257" y="201.129" width="92.5834" height="12.7701" rx="6.38506" fill="#C4C4C4"/>
<rect x="737.257" y="241.834" width="67.0432" height="12.7701" rx="6.38506" fill="#C4C4C4"/>
<rect x="737.257" y="262.586" width="78.217" height="12.7701" rx="6.38506" fill="#C4C4C4"/>
<path d="M357.766 99L320.162 113.163L357.766 165.418V99Z" fill="#FFC470"/>
<path d="M285 164.439L300.139 131.23L347.511 175.672L285 164.439Z" fill="#FFC470"/>
<path d="M347.511 189.834L293.302 227.927L285 195.695L347.511 189.834Z" fill="#FFC470"/>
<path d="M364.116 329.998L379.255 315.835L379.743 314.858L397.813 333.416L381.697 348.067L364.116 329.998Z" fill="#A2A4A1"/>
<circle cx="450.067" cy="248.441" r="95.6266" fill="#E0F2FF" fill-opacity="0.9" stroke="#A7A7A7" stroke-width="8"/>
<circle cx="416.035" cy="211.905" r="18.9548" fill="white"/>
<path d="M357.129 327.918L321.967 363.081L287.781 397.267C284.265 401.173 283.886 406.183 287.781 410.941L300.967 423.638C308.304 430.113 312.525 425.592 315.618 423.638L383.501 355.755C388.58 349.895 388.222 343.872 387.408 341.593L372.268 326.453C366.408 322.546 359.734 325.802 357.129 327.918Z" fill="#858585"/>
</svg>
