<svg width="669" height="364" viewBox="0 0 669 364" fill="none" xmlns="http://www.w3.org/2000/svg">
<path fill-rule="evenodd" clip-rule="evenodd" d="M253.508 112.019C217.717 121.316 196.24 157.867 205.537 193.657C205.561 193.748 205.585 193.838 205.608 193.928L125.754 215.15C120.417 216.568 114.907 213.395 113.826 207.979C108.741 182.51 109.944 156.129 117.4 131.145C125.812 102.961 141.854 77.6512 163.752 58.0149C185.65 38.3785 212.552 25.1803 241.484 19.8794C267.13 15.1805 293.485 16.8494 318.251 24.6701C323.518 26.3332 326.074 32.1549 324.084 37.3068L294.343 114.312C281.747 109.463 267.568 108.366 253.508 112.019Z" fill="#FFE297"/>
<path fill-rule="evenodd" clip-rule="evenodd" d="M350.365 6.72981C345.242 4.70706 339.483 7.31413 337.519 12.4602L297.817 116.527C324.292 126.606 342.436 152.903 340.834 182.707C340.704 185.12 340.448 187.496 340.073 189.829L446.548 206.999C451.953 207.87 457.069 204.239 457.956 198.836C463.615 164.366 467.261 124.27 442.44 80.8208C417.646 37.418 382.665 19.483 350.365 6.72981Z" fill="#DAF1E1"/>
<path fill-rule="evenodd" clip-rule="evenodd" d="M427.581 222.038C429.027 216.708 425.51 211.412 420.099 210.302L339.242 193.723C336.493 207.108 329.637 219.771 318.781 229.669L374.483 290.644C378.208 294.721 384.559 295.028 388.395 291.055C407.063 271.72 420.544 247.976 427.581 222.038Z" fill="#AADBFF"/>
<path fill-rule="evenodd" clip-rule="evenodd" d="M178.495 309.7C183.024 312.86 189.197 311.338 192.068 306.62L234.936 236.168C220.103 227.144 209.703 212.878 205.256 196.784L125.709 218.815C120.386 220.289 117.237 225.813 119.041 231.033C130.049 262.873 150.868 290.419 178.495 309.7Z" fill="#FFC470"/>
<path fill-rule="evenodd" clip-rule="evenodd" d="M236.871 238.445L195.363 309.554C192.579 314.324 194.176 320.478 199.111 322.958C226.097 336.519 256.45 342.171 286.638 339.143C316.825 336.116 345.451 324.55 369.207 305.899C373.551 302.489 373.895 296.14 370.219 292.018L315.269 230.402C299.731 244.318 277.937 250.791 256.022 245.918C249.108 244.381 242.684 241.825 236.871 238.445Z" fill="#FFCECE"/>
<path d="M415 87L445.703 59.7169C449.115 56.6099 458.173 50.7632 467.115 52.2328H496" stroke="#DAF1E1" stroke-width="5" stroke-linecap="round" stroke-linejoin="round"/>
<path d="M405 225L429.638 251.504C432.376 254.522 439.645 260.201 446.82 258.774H470" stroke="#AADBFF" stroke-width="5" stroke-linecap="round" stroke-linejoin="round"/>
<path d="M307 319L325.953 339.267C328.058 341.576 333.65 345.919 339.17 344.827H357" stroke="#FFCECE" stroke-width="5" stroke-linecap="round" stroke-linejoin="round"/>
<path d="M516.984 41.576C511.632 41.576 508.128 45.488 508.128 50.624C508.128 54.824 511.392 59.432 516.864 59.432C519.6 59.432 521.976 58.232 523.296 56.456L521.352 54.992C520.32 56.432 518.88 57.272 516.912 57.272C513.048 57.272 510.576 54.296 510.576 50.648C510.576 46.784 513.12 43.736 516.912 43.736C518.496 43.736 520.008 44.408 521.016 45.68L522.936 44.216C521.616 42.512 519.384 41.576 516.984 41.576ZM528.914 59.288C530.642 59.288 531.914 58.736 532.898 57.272H532.946C532.946 57.944 532.97 58.424 533.018 59H534.938C534.866 58.4 534.842 57.488 534.842 57.152V51.056C534.842 49.28 533.522 47.336 530.09 47.336C528.458 47.336 526.778 47.912 525.578 49.016L526.874 50.36C528.122 49.352 528.866 49.064 530.09 49.064C531.698 49.064 532.826 50 532.826 51.536V51.944H531.218C526.754 51.944 524.978 53.6 524.978 55.88C524.978 57.992 526.634 59.288 528.914 59.288ZM531.602 53.528H532.826V54.152C532.826 56.36 531.53 57.56 529.586 57.56C527.93 57.56 527.138 56.888 527.138 55.712C527.138 54.608 528.098 53.528 531.602 53.528ZM537.976 59H540.136V53.192C540.136 50.888 541.24 49.64 543.376 49.64C543.76 49.64 544.096 49.712 544.456 49.808L544.552 47.48C544.312 47.384 543.952 47.336 543.592 47.336C542.176 47.336 540.76 48.152 540.184 49.376H540.136V47.624H537.976V59ZM549.019 59V57.368H549.067C549.907 58.592 551.491 59.288 553.051 59.288C556.555 59.288 558.811 56.672 558.811 53.312C558.811 49.784 556.411 47.336 553.027 47.336C551.443 47.336 549.835 48.056 549.067 49.256H549.019V40.856H546.859V59H549.019ZM549.019 53.312C549.019 50.912 550.555 49.352 552.739 49.352C554.971 49.352 556.507 50.912 556.507 53.312C556.507 55.64 555.019 57.272 552.763 57.272C550.507 57.272 549.019 55.664 549.019 53.312ZM567.026 47.336C563.642 47.336 560.978 50 560.978 53.312C560.978 56.696 563.738 59.288 567.026 59.288C570.41 59.288 573.074 56.624 573.074 53.312C573.074 49.832 570.242 47.336 567.026 47.336ZM563.282 53.312C563.282 50.984 564.794 49.352 567.002 49.352C569.234 49.352 570.77 50.912 570.77 53.312C570.77 55.664 569.282 57.272 567.026 57.272C564.794 57.272 563.282 55.688 563.282 53.312ZM577.94 59V53.048C577.94 50.768 579.116 49.352 581.108 49.352C582.74 49.352 583.7 50.456 583.7 52.208V59H585.86V51.584C585.86 48.992 584.252 47.336 581.732 47.336C580.076 47.336 578.588 48.104 577.988 49.376H577.94V40.856H575.78V59H577.94ZM587.748 47.624L592.476 59.072L591.804 60.848C591.348 62.048 590.916 62.744 589.572 62.744C589.14 62.744 588.708 62.648 588.276 62.504L588.012 64.448C588.612 64.688 589.26 64.76 589.932 64.76C592.284 64.76 593.052 63.464 593.844 61.4L599.22 47.624H596.892L593.676 56.504H593.628L590.244 47.624H587.748ZM606.348 59.288C607.932 59.288 609.468 58.592 610.308 57.368H610.356V59H612.516V40.856H610.356V49.256H610.308C609.492 48.032 607.908 47.336 606.348 47.336C602.988 47.336 600.564 49.784 600.564 53.312C600.564 56.84 602.988 59.288 606.348 59.288ZM602.868 53.312C602.868 50.936 604.38 49.352 606.588 49.352C608.82 49.352 610.356 50.912 610.356 53.312C610.356 55.664 608.868 57.272 606.612 57.272C604.38 57.272 602.868 55.688 602.868 53.312ZM615.788 59H617.948V53.192C617.948 50.888 619.052 49.64 621.188 49.64C621.572 49.64 621.908 49.712 622.268 49.808L622.364 47.48C622.124 47.384 621.764 47.336 621.404 47.336C619.988 47.336 618.572 48.152 617.996 49.376H617.948V47.624H615.788V59ZM628.055 59.288C629.783 59.288 631.055 58.736 632.039 57.272H632.087C632.087 57.944 632.111 58.424 632.159 59H634.079C634.007 58.4 633.983 57.488 633.983 57.152V51.056C633.983 49.28 632.663 47.336 629.231 47.336C627.599 47.336 625.919 47.912 624.719 49.016L626.015 50.36C627.263 49.352 628.007 49.064 629.231 49.064C630.839 49.064 631.967 50 631.967 51.536V51.944H630.359C625.895 51.944 624.119 53.6 624.119 55.88C624.119 57.992 625.775 59.288 628.055 59.288ZM630.743 53.528H631.967V54.152C631.967 56.36 630.671 57.56 628.727 57.56C627.071 57.56 626.279 56.888 626.279 55.712C626.279 54.608 627.239 53.528 630.743 53.528ZM637.956 49.496V55.568C637.956 57.128 637.98 59.288 641.316 59.288C641.94 59.288 642.876 59.144 643.284 58.904V56.936C642.852 57.2 642.228 57.272 641.748 57.272C640.404 57.272 640.116 56.432 640.116 54.968V49.496H643.212V47.624H640.116V44.432H637.956V47.624H635.46V49.496H637.956ZM651.207 47.336C647.751 47.336 645.327 49.952 645.327 53.312C645.327 56.936 647.799 59.288 651.183 59.288C653.367 59.288 654.999 58.52 656.223 56.96L654.591 55.712C653.751 56.744 652.791 57.416 651.471 57.416C649.479 57.416 647.631 56.072 647.631 54.104H656.751V53.504C656.751 49.568 654.567 47.336 651.207 47.336ZM654.447 52.376H647.631C647.631 51.008 648.879 49.064 651.159 49.064C653.175 49.064 654.375 50.24 654.447 52.376ZM663.175 47.336C661.015 47.336 658.855 48.488 658.855 50.84C658.855 52.904 660.247 53.648 662.911 54.2C664.279 54.512 665.071 54.968 665.071 55.832C665.071 56.768 663.967 57.272 662.767 57.272C661.831 57.272 660.991 56.936 660.007 55.928L658.375 57.272C659.359 58.64 660.655 59.288 662.743 59.288C665.119 59.288 667.375 58.208 667.375 55.712C667.375 53.648 666.103 52.784 663.391 52.256C662.071 51.992 661.159 51.56 661.159 50.624C661.159 49.88 661.975 49.352 663.055 49.352C664.135 49.352 664.855 49.856 665.383 50.48L667.063 49.208C666.343 48.008 664.903 47.336 663.175 47.336Z" fill="black"/>
<path d="M0.856 31.008L7.408 48H9.568L16.264 31.008H13.744L8.56 44.832H8.512L3.52 31.008H0.856ZM19.0206 30.96C18.1806 30.96 17.4366 31.656 17.4366 32.544C17.4366 33.432 18.1326 34.128 19.0206 34.128C19.8606 34.128 20.6046 33.432 20.6046 32.544C20.6046 31.68 19.8846 30.96 19.0206 30.96ZM20.1006 36.624H17.9406V48H20.1006V36.624ZM24.3783 38.496V44.568C24.3783 46.128 24.4023 48.288 27.7383 48.288C28.3623 48.288 29.2983 48.144 29.7063 47.904V45.936C29.2743 46.2 28.6503 46.272 28.1703 46.272C26.8263 46.272 26.5383 45.432 26.5383 43.968V38.496H29.6343V36.624H26.5383V33.432H24.3783V36.624H21.8822V38.496H24.3783ZM35.8051 48.288C37.5331 48.288 38.8051 47.736 39.7891 46.272H39.8371C39.8371 46.944 39.8611 47.424 39.9091 48H41.8291C41.7571 47.4 41.7331 46.488 41.7331 46.152V40.056C41.7331 38.28 40.4131 36.336 36.9811 36.336C35.3491 36.336 33.6691 36.912 32.4691 38.016L33.7651 39.36C35.0131 38.352 35.7571 38.064 36.9811 38.064C38.5891 38.064 39.7171 39 39.7171 40.536V40.944H38.1091C33.6451 40.944 31.8691 42.6 31.8691 44.88C31.8691 46.992 33.5251 48.288 35.8051 48.288ZM38.4931 42.528H39.7171V43.152C39.7171 45.36 38.4211 46.56 36.4771 46.56C34.8211 46.56 34.0291 45.888 34.0291 44.712C34.0291 43.608 34.9891 42.528 38.4931 42.528ZM47.0264 48V42C47.0264 39.84 48.2024 38.352 49.9784 38.352C51.5864 38.352 52.3784 39.192 52.3784 41.88V48H54.5384V41.688C54.5384 39.624 55.4984 38.352 57.4424 38.352C59.0984 38.352 59.8904 39.312 59.8904 41.544V48H62.0504V41.28C62.0504 38.04 60.6104 36.336 57.7304 36.336C56.2424 36.336 54.8504 37.128 54.1304 38.448C53.3864 37.032 52.2584 36.336 50.5784 36.336C48.8984 36.336 47.3864 37.344 46.9304 38.4H46.8824V36.624H44.8664V48H47.0264ZM66.5519 30.96C65.7119 30.96 64.9679 31.656 64.9679 32.544C64.9679 33.432 65.6639 34.128 66.5519 34.128C67.3919 34.128 68.1359 33.432 68.1359 32.544C68.1359 31.68 67.4159 30.96 66.5519 30.96ZM67.6319 36.624H65.4719V48H67.6319V36.624ZM71.0695 36.624V48H73.2295V42.048C73.2295 39.768 74.4055 38.352 76.3975 38.352C78.0295 38.352 78.9895 39.456 78.9895 41.208V48H81.1495V40.584C81.1495 38.016 79.5655 36.336 77.0215 36.336C75.3655 36.336 73.8775 37.104 73.2775 38.376H73.2295V36.624H71.0695ZM99.4371 30.576C94.0851 30.576 90.5811 34.488 90.5811 39.624C90.5811 43.824 93.8451 48.432 99.3171 48.432C102.053 48.432 104.429 47.232 105.749 45.456L103.805 43.992C102.773 45.432 101.333 46.272 99.3651 46.272C95.5011 46.272 93.0291 43.296 93.0291 39.648C93.0291 35.784 95.5731 32.736 99.3651 32.736C100.949 32.736 102.461 33.408 103.469 34.68L105.389 33.216C104.069 31.512 101.837 30.576 99.4371 30.576Z" fill="black"/>
<path d="M15.184 295H17.488V287.656H25.288V285.496H17.488V280.168H25.864V278.008H15.184V295ZM33.9093 283.336C30.5253 283.336 27.8613 286 27.8613 289.312C27.8613 292.696 30.6213 295.288 33.9093 295.288C37.2933 295.288 39.9573 292.624 39.9573 289.312C39.9573 285.832 37.1253 283.336 33.9093 283.336ZM30.1653 289.312C30.1653 286.984 31.6773 285.352 33.8853 285.352C36.1173 285.352 37.6533 286.912 37.6533 289.312C37.6533 291.664 36.1653 293.272 33.9093 293.272C31.6773 293.272 30.1653 291.688 30.1653 289.312ZM44.9913 276.856H42.8313V295H44.9913V276.856ZM51.8129 295.288C53.5409 295.288 54.8129 294.736 55.7969 293.272H55.8449C55.8449 293.944 55.8689 294.424 55.9169 295H57.8369C57.7649 294.4 57.7409 293.488 57.7409 293.152V287.056C57.7409 285.28 56.4209 283.336 52.9889 283.336C51.3569 283.336 49.6769 283.912 48.4769 285.016L49.7729 286.36C51.0209 285.352 51.7649 285.064 52.9889 285.064C54.5969 285.064 55.7249 286 55.7249 287.536V287.944H54.1169C49.6529 287.944 47.8769 289.6 47.8769 291.88C47.8769 293.992 49.5329 295.288 51.8129 295.288ZM54.5009 289.528H55.7249V290.152C55.7249 292.36 54.4289 293.56 52.4849 293.56C50.8289 293.56 50.0369 292.888 50.0369 291.712C50.0369 290.608 50.9969 289.528 54.5009 289.528ZM61.7142 285.496V291.568C61.7142 293.128 61.7382 295.288 65.0742 295.288C65.6982 295.288 66.6342 295.144 67.0422 294.904V292.936C66.6102 293.2 65.9862 293.272 65.5062 293.272C64.1622 293.272 63.8742 292.432 63.8742 290.968V285.496H66.9702V283.624H63.8742V280.432H61.7142V283.624H59.2182V285.496H61.7142ZM74.965 283.336C71.509 283.336 69.085 285.952 69.085 289.312C69.085 292.936 71.557 295.288 74.941 295.288C77.125 295.288 78.757 294.52 79.981 292.96L78.349 291.712C77.509 292.744 76.549 293.416 75.229 293.416C73.237 293.416 71.389 292.072 71.389 290.104H80.509V289.504C80.509 285.568 78.325 283.336 74.965 283.336ZM78.205 288.376H71.389C71.389 287.008 72.637 285.064 74.917 285.064C76.933 285.064 78.133 286.24 78.205 288.376Z" fill="black"/>
<path d="M369.888 105.576C366.816 105.576 364.704 107.16 364.272 109.992L366.768 110.208C367.056 108.576 368.184 107.592 369.864 107.592C371.544 107.592 372.792 108.72 372.792 110.304C372.792 111.72 371.88 112.848 370.728 113.976L364.104 120.552V123H375.24V120.984H366.696L372.336 115.536C374.568 113.4 375.24 111.984 375.24 110.28C375.24 107.4 373.08 105.576 369.888 105.576ZM385.888 106.008H383.176L378.856 112.824C377.728 114.648 377.176 115.824 377.176 117.816C377.176 121.032 379.72 123.288 383.008 123.288C386.464 123.288 388.84 121.08 388.84 117.576C388.84 113.76 385.912 112.2 383.584 112.2C382.888 112.2 382.264 112.32 381.712 112.584H381.616L385.888 106.008ZM379.48 117.744C379.48 115.584 380.992 114.216 382.984 114.216C385.408 114.216 386.536 115.968 386.536 117.744C386.536 119.856 385.072 121.272 383.008 121.272C380.92 121.272 379.48 119.832 379.48 117.744ZM393.008 119.976C392.168 119.976 391.424 120.672 391.424 121.56C391.424 122.448 392.168 123.144 393.008 123.144C393.824 123.144 394.592 122.472 394.592 121.56C394.592 120.72 393.896 119.976 393.008 119.976ZM402.952 105.576C400.528 105.576 398.656 106.752 397.816 108.768L400.168 109.56C400.696 108.384 401.752 107.592 403 107.592C404.704 107.592 405.856 108.6 405.856 110.352C405.856 112.44 404.368 113.016 401.512 113.016V115.032C404.968 115.032 406.288 116.112 406.288 118.2C406.288 119.976 404.848 121.272 402.976 121.272C401.392 121.272 400.504 120.672 399.88 118.848L397.456 119.592C398.2 121.992 400.12 123.288 402.928 123.288C405.928 123.288 408.592 121.632 408.592 118.368C408.592 116.208 407.344 114.48 405.256 114.096V114.048C406.96 113.52 408.16 111.984 408.16 110.184C408.16 107.04 405.736 105.576 402.952 105.576ZM420.992 106.008H411.872L411.68 114.96C412.832 114.408 414.32 114.072 415.184 114.072C417.704 114.072 419.288 115.44 419.288 117.792C419.288 119.928 417.824 121.272 415.976 121.272C414.464 121.272 413.432 120.624 412.832 119.064L410.504 119.856C411.271 122.04 413.288 123.288 415.616 123.288C418.976 123.288 421.592 121.008 421.592 117.672C421.592 114.048 419.216 112.056 416.312 112.056C415.664 112.056 414.44 112.224 414.032 112.416L414.104 108.168H420.992V106.008Z" fill="black"/>
<path d="M264.888 282.576C261.816 282.576 259.704 284.16 259.272 286.992L261.768 287.208C262.056 285.576 263.184 284.592 264.864 284.592C266.544 284.592 267.792 285.72 267.792 287.304C267.792 288.72 266.88 289.848 265.728 290.976L259.104 297.552V300H270.24V297.984H261.696L267.336 292.536C269.568 290.4 270.24 288.984 270.24 287.28C270.24 284.4 268.08 282.576 264.888 282.576ZM280.12 283.008H278.08L273.352 286.92L274.696 288.528L277.816 285.648V300H280.12V283.008ZM288.008 296.976C287.168 296.976 286.424 297.672 286.424 298.56C286.424 299.448 287.168 300.144 288.008 300.144C288.824 300.144 289.592 299.472 289.592 298.56C289.592 297.72 288.896 296.976 288.008 296.976ZM298.024 282.72C295.264 282.72 293.056 284.472 293.056 286.968C293.056 288.912 294.064 290.424 295.72 290.904V290.976C293.68 291.552 292.48 293.16 292.48 295.128C292.48 298.224 294.784 300.288 298.024 300.288C301.264 300.288 303.568 298.224 303.568 295.128C303.568 293.112 302.32 291.552 300.328 290.976V290.904C301.984 290.4 302.992 288.912 302.992 286.968C302.992 284.4 300.76 282.72 298.024 282.72ZM295.36 287.28C295.36 285.696 296.56 284.592 298 284.592C299.584 284.592 300.688 285.672 300.688 287.28C300.688 288.816 299.656 289.968 298.024 289.968C296.488 289.968 295.36 288.768 295.36 287.28ZM294.784 295.128C294.784 293.208 296.32 291.984 298 291.984C299.872 291.984 301.264 293.136 301.264 295.128C301.264 297.024 299.872 298.272 298.024 298.272C296.2 298.272 294.784 297.024 294.784 295.128ZM316.376 283.008H305.696V285.024H313.904L307.016 300H309.608L316.376 284.976V283.008Z" fill="black"/>
<path d="M184 87L158.664 45.9139C156.265 43.9426 152.095 40.6225 141.147 40L118 40.9338" stroke="#FFE297" stroke-width="5" stroke-linecap="round" stroke-linejoin="round"/>
<path d="M164 259L135.976 284.351C133.324 285.567 128.711 287.616 116.602 288L91 287.424" stroke="#FFC470" stroke-width="5" stroke-linecap="round" stroke-linejoin="round"/>
<path d="M368.672 227.72C365.264 227.72 362.84 229.88 362.84 233.432C362.84 237.176 365.672 238.808 368.096 238.808C368.792 238.808 369.416 238.688 369.968 238.424H370.064L365.792 245H368.504L372.824 238.16C373.88 236.48 374.504 235.184 374.504 233.192C374.504 230.024 372.032 227.72 368.672 227.72ZM365.144 233.264C365.144 231.08 366.656 229.736 368.648 229.736C371.096 229.736 372.2 231.512 372.2 233.264C372.2 235.352 370.784 236.792 368.672 236.792C366.632 236.792 365.144 235.424 365.144 233.264ZM378.672 241.976C377.832 241.976 377.088 242.672 377.088 243.56C377.088 244.448 377.832 245.144 378.672 245.144C379.488 245.144 380.256 244.472 380.256 243.56C380.256 242.72 379.56 241.976 378.672 241.976ZM391.568 228.008H388.856L384.536 234.824C383.408 236.648 382.856 237.824 382.856 239.816C382.856 243.032 385.4 245.288 388.688 245.288C392.144 245.288 394.52 243.08 394.52 239.576C394.52 235.76 391.592 234.2 389.264 234.2C388.568 234.2 387.944 234.32 387.392 234.584H387.296L391.568 228.008ZM385.16 239.744C385.16 237.584 386.672 236.216 388.664 236.216C391.088 236.216 392.216 237.968 392.216 239.744C392.216 241.856 390.752 243.272 388.688 243.272C386.6 243.272 385.16 241.832 385.16 239.744Z" fill="black"/>
<path d="M159.784 238.008H157.744L153.016 241.92L154.36 243.528L157.48 240.648V255H159.784V238.008ZM175.64 238.008H166.52L166.328 246.96C167.48 246.408 168.968 246.072 169.832 246.072C172.352 246.072 173.936 247.44 173.936 249.792C173.936 251.928 172.472 253.272 170.624 253.272C169.112 253.272 168.08 252.624 167.48 251.064L165.152 251.856C165.92 254.04 167.936 255.288 170.264 255.288C173.624 255.288 176.24 253.008 176.24 249.672C176.24 246.048 173.864 244.056 170.96 244.056C170.312 244.056 169.088 244.224 168.68 244.416L168.752 240.168H175.64V238.008ZM181.008 251.976C180.168 251.976 179.424 252.672 179.424 253.56C179.424 254.448 180.168 255.144 181.008 255.144C181.824 255.144 182.592 254.472 182.592 253.56C182.592 252.72 181.896 251.976 181.008 251.976ZM191.24 237.576C188.168 237.576 186.056 239.16 185.624 241.992L188.12 242.208C188.408 240.576 189.536 239.592 191.216 239.592C192.896 239.592 194.144 240.72 194.144 242.304C194.144 243.72 193.232 244.848 192.08 245.976L185.456 252.552V255H196.592V252.984H188.048L193.688 247.536C195.92 245.4 196.592 243.984 196.592 242.28C196.592 239.4 194.432 237.576 191.24 237.576ZM206.472 238.008H204.432L199.704 241.92L201.048 243.528L204.168 240.648V255H206.472V238.008Z" fill="black"/>
<path d="M182.688 96.008H172.008V98.024H180.216L173.328 113H175.92L182.688 97.976V96.008ZM193.12 96.008H191.08L186.352 99.92L187.696 101.528L190.816 98.648V113H193.12V96.008ZM201.008 109.976C200.168 109.976 199.424 110.672 199.424 111.56C199.424 112.448 200.168 113.144 201.008 113.144C201.824 113.144 202.592 112.472 202.592 111.56C202.592 110.72 201.896 109.976 201.008 109.976ZM211.024 95.72C207.16 95.72 205.168 99.104 205.168 104.504C205.168 109.736 207.136 113.288 211.024 113.288C214.84 113.288 216.88 109.904 216.88 104.504C216.88 99.056 214.84 95.72 211.024 95.72ZM207.472 104.504C207.472 99.944 208.768 97.736 211 97.736C213.352 97.736 214.576 100.088 214.576 104.504C214.576 108.896 213.304 111.272 211.024 111.272C208.72 111.272 207.472 108.872 207.472 104.504ZM228.992 96.008H219.872L219.68 104.96C220.832 104.408 222.32 104.072 223.184 104.072C225.704 104.072 227.288 105.44 227.288 107.792C227.288 109.928 225.824 111.272 223.976 111.272C222.464 111.272 221.432 110.624 220.832 109.064L218.504 109.856C219.271 112.04 221.288 113.288 223.616 113.288C226.976 113.288 229.592 111.008 229.592 107.672C229.592 104.048 227.216 102.056 224.312 102.056C223.664 102.056 222.44 102.224 222.032 102.416L222.104 98.168H228.992V96.008Z" fill="black"/>
<path d="M491.056 248.576C487.216 248.576 485.296 251.096 485.296 253.352C485.296 256.4 487.072 257.624 489.4 258.368L490.912 258.872C492.976 259.52 493.672 260.264 493.672 261.44C493.672 263.192 491.992 264.272 490.288 264.272C488.8 264.272 487.432 263.6 486.688 262.448L484.792 264.08C485.896 265.568 487.816 266.432 490.216 266.432C493.648 266.432 496.12 264.32 496.12 261.176C496.12 258.776 494.8 257.504 492.424 256.736L490.288 256.04C488.728 255.56 487.744 254.792 487.744 253.352C487.744 252.368 488.416 250.736 491.032 250.736C492.4 250.736 493.504 251.336 494.08 252.224L495.952 250.52C494.968 249.296 493.48 248.576 491.056 248.576ZM498.968 254.624V262.04C498.968 264.608 500.576 266.288 503.096 266.288C504.776 266.288 506.24 265.52 506.84 264.248H506.888V266H509.048V254.624H506.888V260.576C506.888 262.832 505.736 264.272 503.72 264.272C502.112 264.272 501.128 263.216 501.128 261.44V254.624H498.968ZM511.752 260.36C511.752 263.792 514.344 266.144 517.536 266.144C519.168 266.144 520.704 265.448 521.472 264.128H521.544V265.856C521.544 268.256 520.152 269.744 517.464 269.744C515.76 269.744 514.512 269.096 513.384 267.896L511.92 269.72C513.504 271.208 515.328 271.76 517.488 271.76C521.472 271.76 523.704 269.048 523.704 266V254.624H521.544V256.256H521.496C520.656 255.056 519.144 254.336 517.536 254.336C514.2 254.336 511.752 256.712 511.752 260.36ZM517.776 256.352C520.008 256.352 521.544 257.912 521.544 260.312C521.544 262.64 520.08 264.128 517.8 264.128C515.472 264.128 514.056 262.568 514.056 260.312C514.056 257.984 515.568 256.352 517.776 256.352ZM530.36 266.288C532.088 266.288 533.36 265.736 534.344 264.272H534.392C534.392 264.944 534.416 265.424 534.464 266H536.384C536.312 265.4 536.288 264.488 536.288 264.152V258.056C536.288 256.28 534.968 254.336 531.536 254.336C529.904 254.336 528.224 254.912 527.024 256.016L528.32 257.36C529.568 256.352 530.312 256.064 531.536 256.064C533.144 256.064 534.272 257 534.272 258.536V258.944H532.664C528.2 258.944 526.424 260.6 526.424 262.88C526.424 264.992 528.08 266.288 530.36 266.288ZM533.048 260.528H534.272V261.152C534.272 263.36 532.976 264.56 531.032 264.56C529.376 264.56 528.584 263.888 528.584 262.712C528.584 261.608 529.544 260.528 533.048 260.528ZM539.421 266H541.581V260.192C541.581 257.888 542.685 256.64 544.821 256.64C545.205 256.64 545.541 256.712 545.901 256.808L545.997 254.48C545.757 254.384 545.397 254.336 545.037 254.336C543.621 254.336 542.205 255.152 541.629 256.376H541.581V254.624H539.421V266Z" fill="black"/>
<path d="M380.984 333.576C375.632 333.576 372.128 337.488 372.128 342.624C372.128 346.824 375.392 351.432 380.864 351.432C383.6 351.432 385.976 350.232 387.296 348.456L385.352 346.992C384.32 348.432 382.88 349.272 380.912 349.272C377.048 349.272 374.576 346.296 374.576 342.648C374.576 338.784 377.12 335.736 380.912 335.736C382.496 335.736 384.008 336.408 385.016 337.68L386.936 336.216C385.616 334.512 383.384 333.576 380.984 333.576ZM392.914 351.288C394.642 351.288 395.914 350.736 396.898 349.272H396.946C396.946 349.944 396.97 350.424 397.018 351H398.938C398.866 350.4 398.842 349.488 398.842 349.152V343.056C398.842 341.28 397.522 339.336 394.09 339.336C392.458 339.336 390.778 339.912 389.578 341.016L390.874 342.36C392.122 341.352 392.866 341.064 394.09 341.064C395.698 341.064 396.826 342 396.826 343.536V343.944H395.218C390.754 343.944 388.978 345.6 388.978 347.88C388.978 349.992 390.634 351.288 392.914 351.288ZM395.602 345.528H396.826V346.152C396.826 348.36 395.53 349.56 393.586 349.56C391.93 349.56 391.138 348.888 391.138 347.712C391.138 346.608 392.098 345.528 395.602 345.528ZM404.304 332.856H402.144V351H404.304V332.856ZM413.141 339.36C409.661 339.36 407.189 341.808 407.189 345.36C407.189 348.864 409.637 351.288 413.141 351.288C414.797 351.288 416.333 350.808 417.461 349.536L415.925 348C415.181 348.84 414.389 349.272 413.165 349.272C411.005 349.272 409.493 347.616 409.493 345.408C409.493 343.056 410.885 341.376 413.045 341.376C414.245 341.376 415.085 341.808 415.877 342.648L417.509 341.16C416.381 339.936 414.797 339.36 413.141 339.36ZM420.568 333.96C419.728 333.96 418.984 334.656 418.984 335.544C418.984 336.432 419.68 337.128 420.568 337.128C421.408 337.128 422.152 336.432 422.152 335.544C422.152 334.68 421.432 333.96 420.568 333.96ZM421.648 339.624H419.488V351H421.648V339.624ZM425.085 339.624V347.04C425.085 349.608 426.693 351.288 429.213 351.288C430.893 351.288 432.357 350.52 432.957 349.248H433.005V351H435.165V339.624H433.005V345.576C433.005 347.832 431.853 349.272 429.837 349.272C428.229 349.272 427.245 348.216 427.245 346.44V339.624H425.085ZM440.581 351V345C440.581 342.84 441.757 341.352 443.533 341.352C445.141 341.352 445.933 342.192 445.933 344.88V351H448.093V344.688C448.093 342.624 449.053 341.352 450.997 341.352C452.653 341.352 453.445 342.312 453.445 344.544V351H455.605V344.28C455.605 341.04 454.165 339.336 451.285 339.336C449.797 339.336 448.405 340.128 447.685 341.448C446.941 340.032 445.813 339.336 444.133 339.336C442.453 339.336 440.941 340.344 440.485 341.4H440.437V339.624H438.421V351H440.581Z" fill="black"/>
</svg>
