<svg width="535" height="358" viewBox="0 0 535 358" fill="none" xmlns="http://www.w3.org/2000/svg">
<rect width="535" height="358" fill="#E5E5E5"/>
<rect x="-5036" y="-13377" width="32086" height="14893" stroke="#FF0000" stroke-width="100"/>
<path d="M510.427 11.4414L511.586 12.2183C512.026 12.3047 512.472 12.3513 512.92 12.3574L510.427 11.4414Z" fill="#B4B4B4"/>
<path d="M22.3807 3.45312L15.4238 7.07069C17.3602 6.10832 19.911 4.80971 22.3807 3.45312Z" fill="#B4B4B4"/>
<path d="M513.755 20.8223C513.923 21.1644 514.16 21.4683 514.451 21.7151C514.271 21.3802 514.036 21.0783 513.755 20.8223V20.8223Z" fill="#B4B4B4"/>
<path d="M23.1577 3.07031L22.3809 3.47613L23.1577 3.07031Z" fill="#B4B4B4"/>
<g opacity="0.3">
<path opacity="0.3" d="M260.468 21.3446C261.627 20.8692 262.137 20.5097 262.149 20.3242C261.036 20.846 260.131 21.2866 260.468 21.3446Z" fill="#B4B4B4"/>
<path opacity="0.3" d="M232.234 29.9259L233.892 29.3926C233.302 29.4183 232.729 29.6026 232.234 29.9259V29.9259Z" fill="#B4B4B4"/>
<path opacity="0.3" d="M182.389 50.9351L182.609 50.8539C183.792 50.0307 183.096 50.4365 182.389 50.9351Z" fill="#B4B4B4"/>
<path opacity="0.3" d="M80.0176 122C80.5093 121.994 80.9946 121.887 81.4437 121.687C81.3046 121.594 80.9568 121.594 80.0176 122Z" fill="#B4B4B4"/>
<path opacity="0.3" d="M156.312 69.416L154.248 70.4132C154.955 70.1218 155.644 69.7888 156.312 69.416V69.416Z" fill="#B4B4B4"/>
<path opacity="0.3" d="M47.1822 157.41C46.2846 158.084 45.5015 158.898 44.8633 159.822C45.0405 159.76 45.2083 159.674 45.3619 159.567C45.7692 158.701 46.397 157.957 47.1822 157.41V157.41Z" fill="#B4B4B4"/>
<path opacity="0.3" d="M15.877 196.589C16.159 196.416 16.43 196.227 16.6886 196.021L17.5234 194.676L15.877 196.589Z" fill="#B4B4B4"/>
<path opacity="0.3" d="M55.3681 167.531C53.5594 169.363 51.8201 171.265 50.0693 173.143C51.6114 171.624 53.5014 169.549 55.3681 167.531Z" fill="#B4B4B4"/>
<path opacity="0.3" d="M35.8425 191.035C34.5555 191.791 33.384 192.728 32.3641 193.818C32.2475 194.13 32.181 194.459 32.167 194.792C33.3265 193.482 34.5555 192.322 35.8425 191.035Z" fill="#B4B4B4"/>
<path opacity="0.3" d="M511.228 3.14258C511.495 3.416 511.825 3.61913 512.19 3.73391C511.909 3.47815 511.583 3.27755 511.228 3.14258Z" fill="#B4B4B4"/>
<path opacity="0.3" d="M163.501 77.7773C163.209 77.9557 162.926 78.1492 162.654 78.3571C160.741 79.8528 162.086 78.9136 163.501 77.7773Z" fill="#B4B4B4"/>
<path opacity="0.3" d="M277.014 22.2617C275.854 22.969 274.695 23.6647 273.385 24.2792C275.518 23.6879 277.199 23.1661 277.014 22.2617Z" fill="#B4B4B4"/>
<path opacity="0.3" d="M55.9586 166.918L55.3789 167.556L55.9586 166.918Z" fill="#B4B4B4"/>
<path opacity="0.3" d="M267.737 26.1461C269.671 25.7605 271.549 25.1333 273.326 24.2793C271.404 24.7069 269.531 25.3325 267.737 26.1461V26.1461Z" fill="#B4B4B4"/>
<path opacity="0.3" d="M330.431 9.1826C331.683 9.1826 332.924 9.25217 334.176 9.31015L335.579 7.62891C333.828 8.12748 332.135 8.63765 330.431 9.1826Z" fill="#B4B4B4"/>
<path opacity="0.3" d="M305.548 4.35854L307.102 3.73242C305.108 4.4397 303.102 5.13539 301.107 5.88905C302.592 5.36728 304.064 4.84552 305.548 4.35854Z" fill="#B4B4B4"/>
<path opacity="0.3" d="M19.8994 188.46L22.056 188.611C23.3199 186.35 21.9981 184.68 19.8994 188.46Z" fill="#B4B4B4"/>
</g>
<path d="M136.519 177.248V181.179L136.009 306.912C136.001 308.915 136.389 310.899 137.15 312.752C137.911 314.604 139.031 316.288 140.444 317.706C141.857 319.125 143.537 320.251 145.386 321.019C147.236 321.787 149.219 322.183 151.221 322.183H421.031C423.029 322.184 425.008 321.792 426.855 321.028C428.701 320.264 430.379 319.143 431.791 317.73C433.204 316.317 434.325 314.64 435.089 312.794C435.853 310.947 436.245 308.968 436.244 306.97V165.839C436.25 163.837 435.861 161.854 435.099 160.003C434.337 158.152 433.218 156.47 431.804 155.052C430.391 153.635 428.712 152.51 426.864 151.742C425.015 150.975 423.033 150.58 421.031 150.58H151.488C149.462 150.58 147.456 150.984 145.588 151.769C143.72 152.555 142.028 153.705 140.611 155.154C139.193 156.602 138.08 158.319 137.336 160.204C136.591 162.088 136.231 164.103 136.276 166.129L136.519 177.248Z" fill="#DAF1E1"/>
<path d="M146.955 147.727V307.734H353.342V154.683L146.955 147.727Z" fill="#AADBFF"/>
<path d="M422.911 152.365H363.777V307.735H422.911V152.365Z" fill="#AADBFF"/>
<path d="M160.289 106.52H202.03V163.334C202.03 163.334 183.479 194.64 160.289 163.334V106.52Z" fill="#FFE297"/>
<path d="M135.256 114.253L119.707 154.058C119.707 154.058 124.345 194.64 160.289 163.334V106.52H146.514C144.077 106.525 141.699 107.267 139.69 108.647C137.681 110.027 136.136 111.981 135.256 114.253V114.253Z" fill="#FFC470"/>
<path d="M435.769 114.265L451.318 154.058C451.318 154.058 446.68 194.64 410.736 163.334V106.52H424.511C426.95 106.525 429.33 107.267 431.339 108.65C433.348 110.032 434.893 111.989 435.769 114.265Z" fill="#FFE297"/>
<path d="M202.03 106.52H243.771V163.334C243.771 163.334 225.22 194.64 202.03 163.334V106.52Z" fill="#FFC470"/>
<path d="M243.771 106.52H285.513V163.334C285.513 163.334 266.961 194.64 243.771 163.334V106.52Z" fill="#FFE297"/>
<path d="M285.513 106.52H327.254V163.334C327.254 163.334 308.702 194.64 285.513 163.334V106.52Z" fill="#FFC470"/>
<path d="M327.254 106.52H368.995V163.334C368.995 163.334 350.443 194.64 327.254 163.334V106.52Z" fill="#FFE297"/>
<path d="M368.995 106.52H410.736V163.334C410.736 163.334 392.185 194.64 368.995 163.334V106.52Z" fill="#FFC470"/>
<path d="M303.681 212.637H209.972C202.288 212.637 196.059 218.866 196.059 226.55V256.117C196.059 263.801 202.288 270.031 209.972 270.031H303.681C311.366 270.031 317.595 263.801 317.595 256.117V226.55C317.595 218.866 311.366 212.637 303.681 212.637Z" fill="#FFC470"/>
<path d="M211.685 238.67C212.309 239.606 213.101 240.302 214.061 240.758C215.045 241.19 216.053 241.406 217.085 241.406C217.661 241.406 218.249 241.322 218.849 241.154C219.449 240.962 219.989 240.686 220.469 240.326C220.973 239.966 221.381 239.522 221.693 238.994C222.005 238.466 222.161 237.854 222.161 237.158C222.161 236.174 221.849 235.43 221.225 234.926C220.601 234.398 219.821 233.966 218.885 233.63C217.973 233.27 216.965 232.934 215.861 232.622C214.781 232.286 213.773 231.83 212.837 231.254C211.925 230.678 211.157 229.91 210.533 228.95C209.909 227.966 209.597 226.646 209.597 224.99C209.597 224.246 209.753 223.454 210.065 222.614C210.401 221.774 210.917 221.006 211.613 220.31C212.309 219.614 213.197 219.038 214.277 218.582C215.381 218.102 216.701 217.862 218.237 217.862C219.629 217.862 220.961 218.054 222.233 218.438C223.505 218.822 224.621 219.602 225.581 220.778L222.773 223.334C222.341 222.662 221.729 222.122 220.937 221.714C220.145 221.306 219.245 221.102 218.237 221.102C217.277 221.102 216.473 221.234 215.825 221.498C215.201 221.738 214.697 222.062 214.313 222.47C213.929 222.854 213.653 223.274 213.485 223.73C213.341 224.186 213.269 224.606 213.269 224.99C213.269 226.07 213.581 226.898 214.205 227.474C214.829 228.05 215.597 228.518 216.509 228.878C217.445 229.238 218.453 229.562 219.533 229.85C220.637 230.138 221.645 230.546 222.557 231.074C223.493 231.578 224.273 232.274 224.897 233.162C225.521 234.026 225.833 235.226 225.833 236.762C225.833 237.986 225.593 239.09 225.113 240.074C224.657 241.058 224.033 241.886 223.241 242.558C222.449 243.23 221.513 243.746 220.433 244.106C219.353 244.466 218.201 244.646 216.977 244.646C215.345 244.646 213.797 244.358 212.333 243.782C210.869 243.206 209.705 242.318 208.841 241.118L211.685 238.67ZM230.105 216.782H233.345V229.562H233.417C233.825 228.65 234.533 227.918 235.541 227.366C236.549 226.79 237.713 226.502 239.033 226.502C239.849 226.502 240.629 226.634 241.373 226.898C242.141 227.138 242.801 227.522 243.353 228.05C243.929 228.578 244.385 229.262 244.721 230.102C245.057 230.918 245.225 231.89 245.225 233.018V243.998H241.985V233.918C241.985 233.126 241.877 232.454 241.661 231.902C241.445 231.326 241.157 230.87 240.797 230.534C240.437 230.174 240.017 229.922 239.537 229.778C239.081 229.61 238.601 229.526 238.097 229.526C237.425 229.526 236.801 229.634 236.225 229.85C235.649 230.066 235.145 230.414 234.713 230.894C234.281 231.35 233.945 231.938 233.705 232.658C233.465 233.378 233.345 234.23 233.345 235.214V243.998H230.105V216.782ZM252.737 235.466C252.737 236.33 252.869 237.134 253.133 237.878C253.397 238.598 253.769 239.222 254.249 239.75C254.729 240.254 255.317 240.662 256.013 240.974C256.709 241.262 257.489 241.406 258.353 241.406C259.217 241.406 259.997 241.262 260.693 240.974C261.389 240.662 261.977 240.254 262.457 239.75C262.937 239.222 263.309 238.598 263.573 237.878C263.837 237.134 263.969 236.33 263.969 235.466C263.969 234.602 263.837 233.81 263.573 233.09C263.309 232.346 262.937 231.722 262.457 231.218C261.977 230.69 261.389 230.282 260.693 229.994C259.997 229.682 259.217 229.526 258.353 229.526C257.489 229.526 256.709 229.682 256.013 229.994C255.317 230.282 254.729 230.69 254.249 231.218C253.769 231.722 253.397 232.346 253.133 233.09C252.869 233.81 252.737 234.602 252.737 235.466ZM249.281 235.466C249.281 234.218 249.509 233.054 249.965 231.974C250.445 230.894 251.093 229.946 251.909 229.13C252.725 228.314 253.685 227.678 254.789 227.222C255.893 226.742 257.081 226.502 258.353 226.502C259.625 226.502 260.813 226.742 261.917 227.222C263.021 227.678 263.981 228.314 264.797 229.13C265.613 229.946 266.249 230.894 266.705 231.974C267.185 233.054 267.425 234.218 267.425 235.466C267.425 236.714 267.185 237.89 266.705 238.994C266.249 240.074 265.613 241.022 264.797 241.838C263.981 242.63 263.021 243.266 261.917 243.746C260.813 244.202 259.625 244.43 258.353 244.43C257.081 244.43 255.893 244.202 254.789 243.746C253.685 243.266 252.725 242.63 251.909 241.838C251.093 241.022 250.445 240.074 249.965 238.994C249.509 237.89 249.281 236.714 249.281 235.466ZM271.484 226.934H274.724V229.382H274.796C275.42 228.47 276.272 227.762 277.352 227.258C278.456 226.754 279.584 226.502 280.736 226.502C282.056 226.502 283.244 226.73 284.3 227.186C285.38 227.642 286.292 228.278 287.036 229.094C287.804 229.91 288.392 230.87 288.8 231.974C289.208 233.054 289.412 234.218 289.412 235.466C289.412 236.738 289.208 237.926 288.8 239.03C288.392 240.11 287.804 241.058 287.036 241.874C286.292 242.666 285.38 243.29 284.3 243.746C283.244 244.202 282.056 244.43 280.736 244.43C279.512 244.43 278.36 244.178 277.28 243.674C276.2 243.146 275.372 242.438 274.796 241.55H274.724V254.15H271.484V226.934ZM280.34 229.526C279.476 229.526 278.696 229.682 278 229.994C277.304 230.282 276.716 230.69 276.236 231.218C275.756 231.722 275.384 232.346 275.12 233.09C274.856 233.81 274.724 234.602 274.724 235.466C274.724 236.33 274.856 237.134 275.12 237.878C275.384 238.598 275.756 239.222 276.236 239.75C276.716 240.254 277.304 240.662 278 240.974C278.696 241.262 279.476 241.406 280.34 241.406C281.204 241.406 281.984 241.262 282.68 240.974C283.376 240.662 283.964 240.254 284.444 239.75C284.924 239.222 285.296 238.598 285.56 237.878C285.824 237.134 285.956 236.33 285.956 235.466C285.956 234.602 285.824 233.81 285.56 233.09C285.296 232.346 284.924 231.722 284.444 231.218C283.964 230.69 283.376 230.282 282.68 229.994C281.984 229.682 281.204 229.526 280.34 229.526Z" fill="#585858"/>
<path d="M96.8297 250.91C100.54 249.805 103.977 247.933 106.917 245.414C109.12 243.524 113.097 239.454 112.1 237.657C110.941 235.674 104.714 238.178 103.647 236.149C103.068 235.059 104.54 233.726 106.929 229.9C109.317 226.074 111.567 222.375 111.729 217.795C111.729 216.253 111.891 212.879 109.839 211.545C107.787 210.212 104.413 211.847 104.042 212.044C97.3515 215.627 97.1544 227.117 96.3427 227.001C95.7282 226.897 96.6558 220.728 95.0209 213.087C94.5571 210.896 93.6064 206.49 92.3078 206.467C89.8729 206.467 88.0989 221.749 86.3133 221.598C85.1538 221.505 85.6292 215.198 81.5246 207.847C80.284 205.632 78.9042 203.209 77.4201 203.371C75.1011 203.603 73.5938 210.177 73.2576 214.966C72.5155 225.401 76.736 233.332 75.1475 234.144C73.9185 234.758 71.472 230.236 69.4661 230.92C67.4602 231.604 67.0312 236.949 68.3066 241.147C69.1465 243.766 70.667 246.114 72.7126 247.953C81.1884 255.536 94.9746 251.454 96.8297 250.91Z" fill="#18A357"/>
<path d="M94.5695 251.095C96.9466 250.403 99.1512 249.218 101.039 247.617C102.454 246.399 104.993 243.79 104.355 242.631C103.718 241.471 99.6248 242.967 98.9407 241.657C98.5697 240.961 99.5088 240.103 101.039 237.645C102.57 235.187 104.019 232.822 104.124 229.877C104.124 228.903 104.228 226.723 102.964 225.876C101.7 225.03 99.4856 226.062 99.2422 226.201C94.9521 228.52 94.8246 235.871 94.3028 235.79C93.781 235.709 94.5115 231.767 93.4564 226.85C93.1549 225.436 92.552 222.618 91.7172 222.595C90.1519 222.595 89.0156 232.404 87.8677 232.312C87.1372 232.242 87.4271 228.195 84.7951 223.488C84.0067 222.062 83.1138 220.508 82.1631 220.612C80.6558 220.763 79.705 224.972 79.4963 228.056C79.0093 234.781 81.7341 239.837 80.6558 240.358C79.8673 240.753 78.3368 237.854 77.015 238.294C75.6932 238.735 75.4497 242.167 76.2845 244.845C76.8199 246.533 77.7967 248.046 79.1137 249.228C84.54 254.075 93.3868 251.454 94.5695 251.095Z" fill="#077B46"/>
<path d="M105.759 257.494C106.165 258.967 106.397 260.973 100.889 275.35C99.243 279.652 97.6661 283.536 94.5124 291.305C89.6194 303.352 90.3382 301.74 88.9585 305.056C85.3757 313.567 83.0567 318.193 78.4188 327.446C75.681 332.386 72.4655 337.046 68.8184 341.359C67.7254 342.759 66.3196 343.883 64.7138 344.641C64.1921 344.884 61.3861 346.171 59.1715 345.452C55.6931 344.293 54.6148 338.646 54.1858 335.991C51.5306 319.596 53.664 297.299 53.9539 294.25C55.1134 282.203 58.4527 270.423 59.3802 258.306C59.5542 256.08 59.8904 251.083 63.4848 247.268C66.882 243.685 71.4388 242.978 74.6621 242.479C82.0901 241.475 89.6344 243.117 95.9733 247.117C100.008 249.738 104.38 252.497 105.759 257.494Z" fill="#FFC470" stroke="#F9922B" stroke-width="2" stroke-miterlimit="10" stroke-linecap="round"/>
<path d="M93.3285 268.776C93.2357 268.962 92.2849 268.382 88.4587 267.408C87.058 267.022 85.6375 266.713 84.2034 266.48C81.6409 266.109 78.348 265.959 77.9654 265.935C76.2494 265.866 75.6464 265.935 75.5885 265.68C75.4725 265.182 78.2553 263.709 80.8757 263.361C87.4151 262.422 93.5951 268.289 93.3285 268.776Z" fill="#E2662E"/>
<path d="M67.4494 333.208C67.4494 333.278 67.0668 333.034 65.6058 332.594C65.0776 332.413 64.5395 332.262 63.9942 332.141C63.0202 331.944 61.7564 331.828 61.6057 331.805C60.9448 331.747 60.7129 331.747 60.7013 331.654C60.6897 331.562 61.7564 330.959 62.7767 330.866C63.6865 330.852 64.5863 331.057 65.3997 331.465C66.2131 331.873 66.9163 332.471 67.4494 333.208V333.208Z" fill="#E2662E"/>
<path d="M70.4994 289.716C70.4994 289.774 70.1052 289.542 68.6558 289.09C68.1283 288.909 67.59 288.762 67.0441 288.649C66.0586 288.452 64.7947 288.324 64.644 288.313C63.9947 288.243 63.7628 288.243 63.7396 288.162C63.7164 288.081 64.8063 287.455 65.8267 287.374C66.7361 287.361 67.6352 287.568 68.4483 287.975C69.2615 288.383 69.9649 288.98 70.4994 289.716V289.716Z" fill="#E2662E"/>
<path d="M69.7228 322.274C69.6648 322.39 69.0851 321.996 66.7313 321.265C65.8689 320.974 64.99 320.734 64.0993 320.546C62.5108 320.222 60.4702 320.024 60.2267 319.99C59.16 319.885 58.7773 319.885 58.7541 319.746C58.7309 319.607 60.4818 318.587 62.1282 318.471C66.2444 318.111 69.9083 321.984 69.7228 322.274Z" fill="#E2662E"/>
<path d="M79.8093 307.109C79.7166 307.26 78.9397 306.715 75.7048 305.718C74.5298 305.323 73.3337 304.994 72.122 304.732C69.9538 304.292 67.1479 304.013 66.8116 303.979C65.3507 303.84 64.8405 303.84 64.8057 303.654C64.7246 303.225 67.1247 302.089 69.4436 301.892C75.0439 301.312 80.0528 306.646 79.8093 307.109Z" fill="#E2662E"/>
<path d="M29.8364 254.631C32.097 252.621 33.9067 250.155 35.1468 247.396C36.0744 245.321 37.4658 241.123 36.2252 240.184C34.9845 239.245 31.1814 243.013 29.7437 241.923C28.9784 241.344 29.5814 239.917 29.9872 236.427C30.393 232.937 30.764 229.563 29.3495 226.27C28.8857 225.169 27.8421 222.734 25.9406 222.479C24.0391 222.224 22.2071 224.496 22.01 224.798C18.5316 229.563 22.1491 237.749 21.5346 237.923C20.9201 238.097 19.6794 233.401 15.9691 228.508C14.9024 227.117 12.769 224.322 11.8414 224.728C10.1022 225.505 13.9516 236.938 12.6414 237.483C11.8066 237.796 10.021 233.192 4.67581 229.366C3.07573 228.207 1.29013 226.966 0.292983 227.569C-1.2839 228.52 -0.147617 233.656 1.20897 237.158C4.16563 244.81 9.80069 248.973 8.91949 250.086C8.25859 250.921 5.03525 248.544 3.84099 249.692C2.64673 250.84 4.11926 254.77 6.42661 257.298C7.89832 258.869 9.75789 260.025 11.8182 260.649C20.3287 263.107 28.7234 255.617 29.8364 254.631Z" fill="#18A357"/>
<path d="M28.3051 255.512C29.7522 254.22 30.9134 252.64 31.714 250.874C32.3053 249.552 33.2329 246.85 32.398 246.236C31.5632 245.621 29.1631 248.045 28.2471 247.395C27.7485 247.024 28.1312 246.108 28.3979 243.917C28.8445 241.747 28.7044 239.498 27.992 237.401C27.679 236.693 27.0181 235.082 25.8006 234.966C24.5832 234.85 23.4005 236.264 23.273 236.438C21.012 239.488 23.3657 244.74 22.9715 244.856C22.5773 244.972 21.812 241.957 19.4003 238.815C18.7162 237.922 17.348 236.125 16.7567 236.392C15.5972 236.89 18.1133 244.23 17.2669 244.508C16.7219 244.705 15.5856 241.749 12.1652 239.291C11.1333 238.549 9.98537 237.748 9.34766 238.131C8.32732 238.746 9.05779 242.039 9.9274 244.288C11.8289 249.193 15.4349 251.871 14.8784 252.578C14.3218 253.285 12.3855 251.593 11.6202 252.335C10.855 253.077 11.7942 255.593 13.2783 257.204C14.2308 258.213 15.4296 258.956 16.7567 259.361C22.1947 260.95 27.5862 256.149 28.3051 255.512Z" fill="#077B46"/>
<path d="M38.3344 256.313C39.1113 257.217 39.9345 258.539 40.8389 270.551C41.1056 274.145 41.2795 277.415 41.639 283.955C42.1955 294.1 42.1723 292.755 42.2883 295.549C42.5781 302.75 42.4854 306.796 42.2883 314.878C41.9921 319.27 41.2698 323.623 40.1316 327.876C39.8202 329.227 39.2013 330.489 38.3229 331.563C37.4096 332.755 36.1241 333.608 34.6705 333.986C31.8414 334.357 29.1862 330.681 28.0035 328.954C20.6756 318.252 14.7623 301.776 13.9623 299.561C10.7621 290.656 9.22 281.218 5.84593 272.371C5.21981 270.737 3.79366 267.096 5.06908 263.212C6.22856 259.536 9.25479 257.53 11.365 256.104C16.29 252.927 22.1763 251.584 27.9919 252.313C31.6906 252.753 35.7024 253.24 38.3344 256.313Z" fill="#FFC470" stroke="#F9922B" stroke-width="2" stroke-miterlimit="10" stroke-linecap="round"/>
<path d="M33.3144 268.429C33.3144 268.591 32.4448 268.487 29.4069 269.078C28.2908 269.266 27.1873 269.521 26.1024 269.843C24.1545 270.423 21.7892 271.42 21.4645 271.536C20.2239 272.046 19.8065 272.267 19.6905 272.139C19.447 271.826 20.9196 269.82 22.6588 268.719C27.0184 265.901 33.326 267.988 33.3144 268.429Z" fill="#E2662E"/>
<path d="M36.4557 322.576C36.4557 322.634 36.1195 322.576 34.9368 322.75C34.5035 322.796 34.0736 322.869 33.6498 322.97C32.8962 323.156 31.9686 323.492 31.8526 323.527C31.3656 323.701 31.2033 323.782 31.157 323.724C31.1106 323.666 31.6787 322.878 32.3164 322.472C32.9635 322.154 33.6781 321.997 34.3989 322.015C35.1198 322.033 35.8255 322.226 36.4557 322.576Z" fill="#E2662E"/>
<path d="M24.1433 290.877C24.1433 290.935 23.807 290.877 22.6244 291.051C22.1911 291.097 21.7612 291.17 21.3373 291.271C20.7292 291.426 20.1294 291.612 19.5401 291.828C19.0532 292.002 18.8908 292.083 18.8445 292.025C18.7981 291.967 19.3662 291.179 20.0039 290.773C20.6499 290.451 21.365 290.292 22.0866 290.31C22.8082 290.328 23.5143 290.523 24.1433 290.877Z" fill="#E2662E"/>
<path d="M34.4282 314.065C34.4282 314.17 33.8832 314.065 31.9701 314.343C31.2637 314.424 30.5628 314.548 29.8714 314.715C28.6424 315.016 27.1235 315.549 26.9496 315.619C26.1611 315.897 25.8944 316.025 25.7901 315.932C25.6857 315.839 26.6365 314.552 27.7496 313.903C30.5787 312.303 34.4514 313.822 34.4282 314.065Z" fill="#E2662E"/>
<path d="M36.4913 299.978C36.4913 300.117 35.7377 299.978 33.1289 300.36C32.1656 300.472 31.2094 300.639 30.2649 300.859C28.5837 301.276 26.5082 302.018 26.2648 302.088C25.1864 302.482 24.8154 302.644 24.7342 302.528C24.6531 302.413 25.8937 300.639 27.4126 299.746C31.2041 297.543 36.5261 299.607 36.4913 299.978Z" fill="#E2662E"/>
<path d="M473.869 323.967C486.484 323.967 496.711 313.74 496.711 301.125C496.711 288.51 486.484 278.283 473.869 278.283C461.254 278.283 451.027 288.51 451.027 301.125C451.027 313.74 461.254 323.967 473.869 323.967Z" fill="#FA836D"/>
<path d="M467.348 286.298C468.425 281.69 467.226 277.47 464.669 276.872C462.113 276.274 459.167 279.525 458.089 284.133C457.012 288.741 458.211 292.961 460.768 293.559C463.324 294.157 466.27 290.906 467.348 286.298Z" fill="#61C590"/>
<path d="M472.999 291.894C475.467 290.975 476.125 286.624 474.468 282.176C472.812 277.728 469.469 274.866 467.001 275.785C464.533 276.704 463.875 281.055 465.531 285.504C467.188 289.952 470.531 292.813 472.999 291.894Z" fill="#61C590"/>
<path d="M477.727 287.775C479.422 285.77 477.866 281.668 474.252 278.613C470.638 275.558 466.334 274.706 464.639 276.711C462.944 278.716 464.5 282.818 468.114 285.874C471.728 288.929 476.032 289.78 477.727 287.775Z" fill="#61C590"/>
<path d="M460.535 273.635L460.686 273.693L460.524 273.624C460.602 273.665 460.683 273.7 460.767 273.728L461.231 273.983C461.404 274.076 461.57 274.181 461.73 274.296C461.787 274.296 462.019 274.54 461.811 274.354C461.602 274.169 461.811 274.354 461.88 274.412C462.167 274.653 462.439 274.913 462.692 275.189C462.75 275.259 462.796 275.328 462.866 275.398C462.935 275.467 462.692 275.166 462.866 275.398C463.04 275.63 463.098 275.711 463.202 275.885C463.39 276.187 463.561 276.501 463.712 276.824C463.886 277.16 463.573 276.441 463.712 276.824L463.817 277.067C463.875 277.241 463.921 277.404 463.967 277.577C464.025 277.764 464.071 277.954 464.106 278.146C464.101 278.234 464.101 278.323 464.106 278.412C464.106 278.633 464.106 277.995 464.106 278.32C464.135 278.706 464.135 279.093 464.106 279.479C464.105 279.708 464.149 279.935 464.236 280.146C464.323 280.358 464.451 280.55 464.612 280.712C464.774 280.874 464.967 281.002 465.178 281.089C465.39 281.176 465.617 281.22 465.846 281.218C466.303 281.206 466.739 281.019 467.062 280.696C467.386 280.372 467.573 279.937 467.585 279.479C467.671 277.506 467.124 275.556 466.025 273.915C464.926 272.274 463.332 271.026 461.474 270.354C461.03 270.233 460.556 270.293 460.156 270.522C459.756 270.75 459.463 271.127 459.341 271.571C459.227 272.008 459.283 272.471 459.499 272.868C459.714 273.264 460.072 273.563 460.5 273.705L460.535 273.635Z" fill="#61C590"/>
<path d="M447.027 357.594C455.704 357.594 462.738 350.56 462.738 341.883C462.738 333.206 455.704 326.172 447.027 326.172C438.35 326.172 431.316 333.206 431.316 341.883C431.316 350.56 438.35 357.594 447.027 357.594Z" fill="#FA836D"/>
<path d="M442.551 331.677C443.291 328.51 442.466 325.608 440.708 325.197C438.949 324.786 436.923 327.021 436.183 330.188C435.442 333.356 436.267 336.257 438.026 336.668C439.784 337.079 441.81 334.845 442.551 331.677Z" fill="#61C590"/>
<path d="M444.872 335.939C446.565 335.311 447.021 332.329 445.89 329.279C444.759 326.229 442.47 324.265 440.777 324.893C439.084 325.52 438.628 328.502 439.758 331.552C440.889 334.602 443.178 336.566 444.872 335.939Z" fill="#61C590"/>
<path d="M449.68 332.675C450.845 331.296 449.777 328.475 447.292 326.375C444.808 324.275 441.849 323.69 440.683 325.069C439.517 326.448 440.586 329.269 443.07 331.369C445.555 333.469 448.514 334.054 449.68 332.675Z" fill="#61C590"/>
<path d="M437.717 323.492L437.925 323.574L437.508 323.4C437.892 323.563 438.254 323.773 438.586 324.026L438.227 323.748C438.574 324.021 438.889 324.332 439.166 324.675L438.888 324.327C439.174 324.683 439.416 325.072 439.607 325.487L439.433 325.069C439.61 325.496 439.731 325.944 439.792 326.403L439.734 325.939C439.763 326.259 439.763 326.581 439.734 326.901C439.734 327.363 439.917 327.805 440.244 328.131C440.57 328.457 441.012 328.641 441.473 328.641C441.935 328.641 442.377 328.457 442.703 328.131C443.029 327.805 443.213 327.363 443.213 326.901C443.287 325.484 442.91 324.079 442.134 322.889C441.31 321.604 440.089 320.623 438.656 320.095C438.435 320.034 438.204 320.016 437.977 320.044C437.749 320.072 437.53 320.145 437.33 320.258C437.131 320.371 436.956 320.522 436.815 320.703C436.675 320.884 436.571 321.092 436.511 321.313C436.449 321.535 436.433 321.768 436.463 321.997C436.493 322.226 436.568 322.447 436.685 322.646C436.929 323.026 437.298 323.309 437.728 323.446L437.717 323.492Z" fill="#61C590"/>
<path d="M521.176 337.105C528.54 337.105 534.51 331.136 534.51 323.771C534.51 316.407 528.54 310.438 521.176 310.438C513.812 310.438 507.842 316.407 507.842 323.771C507.842 331.136 513.812 337.105 521.176 337.105Z" fill="#FA836D"/>
<path d="M517.384 315.12C518.013 312.432 517.309 309.97 515.812 309.62C514.316 309.27 512.593 311.165 511.965 313.853C511.337 316.54 512.04 319.002 513.537 319.352C515.033 319.702 516.756 317.807 517.384 315.12Z" fill="#61C590"/>
<path d="M519.347 318.73C520.788 318.196 521.178 315.665 520.219 313.077C519.26 310.49 517.314 308.825 515.873 309.359C514.432 309.893 514.041 312.424 515.001 315.012C515.96 317.6 517.906 319.265 519.347 318.73Z" fill="#61C590"/>
<path d="M523.416 315.943C524.408 314.769 523.503 312.373 521.396 310.591C519.288 308.809 516.775 308.316 515.783 309.49C514.791 310.664 515.695 313.06 517.803 314.841C519.91 316.623 522.423 317.116 523.416 315.943Z" fill="#61C590"/>
<path d="M513.198 308.419L513.372 308.489L512.966 308.315C513.29 308.452 513.594 308.631 513.871 308.848L513.523 308.57C513.814 308.803 514.078 309.067 514.311 309.358L514.045 309.01C514.288 309.324 514.49 309.667 514.648 310.031L514.474 309.613C514.627 309.985 514.732 310.375 514.787 310.773L514.717 310.309C514.746 310.579 514.746 310.851 514.717 311.121C514.727 311.58 514.909 312.018 515.227 312.35C515.557 312.67 515.997 312.852 516.456 312.86C516.917 312.855 517.357 312.672 517.685 312.35C517.995 312.013 518.175 311.578 518.196 311.121C518.258 309.871 517.926 308.634 517.245 307.584C516.934 307.069 516.542 306.607 516.085 306.216C515.512 305.715 514.852 305.322 514.137 305.057C513.917 304.994 513.687 304.975 513.46 305.003C513.232 305.03 513.013 305.102 512.814 305.216C512.615 305.329 512.441 305.481 512.302 305.663C512.163 305.845 512.062 306.053 512.004 306.274C511.942 306.497 511.926 306.729 511.956 306.958C511.986 307.187 512.061 307.408 512.178 307.607C512.417 307.987 512.783 308.27 513.21 308.408L513.198 308.419Z" fill="#61C590"/>
<path d="M285.513 85.1164C285.513 85.1164 222.901 17.8668 285.513 0.474609C348.125 17.8668 285.513 85.1164 285.513 85.1164Z" fill="#FFC470"/>
<path d="M285.513 48.0116C293.837 48.0116 300.586 41.2631 300.586 32.9384C300.586 24.6137 293.837 17.8652 285.513 17.8652C277.188 17.8652 270.439 24.6137 270.439 32.9384C270.439 41.2631 277.188 48.0116 285.513 48.0116Z" fill="white"/>
</svg>
