<svg width="156" height="29" viewBox="0 0 156 29" fill="none" xmlns="http://www.w3.org/2000/svg">
<path d="M35.8731 22.5586C34.6231 22.5683 33.3842 22.3233 32.232 21.8385C31.0798 21.3537 30.0384 20.6393 29.1714 19.7388C28.3094 18.8401 27.6296 17.783 27.1694 16.626C26.6819 15.3989 26.4373 14.0888 26.4492 12.7685C26.4381 11.4601 26.6827 10.1622 27.1694 8.94766C27.6317 7.79529 28.3114 6.74263 29.1714 5.84704C30.0223 4.96248 31.0384 4.2533 32.1621 3.75962C33.332 3.24877 34.5966 2.99085 35.8731 3.00277C36.9783 2.97615 38.0797 3.14136 39.1284 3.49106C40.1222 3.87383 41.043 4.42437 41.8506 5.11868C41.968 5.2034 42.071 5.30644 42.1557 5.42386C42.2243 5.51937 42.274 5.62709 42.3022 5.74125C42.3285 5.86563 42.3408 5.99256 42.3388 6.11967C42.3424 6.26401 42.3148 6.40741 42.2579 6.54012C42.201 6.67283 42.1162 6.79173 42.0092 6.88872C41.7808 7.10312 41.4811 7.22548 41.1679 7.23224C40.8546 7.239 40.55 7.12969 40.3125 6.92534C39.755 6.43305 39.125 6.02955 38.4448 5.72904C37.6298 5.42529 36.7625 5.28696 35.8935 5.32213C34.9516 5.31244 34.0192 5.51114 33.1631 5.90401C32.3198 6.29625 31.561 6.8491 30.9292 7.53163C30.2818 8.22232 29.7722 9.03024 29.4277 9.91202C28.7127 11.7829 28.7127 13.8518 29.4277 15.7226C29.7722 16.6044 30.2818 17.4123 30.9292 18.103C31.5608 18.7785 32.3201 19.322 33.1631 19.7022C34.7674 20.4127 36.5864 20.4653 38.2291 19.8486C38.9989 19.5418 39.7231 19.1311 40.3816 18.6279C40.6264 18.4314 40.9348 18.3315 41.2483 18.3472C41.5228 18.3665 41.78 18.4886 41.9686 18.689C42.1738 18.9199 42.2791 19.2228 42.2615 19.5313C42.2612 19.6949 42.228 19.8568 42.1639 20.0073C42.0927 20.1602 41.9933 20.2983 41.8709 20.4143C41.0251 21.0955 40.0723 21.6317 39.051 22.0012C38.0322 22.3705 36.9568 22.5591 35.8731 22.5586Z" fill="black"/>
<path d="M51.1322 22.4125C49.9124 22.4365 48.7079 22.1375 47.641 21.5458C46.6456 20.9797 45.8239 20.1524 45.2646 19.1532C44.6752 18.0881 44.375 16.8872 44.3939 15.6701C44.3658 14.4312 44.6663 13.207 45.2646 12.1218C45.825 11.1221 46.6482 10.2947 47.645 9.72924C48.7164 9.1603 49.911 8.86279 51.1241 8.86279C52.3371 8.86279 53.5317 9.1603 54.6031 9.72924C55.5999 10.2947 56.4231 11.1221 56.9835 12.1218C57.5791 13.2078 57.8767 14.4319 57.8461 15.6701C57.87 16.8922 57.5755 18.0996 56.9916 19.1735C56.4353 20.1669 55.6159 20.9877 54.6235 21.5458C53.5565 22.1375 52.352 22.4365 51.1322 22.4125ZM51.1322 20.2152C51.9206 20.2305 52.6979 20.0277 53.3783 19.6292C54.0277 19.2383 54.5559 18.6749 54.9042 18.0016C55.2702 17.2798 55.4533 16.4792 55.4373 15.6701C55.4534 14.8434 55.2647 14.0256 54.8879 13.2897C54.5409 12.6156 54.0124 12.0518 53.362 11.662C52.6778 11.2808 51.9074 11.0806 51.1241 11.0806C50.3407 11.0806 49.5704 11.2808 48.8861 11.662C48.2343 12.0539 47.7024 12.6168 47.348 13.2897C46.9636 14.0233 46.7704 14.842 46.7865 15.6701C46.7693 16.4944 46.9626 17.3094 47.348 18.0382C47.7034 18.7104 48.2351 19.273 48.8861 19.6659C49.5702 20.0516 50.3473 20.2416 51.1322 20.2152Z" fill="black"/>
<path d="M67.6118 22.4119C66.392 22.4359 65.1875 22.1369 64.1205 21.5452C63.1237 20.9797 62.3005 20.1523 61.7402 19.1526C61.1521 18.0871 60.8533 16.8863 60.8734 15.6695C60.8478 14.4379 61.1467 13.2211 61.7402 12.1416C62.3005 11.1419 63.1237 10.3145 64.1205 9.74902C65.1919 9.18008 66.3865 8.88257 67.5996 8.88257C68.8127 8.88257 70.0072 9.18008 71.0786 9.74902C72.0755 10.3145 72.8986 11.1419 73.459 12.1416C74.0525 13.2211 74.3514 14.4379 74.3257 15.6695C74.3496 16.8917 74.0551 18.099 73.4712 19.1729C72.9179 20.1738 72.0982 21.002 71.103 21.5655C70.0341 22.1502 68.8298 22.4422 67.6118 22.4119ZM67.6118 20.2146C68.4002 20.2299 69.1775 20.0271 69.8579 19.6287C70.5073 19.2377 71.0355 18.6743 71.3838 18.0011C71.7554 17.2807 71.9441 16.48 71.9331 15.6695C71.9493 14.8428 71.7606 14.0251 71.3838 13.2891C71.0368 12.615 70.5083 12.0513 69.8579 11.6615C69.1736 11.2802 68.4033 11.0801 67.6199 11.0801C66.8366 11.0801 66.0662 11.2802 65.382 11.6615C64.7302 12.0533 64.1983 12.6162 63.8439 13.2891C63.4538 14.0212 63.255 14.84 63.266 15.6695C63.2489 16.4938 63.4422 17.3088 63.8276 18.0377C64.183 18.7098 64.7147 19.2725 65.3657 19.6653C66.0498 20.051 66.8269 20.241 67.6118 20.2146Z" fill="black"/>
<path d="M79.2331 22.3142C79.0736 22.3237 78.9138 22.2993 78.7644 22.2425C78.6149 22.1858 78.4792 22.098 78.3662 21.9849C78.2531 21.8719 78.1653 21.7362 78.1086 21.5867C78.0518 21.4373 78.0274 21.2775 78.0368 21.1179V4.43483C78.0368 4.27773 78.0678 4.12217 78.1279 3.97702C78.188 3.83188 78.2761 3.7 78.3872 3.58892C78.4983 3.47783 78.6302 3.38971 78.7753 3.32959C78.9205 3.26947 79.076 3.23853 79.2331 3.23853C79.3902 3.23853 79.5458 3.26947 79.691 3.32959C79.8361 3.38971 79.968 3.47783 80.0791 3.58892C80.1901 3.7 80.2783 3.83188 80.3384 3.97702C80.3985 4.12217 80.4294 4.27773 80.4294 4.43483V21.1179C80.4389 21.2775 80.4145 21.4373 80.3577 21.5867C80.301 21.7362 80.2132 21.8719 80.1001 21.9849C79.9871 22.098 79.8514 22.1858 79.7019 22.2425C79.5525 22.2993 79.3927 22.3237 79.2331 22.3142ZM80.3806 17.4314L78.8669 15.7712L86.3621 9.08169C86.4681 8.97494 86.5953 8.89156 86.7355 8.8369C86.8756 8.78224 87.0257 8.75751 87.1759 8.7643C87.4745 8.79633 87.7508 8.9373 87.952 9.16026C88.1532 9.38321 88.2652 9.6725 88.2664 9.97281C88.2541 10.1236 88.2117 10.2703 88.1419 10.4045C88.072 10.5387 87.976 10.6575 87.8595 10.7541L80.3806 17.4314ZM87.9491 22.18C87.8302 22.2815 87.6924 22.3585 87.5437 22.4067C87.395 22.4549 87.2382 22.4733 87.0824 22.4607C86.9255 22.455 86.7717 22.4157 86.6313 22.3455C86.491 22.2753 86.3673 22.1758 86.2685 22.0538L81.3328 15.9177L83.0418 14.2901L88.12 20.5523C88.2202 20.6672 88.2966 20.8008 88.3448 20.9453C88.393 21.0899 88.412 21.2426 88.4007 21.3946C88.3836 21.5496 88.3347 21.6994 88.2569 21.8345C88.1792 21.9696 88.0744 22.0873 87.9491 22.18Z" fill="black"/>
<path d="M89.072 5.59084C88.7612 5.59084 88.4631 5.46738 88.2434 5.24761C88.0236 5.02784 87.9001 4.72976 87.9001 4.41896C87.9001 4.10815 88.0236 3.81008 88.2434 3.59031C88.4631 3.37054 88.7612 3.24707 89.072 3.24707H102.134C102.444 3.24707 102.743 3.37054 102.962 3.59031C103.182 3.81008 103.306 4.10815 103.306 4.41896C103.306 4.72976 103.182 5.02784 102.962 5.24761C102.743 5.46738 102.444 5.59084 102.134 5.59084H89.072ZM95.6151 22.3147C95.4476 22.3174 95.2813 22.2864 95.126 22.2236C94.9707 22.1608 94.8297 22.0674 94.7112 21.9489C94.5928 21.8305 94.4994 21.6894 94.4365 21.5342C94.3737 21.3789 94.3428 21.2126 94.3455 21.0451V3.24707H96.8846V21.0451C96.8874 21.2126 96.8564 21.3789 96.7936 21.5342C96.7307 21.6894 96.6373 21.8305 96.5189 21.9489C96.4004 22.0674 96.2594 22.1608 96.1041 22.2236C95.9489 22.2864 95.7825 22.3174 95.6151 22.3147Z" fill="black"/>
<path d="M108.262 22.4119C107.042 22.4359 105.837 22.1369 104.77 21.5452C103.773 20.9797 102.95 20.1523 102.39 19.1526C101.802 18.0871 101.503 16.8863 101.523 15.6695C101.498 14.4379 101.796 13.2211 102.39 12.1416C102.95 11.1419 103.773 10.3145 104.77 9.74902C105.842 9.18008 107.036 8.88257 108.249 8.88257C109.462 8.88257 110.657 9.18008 111.728 9.74902C112.725 10.3145 113.548 11.1419 114.109 12.1416C114.702 13.2211 115.001 14.4379 114.976 15.6695C114.999 16.8917 114.705 18.099 114.121 19.1729C113.568 20.1738 112.748 21.002 111.753 21.5655C110.684 22.1502 109.48 22.4422 108.262 22.4119ZM108.262 20.2146C109.05 20.2299 109.827 20.0271 110.508 19.6287C111.157 19.2377 111.685 18.6743 112.034 18.0011C112.405 17.2807 112.594 16.48 112.583 15.6695C112.599 14.8428 112.41 14.0251 112.034 13.2891C111.687 12.615 111.158 12.0513 110.508 11.6615C109.823 11.2802 109.053 11.0801 108.27 11.0801C107.486 11.0801 106.716 11.2802 106.032 11.6615C105.38 12.0533 104.848 12.6162 104.494 13.2891C104.104 14.0212 103.905 14.84 103.916 15.6695C103.899 16.4938 104.092 17.3088 104.477 18.0377C104.833 18.7098 105.364 19.2725 106.015 19.6653C106.7 20.051 107.477 20.241 108.262 20.2146Z" fill="black"/>
<path d="M119.932 28.0276C119.767 28.0309 119.604 28.001 119.451 27.9396C119.299 27.8782 119.16 27.7866 119.044 27.6703C118.928 27.554 118.836 27.4155 118.775 27.2629C118.713 27.1103 118.683 26.9469 118.687 26.7825V15.6699C118.684 14.4558 118.995 13.2616 119.59 12.2031C120.156 11.1907 120.982 10.3478 121.983 9.76164C122.75 9.30868 123.6 9.01243 124.482 8.89004C125.365 8.76764 126.263 8.82153 127.125 9.04859C127.986 9.27565 128.795 9.67137 129.502 10.2128C130.21 10.7543 130.803 11.4308 131.248 12.2031C131.85 13.2581 132.158 14.4554 132.139 15.6699C132.16 16.8713 131.881 18.059 131.325 19.1245C130.803 20.1061 130.031 20.9327 129.087 21.5212C128.213 22.0498 127.221 22.3533 126.2 22.4045C125.18 22.4556 124.163 22.2528 123.24 21.8142C122.445 21.4231 121.742 20.8685 121.177 20.1866V26.7784C121.183 26.9423 121.155 27.1057 121.097 27.2588C121.038 27.4119 120.949 27.5516 120.835 27.6695C120.718 27.7891 120.577 27.8827 120.421 27.9444C120.266 28.0061 120.099 28.0345 119.932 28.0276ZM125.401 20.215C126.183 20.2281 126.953 20.0208 127.622 19.6169C128.273 19.2197 128.808 18.6584 129.173 17.9893C129.559 17.2779 129.756 16.4794 129.746 15.6699C129.761 14.8483 129.563 14.037 129.173 13.3139C128.808 12.6448 128.273 12.0835 127.622 11.6863C126.95 11.2946 126.185 11.0882 125.407 11.0882C124.628 11.0882 123.864 11.2946 123.191 11.6863C122.537 12.0789 122.001 12.6413 121.641 13.3139C121.259 14.0396 121.066 14.8499 121.079 15.6699C121.067 16.482 121.26 17.284 121.641 18.0015C122.002 18.6833 122.544 19.2524 123.207 19.6465C123.87 20.0406 124.629 20.2443 125.401 20.2354V20.215Z" fill="black"/>
<path d="M137.339 6.78691C136.962 6.7904 136.595 6.66275 136.302 6.42579C136.008 6.18882 135.806 5.85725 135.73 5.48777C135.654 5.11829 135.708 4.73384 135.884 4.40015C136.06 4.06647 136.347 3.80427 136.695 3.65838C137.042 3.51249 137.43 3.49197 137.792 3.60034C138.153 3.7087 138.465 3.93922 138.676 4.25247C138.886 4.56573 138.981 4.94227 138.944 5.31772C138.907 5.69317 138.741 6.04422 138.474 6.31083C138.328 6.4635 138.151 6.58451 137.956 6.66639C137.761 6.74826 137.551 6.78928 137.339 6.78691ZM137.339 22.3144C137.175 22.3177 137.011 22.2878 136.859 22.2264C136.706 22.165 136.568 22.0734 136.451 21.9571C136.335 21.8408 136.243 21.7022 136.182 21.5497C136.121 21.3971 136.091 21.2337 136.094 21.0693V10.2049C136.087 10.038 136.114 9.87134 136.175 9.71575C136.236 9.56017 136.329 9.41908 136.448 9.30159C136.617 9.10789 136.843 8.97252 137.093 8.91476C137.344 8.85701 137.606 8.87982 137.843 8.97995C138.08 9.08008 138.279 9.25241 138.412 9.47237C138.545 9.69234 138.605 9.9487 138.584 10.2049V21.0693C138.59 21.2332 138.563 21.3965 138.504 21.5496C138.445 21.7027 138.356 21.8424 138.242 21.9604C138.125 22.0792 137.984 22.1721 137.828 22.2331C137.673 22.2941 137.506 22.3218 137.339 22.3144Z" fill="black"/>
<path d="M148.789 22.412C147.66 22.4284 146.549 22.119 145.591 21.5209C144.646 20.9263 143.876 20.0924 143.357 19.1039C142.802 18.0383 142.522 16.8507 142.543 15.6493C142.525 14.4347 142.833 13.2375 143.435 12.1824C144.01 11.1693 144.844 10.3269 145.852 9.74101C146.618 9.28888 147.467 8.99328 148.348 8.87134C149.23 8.74939 150.127 8.80351 150.988 9.03057C151.848 9.25763 152.655 9.65311 153.362 10.1941C154.068 10.7351 154.661 11.411 155.105 12.1824C155.709 13.2439 156.015 14.4486 155.992 15.6696H155.039C155.061 16.871 154.781 18.0587 154.226 19.1242C153.707 20.1128 152.936 20.9466 151.992 21.5413C151.03 22.133 149.918 22.4353 148.789 22.412ZM149.278 20.2147C150.06 20.2278 150.83 20.0205 151.499 19.6166C152.148 19.2212 152.679 18.6592 153.037 17.989C153.416 17.2752 153.609 16.4776 153.599 15.6696C153.613 14.8496 153.42 14.0393 153.037 13.3136C152.679 12.6434 152.148 12.0814 151.499 11.686C150.827 11.2943 150.062 11.0879 149.284 11.0879C148.505 11.0879 147.741 11.2943 147.068 11.686C146.412 12.0803 145.873 12.6421 145.506 13.3136C145.115 14.0367 144.918 14.8481 144.932 15.6696C144.92 16.4832 145.117 17.2862 145.506 18.0012C145.873 18.6728 146.412 19.2345 147.068 19.6288C147.736 20.0253 148.501 20.2281 149.278 20.2147ZM154.746 22.3388C154.582 22.3421 154.419 22.3122 154.266 22.2508C154.114 22.1894 153.975 22.0978 153.859 21.9815C153.742 21.8652 153.651 21.7266 153.589 21.5741C153.528 21.4215 153.498 21.2581 153.501 21.0937V17.3583L153.965 14.7704L156 15.6493V21.0937C156.003 21.2581 155.973 21.4215 155.912 21.5741C155.85 21.7266 155.759 21.8652 155.642 21.9815C155.526 22.0978 155.388 22.1894 155.235 22.2508C155.082 22.3122 154.919 22.3421 154.755 22.3388H154.746Z" fill="black"/>
<path d="M10.9816 7.74126C11.1297 7.37579 11.4747 6.43907 11.4295 5.23268C11.4055 4.58957 11.2512 3.33794 10.8024 3.26165C10.3048 3.1765 9.87017 4.61174 9.36902 4.51594C9.10115 4.46449 9.07365 4.0254 8.74192 3.08247C8.41994 2.16792 8.08111 1.23652 7.30854 0.573889C7.05043 0.352127 6.48098 -0.136638 5.96475 0.0363367C5.4228 0.217295 5.26581 1.01741 5.24807 1.11144C4.94294 2.76579 6.90585 4.39175 6.77103 4.51594C6.6708 4.60819 5.73059 3.59341 4.17304 2.81369C3.72865 2.59104 2.83457 2.14397 2.65007 2.36573C2.30415 2.78087 4.71587 5.21228 4.44179 5.50145C4.26706 5.68685 3.23726 4.73327 1.39587 4.42635C0.841503 4.3341 0.231255 4.23829 0.052083 4.51594C-0.231753 4.95503 0.701359 6.1215 1.48546 6.84534C3.19735 8.42606 5.15316 8.78265 5.0689 9.17473C5.00592 9.47189 3.88476 9.26964 3.72511 9.71228C3.56811 10.1487 4.43204 10.9701 5.33765 11.3249C6.13506 11.6372 6.86328 11.5485 7.12937 11.5041C9.61826 11.0925 10.8219 8.13422 10.9816 7.74126Z" fill="#1AA54A"/>
<path d="M10.7013 8.16063C10.7962 7.92645 11.0179 7.32592 10.9887 6.55152C10.9736 6.13904 10.8742 5.33626 10.586 5.28659C10.2666 5.23159 9.98813 6.15235 9.66615 6.09114C9.49408 6.05832 9.47722 5.77624 9.26346 5.17127C9.05679 4.58405 8.83948 3.98706 8.34365 3.56216C8.17778 3.42024 7.81234 3.10622 7.4815 3.2171C7.1338 3.3333 7.03268 3.84602 7.02204 3.90723C6.8269 4.96903 8.08554 6.01131 7.9995 6.09114C7.93564 6.15058 7.3316 5.49948 6.33285 4.99918C6.04812 4.85637 5.47424 4.56985 5.35538 4.71178C5.13364 4.9779 6.68055 6.53822 6.50492 6.72361C6.39227 6.84248 5.73235 6.23041 4.55088 6.03349C4.1952 5.97405 3.80404 5.91285 3.68873 6.09114C3.5069 6.37323 4.10473 7.12101 4.60854 7.58582C5.70663 8.59972 6.96083 8.82858 6.90761 9.0805C6.86681 9.27122 6.14746 9.14082 6.04546 9.42557C5.94434 9.70587 6.49871 10.2328 7.07969 10.4599C7.59148 10.6603 8.05893 10.6027 8.22923 10.5752C9.8267 10.3108 10.5984 8.41344 10.7013 8.16063Z" fill="#097B3E"/>
<path d="M13.3596 7.10798C13.67 7.24104 14.0452 7.47433 15.7784 10.4229C16.2964 11.3046 16.7505 12.1154 17.6597 13.7378C19.07 16.2544 18.8971 15.9137 19.2723 16.6047C20.2497 18.4046 20.7305 19.4468 21.6911 21.5332C21.6911 21.5332 22.2472 22.7414 22.7661 25.1169C22.806 25.3005 22.8983 25.7476 22.7661 26.2816C22.7351 26.4066 22.5701 27.0702 22.139 27.3567C21.464 27.8046 20.3287 27.2014 19.8098 26.9087C16.6024 25.0982 13.0341 21.6405 12.5524 21.1739C10.6241 19.3067 9.04882 17.0926 7.0868 15.26C6.72402 14.9211 5.90533 14.1707 5.74301 13.0202C5.59045 11.9353 6.09958 11.0491 6.4597 10.422C7.64826 8.3534 9.64576 7.57634 10.2223 7.37587C11.2193 7.02992 12.3023 6.65381 13.3596 7.10798Z" fill="#FFB017"/>
<path d="M13.594 10.8225C13.6118 10.8642 13.3803 10.9476 12.6813 11.4771C12.3496 11.7291 12.1678 11.8666 11.9327 12.0857C11.5114 12.4777 11.0306 13.0268 10.9739 13.0916C10.7238 13.3781 10.6448 13.4872 10.5996 13.4659C10.4985 13.418 10.6271 12.7323 10.9269 12.2258C11.6737 10.9662 13.5444 10.709 13.594 10.8225Z" fill="#E46625"/>
<path d="M21.1717 24.2305C21.178 24.2465 21.0875 24.274 20.8081 24.4638C20.675 24.5534 20.6023 24.6031 20.5083 24.682C20.3389 24.8239 20.142 25.0253 20.1189 25.0492C20.0169 25.1539 19.9841 25.1947 19.9672 25.1858C19.9291 25.1654 19.9929 24.9047 20.118 24.7157C20.4311 24.2473 21.1549 24.1861 21.1717 24.2305Z" fill="#E46625"/>
<path d="M14.0594 17.6805C14.0656 17.6965 13.9751 17.724 13.6957 17.9138C13.5627 18.0034 13.49 18.0531 13.3959 18.132C13.2265 18.2739 13.0296 18.4753 13.0066 18.4993C12.9046 18.6039 12.8717 18.6447 12.8549 18.6359C12.8167 18.6155 12.8806 18.3547 13.0057 18.1657C13.3188 17.6965 14.0434 17.6362 14.0594 17.6805Z" fill="#E46625"/>
<path d="M19.5927 22.3226C19.6025 22.3492 19.4552 22.3935 19.0011 22.7013C18.7856 22.8477 18.6676 22.9275 18.5133 23.0562C18.2374 23.2868 17.919 23.6141 17.8808 23.6523C17.715 23.8226 17.6617 23.8882 17.6351 23.8731C17.573 23.8394 17.6768 23.4163 17.8808 23.1103C18.3891 22.3483 19.5661 22.2498 19.5927 22.3226Z" fill="#E46625"/>
<path d="M18.3524 18.4669C18.3657 18.5032 18.1643 18.5644 17.5434 18.9849C17.2481 19.1845 17.0866 19.2945 16.8764 19.4701C16.4994 19.7859 16.063 20.233 16.0116 20.2853C15.7845 20.5186 15.7127 20.6082 15.6754 20.5878C15.5912 20.5417 15.7322 19.9624 16.0116 19.5438C16.7061 18.5032 18.3151 18.3684 18.3524 18.4669Z" fill="#E46625"/>
</svg>
