<svg width="86" height="86" viewBox="0 0 86 86" fill="none" xmlns="http://www.w3.org/2000/svg">
<path d="M14.8756 60.3193C14.8756 60.3193 14.1477 63.9914 16.8226 65.822C19.4975 67.6526 23.0677 64.1115 23.0677 64.1115C23.0677 64.1115 26.0229 60.9016 26.183 58.5761C26.3431 56.2506 28.3666 53.1498 31.249 52.0253C34.1313 50.9007 35.0775 47.2177 35.0921 43.7713C35.1067 40.3248 30.8013 39.2403 29.0217 39.8663C27.242 40.4922 23.7155 44.4009 23.0058 48.0693C22.2962 51.7378 22.0087 51.7705 18.8534 53.5283C15.6981 55.2861 14.8756 60.3193 14.8756 60.3193Z" fill="#FB9400"/>
<path d="M36.4711 56.4292C36.0343 56.6165 35.6413 56.8928 35.3173 57.2406C34.9933 57.5884 34.7455 58 34.5896 58.449C34.4648 58.8447 34.4275 59.2629 34.4803 59.6745C34.5331 60.0861 34.6747 60.4813 34.8953 60.8328C36.1727 63.0164 39.2079 62.3103 40.0704 61.3823C40.2207 61.2247 40.3839 61.0799 40.5581 60.9492C41.6499 60.1813 44.9253 57.7284 45.3256 56.2945C45.7769 54.5658 46.2536 52.5169 45.2419 51.2758C44.2302 50.0348 41.4716 51.9055 40.2196 53.0955C39.1715 54.0199 37.6139 55.8833 36.4711 56.4292Z" fill="#FB9400"/>
<path d="M40.529 59.8534C41.3597 59.3847 42.1562 58.8582 42.9128 58.2775C43.5546 57.7278 44.0004 56.9845 44.1829 56.1594C44.2521 55.8574 43.7753 55.7009 43.7135 56.0102C43.5453 56.7786 43.122 57.4674 42.5125 57.9646C41.8071 58.4934 41.0706 58.9795 40.307 59.4203C40.0414 59.5913 40.2634 60.039 40.5363 59.8788L40.529 59.8534Z" fill="white"/>
<path d="M26.5824 67.0023C26.5824 67.0023 24.0349 70.3978 26.5206 72.3594C29.0062 74.321 30.7313 71.799 30.7313 71.799C30.7313 71.799 33.9266 66.3036 34.1086 64.2474C34.2906 62.1911 33.2133 59.3233 32.0778 58.752C32.0778 58.752 28.8534 59.7419 27.6051 64.8697L26.5824 67.0023Z" fill="#FB9400"/>
<path d="M27.7074 71.3404C27.5533 71.2291 27.4488 71.0619 27.4163 70.8746C27.3578 70.6646 27.3152 70.4505 27.2889 70.2341C27.245 69.8202 27.2708 69.402 27.3653 68.9967C27.378 68.9667 27.3844 68.9346 27.3844 68.9021C27.3844 68.8696 27.378 68.8374 27.3653 68.8074C27.3475 68.7778 27.3238 68.7522 27.2956 68.7321C27.2674 68.7121 27.2354 68.6981 27.2016 68.691C27.1716 68.6784 27.1394 68.6719 27.1069 68.6719C27.0744 68.6719 27.0423 68.6784 27.0123 68.691C26.9836 68.7051 26.9582 68.725 26.9375 68.7494C26.9168 68.7739 26.9014 68.8023 26.8922 68.8329C26.7805 69.3483 26.762 69.8796 26.8376 70.4015C26.9068 70.9292 27.0378 71.5515 27.5655 71.8063C27.5979 71.8134 27.6314 71.8134 27.6638 71.8063C27.6954 71.8033 27.7262 71.7947 27.7547 71.7808C27.7858 71.7665 27.8132 71.7453 27.8348 71.7189C27.8543 71.6939 27.8691 71.6655 27.8785 71.6352C27.8911 71.6053 27.8976 71.5731 27.8976 71.5406C27.8976 71.5081 27.8911 71.4759 27.8785 71.446C27.8466 71.3892 27.7947 71.3464 27.7329 71.3259L27.7074 71.3404Z" fill="white"/>
<path d="M16.3823 62.4489C17.5638 59.9371 19.1266 57.6231 21.0152 55.5888C21.2262 55.3595 20.9023 54.9847 20.684 55.2249C18.7404 57.3204 17.1334 59.7046 15.9201 62.2925C15.7745 62.58 16.2476 62.7328 16.3823 62.4489Z" fill="white"/>
<path d="M17.6776 59.0633C17.6296 59.0803 17.5793 59.0901 17.5284 59.0924H17.5939C17.5384 59.0998 17.4821 59.0998 17.4265 59.0924H17.4884C17.4274 59.0824 17.3685 59.0627 17.3137 59.0342L17.3501 59.0815C17.2924 59.0554 17.2395 59.0197 17.1936 58.976L17.2373 59.0233C17.1953 58.9887 17.1585 58.9483 17.1281 58.9032L17.1681 58.9468C17.1421 58.885 17.0959 58.8337 17.0371 58.8013C17.0059 58.7915 16.9731 58.788 16.9406 58.7912C16.9081 58.7943 16.8766 58.8039 16.8479 58.8195C16.7898 58.8489 16.7454 58.8998 16.7241 58.9614C16.717 58.9925 16.717 59.0249 16.7241 59.056C16.727 59.0876 16.7357 59.1185 16.7496 59.147C16.7856 59.192 16.8245 59.2345 16.8661 59.2744C16.9063 59.3158 16.9501 59.3536 16.9971 59.3872C17.0712 59.446 17.1549 59.4916 17.2445 59.5219C17.4256 59.58 17.6203 59.58 17.8014 59.5219C17.8626 59.4981 17.9131 59.4528 17.9433 59.3945C17.9628 59.369 17.9753 59.3389 17.9797 59.3071C17.987 59.276 17.987 59.2436 17.9797 59.2125C17.9698 59.1806 17.9537 59.1509 17.9324 59.1252C17.9104 59.1009 17.8829 59.0822 17.8523 59.0706C17.8262 59.0515 17.7965 59.0379 17.765 59.0305C17.7337 59.0251 17.7017 59.0251 17.6703 59.0305L17.6776 59.0633Z" fill="white"/>
<path d="M22.2048 54.6201C23.1947 52.8247 24.221 51.0523 25.2837 49.303C25.3107 49.2469 25.3165 49.1829 25.3001 49.1228C25.2836 49.0627 25.246 49.0106 25.1942 48.976C25.1424 48.9415 25.0798 48.9268 25.018 48.9347C24.9562 48.9426 24.8994 48.9726 24.8579 49.0191C23.788 50.766 22.7604 52.5384 21.7754 54.3362C21.6225 54.6128 22.0374 54.8858 22.2048 54.6201Z" fill="white"/>
<path d="M22.9474 53.2955C23.3189 53.6387 23.7223 53.9458 24.152 54.2126C24.1805 54.2318 24.2127 54.2449 24.2465 54.2512C24.2803 54.2574 24.315 54.2567 24.3485 54.249C24.3814 54.2431 24.4127 54.2304 24.4403 54.2115C24.4679 54.1927 24.4912 54.1683 24.5087 54.1398C24.5457 54.0828 24.5588 54.0135 24.5451 53.9469C24.531 53.8804 24.4919 53.8217 24.4359 53.7831C24.2349 53.6678 24.0406 53.5415 23.8536 53.4047C23.759 53.3392 23.668 53.2664 23.5806 53.1936C23.5631 53.1712 23.5436 53.1505 23.5224 53.1317C23.5224 53.1317 23.4751 53.0735 23.4969 53.1026L23.3732 52.9607C23.3281 52.9136 23.2671 52.8851 23.2021 52.8806C23.1362 52.8757 23.071 52.8965 23.0202 52.9388C22.995 52.962 22.975 52.9901 22.9612 53.0215C22.9475 53.0528 22.9404 53.0866 22.9404 53.1208C22.9404 53.155 22.9475 53.1888 22.9612 53.2201C22.975 53.2514 22.995 53.2796 23.0202 53.3028L22.9474 53.2955Z" fill="white"/>
<path d="M26.3756 45.6063C26.0266 45.292 25.6183 45.0507 25.1746 44.8966C25.1138 44.873 25.0463 44.873 24.9854 44.8966C24.9273 44.9261 24.8829 44.977 24.8617 45.0385C24.8421 45.1027 24.8486 45.172 24.8799 45.2314C24.9093 45.2895 24.9602 45.3339 25.0218 45.3551C25.1173 45.3874 25.2108 45.4251 25.302 45.468L25.3275 45.4971L25.3675 45.5407C25.4093 45.5753 25.4576 45.6013 25.5095 45.6172C25.5568 45.6427 25.6805 45.7264 25.7642 45.7846L25.8843 45.8756L25.9353 45.9338L25.9607 45.9629C26.0052 46.0108 26.0665 46.0396 26.1318 46.043C26.197 46.0463 26.261 46.0241 26.3101 45.9811C26.335 45.9598 26.3553 45.9336 26.3697 45.9042C26.384 45.8748 26.3923 45.8428 26.3938 45.8101C26.3972 45.7448 26.375 45.6809 26.332 45.6317L26.3756 45.6063Z" fill="white"/>
<path d="M27.9291 45.3981C28.5137 44.0602 29.2461 42.7919 30.1127 41.6168C30.2983 41.3584 29.887 41.0891 29.6869 41.333C28.7987 42.5504 28.0481 43.8625 27.4487 45.2452C27.3249 45.5364 27.8126 45.6892 27.9218 45.3945L27.9291 45.3981Z" fill="white"/>
<path d="M27.249 50.293L32.0202 42.8505C32.0564 42.7932 32.0706 42.7246 32.0602 42.6576C32.047 42.5906 32.0078 42.5316 31.9512 42.4934C31.8946 42.4552 31.8252 42.441 31.7581 42.4538C31.6917 42.4682 31.6332 42.5072 31.5944 42.563L26.8378 50.0164C26.8204 50.0443 26.8081 50.0751 26.8014 50.1074C26.7941 50.1409 26.7941 50.1757 26.8014 50.2093C26.8087 50.2419 26.8223 50.2728 26.8414 50.3002C26.8599 50.3296 26.8848 50.3545 26.9142 50.373C26.9418 50.391 26.9727 50.4034 27.0052 50.4094C27.0387 50.4167 27.0735 50.4167 27.1071 50.4094C27.1395 50.4014 27.1702 50.3878 27.1981 50.3694C27.2264 50.3507 27.25 50.3258 27.2672 50.2966L27.249 50.293Z" fill="white"/>
<path d="M30.979 45.0345C31.7288 45.216 32.3993 45.6363 32.8896 46.2319C32.9353 46.2723 32.9943 46.2945 33.0554 46.294C33.1164 46.2936 33.1751 46.2707 33.2202 46.2296C33.2653 46.1885 33.2937 46.1322 33.2999 46.0715C33.306 46.0108 33.2895 45.95 33.2536 45.9007C32.7086 45.2358 31.9608 44.7679 31.1246 44.5687C31.0937 44.5546 31.0602 44.5471 31.0263 44.5469C30.9911 44.5467 30.9564 44.5542 30.9244 44.5687C30.8918 44.5803 30.8629 44.6004 30.8407 44.6269C30.8174 44.6533 30.8001 44.6843 30.7897 44.7179C30.7823 44.7515 30.7823 44.7863 30.7897 44.8198C30.7943 44.8539 30.8042 44.887 30.8188 44.9181C30.8369 44.9477 30.8604 44.9736 30.888 44.9945C30.916 45.0127 30.9467 45.0262 30.979 45.0345Z" fill="white"/>
<path d="M30.0112 49.9111C30.0361 49.8898 30.0563 49.8636 30.0707 49.8342C30.0851 49.8048 30.0933 49.7727 30.0949 49.74C30.0984 49.6737 30.0763 49.6085 30.033 49.5581C29.9886 49.5101 29.9272 49.4814 29.862 49.478C29.8295 49.476 29.7969 49.4805 29.7661 49.4911C29.7353 49.5018 29.7069 49.5184 29.6826 49.54C29.6583 49.5617 29.6384 49.5879 29.6242 49.6172C29.6101 49.6466 29.6018 49.6784 29.5999 49.7109C29.5966 49.7761 29.6188 49.8401 29.6618 49.8892C29.7061 49.9379 29.7673 49.9678 29.8329 49.9729C29.8652 49.975 29.8976 49.9706 29.9283 49.96C29.9589 49.9493 29.9871 49.9327 30.0112 49.9111Z" fill="white"/>
<path d="M29.709 49.8048L30.2439 50.267C30.2989 50.3025 30.3653 50.3155 30.4296 50.3034C30.462 50.2954 30.4927 50.2818 30.5205 50.2634C30.5488 50.2447 30.5725 50.2198 30.5897 50.1906C30.6253 50.1371 30.6384 50.0717 30.6261 50.0086L30.586 49.9649C30.565 49.9258 30.5351 49.8921 30.4987 49.8667L29.9564 49.4008C29.9301 49.3829 29.9004 49.3705 29.8691 49.3644C29.839 49.359 29.8082 49.359 29.7781 49.3644C29.7452 49.3689 29.714 49.3814 29.6871 49.4008C29.66 49.4182 29.6375 49.4419 29.6216 49.47C29.6017 49.4956 29.588 49.5255 29.5816 49.5573C29.5744 49.5897 29.5744 49.6232 29.5816 49.6556L29.618 49.6956C29.6333 49.7423 29.6658 49.7813 29.709 49.8048Z" fill="white"/>
<path d="M29.0429 52.448C30.7302 51.1472 32.0847 49.4646 32.9952 47.5385C33.1299 47.251 32.6568 47.1018 32.5221 47.3893C31.6451 49.2288 30.3472 50.8359 28.7335 52.0804C28.6957 52.1262 28.6756 52.184 28.6768 52.2433C28.678 52.3027 28.7006 52.3596 28.7403 52.4037C28.78 52.4479 28.8342 52.4762 28.8931 52.4837C28.952 52.4912 29.0116 52.4772 29.0611 52.4444L29.0429 52.448Z" fill="white"/>
<path d="M18.1032 63.8671C19.3882 61.0595 21.2335 58.5442 23.5258 56.4756C23.5733 56.4305 23.603 56.3698 23.6095 56.3046C23.61 56.2391 23.5868 56.1757 23.544 56.1262C23.5008 56.0781 23.441 56.0482 23.3766 56.0425C23.3437 56.0404 23.3107 56.0447 23.2794 56.0554C23.2482 56.066 23.2194 56.0826 23.1946 56.1044C20.8399 58.2327 18.9451 60.8199 17.6264 63.707C17.4918 63.9981 17.9649 64.1473 18.0959 63.8635L18.1032 63.8671Z" fill="white"/>
<path d="M21.5314 58.5333C21.5755 58.3343 21.5457 58.1261 21.4477 57.9474C21.3475 57.7773 21.1901 57.6484 21.0037 57.5835C20.9432 57.5696 20.8796 57.5787 20.8254 57.609C20.7737 57.6415 20.7341 57.6901 20.7126 57.7472C20.6944 57.8059 20.698 57.8691 20.7228 57.9253C20.7475 57.9814 20.7917 58.0268 20.8472 58.053L20.8836 58.093L20.8436 58.0493C20.885 58.0705 20.9241 58.0961 20.96 58.1257L20.9164 58.0784C20.9579 58.1084 20.9926 58.1469 21.0183 58.1912L20.9746 58.1403C21.002 58.1841 21.0251 58.2304 21.0437 58.2786L21.0037 58.2349C21.0181 58.281 21.0266 58.3287 21.0292 58.3769V58.3113C21.0346 58.3524 21.0346 58.394 21.0292 58.4351V58.3732C21.0075 58.4332 21.0075 58.4989 21.0292 58.5588C21.0527 58.6211 21.098 58.6728 21.1566 58.7044C21.2174 58.728 21.2849 58.728 21.3458 58.7044C21.4048 58.6751 21.4504 58.6243 21.4732 58.5625L21.5314 58.5333Z" fill="white"/>
<path d="M21.5931 58.0009L21.0145 57.324C20.97 57.276 20.9087 57.2473 20.8434 57.2439C20.8105 57.2413 20.7774 57.2455 20.7461 57.2561C20.7148 57.2668 20.686 57.2837 20.6615 57.3058C20.6135 57.3502 20.5848 57.4115 20.5814 57.4768C20.578 57.542 20.6002 57.606 20.6433 57.6551L21.2401 58.3284C21.2614 58.3533 21.2876 58.3736 21.317 58.3879C21.3464 58.4023 21.3784 58.4106 21.4112 58.4121C21.4775 58.4157 21.5427 58.3935 21.5931 58.3503C21.6411 58.3058 21.6698 58.2445 21.6732 58.1792C21.6729 58.1456 21.6656 58.1124 21.6518 58.0817C21.638 58.051 21.618 58.0235 21.5931 58.0009Z" fill="white"/>
<path d="M20.7743 57.447C20.8218 57.4019 20.8515 57.3412 20.858 57.276C20.8603 57.2102 20.8368 57.1462 20.7925 57.0976C20.7487 57.0504 20.6892 57.0206 20.625 57.0139C20.5596 57.0109 20.4956 57.0336 20.4467 57.0771C20.3977 57.1206 20.3677 57.1815 20.363 57.2469C20.3605 57.2792 20.3645 57.3117 20.3748 57.3424C20.385 57.3732 20.4013 57.4016 20.4226 57.426C20.444 57.4504 20.47 57.4703 20.4991 57.4845C20.5282 57.4988 20.5599 57.507 20.5923 57.5089C20.6252 57.511 20.6582 57.5067 20.6894 57.4961C20.7207 57.4854 20.7495 57.4688 20.7743 57.447Z" fill="white"/>
<path d="M20.1196 64.9629C20.482 63.7309 21.1682 62.6187 22.1067 61.7421C23.0929 60.7194 24.1483 59.7586 25.1783 58.7796C25.2187 58.734 25.2408 58.6749 25.2404 58.6139C25.24 58.5529 25.217 58.4942 25.176 58.4491C25.1349 58.404 25.0786 58.3756 25.0179 58.3694C24.9572 58.3633 24.8964 58.3798 24.8471 58.4157C23.7553 59.4456 22.6635 60.4355 21.6408 61.5237C20.7076 62.4244 20.0263 63.5536 19.6647 64.7991C19.5919 65.1121 20.0759 65.2613 20.1341 64.9556L20.1196 64.9629Z" fill="white"/>
<path d="M21.9539 61.4122C21.7191 60.9454 21.352 60.5581 20.8985 60.2985C20.8415 60.2615 20.7722 60.2484 20.7056 60.2621C20.6724 60.2684 20.6407 60.2813 20.6126 60.3C20.5844 60.3188 20.5604 60.343 20.5418 60.3713C20.5234 60.3988 20.5107 60.4298 20.5045 60.4623C20.4982 60.4948 20.4985 60.5282 20.5054 60.5606C20.5108 60.5941 20.5233 60.6261 20.5422 60.6544C20.561 60.6826 20.5857 60.7065 20.6146 60.7243C20.7166 60.7822 20.8139 60.8479 20.9058 60.9209L20.9604 60.9791C20.9967 61.0228 20.9604 60.9791 20.9822 61.0082L21.0986 61.1356C21.1774 61.2137 21.2515 61.2963 21.3206 61.3831L21.3534 61.4231L21.4116 61.4886C21.4574 61.5291 21.4871 61.5846 21.4953 61.6451C21.5264 61.7055 21.58 61.7513 21.6445 61.7725C21.7076 61.798 21.778 61.798 21.8411 61.7725C21.8714 61.7576 21.8983 61.7367 21.9202 61.711C21.9421 61.6854 21.9585 61.6555 21.9684 61.6233C21.9939 61.5602 21.9939 61.4898 21.9684 61.4267L21.9539 61.4122Z" fill="white"/>
<path d="M20.3818 64.1986C20.7974 64.6084 21.3131 64.902 21.8776 65.0502C21.9076 65.0628 21.9397 65.0693 21.9722 65.0693C22.0047 65.0693 22.0369 65.0628 22.0669 65.0502C22.0967 65.0356 22.1233 65.0151 22.1451 64.9902C22.167 64.9652 22.1837 64.9361 22.1942 64.9046C22.2178 64.8437 22.2178 64.7762 22.1942 64.7154C22.1803 64.6861 22.1605 64.6601 22.1361 64.6388C22.1117 64.6175 22.0832 64.6014 22.0523 64.5916C21.9289 64.5584 21.8074 64.5183 21.6884 64.4715C21.6544 64.4613 21.6215 64.4479 21.5901 64.4315L21.561 64.3987C21.5058 64.3745 21.4523 64.3465 21.4009 64.315C21.2874 64.2549 21.179 64.1856 21.0769 64.1076C21.0315 64.0672 20.9829 64.0307 20.9314 63.9984C20.8841 63.9584 20.9059 63.9693 20.9314 63.9984C20.9173 63.9856 20.9051 63.9709 20.895 63.9547C20.8692 63.9319 20.846 63.9063 20.8258 63.8783C20.7814 63.8304 20.72 63.8017 20.6548 63.7983C20.5901 63.7946 20.5265 63.8154 20.4765 63.8565C20.4499 63.8781 20.4281 63.905 20.4124 63.9355C20.3968 63.966 20.3876 63.9994 20.3856 64.0337C20.3835 64.0679 20.3886 64.1021 20.4005 64.1343C20.4124 64.1664 20.4308 64.1958 20.4546 64.2204L20.3818 64.1986Z" fill="white"/>
<path d="M24.9419 57.5451L27.9298 52.2499C28.0863 51.9696 27.6714 51.6967 27.504 51.966L24.5161 57.2612C24.3596 57.5415 24.7745 57.8144 24.9419 57.5451Z" fill="white"/>
<path d="M25.8041 56.7284H25.9606H26.037V56.7065L26.0625 56.7356C26.1661 56.7603 26.2672 56.7944 26.3646 56.8375L26.3282 56.7975C26.4176 56.8418 26.5029 56.8942 26.5829 56.954C26.6107 56.9718 26.6417 56.9838 26.6742 56.9895C26.7067 56.9951 26.74 56.9942 26.7722 56.9867C26.804 56.9808 26.8342 56.9684 26.861 56.9502C26.8879 56.9321 26.9107 56.9087 26.9281 56.8814C26.9455 56.8541 26.9571 56.8235 26.9622 56.7916C26.9673 56.7596 26.9658 56.7269 26.9578 56.6956C26.943 56.6313 26.9039 56.5752 26.8486 56.5391C26.5589 56.3176 26.2051 56.1963 25.8405 56.1934C25.7751 56.1928 25.7117 56.2161 25.6622 56.2589C25.6146 56.304 25.5849 56.3647 25.5785 56.4299C25.5751 56.4952 25.5973 56.5591 25.6403 56.6083C25.6846 56.6569 25.7458 56.6868 25.8114 56.692L25.8041 56.7284Z" fill="white"/>
<path d="M24.0792 55.225C24.7589 53.8638 25.5387 52.5549 26.412 51.3091C26.5939 51.047 26.1791 50.7777 25.9825 51.0288C25.105 52.272 24.3251 53.5812 23.6497 54.9448C23.5151 55.225 23.9263 55.5052 24.0792 55.225Z" fill="white"/>
<path d="M25.8766 52.4045L26.3533 52.7867C26.3803 52.8034 26.4098 52.8157 26.4407 52.8231C26.472 52.8286 26.504 52.8286 26.5353 52.8231C26.5671 52.8154 26.5961 52.799 26.619 52.7758C26.6434 52.7545 26.6632 52.7285 26.6772 52.6993C26.6952 52.673 26.7076 52.6433 26.7136 52.612C26.7191 52.5807 26.7191 52.5487 26.7136 52.5174C26.6884 52.4558 26.6419 52.4055 26.5826 52.3754L26.1095 51.986C26.0855 51.9661 26.0569 51.9524 26.0262 51.9462C25.9956 51.94 25.9639 51.9414 25.934 51.9504C25.9041 51.9594 25.8769 51.9757 25.8548 51.9978C25.8327 52.0199 25.8164 52.0471 25.8074 52.077C25.7719 52.1319 25.7589 52.1984 25.771 52.2626C25.7967 52.3215 25.8399 52.3711 25.8948 52.4045H25.8766Z" fill="white"/>
<path d="M25.9211 48.8124C26.2468 47.9406 26.626 47.0898 27.0566 46.2648C27.0743 46.2377 27.0863 46.2073 27.0919 46.1754C27.0975 46.1435 27.0967 46.1108 27.0893 46.0792C27.0835 46.0468 27.0711 46.0159 27.053 45.9883C27.0348 45.9608 27.0113 45.9373 26.9838 45.9191C26.9557 45.9028 26.9248 45.8917 26.8928 45.8863C26.8617 45.879 26.8293 45.879 26.7982 45.8863C26.7667 45.8937 26.737 45.9073 26.7108 45.9264C26.6854 45.9457 26.6633 45.9691 26.6453 45.9955C26.1832 46.8604 25.7795 47.7552 25.4371 48.6741C25.3242 48.9725 25.801 49.1253 25.9102 48.8233L25.9211 48.8124Z" fill="white"/>
<path d="M43 83C50.9112 83 58.6448 80.654 65.2228 76.2588C71.8008 71.8635 76.9277 65.6164 79.9552 58.3073C82.9827 50.9983 83.7748 42.9556 82.2314 35.1964C80.688 27.4372 76.8784 20.3098 71.2843 14.7157C65.6902 9.12165 58.5628 5.31201 50.8036 3.76861C43.0444 2.2252 35.0017 3.01733 27.6927 6.04484C20.3836 9.07234 14.1365 14.1992 9.74121 20.7772C5.34596 27.3552 3 35.0888 3 43C3 53.6087 7.21427 63.7828 14.7157 71.2843C22.2172 78.7857 32.3913 83 43 83Z" stroke="#FB9400" stroke-width="6" stroke-miterlimit="10"/>
<path d="M68.8469 31.9955C69.1307 38.4335 64.6871 41.9491 59.2063 42.1857C53.7254 42.4223 49.3109 39.3215 49.0161 32.8653C48.7213 26.4092 53.0703 17.1434 58.5475 16.9032C64.0247 16.663 68.563 25.5612 68.8469 31.9955Z" fill="#FB9400"/>
<path d="M53.7944 27.5184C53.7944 27.5184 55.756 23.5151 57.6594 23.3514C59.5628 23.1876 60.156 19.5592 57.5575 19.9231C54.959 20.287 52.9574 24.7634 52.6335 26.4375C52.3096 28.1116 52.0985 29.3854 53.7944 27.5184Z" fill="white"/>
<path d="M22.7793 9.59277L65.8562 75.0873" stroke="#FB9400" stroke-width="6" stroke-linecap="round" stroke-linejoin="round"/>
</svg>
