<svg width="79" height="100" viewBox="0 0 79 100" fill="none" xmlns="http://www.w3.org/2000/svg">
<path d="M1.00149 58.0063C1.00149 58.0063 0.475117 78.5053 19.1861 86.9849V95H59.4925V87.6879C59.4925 87.6879 79.2562 76.6161 77.9368 58L1.00149 58.0063Z" fill="#FB9400" stroke="#FB9400" stroke-width="2" stroke-miterlimit="10" stroke-linecap="round"/>
<path d="M6.00181 60C6.00181 60 5.42236 83.4431 25 85.9681C25 85.9681 13.5424 87.9827 10.2047 60H6.00181Z" fill="white"/>
<path d="M58.9298 53.7787C58.9298 53.2597 58.9793 52.7336 58.9793 52.2074C58.9793 37.7247 46.7661 25.9863 31.703 25.9863C16.6399 25.9863 4.42676 37.7247 4.42676 52.2074C4.42676 52.7336 4.42676 53.2597 4.47626 53.7787" stroke="#FB9400" stroke-width="3" stroke-miterlimit="10" stroke-linecap="round"/>
<path d="M52.3885 53.7793C52.438 53.2603 52.4592 52.7413 52.4592 52.208C52.4592 41.1878 43.1668 32.2578 31.7032 32.2578C20.2397 32.2578 10.9473 41.1878 10.9473 52.208C10.9473 52.7413 10.9473 53.2603 11.018 53.7793" stroke="#FB9400" stroke-width="3" stroke-miterlimit="10" stroke-linecap="round"/>
<path d="M46.0727 53.7789C46.1416 53.2581 46.1747 52.7331 46.1717 52.2076C46.1717 44.529 39.6939 38.3008 31.7026 38.3008C23.7114 38.3008 17.2336 44.529 17.2336 52.2076C17.2306 52.7331 17.2637 53.2581 17.3326 53.7789" stroke="#FB9400" stroke-width="3" stroke-miterlimit="10" stroke-linecap="round"/>
<path d="M57.332 32.7832C67.3953 34.5891 75.0117 42.6943 75.0117 52.4277C75.0117 52.8259 75.0117 53.2311 74.9693 53.6222" stroke="#FB9400" stroke-width="3" stroke-miterlimit="10" stroke-linecap="round"/>
<path d="M57.4375 37.7178C64.5094 39.4597 69.7567 45.3822 69.7567 52.428C69.7594 52.8269 69.7405 53.2257 69.7002 53.6225" stroke="#FB9400" stroke-width="3" stroke-miterlimit="10" stroke-linecap="round"/>
<path d="M57.5371 42.6162C61.7802 44.2017 64.7151 48.0055 64.7151 52.4278C64.7178 52.8273 64.6918 53.2265 64.6373 53.6223" stroke="#FB9400" stroke-width="3" stroke-miterlimit="10" stroke-linecap="round"/>
<path d="M48 7L43 26" stroke="#FB9400" stroke-width="5" stroke-miterlimit="10" stroke-linecap="round"/>
<path d="M62.5005 16.5L50.8613 31.7952" stroke="#FB9400" stroke-width="5" stroke-miterlimit="10" stroke-linecap="round"/>
</svg>
