<svg width="79" height="92" viewBox="0 0 79 92" fill="none" xmlns="http://www.w3.org/2000/svg">
<path d="M42.3462 32.19C42.3462 32.19 29.8329 0.514937 74.2437 1.15609C74.2437 1.15609 75.1435 44.8556 46.2209 35.677L61.1269 19.0071C60.1393 18.1076 58.8668 17.6408 57.5673 17.7014C56.2679 17.7619 55.0387 18.3453 54.1291 19.3333L42.3462 32.19Z" fill="#FB9400"/>
<path d="M36.058 31.9423C36.058 31.9423 48.4126 0.222158 4.00177 1.00954C4.00177 1.00954 3.2607 44.7203 32.141 35.4292L17.1821 18.8605C18.167 17.9581 19.438 17.4874 20.7374 17.5438C22.0368 17.6002 23.2675 18.1795 24.1798 19.1642L36.058 31.9423Z" fill="#FB9400"/>
<path d="M39.0752 35.0352V52.7737" stroke="#FB9400" stroke-width="4" stroke-miterlimit="10" stroke-linecap="round"/>
<path d="M1.00149 54.0063C1.00149 54.0063 0.475117 74.5053 19.1861 82.9849V91H59.4925V83.6879C59.4925 83.6879 79.2562 72.6161 77.9368 54L1.00149 54.0063Z" fill="#FB9400" stroke="#FB9400" stroke-width="2" stroke-miterlimit="10" stroke-linecap="round"/>
<path d="M4.00181 55C4.00181 55 3.42236 78.4431 23 80.9681C23 80.9681 11.5424 82.9827 8.20474 55H4.00181Z" fill="white"/>
</svg>
