<svg width="83" height="101" viewBox="0 0 83 101" fill="none" xmlns="http://www.w3.org/2000/svg">
<g clip-path="url(#clip0)">
<path d="M71.6617 45.3285C73.7423 44.0976 77.6426 42.3525 79.2627 45.3782C79.2627 45.3782 82.4413 48.6398 76.1215 52.8227C69.8016 57.0057 61.2616 54.6264 60.6481 54.2807C60.0346 53.935 57.6989 53.5517 56.5889 51.2115C56.5889 51.2115 63.5058 54.5693 69.6396 47.0841C70.2061 46.385 70.8905 45.7908 71.6617 45.3285Z" fill="#FB9400"/>
<path d="M81.1714 41.2751C81.3799 42.485 80.8849 43.6244 79.9623 44.3969C79.2948 44.9576 80.2624 45.909 80.9164 45.3544C82.226 44.2556 82.76 42.5812 82.4735 40.9159C82.3235 40.0591 81.0244 40.4229 81.1714 41.2751Z" fill="#FB9400"/>
<path d="M24.9461 13.5396C23.992 12.1252 22.5969 9.45127 24.646 8.1797C24.646 8.1797 26.7972 5.79737 30.0088 10.0705C33.2205 14.3437 31.9184 20.4671 31.7024 20.9135C31.4864 21.3599 31.3184 23.0177 29.7238 23.909C29.7238 23.909 31.7819 18.8874 26.2601 14.8908C25.7469 14.5205 25.3022 14.0632 24.9461 13.5396Z" fill="#FB9400"/>
<path d="M21.7136 7.21478C22.0819 7.12617 22.4672 7.13859 22.8291 7.25073C23.191 7.36287 23.5161 7.57059 23.7702 7.85208C24.3702 8.48486 25.3227 7.52742 24.7257 6.89464C24.3005 6.4472 23.7647 6.12046 23.1727 5.94755C22.5807 5.77465 21.9536 5.76174 21.355 5.91014C20.509 6.11005 20.8675 7.41319 21.7136 7.21478Z" fill="#FB9400"/>
<path d="M27.4107 36.0859L49.9929 52.5879C49.9929 52.5879 44.6166 60.1121 34.3021 57.0474C23.9875 53.9827 23.1534 40.2208 27.4107 36.0859Z" fill="#FB9400" stroke="#FB9400" stroke-miterlimit="10"/>
<path d="M33.4142 52.5899C34.5965 50.6502 35.8991 48.7868 37.3144 47.0106C37.7914 46.4094 36.9484 45.5557 36.4654 46.1599C34.9845 48.0137 33.6208 49.9584 32.3821 51.9827C31.9771 52.644 33.0152 53.2497 33.4187 52.5839L33.4142 52.5899Z" fill="white"/>
<path d="M27.7798 46.3037C28.9915 45.8535 30.2269 45.4702 31.4805 45.1554C32.2305 44.966 31.9125 43.8026 31.161 43.995C29.9076 44.3108 28.6723 44.6941 27.4602 45.1434C26.7417 45.4094 27.0522 46.5727 27.7798 46.3037Z" fill="white"/>
<path d="M41.0681 54.3543C41.2182 52.912 41.1595 51.4556 40.8941 50.0301C40.7546 49.271 39.598 49.5927 39.736 50.3502C39.9726 51.6716 40.017 53.0202 39.868 54.3543C39.7855 55.1224 40.9871 55.1164 41.0681 54.3543Z" fill="white"/>
<path d="M62.4721 7.31516L37.5467 19.9903C37.5467 19.9903 33.3015 11.7702 40.7029 3.95285C48.1043 -3.86448 60.7275 1.63816 62.4721 7.31516Z" fill="#FB9400" stroke="#FB9400" stroke-miterlimit="10"/>
<path d="M45.0579 5.16116C46.2717 7.14102 47.3604 9.1952 48.3176 11.3116C48.6356 12.015 49.6677 11.4048 49.3527 10.7104C48.3956 8.59227 47.3074 6.53611 46.0945 4.55393C45.691 3.8956 44.6529 4.49982 45.0579 5.15515V5.16116Z" fill="white"/>
<path d="M53.2065 3.1275C53.0608 4.36021 52.848 5.58401 52.569 6.79343C52.3979 7.54495 53.5545 7.8681 53.727 7.11207C54.0261 5.79732 54.2529 4.46714 54.4066 3.1275C54.4966 2.35944 53.2965 2.36546 53.2065 3.1275Z" fill="white"/>
<path d="M39.998 11.1987C41.209 11.9892 42.5277 12.6002 43.9132 13.0129C44.6542 13.2339 44.9707 12.0735 44.2312 11.8526C42.9465 11.468 41.7246 10.8978 40.604 10.1601C39.9544 9.73629 39.3529 10.7764 40.0039 11.1987H39.998Z" fill="white"/>
<path d="M63.3698 33.842C64.3914 34.4658 66.8725 35.7449 69.5456 35.3811C69.6646 35.3636 69.7724 35.3013 69.8471 35.2069C69.9218 35.1125 69.9577 34.9931 69.9477 34.8731C69.8907 34.1787 69.8217 32.7688 70.0647 31.6431C70.0976 31.4867 70.1624 31.3389 70.2549 31.2087C70.3473 31.0785 70.4656 30.9688 70.6023 30.8865C70.7389 30.8041 70.8911 30.7509 71.0492 30.73C71.2073 30.7092 71.368 30.7212 71.5213 30.7653C72.4213 31.0298 73.8599 31.0824 75.303 29.5553C77.6401 27.0813 77.1556 20.8828 69.6297 19.503C62.1037 18.1232 59.8716 22.8593 59.8716 22.8593C59.8716 22.8593 56.918 27.4886 63.6323 29.7026C63.7284 29.7331 63.8125 29.793 63.8727 29.8739C63.933 29.9548 63.9665 30.0526 63.9683 30.1535C63.9773 30.8119 63.9128 32.2578 63.2378 33.1596C63.1974 33.2116 63.1686 33.2716 63.1533 33.3356C63.138 33.3997 63.1366 33.4662 63.1491 33.5309C63.1616 33.5955 63.1878 33.6567 63.2258 33.7104C63.2639 33.764 63.313 33.8089 63.3698 33.842Z" fill="#FB9400" stroke="#FB9400" stroke-miterlimit="10"/>
<path d="M72.4394 29.0693C72.7459 27.5028 70.7765 25.7974 68.0408 25.2601C65.305 24.7228 62.8388 25.5571 62.5324 27.1236C62.226 28.6901 64.1953 30.3955 66.9311 30.9328C69.6668 31.4701 72.133 30.6358 72.4394 29.0693Z" fill="#FB9400" stroke="#FB9400" stroke-miterlimit="10"/>
<path d="M70.6928 26.2067C70.6928 26.2067 70.6598 26.1541 70.6508 26.1376C70.6194 26.1001 70.5847 26.0654 70.5473 26.0339C70.4524 25.9644 70.352 25.9026 70.2473 25.849C69.9404 25.6969 69.6187 25.5771 69.2872 25.4913C69.2272 25.4748 69.1657 25.4642 69.1057 25.4492C68.6437 25.4056 68.2057 25.2628 67.7482 25.1982C67.5553 25.1774 67.365 25.1381 67.1796 25.081C67.1586 25.0734 67.1406 25.0614 67.1196 25.0539C66.4776 24.9592 65.8325 24.878 65.189 24.7773C65.0465 25.1741 64.9085 25.5725 64.7705 25.9798C64.6715 26.4187 64.5575 26.8545 64.442 27.2784C64.3265 27.7023 64.2155 28.0855 64.1315 28.4989C64.0579 28.8641 63.9949 29.2324 63.9169 29.5976C63.9914 29.6862 64.0337 29.7975 64.037 29.9132C64.049 30.6197 63.9889 32.1678 63.3169 33.1298C63.274 33.1871 63.2434 33.2526 63.2269 33.3224C63.2104 33.3921 63.2085 33.4644 63.2211 33.535C63.2338 33.6055 63.2608 33.6726 63.3005 33.7322C63.3402 33.7918 63.3918 33.8425 63.4519 33.8813C64.1024 34.3033 64.7922 34.6612 65.5115 34.9499C65.6504 34.9913 65.7854 35.0446 65.9151 35.1093C65.9481 35.1213 65.9841 35.1303 66.0171 35.1408C66.2586 35.207 66.5031 35.2566 66.7461 35.3047C67.1288 35.3921 67.5182 35.4469 67.9102 35.4685C68.3047 35.4805 68.6977 35.4489 69.0907 35.4384C69.3307 35.4309 69.6038 35.4384 69.8633 35.4384C69.9224 35.3854 69.9686 35.3195 69.9983 35.2457C70.0279 35.172 70.0402 35.0924 70.0343 35.0131C69.9743 34.2615 69.9008 32.7585 70.1408 31.547C70.1833 31.3332 70.2834 31.1352 70.4303 30.9744C70.4114 30.8852 70.4114 30.793 70.4303 30.7038C70.6043 29.7629 70.7483 28.8175 70.8548 27.8646C70.8788 27.6482 70.8968 27.4317 70.9163 27.2138C70.892 26.8689 70.8167 26.5295 70.6928 26.2067Z" fill="#FB9400" stroke="#FB9400" stroke-miterlimit="10"/>
<path d="M65.9568 35.1136C66.2178 35.1888 66.4848 35.2384 66.7488 35.291C67.0129 35.3436 67.2439 35.3811 67.4899 35.4127C67.53 35.3848 67.5641 35.3489 67.5898 35.3073C67.6156 35.2656 67.6327 35.2192 67.6399 35.1707L69.038 25.4385C68.6029 25.3874 68.1844 25.2597 67.7494 25.198C67.5566 25.1772 67.3662 25.138 67.1809 25.0808C67.1149 25.0567 67.0519 25.0222 66.9859 24.9951L65.5713 34.8536C65.5713 34.8942 65.5908 34.9257 65.5983 34.9633C65.7214 35.0042 65.8413 35.0544 65.9568 35.1136Z" fill="#FB9400" stroke="#FB9400" stroke-miterlimit="10"/>
<path d="M19.2837 48.6319C19.9797 47.6579 21.4378 45.2756 21.2743 42.5761C21.2655 42.4561 21.2115 42.344 21.1232 42.2624C21.0348 42.1809 20.9188 42.1361 20.7988 42.1372C20.1027 42.1372 18.6986 42.1057 17.5946 41.778C17.4413 41.7338 17.2988 41.6583 17.176 41.5564C17.0532 41.4545 16.9526 41.3283 16.8807 41.1857C16.8087 41.043 16.7669 40.8871 16.7579 40.7275C16.7488 40.568 16.7727 40.4083 16.828 40.2584C17.1581 39.3837 17.3186 37.9452 15.907 36.3896C13.6179 33.869 7.41353 33.8915 5.47842 41.309C3.54331 48.7266 8.09156 51.3088 8.09156 51.3088C8.09156 51.3088 12.4778 54.6065 15.1825 48.0607C15.2202 47.9679 15.2858 47.8891 15.3702 47.8353C15.4546 47.7814 15.5536 47.7552 15.6535 47.7601C16.309 47.8007 17.7431 47.9735 18.5831 48.7145C18.6322 48.7605 18.6907 48.7951 18.7545 48.8161C18.8183 48.8371 18.8859 48.8438 18.9525 48.836C19.0192 48.8281 19.0834 48.8058 19.1406 48.7705C19.1978 48.7353 19.2466 48.688 19.2837 48.6319Z" fill="#FB9400" stroke="#FB9400" stroke-miterlimit="10"/>
<path d="M16.6484 44.8573C17.3868 42.1637 16.7401 39.6374 15.2038 39.2146C13.6676 38.7917 11.8236 40.6325 11.0851 43.3261C10.3467 46.0196 10.9934 48.5459 12.5297 48.9687C14.0659 49.3916 15.9099 47.5508 16.6484 44.8573Z" fill="#FB9400" stroke="#FB9400" stroke-miterlimit="10"/>
<path d="M12.2306 40.7455C12.2306 40.7455 12.1736 40.7755 12.1586 40.7816C12.1189 40.8109 12.0817 40.8436 12.0476 40.8793C11.9709 40.9676 11.9017 41.0621 11.8405 41.1618C11.6661 41.4567 11.5228 41.769 11.413 42.0937C11.392 42.1538 11.377 42.214 11.3575 42.2726C11.281 42.7235 11.1055 43.1564 11.0065 43.6103C10.9709 43.8012 10.9177 43.9884 10.8475 44.1694C10.8385 44.189 10.825 44.207 10.816 44.2265C10.6735 44.8623 10.5445 45.5011 10.3975 46.1354C10.7815 46.3082 11.1685 46.4751 11.554 46.6434C11.9845 46.7742 12.4091 46.9215 12.8231 47.0673C13.2371 47.2131 13.6106 47.3544 14.0142 47.4686C14.3727 47.5708 14.7357 47.6595 15.0912 47.7692C15.1856 47.702 15.2996 47.6682 15.4152 47.673C16.1188 47.7151 17.6654 47.8894 18.5654 48.632C18.619 48.678 18.6813 48.7127 18.7487 48.7338C18.8161 48.7549 18.887 48.762 18.9572 48.7547C19.0274 48.7473 19.0954 48.7258 19.157 48.6912C19.2186 48.6567 19.2725 48.6099 19.3155 48.5538C19.7832 47.935 20.1906 47.2726 20.532 46.5758C20.5842 46.44 20.6474 46.3088 20.721 46.1835C20.7345 46.1519 20.7465 46.1174 20.76 46.0843C20.8425 45.8483 20.91 45.6063 20.976 45.3673C21.0922 44.9914 21.1765 44.6062 21.2281 44.216C21.2686 43.8237 21.2671 43.4284 21.2851 43.0346C21.2956 42.7956 21.3271 42.5221 21.3406 42.2636C21.2919 42.2007 21.2296 42.1498 21.1584 42.1146C21.0872 42.0795 21.0089 42.061 20.9295 42.0606C20.1795 42.0606 18.6794 42.0261 17.4794 41.6954C17.2698 41.6372 17.0804 41.5223 16.9318 41.3632C16.8417 41.3768 16.7496 41.3712 16.6618 41.3467C15.7513 41.0987 14.8152 40.8823 13.8762 40.7064C13.6616 40.6673 13.4471 40.6328 13.2326 40.5967C12.8932 40.5977 12.5557 40.6478 12.2306 40.7455Z" fill="#FB9400" stroke="#FB9400" stroke-miterlimit="10"/>
<path d="M20.7411 46.1435C20.8342 45.8895 20.9047 45.625 20.9752 45.3649C21.0457 45.1049 21.1027 44.8779 21.1537 44.6345C21.1288 44.5918 21.0955 44.5547 21.0558 44.5255C21.016 44.4963 20.9707 44.4756 20.9227 44.4646L11.3401 42.3408C11.2576 42.7722 11.1001 43.1795 11.0056 43.6109C10.9701 43.8018 10.9168 43.989 10.8466 44.17C10.8181 44.2346 10.7791 44.2948 10.7461 44.3579L20.4531 46.5072C20.4921 46.5163 20.5251 46.4922 20.5641 46.4892C20.6144 46.3697 20.6735 46.2541 20.7411 46.1435Z" fill="#FB9400" stroke="#FB9400" stroke-miterlimit="10"/>
<path d="M46.4171 33.7036C46.6376 33.1159 47.6171 33.382 48.0567 32.9356C48.1995 32.7627 48.2946 32.5555 48.3327 32.3344C48.5052 31.6941 48.6792 31.0417 48.6582 30.3804C48.6132 28.9119 47.4506 27.5126 45.994 27.3427C45.4165 27.2751 44.8135 27.3833 44.2644 27.1924C44.0679 27.1233 43.8864 27.0181 43.6929 26.9414C43.4157 26.8223 43.1129 26.7755 42.8128 26.8055C42.5127 26.8354 42.2251 26.9412 41.9768 27.1128C41.7728 27.2631 41.6123 27.4735 41.4188 27.6403C41.1486 27.8534 40.8515 28.0297 40.5352 28.1649L38.7861 29.0081C38.6692 29.0561 38.5615 29.1242 38.4681 29.2095C38.2656 29.423 38.2716 29.7672 38.0991 30.0046C37.9829 30.136 37.852 30.2535 37.7091 30.3548C37.3941 30.6314 37.226 31.0372 37.1 31.437C36.7993 32.3868 36.6747 33.3837 36.7325 34.3785C36.782 35.2322 36.9665 36.0784 36.9545 36.9337C36.9455 37.58 36.839 38.2864 37.193 38.823C37.4931 39.2739 38.0406 39.4934 38.4126 39.8887C38.5626 40.051 38.6901 40.2434 38.8626 40.3892C39.1732 40.6552 39.5977 40.7304 39.9997 40.7965C41.4068 41.028 42.8904 41.2474 44.2284 40.7604C44.3741 40.6982 44.5246 40.648 44.6785 40.6101C44.8355 40.5884 44.994 40.5788 45.1525 40.5816C46.3646 40.541 47.5121 39.9548 48.4152 39.1461C49.3182 38.3375 50.0053 37.3109 50.6173 36.2633C51.7409 34.3409 52.6529 32.3058 53.562 30.2737C53.6403 30.121 53.6911 29.9556 53.712 29.7852C53.7031 29.5825 53.6745 29.3811 53.6265 29.184C53.541 28.5091 53.973 27.8418 53.8575 27.1699C53.5996 27.1305 53.3595 27.0143 53.1685 26.8363C52.9774 26.6583 52.8443 26.4268 52.7864 26.1719C51.5504 26.988 50.7208 28.3032 50.1673 29.6785C49.6137 31.0538 49.3032 32.5132 48.8757 33.9336C48.8559 34.0323 48.808 34.1232 48.7377 34.1951C48.641 34.2591 48.5265 34.2907 48.4107 34.2853C47.27 34.3632 46.1738 34.7589 45.2455 35.4276C45.1217 35.5274 44.9862 35.6117 44.842 35.6786C44.6846 35.731 44.5213 35.7633 44.3559 35.7748C43.8195 35.8437 43.2986 36.0033 42.8154 36.2468C42.7537 36.2861 42.6814 36.3055 42.6083 36.3024C42.5342 36.2803 42.4696 36.2337 42.4253 36.1701L41.6753 35.3074C41.5548 35.1911 41.4673 35.0448 41.4218 34.8835C41.3333 34.4086 41.9678 34.0403 41.9153 33.5608C42.3067 33.6384 42.7115 33.6125 43.0899 33.4857C43.2579 33.7653 43.3134 34.0959 43.4199 34.404C43.5264 34.7122 43.7199 35.0263 44.0199 35.1315C44.3709 35.2518 44.7475 35.0669 45.07 34.888C45.625 34.5874 46.204 34.2537 46.5251 33.7081" fill="#FB9400"/>
<path d="M46.6347 33.7646C46.7322 33.5287 47.1102 33.5046 47.3217 33.464C47.6217 33.4069 47.9488 33.3408 48.1858 33.1243C48.5068 32.8312 48.5773 32.3172 48.6763 31.9219C48.8069 31.4451 48.8769 30.9538 48.8848 30.4594C48.8713 28.9564 47.7627 27.4654 46.2627 27.1648C45.8126 27.0761 45.3626 27.1137 44.9126 27.0881C44.6741 27.0791 44.439 27.0282 44.218 26.9378C44.0028 26.8318 43.7814 26.739 43.555 26.6598C43.1499 26.5411 42.7183 26.5484 42.3174 26.6808C41.8884 26.8311 41.6289 27.1437 41.3019 27.4413C40.9749 27.7389 40.4978 27.9343 40.0808 28.1342C39.6098 28.3597 39.1373 28.5852 38.6677 28.8121C38.4645 28.8954 38.2924 29.0405 38.1757 29.227C38.0752 29.4073 38.0497 29.6162 37.9567 29.7966C37.8637 29.977 37.6882 30.0687 37.5457 30.1949C37.3846 30.3417 37.2506 30.5157 37.1497 30.709C36.9468 31.1148 36.799 31.546 36.7101 31.991C36.5981 32.472 36.5284 32.9619 36.5016 33.455C36.4431 34.5071 36.6741 35.5247 36.7191 36.5678C36.7551 37.4065 36.5256 38.3609 37.0942 39.0749C37.3417 39.386 37.6942 39.5814 37.9942 39.8264C38.3407 40.097 38.5477 40.5073 38.9363 40.7282C39.3248 40.9492 39.7703 40.9958 40.1963 41.0634C40.6688 41.1386 41.1414 41.2137 41.6169 41.2498C42.5696 41.3526 43.5332 41.2407 44.4371 40.9221C44.8751 40.7598 45.3551 40.8184 45.8111 40.7357C46.2331 40.6557 46.6431 40.5213 47.0307 40.3359C47.8227 39.9526 48.5317 39.4169 49.1173 38.7592C49.7332 38.0609 50.2755 37.3009 50.7359 36.4912C51.2444 35.6299 51.7095 34.7431 52.1505 33.8458C52.6005 32.9214 53.0295 31.9835 53.4511 31.0456C53.5501 30.8262 53.6491 30.6083 53.7511 30.3903C53.8609 30.1831 53.9239 29.9543 53.9356 29.72C53.9356 29.4945 53.8486 29.2811 53.8381 29.0586C53.8369 28.831 53.8677 28.6043 53.9296 28.3853C54.0316 27.9584 54.1366 27.5481 54.0706 27.1077C54.0621 27.0703 54.0436 27.0359 54.0172 27.0081C53.9908 26.9804 53.9574 26.9602 53.9206 26.9498C53.7012 26.9186 53.4964 26.8215 53.3333 26.6712C53.1702 26.5209 53.0564 26.3246 53.007 26.1081C52.9977 26.0748 52.9809 26.0441 52.9579 26.0182C52.9349 25.9924 52.9063 25.9722 52.8743 25.9591C52.8424 25.9461 52.8078 25.9405 52.7733 25.9429C52.7389 25.9453 52.7054 25.9555 52.6755 25.9729C50.5634 27.3857 49.7564 29.9033 49.1188 32.236C49.0258 32.5772 48.9343 32.9184 48.8398 33.2581C48.7948 33.4174 48.7498 33.5753 48.7033 33.7346C48.6643 33.8668 48.6553 34.0217 48.4993 34.0487C48.1993 34.0968 47.8903 34.1058 47.5887 34.1644C47.2829 34.2249 46.982 34.3083 46.6887 34.414C46.1077 34.6255 45.5593 34.918 45.0596 35.2827C44.9501 35.3712 44.8263 35.4403 44.6936 35.4871C44.541 35.5228 44.3861 35.5479 44.23 35.5623C43.9071 35.6098 43.5896 35.6888 43.282 35.7983C43.1156 35.8585 42.9524 35.9272 42.793 36.0042C42.7 36.0478 42.6805 36.0838 42.604 36.0282C42.5356 35.9645 42.4737 35.894 42.4194 35.8178L42.0219 35.3669C41.8909 35.2414 41.776 35.1 41.6799 34.946C41.5644 34.7116 41.7504 34.4951 41.8764 34.3012C42.0439 34.0921 42.1368 33.8329 42.1404 33.5647L41.8554 33.7827C42.2861 33.8657 42.7306 33.8394 43.1485 33.706L42.895 33.6038C43.126 34.0096 43.1455 34.5056 43.4065 34.8949C43.5193 35.0821 43.6883 35.2287 43.8893 35.3138C44.0903 35.3988 44.313 35.4179 44.5256 35.3684C44.9606 35.2752 45.3881 34.9926 45.7586 34.7551C46.1474 34.5232 46.4783 34.2055 46.7262 33.8263C46.8762 33.5783 46.4892 33.3513 46.3377 33.5993C46.1369 33.905 45.8704 34.1618 45.5576 34.3508C45.2402 34.577 44.8954 34.7618 44.5316 34.9009C43.621 35.2015 43.588 33.9104 43.2835 33.3769C43.258 33.3346 43.2195 33.3016 43.1739 33.283C43.1282 33.2643 43.0778 33.2608 43.03 33.2731C42.6917 33.3856 42.3307 33.4115 41.9799 33.3483C41.9465 33.3396 41.9115 33.3387 41.8777 33.3456C41.8439 33.3524 41.812 33.3669 41.7846 33.3879C41.7571 33.4089 41.7348 33.4358 41.7193 33.4667C41.7037 33.4976 41.6954 33.5316 41.6949 33.5662C41.7099 33.8007 41.5449 33.9886 41.4264 34.175C41.2787 34.3667 41.1975 34.6016 41.1954 34.8438C41.2179 35.1685 41.4594 35.403 41.6604 35.6329L42.0129 36.0387C42.1211 36.1822 42.2427 36.3151 42.3759 36.4355C42.655 36.6535 42.9415 36.4355 43.213 36.3168C43.5374 36.1834 43.8754 36.0861 44.221 36.0267C44.5316 35.9741 44.8406 35.9666 45.1211 35.7983C45.4016 35.6299 45.6506 35.424 45.9356 35.2632C46.5083 34.9408 47.1302 34.7153 47.7762 34.5958C47.9353 34.5678 48.0958 34.5452 48.2578 34.5282C48.4185 34.5274 48.5784 34.5051 48.7333 34.462C49.0408 34.3448 49.0993 34.0111 49.1833 33.7271C49.5823 32.3578 49.8899 30.9524 50.4404 29.6328C50.9684 28.3627 51.753 27.1467 52.911 26.3712L52.5795 26.2359C52.649 26.528 52.8024 26.7933 53.0207 26.999C53.2391 27.2047 53.5128 27.3418 53.8081 27.3932L53.6506 27.2354C53.7121 27.6488 53.5501 28.0591 53.4676 28.4574C53.4201 28.6572 53.3979 28.8623 53.4016 29.0676C53.4121 29.2901 53.4991 29.5065 53.4991 29.729C53.4991 29.9514 53.3776 30.1664 53.2876 30.3678L52.9875 31.0231C52.7875 31.461 52.5875 31.8969 52.3875 32.3307C51.6045 34.0202 50.7794 35.7216 49.7309 37.2652C48.7918 38.6495 47.5122 39.9286 45.8216 40.2863C45.4031 40.375 44.9651 40.3209 44.5541 40.4216C44.3561 40.4712 44.1685 40.5614 43.9735 40.623C43.7387 40.6964 43.4984 40.7512 43.255 40.7868C42.3549 40.9191 41.4459 40.8124 40.5548 40.6756C40.1408 40.611 39.6908 40.5749 39.3008 40.4141C38.9108 40.2533 38.7292 39.876 38.4232 39.607C38.1472 39.3665 37.8232 39.1891 37.5577 38.9336C37.4235 38.792 37.3186 38.6252 37.2491 38.4428C37.1796 38.2605 37.1468 38.0661 37.1527 37.8709C37.1377 37.4411 37.1842 37.0127 37.1662 36.5813C37.1452 36.0928 37.0746 35.6074 37.0161 35.1219C36.8908 34.1713 36.9217 33.2066 37.1077 32.2661C37.187 31.8312 37.3205 31.4081 37.5052 31.0066C37.5916 30.8265 37.7118 30.6647 37.8592 30.5301C38.0161 30.4159 38.1586 30.2832 38.2837 30.1348C38.3822 29.9712 38.4574 29.7946 38.5072 29.6102C38.5383 29.5178 38.5898 29.4336 38.6579 29.3639C38.7259 29.2942 38.8088 29.2407 38.9003 29.2074C39.3503 28.9895 39.8003 28.7775 40.2503 28.5626C40.6654 28.3889 41.0628 28.1755 41.4369 27.9253C41.7654 27.6773 42.0024 27.3031 42.3924 27.1422C42.7577 27.0024 43.1607 26.9971 43.5295 27.1272C43.72 27.1903 43.8955 27.291 44.08 27.3677C44.3063 27.4585 44.5451 27.5143 44.7881 27.533C45.2231 27.5736 45.6656 27.5165 46.0962 27.5931C46.438 27.6561 46.7643 27.7858 47.0562 27.9749C47.6394 28.3583 48.0756 28.9284 48.2938 29.5922C48.5683 30.4324 48.3868 31.2846 48.1663 32.1158C48.0778 32.454 48.0163 32.8027 47.6502 32.932C47.3802 33.0297 47.0862 33.0387 46.8132 33.1243C46.678 33.1591 46.5528 33.2248 46.4474 33.3164C46.3419 33.4079 46.2592 33.5228 46.2057 33.6519C46.0947 33.9195 46.5297 34.0367 46.6392 33.7722L46.6347 33.7646Z" fill="#FB9400"/>
<path d="M49.0782 33.7569C49.3212 30.9537 50.7523 27.8875 52.6049 26.2041C52.6542 26.3663 52.7531 26.5088 52.8877 26.6116C53.0223 26.7144 53.1858 26.7721 53.3549 26.7768C53.4555 26.763 53.5578 26.7712 53.6549 26.8008C53.8049 26.8654 53.8469 27.0413 53.8724 27.1976C53.9504 27.7132 53.9504 28.2377 53.8724 28.7533C53.8278 28.9852 53.7972 29.2196 53.7809 29.4552C53.7809 29.6506 53.8004 29.846 53.7944 30.0414C53.7779 30.5028 53.5814 30.9432 53.3804 31.3535C52.6471 32.8704 51.797 34.3277 50.8378 35.7124C50.7742 35.2131 50.5458 34.7495 50.1889 34.3954C49.8319 34.0414 49.367 33.8171 48.8682 33.7584" fill="#FB9400"/>
<path d="M49.3029 33.7569C49.5164 31.5411 50.3217 29.4238 51.634 27.6275C51.9685 27.1703 52.3469 26.7469 52.7636 26.3634L52.3871 26.2642C52.4297 26.4025 52.5003 26.5304 52.5945 26.6401C52.6888 26.7497 52.8045 26.8387 52.9346 26.9015C53.0669 26.9649 53.2111 26.9992 53.3576 27.0022C53.5242 27.0022 53.5932 26.9797 53.6367 27.1631C53.7095 27.5229 53.7317 27.8912 53.7027 28.2573C53.6832 28.6361 53.5872 29.0088 53.5646 29.3831C53.5421 29.7573 53.6037 30.1211 53.4956 30.4968C53.3824 30.8399 53.2394 31.1723 53.0681 31.4903C52.7371 32.1607 52.3826 32.8185 52.0046 33.4638C51.5795 34.1893 51.1295 34.8977 50.6545 35.5891L51.073 35.7034C51.0068 35.1452 50.7538 34.626 50.3552 34.2305C49.9566 33.835 49.436 33.5864 48.8784 33.5255C48.5919 33.4954 48.5934 33.9463 48.8784 33.9764C49.3179 34.0327 49.7268 34.2323 50.0421 34.5444C50.3573 34.8564 50.5614 35.2637 50.623 35.7034C50.6248 35.752 50.6421 35.7988 50.6724 35.8369C50.7026 35.875 50.7442 35.9024 50.7911 35.9151C50.838 35.9279 50.8877 35.9253 50.933 35.9078C50.9783 35.8902 51.0169 35.8586 51.043 35.8176C51.9204 34.5501 52.7074 33.2221 53.3981 31.8436C53.5768 31.5072 53.7351 31.1604 53.8722 30.8049C53.9945 30.4539 54.0455 30.0818 54.0222 29.7107C54.0027 29.3109 54.0927 28.9352 54.1347 28.5399C54.1789 28.1518 54.1789 27.76 54.1347 27.372C54.0957 27.0533 54.0402 26.6565 53.6727 26.5634C53.5046 26.5213 53.3336 26.5769 53.1701 26.5092C53.0915 26.4755 53.021 26.4254 52.9633 26.3621C52.9056 26.2989 52.8621 26.224 52.8356 26.1425C52.8244 26.105 52.8038 26.071 52.7757 26.0437C52.7476 26.0165 52.7129 25.997 52.6751 25.987C52.6373 25.977 52.5976 25.977 52.5598 25.9868C52.5219 25.9967 52.4873 26.0161 52.4591 26.0433C50.8165 27.5463 49.7424 29.6987 49.1964 31.836C49.0341 32.4657 48.9237 33.1077 48.8664 33.7554C48.8409 34.0455 49.2909 34.0425 49.3164 33.7554L49.3029 33.7569Z" fill="#FB9400"/>
<path d="M43.7812 33.4846C44.2042 32.8308 44.7638 32.1319 45.5993 32.0177C45.7958 31.9906 45.9998 31.9996 46.1918 31.9545C46.7918 31.8163 47.1294 31.2211 47.6919 30.967C47.7204 30.9494 47.7529 30.939 47.7864 30.9369C47.8199 30.9348 47.8534 30.941 47.8839 30.955C47.9016 30.9703 47.9158 30.9893 47.9256 31.0105C47.9354 31.0317 47.9406 31.0548 47.9409 31.0783C48.0153 31.6861 47.911 32.3025 47.6409 32.8519C47.5966 32.9574 47.5283 33.0511 47.4414 33.1254C47.2734 33.2547 47.0304 33.2577 46.8174 33.3133C46.5488 33.3839 46.3853 33.8634 46.1543 34.0017C45.8166 34.177 45.469 34.3326 45.1133 34.4676C44.8999 34.5552 44.6702 34.5957 44.4397 34.5864C44.0272 34.5488 43.8667 33.889 43.7617 33.5342" fill="#FB9400"/>
<path d="M43.9759 33.5992C44.3614 33.0055 44.8595 32.3652 45.602 32.2464C45.7955 32.2149 45.9935 32.2224 46.187 32.1878C46.3754 32.1509 46.5551 32.0784 46.7166 31.9744C47.0091 31.788 47.2416 31.5235 47.5236 31.3251C47.6025 31.284 47.6787 31.2378 47.7516 31.1868L47.7951 31.1673L47.7111 31.0936C47.7111 31.0936 47.7291 31.268 47.7291 31.28C47.7439 31.5065 47.7323 31.734 47.6946 31.9579C47.6301 32.3171 47.5161 32.9228 47.1126 33.0235C46.9468 33.0436 46.7844 33.0855 46.6296 33.1483C46.4929 33.2405 46.3769 33.3603 46.289 33.5C46.2211 33.6154 46.1362 33.7198 46.037 33.8096C45.8456 33.9288 45.6406 34.0247 45.4265 34.0952C45.2254 34.1886 45.0178 34.2675 44.8055 34.3312C44.6735 34.3612 44.4799 34.4093 44.3554 34.3312C44.1154 34.1628 44.0554 33.739 43.9729 33.4774C43.9531 33.4243 43.9142 33.3805 43.8637 33.3547C43.8133 33.3289 43.755 33.3229 43.7005 33.338C43.6459 33.3531 43.5989 33.3881 43.5688 33.4362C43.5387 33.4842 43.5277 33.5419 43.5379 33.5977C43.6354 33.9314 43.7254 34.2936 43.9549 34.5641C44.2294 34.8873 44.6555 34.8647 45.029 34.743C45.245 34.6769 45.455 34.5717 45.6665 34.486C45.9053 34.4062 46.1316 34.2928 46.3385 34.1493C46.4724 34.0189 46.5898 33.8725 46.6881 33.7134C46.8261 33.53 46.9491 33.5255 47.1696 33.4774C47.3826 33.4452 47.5758 33.3342 47.7111 33.1663C47.8675 32.9382 47.9813 32.6836 48.0471 32.4148C48.1159 32.1792 48.1586 31.9368 48.1746 31.6918C48.2102 31.4406 48.1933 31.1847 48.1251 30.9403C47.9196 30.4263 47.2776 30.9403 47.0376 31.1447C46.6926 31.4348 46.3986 31.7354 45.9275 31.776C45.6661 31.7837 45.407 31.8282 45.158 31.9083C44.9353 31.9932 44.7268 32.1118 44.5399 32.26C44.1622 32.5787 43.8394 32.9575 43.5844 33.3812C43.4254 33.6262 43.8154 33.8517 43.9729 33.6097L43.9759 33.5992Z" fill="#FB9400"/>
<path d="M45.0311 27.3809C45.3776 27.8408 45.3746 28.4976 45.1466 29.0342C44.9186 29.5708 44.4986 29.9841 44.0545 30.3494C43.862 30.4841 43.697 30.6545 43.5685 30.8514C43.4817 31.0338 43.4308 31.2313 43.4185 31.4331C43.3363 32.168 43.3147 32.9085 43.354 33.6471" fill="#FB9400"/>
<path d="M44.837 27.495C44.9798 27.711 45.0633 27.9608 45.0791 28.2194C45.0949 28.478 45.0424 28.7362 44.927 28.968C44.6959 29.4805 44.2744 29.8698 43.8499 30.22C43.6432 30.3687 43.4716 30.5611 43.3474 30.7837C43.2392 31.0587 43.1803 31.3508 43.1734 31.6464C43.1114 32.3089 43.0973 32.9749 43.1314 33.6394C43.1464 33.928 43.5964 33.9295 43.5814 33.6394C43.5454 32.9503 43.5619 32.2594 43.6309 31.5728C43.6594 31.2797 43.6894 30.9926 43.9024 30.7716C44.1154 30.5507 44.3344 30.4094 44.5399 30.2155C45.314 29.488 45.9365 28.2615 45.2255 27.2665C45.0575 27.0336 44.6674 27.2665 44.837 27.495Z" fill="#FB9400"/>
<path d="M38.5371 29.7891C39.0916 30.4041 39.4958 31.1399 39.7177 31.9384C39.8452 32.3983 39.9607 32.9409 40.3777 33.1409C40.6462 33.2716 40.9597 33.2175 41.2553 33.2085C41.5508 33.1995 41.8958 33.2656 42.0398 33.5331" fill="#FB9400"/>
<path d="M38.3783 29.9494C38.7244 30.3363 39.0106 30.773 39.2274 31.245C39.4299 31.6839 39.5094 32.1544 39.6774 32.5978C39.8274 33.0051 40.0989 33.3493 40.552 33.432C40.8015 33.4538 41.0525 33.4538 41.302 33.432C41.4985 33.432 41.731 33.4635 41.8421 33.6454C41.8732 33.6947 41.9222 33.73 41.9788 33.7439C42.0354 33.7577 42.0952 33.749 42.1455 33.7196C42.1959 33.6902 42.2329 33.6424 42.2487 33.5862C42.2646 33.5301 42.2581 33.4699 42.2306 33.4184C41.9786 33.0036 41.497 32.9675 41.059 32.9931C40.816 33.0066 40.5505 33.0291 40.354 32.8578C40.2085 32.7115 40.1049 32.5288 40.0539 32.3287C39.9234 31.851 39.76 31.383 39.5649 30.9279C39.3347 30.4541 39.0388 30.0154 38.6859 29.6247C38.4923 29.4083 38.1743 29.7284 38.3678 29.9449L38.3783 29.9494Z" fill="#FB9400"/>
<path d="M36.9316 35.2975C37.1717 35.6792 37.6937 35.6898 38.1317 35.7664C38.3767 35.8313 38.6284 35.8671 38.8817 35.8731C39.3588 35.8431 39.7473 35.4914 40.1358 35.2043C40.5243 34.9172 41.0359 34.6722 41.4634 34.8781" fill="#FB9400"/>
<path d="M36.739 35.4115C36.967 35.7452 37.3226 35.8624 37.7066 35.9271C38.1341 35.9962 38.5976 36.151 39.0312 36.0774C39.4647 36.0037 39.8142 35.7257 40.1532 35.4686C40.4682 35.2297 40.9333 34.8915 41.3533 35.0703C41.6173 35.1831 41.8468 34.7953 41.5813 34.6811C41.3888 34.6042 41.1813 34.5728 40.9747 34.5892C40.7682 34.6056 40.5682 34.6694 40.3902 34.7757C40.0167 34.9681 39.7197 35.2763 39.3552 35.4837C39.1825 35.5892 38.9844 35.6454 38.7821 35.646C38.5494 35.6217 38.3184 35.5825 38.0906 35.5288C37.7756 35.4807 37.3301 35.4732 37.1305 35.1801C36.967 34.9426 36.577 35.168 36.742 35.4085L36.739 35.4115Z" fill="#FB9400"/>
<path d="M38.8327 40.3928C38.8327 40.1433 38.6662 39.9058 38.7037 39.6578C38.732 39.5292 38.7895 39.4088 38.8718 39.3061C39.3641 38.6221 40.0623 38.1143 40.8639 37.8571C41.2524 37.7324 41.6694 37.6663 42.0099 37.4408C42.3504 37.2153 42.5875 36.7569 42.4014 36.3887" fill="#FB9400"/>
<path d="M39.0573 40.3922C39.0408 40.1351 38.8533 39.833 38.9613 39.5865C39.0881 39.3517 39.2558 39.1415 39.4563 38.9658C39.8247 38.5984 40.2671 38.314 40.7539 38.1316C41.2564 37.9467 41.831 37.8926 42.254 37.5304C42.6215 37.2192 42.8 36.7247 42.5945 36.2738C42.4745 36.0108 42.086 36.2392 42.206 36.5008C42.428 36.9863 41.7815 37.3395 41.4259 37.4537C40.9309 37.6115 40.4434 37.7288 39.9874 37.9918C39.5561 38.2405 39.1734 38.5654 38.8578 38.9507C38.6834 39.1302 38.5561 39.3502 38.4873 39.591C38.4318 39.8736 38.5908 40.1141 38.6073 40.3861C38.6238 40.6582 39.0753 40.6777 39.0573 40.3861V40.3922Z" fill="#FB9400"/>
<path d="M44.9323 40.4421C45.0328 38.8955 45.2983 37.3037 44.8408 35.8232L44.9323 40.4421Z" fill="#FB9400"/>
<path d="M45.1522 40.4427C45.2557 38.8855 45.5122 37.2863 45.0531 35.7637C44.9691 35.4871 44.5341 35.6059 44.6181 35.8839C45.0681 37.3674 44.8026 38.9291 44.7021 40.4427C44.6826 40.7312 45.1327 40.7297 45.1522 40.4427Z" fill="#FB9400"/>
<path d="M48.972 38.6277C48.743 37.6126 48.4699 36.6106 48.1529 35.6215C48.0239 35.2247 47.8634 34.7964 47.5049 34.5859" fill="#FB9400"/>
<path d="M49.1884 38.5706C49.0044 37.754 48.7919 36.9459 48.5509 36.1462C48.3618 35.5225 48.2058 34.7559 47.6163 34.3847C47.3703 34.2344 47.1438 34.6207 47.3883 34.774C47.619 34.9455 47.7858 35.1894 47.8623 35.4669C47.9823 35.7975 48.0798 36.1372 48.1788 36.4739C48.3949 37.2064 48.5869 37.9449 48.7549 38.6894C48.8194 38.9735 49.2529 38.8532 49.1884 38.5706Z" fill="#FB9400"/>
<path d="M13.8005 20.9825C13.19 21.1223 12.8734 20.1588 12.2584 20.0341C12.0371 20.0097 11.8133 20.0433 11.6089 20.1318C10.9803 20.3407 10.3413 20.5556 9.79978 20.9374C8.59971 21.7836 8.07618 23.5272 8.73622 24.8453C8.99873 25.3654 9.42175 25.8103 9.56426 26.3754C9.61526 26.5768 9.62726 26.7873 9.66777 26.9917C9.78927 27.5824 10.1913 28.1325 10.7583 28.3324C10.9998 28.4181 11.2579 28.4391 11.5084 28.5083C11.8352 28.6164 12.146 28.7681 12.4324 28.9592L14.0945 29.9602C14.1993 30.0302 14.3156 30.0811 14.438 30.1105C14.7275 30.1631 15.0111 29.9692 15.3051 29.9827C15.4779 30.0084 15.6474 30.0527 15.8106 30.115C16.2141 30.2262 16.6447 30.1436 17.0467 30.0293C18.0006 29.7537 18.8963 29.306 19.6898 28.7082C20.3739 28.1956 20.9769 27.5764 21.6969 27.1149C22.24 26.7662 22.885 26.4671 23.14 25.8749C23.3545 25.3759 23.2315 24.7957 23.3545 24.2667C23.4233 24.0535 23.4804 23.8367 23.5255 23.6173C23.5765 23.2115 23.4055 22.8147 23.239 22.442C22.657 21.1373 22.027 19.7741 20.8794 18.9263C20.7463 18.8367 20.6208 18.7362 20.5044 18.6257C20.3989 18.5079 20.3031 18.3818 20.2179 18.2485C19.5173 17.258 18.3968 16.6207 17.2177 16.311C16.0386 16.0014 14.8176 15.9924 13.604 16.0585C11.3854 16.1773 9.18774 16.5365 6.99462 16.8957C6.8239 16.9126 6.65767 16.9604 6.50409 17.037C6.33802 17.1567 6.18426 17.2926 6.04507 17.4428C5.53054 17.8938 4.73549 17.8938 4.24497 18.3582C4.35434 18.5957 4.38966 18.8608 4.3463 19.1188C4.30295 19.3767 4.18294 19.6156 4.00195 19.8041C5.36253 20.3888 6.91661 20.3587 8.3672 20.0641C9.81778 19.7696 11.2039 19.2239 12.6214 18.8001C12.7162 18.76 12.8209 18.7501 12.9214 18.7715C13.0274 18.8181 13.1165 18.8963 13.1765 18.9955C13.8713 19.9068 14.8065 20.6055 15.8766 21.0126C16.0282 21.0608 16.1732 21.1274 16.3086 21.211C16.4381 21.3147 16.5545 21.4338 16.6552 21.5657C17.0086 21.9759 17.4285 22.3235 17.8972 22.5938C17.9647 22.6227 18.0211 22.6728 18.0577 22.7366C18.081 22.8105 18.0778 22.8902 18.0487 22.962L17.7487 24.0653C17.7187 24.2321 17.6446 24.3878 17.5342 24.5162C17.1877 24.8513 16.5306 24.5162 16.1616 24.8318C16.0102 24.462 15.7658 24.1378 15.4521 23.8909C15.5916 23.5903 15.8361 23.3678 16.0341 23.1078C16.2321 22.8478 16.3896 22.5186 16.3071 22.206C16.2141 21.8453 15.8571 21.6333 15.5256 21.4545C14.9661 21.1539 14.372 20.8532 13.7405 20.8863" fill="#FB9400"/>
<path d="M13.7347 20.7641C13.4737 20.8137 13.2517 20.5161 13.0927 20.3523C12.8796 20.1314 12.6426 19.8924 12.3321 19.8217C11.8821 19.718 11.3901 19.9585 10.982 20.1073C10.5223 20.2598 10.0849 20.4731 9.68147 20.7416C8.4709 21.5998 7.86337 23.3043 8.4289 24.7096C8.59091 25.1139 8.85342 25.4612 9.07394 25.8294C9.18131 25.9979 9.26605 26.1798 9.32595 26.3705C9.39345 26.608 9.40095 26.8575 9.45796 27.098C9.54791 27.4984 9.75223 27.864 10.046 28.1501C10.367 28.4507 10.7405 28.5785 11.1666 28.6641C11.6646 28.7648 12.0666 29.0098 12.5001 29.2654L13.8757 30.0935C14.0559 30.2252 14.2655 30.3109 14.4862 30.343C14.702 30.3313 14.9153 30.2914 15.1208 30.2243C15.3578 30.1762 15.5483 30.2859 15.7748 30.3415C16.0289 30.3991 16.2917 30.4073 16.5489 30.3656C17.4759 30.2363 18.409 29.808 19.2025 29.3135C20.026 28.8054 20.7026 28.111 21.4781 27.5399C22.0992 27.0889 22.9572 26.7718 23.3127 26.0368C23.5227 25.6024 23.4912 25.123 23.5257 24.654C23.5602 24.1851 23.8048 23.7627 23.7463 23.2817C23.6877 22.8008 23.4567 22.3799 23.2617 21.947C23.0787 21.5457 22.8897 21.1459 22.6767 20.7611C22.2851 20.008 21.744 19.3431 21.0866 18.8072C20.9183 18.6946 20.7611 18.5663 20.6171 18.4239C20.4671 18.2495 20.3471 18.0436 20.2001 17.8633C19.9252 17.5345 19.6079 17.2438 19.2565 16.999C18.537 16.5067 17.7241 16.168 16.8684 16.004C15.8648 15.8208 14.8426 15.7617 13.8247 15.8281C12.7551 15.8777 11.6886 15.9784 10.6265 16.1288C9.56446 16.2791 8.5084 16.4294 7.45235 16.6052C6.98882 16.6804 6.51779 16.7044 6.15627 17.0366C6.01764 17.1861 5.8615 17.3183 5.69125 17.4304C5.50473 17.5304 5.30939 17.6129 5.10772 17.6769C4.73579 17.7853 4.38907 17.9667 4.08766 18.2105C4.05339 18.2463 4.03153 18.2923 4.02532 18.3415C4.01911 18.3908 4.02887 18.4407 4.05316 18.484C4.13644 18.6785 4.16108 18.8931 4.12402 19.1015C4.08697 19.3098 3.98985 19.5027 3.84465 19.6564C3.81795 19.6848 3.79891 19.7195 3.78931 19.7574C3.77971 19.7952 3.77987 19.8348 3.78977 19.8725C3.79967 19.9103 3.81899 19.9448 3.84591 19.973C3.87283 20.0012 3.90647 20.0221 3.94365 20.0337C6.40979 21.0723 9.09044 20.1975 11.4876 19.4084C11.8056 19.3047 12.1236 19.201 12.4431 19.1078C12.5526 19.0732 12.7731 18.9575 12.8796 19.0221C12.9862 19.0867 13.0852 19.2671 13.1647 19.3633C13.528 19.8004 13.9483 20.1866 14.4142 20.5116C14.8934 20.8336 15.4084 21.0984 15.9488 21.3007C16.2488 21.4195 16.4063 21.66 16.6179 21.8869C16.9424 22.2319 17.3129 22.5303 17.7189 22.7737C17.7999 22.8218 17.8344 22.8248 17.8224 22.924C17.8043 23.0181 17.7787 23.1106 17.7459 23.2006C17.6711 23.5531 17.5709 23.8997 17.4459 24.2377C17.3304 24.4962 17.0544 24.4752 16.8129 24.4737C16.5414 24.4737 16.2548 24.4827 16.0298 24.654L16.3598 24.7878C16.1955 24.3821 15.9319 24.0244 15.5933 23.7477L15.6278 24.0212C15.8318 23.6154 16.2128 23.3328 16.4063 22.921C16.5094 22.7299 16.5504 22.5113 16.5235 22.2957C16.4966 22.0802 16.4032 21.8784 16.2563 21.7186C15.9713 21.4074 15.5348 21.2181 15.1613 21.0407C14.7169 20.8049 14.2225 20.6792 13.7197 20.674C13.4317 20.683 13.4302 21.1339 13.7197 21.1249C14.1315 21.1265 14.5371 21.2259 14.9033 21.415C15.2484 21.5506 15.5722 21.7354 15.8648 21.9636C16.5143 22.5558 15.4973 23.2697 15.2363 23.7883C15.2119 23.8312 15.202 23.881 15.2083 23.9301C15.2145 23.9791 15.2364 24.0248 15.2708 24.0603C15.555 24.2819 15.7793 24.5713 15.9233 24.902C15.9728 25.0193 16.1243 25.135 16.2533 25.0373C16.4513 24.887 16.7034 24.9216 16.9359 24.9201C17.186 24.9374 17.4341 24.8655 17.6364 24.7171C17.8659 24.5233 17.9244 24.2106 18.0009 23.9341L18.1509 23.417C18.2097 23.2467 18.2538 23.0717 18.2829 22.894C18.3189 22.5422 17.9979 22.4235 17.7534 22.2627C17.4817 22.0819 17.2302 21.8722 17.0034 21.6374C16.7874 21.415 16.6119 21.1429 16.3373 20.9851C16.0628 20.8273 15.7763 20.7596 15.5063 20.6289C14.9567 20.3638 14.4509 20.0161 14.0062 19.5978C13.7765 19.3811 13.5638 19.1469 13.3702 18.8974C13.1692 18.6373 12.9637 18.4976 12.6201 18.5817C11.9316 18.7516 11.2581 19.0161 10.583 19.2355C9.90798 19.455 9.21644 19.6639 8.51741 19.8172C7.04432 20.1419 5.47524 20.199 4.06216 19.6038L4.16116 19.9796C4.37419 19.7542 4.5147 19.4699 4.56445 19.1636C4.6142 18.8572 4.57091 18.543 4.44018 18.2616L4.40418 18.5351C4.69369 18.2736 5.08071 18.1744 5.43623 18.0406C5.79423 17.912 6.11913 17.7051 6.38729 17.4349C6.53089 17.2767 6.72302 17.1709 6.93332 17.1343C7.16883 17.0877 7.40734 17.0546 7.64436 17.0171C8.14538 16.9344 8.64491 16.8547 9.14444 16.7781C11.108 16.4775 13.1182 16.1994 15.1103 16.2565C16.7994 16.3046 18.5965 16.7315 19.7605 18.0421C20.0455 18.3623 20.2391 18.7335 20.5886 18.9936C20.9177 19.2299 21.2195 19.5021 21.4886 19.8052C21.9881 20.4261 22.4019 21.1117 22.7187 21.8433C22.9259 22.2391 23.1015 22.6507 23.2437 23.0743C23.3117 23.2825 23.3226 23.5052 23.2752 23.7191C23.2197 23.9461 23.1342 24.17 23.0997 24.3955C23.0382 24.8224 23.0997 25.2763 22.9662 25.6896C22.8447 26.0549 22.5417 26.3074 22.2312 26.5118C21.9206 26.7162 21.5636 26.9146 21.2471 27.1461C20.8871 27.4106 20.5496 27.7037 20.2091 27.9923C19.5242 28.598 18.7513 29.0957 17.9169 29.4683C17.5042 29.6508 17.0739 29.7908 16.6329 29.8861C16.4005 29.9401 16.1596 29.9463 15.9248 29.9041C15.6998 29.8561 15.4958 29.7463 15.2618 29.7463C15.074 29.7604 14.8886 29.7972 14.7097 29.8561C14.4517 29.9192 14.2837 29.8049 14.0677 29.6742L12.7881 28.9046C12.4041 28.6732 12.0201 28.4176 11.5881 28.2884C11.1561 28.1591 10.742 28.1606 10.4015 27.8555C10.1324 27.6068 9.9491 27.2789 9.87798 26.9191C9.83148 26.6952 9.82098 26.4682 9.75797 26.2442C9.69657 26.0449 9.61251 25.8532 9.50746 25.6731C9.30495 25.3199 9.04543 24.9982 8.87892 24.6209C8.74491 24.3124 8.67303 23.9804 8.66741 23.644C8.65633 22.9374 8.88598 22.2482 9.31845 21.69C9.82698 21.0347 10.583 20.7055 11.3466 20.444C11.7141 20.3177 12.1176 20.1118 12.4686 20.3733C12.6951 20.5402 12.8616 20.7777 13.0792 20.958C13.1811 21.0551 13.3044 21.1269 13.4391 21.1676C13.5738 21.2084 13.7161 21.2169 13.8547 21.1925C14.1382 21.1384 14.0182 20.704 13.7347 20.7581V20.7641Z" fill="#FB9400"/>
<path d="M12.3737 18.728C9.90011 20.0687 6.56242 20.5617 4.13978 19.9395C4.24755 19.8082 4.31146 19.6463 4.32249 19.4767C4.33353 19.3071 4.29113 19.1383 4.20129 18.9941C4.13416 18.9179 4.08313 18.829 4.05128 18.7325C4.02578 18.5822 4.14728 18.4319 4.26279 18.3327C4.64792 17.9819 5.0839 17.6915 5.55586 17.4715C5.77387 17.3806 5.98626 17.2767 6.1919 17.1604C6.35691 17.0582 6.50541 16.9289 6.67192 16.8267C7.06645 16.5862 7.53597 16.511 7.9935 16.4509C9.65854 16.2301 11.3382 16.1397 13.0173 16.1804C12.6369 16.5086 12.377 16.9548 12.2789 17.448C12.1808 17.9412 12.2501 18.4532 12.4757 18.9024" fill="#FB9400"/>
<path d="M12.2604 18.5338C10.303 19.5753 8.10197 20.0701 5.88807 19.9662C5.31879 19.9412 4.75343 19.8591 4.20048 19.7212L4.29948 20.0985C4.39227 19.9874 4.46143 19.8585 4.5027 19.7197C4.54398 19.5809 4.5565 19.4352 4.5395 19.2913C4.52396 19.1545 4.48002 19.0224 4.41049 18.9035C4.37749 18.8464 4.29648 18.7698 4.28748 18.7036C4.27848 18.6375 4.36999 18.5533 4.42849 18.4917C4.68541 18.2544 4.9688 18.0476 5.27304 17.8755C5.56256 17.7071 5.87307 17.5914 6.17309 17.4351C6.47311 17.2788 6.72512 17.0247 7.04764 16.894C7.35512 16.7842 7.67514 16.7135 8.00019 16.6835C8.78323 16.5768 9.57078 16.5047 10.3598 16.4581C11.2459 16.407 12.1339 16.392 13.024 16.413L12.865 16.0267C12.4498 16.3908 12.1677 16.8832 12.0631 17.426C11.9585 17.9688 12.0374 18.531 12.2874 19.0238C12.4224 19.2808 12.811 19.0523 12.6759 18.7953C12.4756 18.3889 12.4168 17.927 12.509 17.4833C12.6012 17.0395 12.839 16.6394 13.1845 16.3469C13.3345 16.2146 13.2055 15.9651 13.024 15.9621C11.3944 15.9239 9.76428 16.0078 8.1472 16.2131C7.79231 16.246 7.44096 16.3099 7.09714 16.404C6.7686 16.52 6.46069 16.688 6.18509 16.9015C5.88939 17.0778 5.58218 17.234 5.26554 17.3689C4.9414 17.5385 4.63487 17.7399 4.35049 17.9702C4.08647 18.1821 3.71895 18.4722 3.84946 18.8585C3.90496 19.0223 4.04447 19.135 4.08047 19.3094C4.09763 19.3925 4.097 19.4784 4.07865 19.5613C4.06029 19.6442 4.02461 19.7223 3.97397 19.7903C3.94687 19.8186 3.92746 19.8533 3.91763 19.8912C3.90779 19.9291 3.90784 19.9689 3.91778 20.0068C3.92772 20.0447 3.94722 20.0794 3.9744 20.1075C4.00157 20.1357 4.03552 20.1564 4.07297 20.1676C6.22559 20.7117 8.60322 20.4336 10.6838 19.7167C11.3038 19.5044 11.9058 19.2425 12.4839 18.9336C12.739 18.7953 12.5109 18.406 12.2559 18.5443L12.2604 18.5338Z" fill="#FB9400"/>
<path d="M15.0636 23.3073C14.2865 23.3073 13.397 23.2306 12.842 22.5933C12.71 22.443 12.6049 22.2702 12.4624 22.1334C12.0124 21.7035 11.3344 21.7546 10.8123 21.427C10.7553 21.3924 10.6938 21.3383 10.6953 21.2766C10.6983 21.2537 10.7061 21.2316 10.7182 21.2119C10.7304 21.1922 10.7466 21.1753 10.7658 21.1624C11.2334 20.764 11.8069 20.5112 12.4159 20.4349C12.5264 20.4104 12.641 20.4125 12.7505 20.441C12.9515 20.5101 13.0865 20.7115 13.2515 20.8588C13.457 21.0437 13.9475 20.9174 14.1905 21.0347C14.5224 21.2198 14.843 21.4246 15.1506 21.6479C15.3412 21.7782 15.5018 21.9478 15.6216 22.1454C15.8166 22.5122 15.3561 23.0097 15.1146 23.2952" fill="#FB9400"/>
<path d="M15.0638 23.0818C14.3783 23.0818 13.5923 23.0337 13.0792 22.5182C12.8002 22.2386 12.6292 21.9064 12.2632 21.7216C11.9497 21.5637 11.6047 21.5051 11.2761 21.3939C11.1902 21.3651 11.1064 21.3299 11.0256 21.2887C11.0136 21.2887 10.9326 21.2316 10.9296 21.2331V21.3172L11.0001 21.2601C11.1588 21.1342 11.3303 21.0254 11.5117 20.9355C11.6846 20.8486 11.866 20.7801 12.0532 20.731C12.2362 20.6814 12.5032 20.5913 12.6907 20.6634C12.8407 20.722 12.9397 20.8829 13.0507 20.9866C13.1737 21.1035 13.332 21.176 13.5008 21.1925C13.6598 21.212 13.8218 21.1925 13.9808 21.221C14.1636 21.2688 14.334 21.3554 14.4803 21.4751C14.6783 21.6073 14.8838 21.7381 15.0803 21.8794C15.2386 21.9808 15.3641 22.1259 15.4419 22.2972C15.5154 22.5888 15.1284 22.948 14.9603 23.1464C14.7923 23.3448 15.0894 23.686 15.2784 23.4651C15.5244 23.175 15.8274 22.8639 15.8874 22.4671C15.9474 22.0703 15.6189 21.7155 15.3069 21.4901C15.0954 21.3398 14.8778 21.1895 14.6588 21.0497C14.474 20.9114 14.26 20.8173 14.0333 20.7746C13.8553 20.7728 13.6776 20.7618 13.5008 20.7416C13.3193 20.701 13.2007 20.477 13.0507 20.3658C12.6562 20.0652 12.0712 20.2381 11.6482 20.3974C11.4395 20.4744 11.2386 20.571 11.0481 20.686C10.8801 20.7897 10.6146 20.94 10.5186 21.1218C10.2711 21.5893 11.0691 21.8147 11.3676 21.9004C11.7952 22.0222 12.1762 22.1153 12.4627 22.4776C12.608 22.6825 12.7801 22.867 12.9742 23.0262C13.1653 23.1678 13.3774 23.2784 13.6028 23.3539C14.0763 23.4983 14.5708 23.5613 15.0653 23.5402C15.125 23.5402 15.1823 23.5165 15.2245 23.4742C15.2667 23.4319 15.2904 23.3746 15.2904 23.3148C15.2904 23.255 15.2667 23.1976 15.2245 23.1554C15.1823 23.1131 15.125 23.0893 15.0653 23.0893L15.0638 23.0818Z" fill="#FB9400"/>
<path d="M9.29199 25.6233C9.4855 25.0807 10.033 24.7215 10.5986 24.6208C11.1641 24.5201 11.7476 24.6388 12.2967 24.8102C12.5149 24.8965 12.7476 24.9404 12.9822 24.9394C13.1814 24.9101 13.3733 24.8433 13.5477 24.7425C14.2053 24.4064 14.834 24.0162 15.4273 23.5762" fill="#FB9400"/>
<path d="M9.50882 25.684C9.67533 25.2437 10.1089 24.9656 10.5589 24.8604C11.1589 24.7191 11.7709 24.8829 12.344 25.0588C12.6206 25.1639 12.9213 25.1879 13.211 25.1279C13.4887 25.037 13.7545 24.9134 14.0031 24.7597C14.5392 24.4657 15.0549 24.1358 15.5467 23.7722C15.7762 23.6023 15.5467 23.21 15.3186 23.3829C14.7992 23.7667 14.2533 24.1133 13.6851 24.42C13.4015 24.5703 13.1045 24.7597 12.77 24.7056C12.461 24.6545 12.17 24.5252 11.8595 24.4576C11.2894 24.3313 10.6789 24.3073 10.1284 24.5267C9.89066 24.6163 9.67437 24.755 9.4935 24.9336C9.31262 25.1123 9.17117 25.3269 9.0783 25.5638C8.9748 25.8359 9.40982 25.9531 9.51183 25.684H9.50882Z" fill="#FB9400"/>
<path d="M14.875 29.7285C15.0819 28.9262 15.4722 28.1832 16.0151 27.5581C16.3271 27.1973 16.7156 26.8065 16.6571 26.3406C16.6181 26.04 16.4006 25.8115 16.2296 25.5695C16.0586 25.3275 15.9296 25.0029 16.0676 24.7354" fill="#FB9400"/>
<path d="M15.0923 29.7888C15.214 29.3165 15.4024 28.864 15.6519 28.4451C15.9024 28.0212 16.2369 27.6785 16.5339 27.2907C16.8009 26.9435 16.9839 26.5197 16.8189 26.0883C16.7246 25.8802 16.603 25.6856 16.4574 25.5096C16.3314 25.3353 16.1574 25.0782 16.2624 24.8543C16.3824 24.5928 15.9939 24.3643 15.8724 24.6273C15.6444 25.1218 15.9294 25.5367 16.2129 25.9305C16.3419 26.1093 16.4679 26.3032 16.4304 26.5317C16.3741 26.751 16.2619 26.952 16.1049 27.1149C15.7806 27.4763 15.488 27.865 15.2303 28.2767C14.9782 28.7144 14.786 29.184 14.6588 29.6731C14.6449 29.73 14.6536 29.7902 14.6832 29.8407C14.7128 29.8913 14.7609 29.9284 14.8173 29.944C14.8737 29.9597 14.934 29.9527 14.9853 29.9245C15.0367 29.8964 15.0751 29.8493 15.0923 29.7933V29.7888Z" fill="#FB9400"/>
<path d="M20.3471 28.0362C20.5331 27.6259 20.2541 27.1825 20.0786 26.7767C19.9971 26.5353 19.8878 26.3043 19.7531 26.0883C19.465 25.7065 18.958 25.5757 18.505 25.4089C18.052 25.2421 17.5704 24.958 17.5029 24.4785" fill="#FB9400"/>
<path d="M20.5644 28.0966C20.7444 27.6457 20.5209 27.1948 20.3334 26.798C20.1458 26.4012 20.0333 25.9608 19.6448 25.6737C19.3103 25.4242 18.8948 25.3235 18.5168 25.1747C18.1657 25.0379 17.7892 24.8185 17.7187 24.4232C17.6692 24.1376 17.2357 24.2578 17.2852 24.5419C17.4352 25.3986 18.3937 25.5625 19.0523 25.8555C19.2304 25.9274 19.3918 26.0353 19.5263 26.1727C19.6551 26.3409 19.7532 26.5308 19.8158 26.7333C19.9658 27.1136 20.2989 27.56 20.1293 27.9808C20.0213 28.2499 20.4564 28.3671 20.5644 28.1011V28.0966Z" fill="#FB9400"/>
<path d="M23.5517 23.6395C23.3447 23.7808 23.2367 24.0483 23.0101 24.1535C22.8873 24.2003 22.7555 24.2183 22.6246 24.2061C21.7833 24.1716 20.9752 23.8676 20.319 23.3389C20.0025 23.0818 19.719 22.7692 19.3424 22.6099C18.9659 22.4506 18.4544 22.5032 18.2549 22.8594" fill="#FB9400"/>
<path d="M23.4315 23.4475C23.33 23.5241 23.2379 23.6124 23.157 23.7105C23.0879 23.8159 22.9935 23.9023 22.8825 23.9615C22.6499 24.0472 22.2929 23.9615 22.0574 23.9149C21.514 23.8041 21.0017 23.5741 20.5573 23.2416C20.1418 22.9289 19.7863 22.49 19.2643 22.3397C18.8142 22.221 18.3132 22.3397 18.0642 22.7411C17.9142 22.9891 18.3012 23.216 18.4542 22.9695C18.7122 22.5502 19.3003 22.7922 19.5988 23.0146C20.0263 23.3333 20.3848 23.7075 20.8649 23.957C21.3366 24.2012 21.8501 24.3542 22.3784 24.4079C22.6424 24.435 22.9365 24.4575 23.175 24.3177C23.382 24.1945 23.475 23.969 23.67 23.8293C23.8995 23.6579 23.67 23.2656 23.442 23.44L23.4315 23.4475Z" fill="#FB9400"/>
<path d="M20.2254 18.5127C18.8753 19.2808 17.4098 19.9346 16.4287 21.1325L20.2254 18.5127Z" fill="#FB9400"/>
<path d="M20.1131 18.3187C18.763 19.0867 17.2839 19.7496 16.2699 20.9731C16.0869 21.1955 16.4034 21.5157 16.5894 21.2917C17.578 20.0983 19.021 19.458 20.3396 18.708C20.3889 18.6768 20.4241 18.6276 20.4379 18.5709C20.4517 18.5142 20.4431 18.4543 20.4137 18.4039C20.3844 18.3535 20.3366 18.3164 20.2806 18.3005C20.2245 18.2846 20.1645 18.2911 20.1131 18.3187Z" fill="#FB9400"/>
<path d="M16.4917 16.1338C15.7717 16.8833 15.0856 17.6659 14.4336 18.4815C14.1741 18.8062 13.9056 19.1759 13.9281 19.5938" fill="#FB9400"/>
<path d="M16.3325 15.9743C15.7855 16.5474 15.2575 17.1346 14.7484 17.7358C14.3134 18.2574 13.6879 18.8556 13.6984 19.5876C13.6984 19.8762 14.1484 19.8777 14.1484 19.5876C14.1484 19.2674 14.3134 18.9954 14.4994 18.7474C14.7184 18.4588 14.9494 18.1822 15.188 17.9057C15.663 17.3556 16.1505 16.818 16.6505 16.2929C16.8516 16.0825 16.5335 15.7638 16.3325 15.9743Z" fill="#FB9400"/>
<path d="M60.2639 39.2607C60.0314 39.2863 59.7869 39.2818 59.5589 39.3179C59.4524 39.3257 59.3486 39.3545 59.2533 39.4028C59.1581 39.451 59.0733 39.5177 59.0038 39.5989C58.947 39.6969 58.9252 39.8114 58.9421 39.9235C58.959 40.0355 59.0136 40.1384 59.0969 40.2152C59.1673 40.2833 59.2459 40.3424 59.3309 40.391C59.484 40.4924 59.652 40.569 59.8289 40.618C59.978 40.6631 60.1381 40.6553 60.2821 40.5959C60.4262 40.5365 60.5453 40.4291 60.6195 40.2918C60.7365 40.0348 60.675 39.6906 60.5115 39.39" fill="#FB9400"/>
<path d="M51.903 55.7627C51.672 55.7882 51.4275 55.7852 51.1995 55.8213C51.0929 55.8284 50.9888 55.8569 50.8934 55.9052C50.7981 55.9535 50.7134 56.0206 50.6445 56.1024C50.5876 56.2004 50.5658 56.3148 50.5827 56.4269C50.5996 56.539 50.6542 56.6419 50.7375 56.7186C50.8083 56.7863 50.8868 56.8453 50.9715 56.8945C51.1245 56.9957 51.2926 57.0718 51.4695 57.1199C51.6186 57.1651 51.7787 57.1572 51.9227 57.0978C52.0667 57.0384 52.1859 56.931 52.2601 56.7938C52.3771 56.5383 52.3156 56.2001 52.1521 55.892" fill="#FB9400"/>
<path d="M56.4034 23.16C56.3644 22.891 56.3614 22.6174 56.3089 22.3499C56.2704 22.079 56.1426 21.8287 55.9458 21.639C55.8458 21.5475 55.7197 21.4896 55.5852 21.4734C55.4508 21.4572 55.3146 21.4836 55.1958 21.5488C55.1153 21.6054 55.0452 21.6756 54.9888 21.7562C54.8682 21.8986 54.7792 22.0652 54.7278 22.2447C54.6932 22.4336 54.7154 22.6286 54.7915 22.8049C54.8676 22.9813 54.9942 23.131 55.1553 23.2352C55.3191 23.335 55.5012 23.4007 55.6909 23.4286C55.8805 23.4565 56.0739 23.4459 56.2594 23.3975" fill="#FB9400"/>
<path d="M24.3227 31.0436C24.2837 30.7761 24.2807 30.5025 24.2282 30.235C24.1898 29.964 24.062 29.7138 23.8652 29.524C23.7651 29.4327 23.6392 29.3748 23.5048 29.3583C23.3704 29.3419 23.2343 29.3678 23.1152 29.4323C23.035 29.4899 22.965 29.5605 22.9082 29.6413C22.7876 29.7831 22.6986 29.9492 22.6472 30.1282C22.6134 30.316 22.6357 30.5095 22.7112 30.6847C22.7867 30.8598 22.9121 31.0087 23.0717 31.1127C23.2352 31.2131 23.4173 31.2793 23.607 31.3075C23.7968 31.3356 23.9902 31.3251 24.1757 31.2766" fill="#FB9400"/>
<path d="M50.076 45.2688C50.0565 45.5394 50.001 45.8069 49.9935 46.079C49.9737 46.3518 50.045 46.6236 50.196 46.8515C50.2738 46.9633 50.3849 47.0478 50.5133 47.0928C50.6417 47.1379 50.781 47.1413 50.9115 47.1025C51.0021 47.0638 51.0857 47.0105 51.159 46.9447C51.3068 46.8319 51.429 46.689 51.5175 46.5254C51.5926 46.3484 51.6132 46.1531 51.5769 45.9644C51.5406 45.7756 51.4489 45.602 51.3135 45.4657C51.1754 45.3325 51.0119 45.2286 50.8327 45.1602C50.6536 45.0918 50.4625 45.0602 50.271 45.0674" fill="#FB9400"/>
<path d="M13.1344 6.26038C13.1149 6.53092 13.0594 6.79997 13.0534 7.07052C13.0325 7.34377 13.1033 7.61617 13.2544 7.84458C13.3324 7.95622 13.4434 8.0405 13.5718 8.08554C13.7002 8.13057 13.8395 8.13409 13.9699 8.09559C14.0602 8.05956 14.1438 8.00877 14.2174 7.94529C14.3662 7.82932 14.4885 7.68274 14.576 7.51542C14.6494 7.33944 14.6692 7.14564 14.6329 6.95842C14.5966 6.7712 14.5058 6.59892 14.372 6.46329C14.234 6.33043 14.0706 6.22681 13.8918 6.15863C13.7129 6.09045 13.5221 6.05911 13.3309 6.06648" fill="#FB9400"/>
<path d="M61.5091 15.2541C61.8604 15.2541 62.1451 14.9688 62.1451 14.6168C62.1451 14.2648 61.8604 13.9795 61.5091 13.9795C61.1578 13.9795 60.873 14.2648 60.873 14.6168C60.873 14.9688 61.1578 15.2541 61.5091 15.2541Z" fill="#FB9400"/>
<path d="M60.513 47.9113C60.8643 47.9113 61.149 47.626 61.149 47.274C61.149 46.922 60.8643 46.6367 60.513 46.6367C60.1617 46.6367 59.877 46.922 59.877 47.274C59.877 47.626 60.1617 47.9113 60.513 47.9113Z" fill="#FB9400"/>
<path d="M0.636035 33.6125C0.987308 33.6125 1.27207 33.3271 1.27207 32.9752C1.27207 32.6232 0.987308 32.3379 0.636035 32.3379C0.284763 32.3379 0 32.6232 0 32.9752C0 33.3271 0.284763 33.6125 0.636035 33.6125Z" fill="#FB9400"/>
<path d="M79.1305 36.1454C79.9134 36.1454 80.548 35.5095 80.548 34.7251C80.548 33.9406 79.9134 33.3047 79.1305 33.3047C78.3476 33.3047 77.7129 33.9406 77.7129 34.7251C77.7129 35.5095 78.3476 36.1454 79.1305 36.1454Z" fill="#FB9400"/>
<path d="M17.7945 57.4443C18.5774 57.4443 19.2121 56.8083 19.2121 56.0239C19.2121 55.2394 18.5774 54.6035 17.7945 54.6035C17.0116 54.6035 16.377 55.2394 16.377 56.0239C16.377 56.8083 17.0116 57.4443 17.7945 57.4443Z" fill="#FB9400"/>
<path d="M81.219 23.7121C81.5703 23.7121 81.8551 23.4268 81.8551 23.0748C81.8551 22.7228 81.5703 22.4375 81.219 22.4375C80.8678 22.4375 80.583 22.7228 80.583 23.0748C80.583 23.4268 80.8678 23.7121 81.219 23.7121Z" fill="#FB9400"/>
<path d="M35.8714 24.7101C36.2227 24.7101 36.5074 24.4248 36.5074 24.0728C36.5074 23.7209 36.2227 23.4355 35.8714 23.4355C35.5201 23.4355 35.2354 23.7209 35.2354 24.0728C35.2354 24.4248 35.5201 24.7101 35.8714 24.7101Z" fill="#FB9400"/>
<path d="M5.00149 61.0063C5.00149 61.0063 4.47512 81.5053 23.1861 89.9849V98H63.4925V90.6879C63.4925 90.6879 83.2562 79.6161 81.9368 61L5.00149 61.0063Z" fill="#FB9400" stroke="#FB9400" stroke-width="2" stroke-miterlimit="10" stroke-linecap="round"/>
</g>
<path d="M10.0021 64C10.0021 64 9.33115 85.6398 32 87.9705C32 87.9705 18.7333 89.8302 14.8687 64H10.0021Z" fill="white"/>
<defs>
<clipPath id="clip0">
<rect width="82.5481" height="101" fill="white"/>
</clipPath>
</defs>
</svg>
