<svg width="113" height="125" viewBox="0 0 113 125" fill="none" xmlns="http://www.w3.org/2000/svg">
<g clip-path="url(#clip0)">
<path d="M86.551 68.2204C88.9299 67.7899 93.1935 67.5104 93.6601 70.9106C93.6601 70.9106 95.5058 75.0742 88.1257 76.7978C80.7455 78.5215 73.5663 73.3203 73.1113 72.7828C72.6563 72.2453 70.5998 71.0736 70.3731 68.4933C70.3731 68.4933 75.6902 74.0473 84.0445 69.163C84.8188 68.7045 85.6671 68.3855 86.551 68.2204Z" fill="#FB9400"/>
<path d="M96.8762 67.7278C96.6508 68.9347 95.7904 69.8307 94.6567 70.2341C93.8359 70.5276 94.4121 71.7562 95.2182 71.4636C96.8282 70.889 97.9113 69.5049 98.2219 67.8439C98.3792 66.9884 97.0348 66.8776 96.8762 67.7278Z" fill="#FB9400"/>
<path d="M53.8092 22.1678C53.4067 20.5099 53.0288 17.5177 55.3922 17.0383C55.3922 17.0383 58.2376 15.5529 59.7625 20.6763C61.2874 25.7998 57.9368 31.0879 57.579 31.4313C57.2212 31.7747 56.487 33.2707 54.682 33.5517C54.682 33.5517 58.3582 29.5594 54.5713 23.8918C54.2189 23.3661 53.961 22.7827 53.8092 22.1678Z" fill="#FB9400"/>
<path d="M52.9782 15.113C53.3544 15.158 53.7113 15.3037 54.0116 15.5347C54.3119 15.7657 54.5444 16.0735 54.6847 16.4258C55.0272 17.2278 56.2533 16.6614 55.9137 15.8605C55.6706 15.2931 55.2819 14.8004 54.787 14.4324C54.2921 14.0644 53.7087 13.8341 53.0959 13.7651C52.2331 13.6582 52.116 15.0047 52.9782 15.113Z" fill="#FB9400"/>
<path d="M48.2775 44.1637L63.7101 67.4898C63.7101 67.4898 56.0524 72.6743 47.4478 66.2133C38.8433 59.7524 42.8479 46.5597 48.2775 44.1637Z" fill="#FB9400" stroke="#FB9400" stroke-miterlimit="10"/>
<path d="M48.166 61.7247C49.9491 60.3174 51.8185 59.0234 53.7633 57.8504C54.4196 57.4526 53.9261 56.3589 53.2631 56.7574C51.23 57.9804 49.275 59.3294 47.4096 60.7964C46.7998 61.2756 47.5624 62.2046 48.1723 61.7206L48.166 61.7247Z" fill="white"/>
<path d="M45.0699 53.872C46.3626 53.8714 47.6542 53.9417 48.939 54.0826C49.7081 54.1659 49.8145 52.9646 49.043 52.8835C47.7581 52.7436 46.4666 52.6734 45.1739 52.673C44.4077 52.6725 44.2942 53.8712 45.0699 53.872Z" fill="white"/>
<path d="M54.7279 66.0412C55.3702 64.7411 55.8218 63.3552 56.0688 61.9264C56.202 61.1662 55.0057 61.0655 54.8717 61.8237C54.6339 63.1448 54.2064 64.4248 53.6027 65.6238C53.2582 66.3152 54.3868 66.7275 54.7279 66.0412Z" fill="white"/>
<path d="M91.1569 29.3838L63.3791 32.598C63.3791 32.598 62.2581 23.4145 71.9164 18.6597C81.5747 13.9048 91.4958 23.4545 91.1569 29.3838Z" fill="#FB9400" stroke="#FB9400" stroke-miterlimit="10"/>
<path d="M75.5794 21.3074C76.0288 23.5859 76.3351 25.8905 76.4964 28.2077C76.5498 28.9778 77.7297 28.7646 77.6759 28.004C77.5153 25.6852 77.2102 23.379 76.7625 21.0987C76.6131 20.3411 75.4297 20.5465 75.5815 21.3018L75.5794 21.3074Z" fill="white"/>
<path d="M83.926 22.2354C83.3607 23.3405 82.7355 24.4139 82.0532 25.4507C81.6315 26.0958 82.6034 26.8011 83.0281 26.1523C83.7658 25.0236 84.4411 23.8554 85.0512 22.6528C85.4027 21.964 84.2754 21.5523 83.926 22.2354Z" fill="white"/>
<path d="M68.7353 25.2084C69.5958 26.3708 70.6197 27.4023 71.7751 28.2711C72.393 28.736 73.0933 27.7582 72.4768 27.2938C71.4061 26.4864 70.4588 25.5269 69.6648 24.4455C69.2032 23.8222 68.2775 24.5881 68.7409 25.2105L68.7353 25.2084Z" fill="white"/>
<path d="M82.7718 54.5671C83.5126 55.5072 85.3939 57.5694 88.0267 58.1582C88.1443 58.1831 88.267 58.1622 88.3699 58.0996C88.4727 58.0371 88.548 57.9377 88.5803 57.8217C88.7684 57.1508 89.1941 55.805 89.8135 54.834C89.8987 54.6989 90.0109 54.5828 90.1429 54.4929C90.2748 54.4031 90.4239 54.3414 90.5806 54.3117C90.7374 54.282 90.8986 54.285 91.0541 54.3204C91.2096 54.3559 91.356 54.423 91.4844 54.5177C92.2362 55.0788 93.5667 55.6285 95.4508 54.6986C98.5025 53.192 100.204 47.212 93.6282 43.3007C87.0521 39.3894 83.312 43.0534 83.312 43.0534C83.312 43.0534 78.9326 46.3663 84.4577 50.7775C84.5371 50.8395 84.5951 50.9249 84.6235 51.0217C84.6519 51.1185 84.6492 51.2218 84.6159 51.3171C84.3953 51.9375 83.8319 53.2707 82.8854 53.8814C82.8294 53.9161 82.7816 53.9623 82.745 54.017C82.7083 54.0717 82.6838 54.1336 82.6731 54.1986C82.6623 54.2636 82.6656 54.33 82.6826 54.3936C82.6996 54.4572 82.73 54.5163 82.7718 54.5671Z" fill="#FB9400" stroke="#FB9400" stroke-miterlimit="10"/>
<path d="M92.9349 53.2472C93.767 51.8851 92.5138 49.6011 90.1358 48.1458C87.7577 46.6905 85.1553 46.615 84.3232 47.9771C83.491 49.3392 84.7442 51.6231 87.1223 53.0784C89.5003 54.5337 92.1027 54.6093 92.9349 53.2472Z" fill="#FB9400" stroke="#FB9400" stroke-miterlimit="10"/>
<path d="M92.2936 49.9555C92.2936 49.9555 92.2809 49.8947 92.2782 49.876C92.2618 49.8299 92.2414 49.7854 92.2173 49.7428C92.1524 49.6446 92.0798 49.5518 92.0003 49.4651C91.7655 49.2158 91.5055 48.9915 91.2246 48.7958C91.1741 48.7594 91.1201 48.7282 91.069 48.6932C90.651 48.4917 90.29 48.2054 89.8835 47.9857C89.71 47.8991 89.5452 47.7961 89.3913 47.678C89.3742 47.6637 89.3615 47.6462 89.3444 47.6318C88.7754 47.3197 88.1989 47.0193 87.6306 46.701C87.3589 47.0235 87.091 47.3489 86.8199 47.6828C86.5745 48.0598 86.316 48.4289 86.0603 48.7861C85.8045 49.1433 85.5671 49.464 85.3446 49.8223C85.1487 50.1392 84.9615 50.4625 84.7613 50.7778C84.8003 50.8868 84.8013 51.0058 84.7641 51.1155C84.5296 51.782 83.9349 53.2126 82.9702 53.8807C82.9101 53.9196 82.8585 53.9704 82.8188 54.03C82.7791 54.0897 82.7521 54.1568 82.7395 54.2273C82.7268 54.2979 82.7288 54.3702 82.7453 54.4399C82.7618 54.5096 82.7925 54.5751 82.8354 54.6323C83.2985 55.2542 83.8207 55.8297 84.3947 56.3506C84.5105 56.4377 84.6185 56.5346 84.7176 56.6403C84.7444 56.6631 84.775 56.6841 84.8023 56.7054C85.0057 56.8514 85.2177 56.983 85.4288 57.1126C85.7572 57.3277 86.1033 57.5145 86.4632 57.6711C86.8289 57.8196 87.2084 57.9267 87.5805 58.0535C87.8082 58.13 88.0615 58.232 88.3048 58.3222C88.3787 58.2931 88.445 58.2473 88.4984 58.1885C88.5519 58.1297 88.5911 58.0593 88.6131 57.9829C88.8183 57.2574 89.2721 55.8227 89.9185 54.7703C90.0327 54.5847 90.1955 54.4338 90.3891 54.3341C90.4024 54.2439 90.4345 54.1575 90.4832 54.0805C90.9737 53.2589 91.4375 52.4226 91.8688 51.5662C91.9666 51.3716 92.0588 51.1749 92.1528 50.9774C92.25 50.6455 92.2975 50.3012 92.2936 49.9555Z" fill="#FB9400" stroke="#FB9400" stroke-miterlimit="10"/>
<path d="M84.7551 56.6589C84.9737 56.8201 85.2068 56.9595 85.436 57.1007C85.6653 57.2418 85.8688 57.3574 86.0884 57.4725C86.1358 57.4603 86.1802 57.4385 86.2188 57.4084C86.2575 57.3784 86.2896 57.3408 86.3133 57.2978L91.0091 48.6596C90.619 48.4604 90.271 48.195 89.8846 47.9859C89.7111 47.8994 89.5462 47.7963 89.3924 47.6783C89.3388 47.6327 89.2918 47.5784 89.2393 47.5301L84.4841 56.281C84.47 56.319 84.4773 56.3554 84.4713 56.3933C84.5725 56.4744 84.6674 56.5632 84.7551 56.6589Z" fill="#FB9400" stroke="#FB9400" stroke-miterlimit="10"/>
<path d="M36.2938 53.0992C37.2852 52.4282 39.4808 50.7018 40.2664 48.114C40.3 47.9984 40.2883 47.8745 40.2339 47.7673C40.1794 47.6602 40.0862 47.5778 39.9733 47.5371C39.3207 47.295 38.0152 46.777 37.0941 46.0858C36.9658 45.991 36.8584 45.8708 36.7787 45.7325C36.699 45.5942 36.6486 45.4409 36.6308 45.2821C36.613 45.1234 36.628 44.9627 36.675 44.8099C36.722 44.6572 36.7999 44.5158 36.9039 44.3945C37.5176 43.6891 38.1684 42.3964 37.3861 40.4469C36.1166 37.2875 30.2918 35.1506 25.8975 41.4319C21.5033 47.7132 24.8694 51.7162 24.8694 51.7162C24.8694 51.7162 27.8348 56.3336 32.6473 51.1373C32.715 51.0634 32.8039 51.0124 32.9018 50.9912C32.9996 50.9701 33.1015 50.9799 33.1935 51.0193C33.794 51.2853 35.0784 51.9462 35.6083 52.9331C35.6383 52.9932 35.6811 53.046 35.7336 53.0879C35.7861 53.1297 35.8471 53.1596 35.9124 53.1754C35.9776 53.1912 36.0455 53.1926 36.1114 53.1795C36.1773 53.1663 36.2395 53.1389 36.2938 53.0992Z" fill="#FB9400" stroke="#FB9400" stroke-miterlimit="10"/>
<path d="M35.1362 48.644C36.7654 46.3755 37.0377 43.7819 35.7444 42.8512C34.4512 41.9204 32.0821 43.0049 30.4529 45.2734C28.8237 47.5419 28.5513 50.1354 29.8446 51.0662C31.1378 51.9969 33.507 50.9125 35.1362 48.644Z" fill="#FB9400" stroke="#FB9400" stroke-miterlimit="10"/>
<path d="M32.4237 43.2527C32.4237 43.2527 32.3598 43.261 32.3437 43.2615C32.2962 43.2752 32.2501 43.2929 32.2056 43.3144C32.103 43.3706 32.0053 43.4351 31.9132 43.5074C31.6471 43.7231 31.4041 43.9661 31.1883 44.2324C31.1477 44.2814 31.1127 44.3326 31.074 44.3808C30.8455 44.7769 30.5304 45.1217 30.2797 45.5129C30.1799 45.6795 30.0649 45.8365 29.9361 45.9818C29.9209 45.997 29.9019 46.0092 29.8867 46.0244C29.5319 46.5709 29.1888 47.1249 28.8304 47.6685C29.1303 47.9641 29.4351 48.2551 29.738 48.5471C30.0962 48.8194 30.443 49.1052 30.7804 49.3859C31.1179 49.6666 31.4189 49.9289 31.7575 50.1764C32.0581 50.3969 32.3676 50.6063 32.6628 50.8329C32.7746 50.8027 32.8933 50.8106 33 50.8554C33.645 51.1395 35.0344 51.8409 35.62 52.8501C35.6542 52.9119 35.7006 52.9661 35.7564 53.0093C35.8122 53.0525 35.8763 53.0839 35.9446 53.1014C36.013 53.119 36.0842 53.1224 36.154 53.1115C36.2238 53.1005 36.2906 53.0754 36.3504 53.0377C37.0041 52.6202 37.6165 52.1409 38.179 51.6064C38.2751 51.4972 38.38 51.3962 38.4926 51.3043C38.5163 51.2794 38.5395 51.2512 38.5637 51.2249C38.7231 51.0323 38.8706 50.8289 39.0156 50.6278C39.2553 50.3157 39.4683 49.9839 39.6523 49.636C39.8267 49.2823 39.9628 48.9112 40.1167 48.5482C40.2096 48.3278 40.3343 48.0823 40.4369 47.8446C40.4131 47.7688 40.3724 47.6994 40.3179 47.6416C40.2634 47.5839 40.1964 47.5394 40.1221 47.5114C39.4189 47.2505 38.0245 46.6964 37.0144 45.9689C36.8382 45.8415 36.7005 45.6679 36.6166 45.4671C36.5273 45.4484 36.443 45.4111 36.3692 45.3576C35.6017 44.8084 34.7994 44.2799 33.9802 43.7884C33.7926 43.6772 33.6035 43.5701 33.415 43.4617C33.0964 43.3446 32.7625 43.2742 32.4237 43.2527Z" fill="#FB9400" stroke="#FB9400" stroke-miterlimit="10"/>
<path d="M38.5268 51.2732C38.7024 51.0674 38.8605 50.8439 39.017 50.6246C39.1736 50.4053 39.306 50.2124 39.4385 50.0018C39.43 49.9532 39.4117 49.9068 39.3846 49.8656C39.3575 49.8244 39.3222 49.7892 39.281 49.7622L31.0355 44.4381C30.8081 44.8138 30.5187 45.1409 30.2801 45.5125C30.1803 45.6791 30.0653 45.8361 29.9365 45.9814C29.8873 46.0321 29.8298 46.0749 29.7769 46.1226L38.1303 51.514C38.1637 51.536 38.203 51.525 38.2406 51.5357C38.3293 51.4411 38.425 51.3533 38.5268 51.2732Z" fill="#FB9400" stroke="#FB9400" stroke-miterlimit="10"/>
<path d="M66.9257 48.5412C67.3369 48.0669 68.1627 48.657 68.7301 48.3914C68.9241 48.279 69.0854 48.1178 69.198 47.9237C69.5824 47.3834 69.9725 46.8323 70.1828 46.205C70.6514 44.8125 70.0481 43.0962 68.7415 42.4303C68.2236 42.166 67.6206 42.0578 67.1722 41.6878C67.012 41.5547 66.8784 41.3929 66.7237 41.2537C66.5052 41.0456 66.2376 40.8964 65.9458 40.8201C65.654 40.7438 65.3476 40.7429 65.0551 40.8175C64.8116 40.8874 64.5879 41.0289 64.3484 41.118C64.021 41.2237 63.6811 41.2857 63.3376 41.3025L61.4044 41.4847C61.2781 41.4889 61.1535 41.5154 61.0362 41.5629C60.7721 41.6926 60.658 42.0174 60.4137 42.18C60.2591 42.2627 60.0955 42.3274 59.9262 42.3727C59.5347 42.5224 59.236 42.8445 58.9788 43.1755C58.3665 43.9613 57.9029 44.8527 57.6111 45.8054C57.3606 46.6231 57.2392 47.4806 56.9305 48.2783C56.6973 48.8811 56.3517 49.5064 56.497 50.1326C56.6215 50.6597 57.0585 51.0559 57.2698 51.5559C57.354 51.7603 57.4066 51.985 57.5176 52.1817C57.7162 52.5391 58.0881 52.7573 58.442 52.9591C59.6807 53.6655 60.9953 54.3873 62.4192 54.3961C62.5775 54.3885 62.7361 54.3937 62.8935 54.4117C63.0482 54.446 63.2002 54.4922 63.3478 54.5498C64.4983 54.9334 65.7781 54.7829 66.906 54.3389C68.034 53.8948 69.0352 53.1713 69.9734 52.402C71.6954 50.9904 73.2584 49.3996 74.8175 47.8105C74.9441 47.6947 75.0492 47.5573 75.128 47.4047C75.1902 47.2116 75.2334 47.0128 75.257 46.8113C75.4116 46.1488 76.0487 45.6734 76.1741 45.0033C75.946 44.8767 75.7614 44.6842 75.6442 44.4509C75.527 44.2175 75.4827 43.9542 75.5171 43.6951C74.0743 44.0304 72.8391 44.9749 71.8418 46.0718C70.8445 47.1686 70.0457 48.429 69.1508 49.612C69.098 49.6976 69.0214 49.7661 68.9305 49.8092C68.8175 49.8355 68.6992 49.8253 68.5925 49.78C67.496 49.4563 66.3306 49.4459 65.2277 49.75C65.0769 49.8006 64.9205 49.8325 64.762 49.845C64.5963 49.8394 64.432 49.8129 64.2729 49.7662C63.7459 49.6442 63.202 49.6126 62.6643 49.6728C62.5928 49.6882 62.5183 49.6813 62.4509 49.6529C62.389 49.6064 62.3448 49.5403 62.3253 49.4653L61.9222 48.3955C61.8496 48.2446 61.8185 48.077 61.8319 47.9099C61.9142 47.4339 62.6372 47.3093 62.7547 46.8415C63.0947 47.0503 63.4832 47.1669 63.8821 47.1796C63.9424 47.5001 63.8794 47.8295 63.8721 48.1554C63.8647 48.4813 63.9369 48.8432 64.1816 49.0462C64.4689 49.281 64.8862 49.2386 65.2508 49.1831C65.8757 49.0943 66.5347 48.9829 67.0254 48.583" fill="#FB9400"/>
<path d="M67.1088 48.6731C67.2823 48.4858 67.6451 48.5947 67.8575 48.6303C68.1586 48.6811 68.4882 48.7328 68.7857 48.6123C69.1887 48.4492 69.4335 47.9918 69.6639 47.6556C69.9521 47.254 70.1887 46.8177 70.368 46.3569C70.8782 44.9431 70.3574 43.1596 69.0556 42.356C68.6645 42.1163 68.2295 41.995 67.8164 41.8145C67.596 41.7231 67.3933 41.5936 67.2175 41.432C67.0526 41.2578 66.8773 41.0937 66.6926 40.9407C66.3541 40.6885 65.9469 40.5453 65.525 40.53C65.0705 40.5217 64.7184 40.7245 64.3083 40.8898C63.8982 41.0551 63.383 41.0723 62.9225 41.1147C62.4025 41.1623 61.881 41.2093 61.3619 41.2588C61.1423 41.2662 60.9305 41.3424 60.7563 41.4766C60.5993 41.6107 60.5027 41.7977 60.3528 41.9345C60.2029 42.0712 60.0064 42.0962 59.8289 42.165C59.6269 42.2466 59.4407 42.3631 59.2788 42.5092C58.9475 42.8191 58.6589 43.172 58.4208 43.5583C58.1485 43.9703 57.9127 44.4053 57.7161 44.8584C57.2953 45.8244 57.158 46.8588 56.8374 47.8524C56.5794 48.6513 56.0322 49.4663 56.3169 50.3334C56.4408 50.7112 56.7033 51.017 56.8994 51.3511C57.1302 51.7253 57.1816 52.182 57.469 52.5243C57.7564 52.8665 58.1579 53.0652 58.5338 53.2768C58.9507 53.5116 59.3675 53.7464 59.8008 53.9456C60.6582 54.3734 61.6006 54.6036 62.5589 54.6193C63.026 54.6195 63.4557 54.8414 63.912 54.9225C64.3355 54.9942 64.7666 55.0108 65.1945 54.9719C66.0704 54.888 66.9214 54.6323 67.6992 54.2194C68.5195 53.7789 69.2924 53.2549 70.0056 52.6559C70.7819 52.0253 71.5264 51.3556 72.252 50.6677C72.9954 49.9576 73.7239 49.2275 74.4453 48.4948C74.6144 48.3235 74.7831 48.1536 74.9545 47.9847C75.1295 47.8287 75.2682 47.636 75.3607 47.4204C75.4391 47.209 75.4317 46.9786 75.4993 46.7664C75.5773 46.5526 75.6851 46.3508 75.8193 46.1669C76.0634 45.8022 76.3045 45.454 76.3958 45.0182C76.4008 44.9801 76.3955 44.9415 76.3804 44.9063C76.3653 44.8711 76.341 44.8406 76.3101 44.818C76.1153 44.7125 75.9571 44.5501 75.8564 44.3525C75.7558 44.1549 75.7174 43.9312 75.7463 43.7111C75.7492 43.6766 75.7442 43.642 75.7316 43.6097C75.719 43.5775 75.6992 43.5486 75.6738 43.5253C75.6483 43.5019 75.6179 43.4847 75.5847 43.4749C75.5516 43.4652 75.5166 43.4631 75.4826 43.469C73.0109 44.059 71.3786 46.1387 69.9695 48.104C69.7636 48.3915 69.5592 48.6796 69.3524 48.9652C69.2548 49.0989 69.1577 49.2312 69.0587 49.3644C68.9761 49.4749 68.9138 49.6169 68.7582 49.588C68.4602 49.5288 68.1673 49.4297 67.8642 49.3798C67.5565 49.3301 67.2454 49.3036 66.9336 49.3007C66.3152 49.297 65.6994 49.3804 65.104 49.5486C64.9706 49.5934 64.8305 49.6152 64.6898 49.6129C64.5343 49.5932 64.3804 49.5629 64.229 49.5221C63.9097 49.4544 63.5846 49.418 63.2581 49.4136C63.0811 49.4122 62.9042 49.4199 62.728 49.4366C62.6256 49.4451 62.5948 49.4722 62.5424 49.3934C62.5005 49.3098 62.467 49.2222 62.4426 49.1319L62.2268 48.5709C62.1476 48.4077 62.089 48.2352 62.0525 48.0574C62.0257 47.7974 62.2754 47.6592 62.461 47.5212C62.6908 47.3834 62.8681 47.1727 62.9647 46.9225L62.6217 47.0277C62.9965 47.2554 63.4225 47.3853 63.8607 47.4056L63.6585 47.2216C63.734 47.6824 63.5797 48.1542 63.689 48.61C63.7297 48.8247 63.8371 49.021 63.996 49.1706C64.1549 49.3203 64.3571 49.4157 64.5736 49.4431C65.0138 49.5071 65.5129 49.3909 65.9429 49.2971C66.3881 49.2148 66.8088 49.0321 67.1731 48.7627C67.4 48.5824 67.1161 48.235 66.8878 48.4148C66.5933 48.6316 66.2541 48.7796 65.8951 48.8481C65.5189 48.9497 65.1313 49.0031 64.7418 49.007C63.7835 48.9721 64.2016 47.7501 64.1017 47.1439C64.0925 47.0954 64.0679 47.0512 64.0316 47.0178C63.9953 46.9844 63.9492 46.9636 63.9001 46.9585C63.5438 46.9463 63.1964 46.845 62.8895 46.6638C62.8611 46.644 62.8287 46.631 62.7946 46.6257C62.7605 46.6203 62.7256 46.6228 62.6926 46.6329C62.6595 46.6431 62.6292 46.6606 62.6039 46.6841C62.5786 46.7077 62.559 46.7367 62.5465 46.769C62.479 46.994 62.2589 47.1128 62.083 47.2463C61.8778 47.3747 61.72 47.5667 61.6337 47.793C61.5419 48.1052 61.6868 48.4091 61.7953 48.6946L61.9846 49.1977C62.0362 49.3699 62.1039 49.5367 62.187 49.696C62.3728 49.9974 62.7172 49.8927 63.0131 49.8758C63.3636 49.8636 63.7144 49.8899 64.0591 49.9545C64.3685 50.0131 64.6608 50.1136 64.9824 50.0533C65.3039 49.9931 65.609 49.8866 65.9322 49.835C66.5813 49.7319 67.2428 49.7368 67.89 49.8495C68.0488 49.8785 68.2071 49.9132 68.365 49.9535C68.5159 50.0087 68.6736 50.0435 68.8338 50.0569C69.1629 50.054 69.3338 49.7615 69.5114 49.5244C70.3617 48.3794 71.1389 47.1687 72.114 46.123C73.0508 45.1158 74.2093 44.2487 75.5648 43.9243L75.3011 43.6822C75.2646 43.9802 75.3161 44.2823 75.4493 44.5511C75.5825 44.8199 75.7915 45.0436 76.0504 45.1946L75.9576 44.9919C75.8715 45.4008 75.5769 45.7291 75.361 46.0739C75.247 46.2447 75.1549 46.4292 75.0869 46.623C75.0193 46.8353 75.0256 47.0684 74.9483 47.277C74.8709 47.4856 74.6822 47.6448 74.5278 47.8023L74.0185 48.3124C73.6787 48.6534 73.3396 48.9925 73.0012 49.3297C71.6794 50.6413 70.3141 51.9495 68.7941 53.032C67.4322 54.0033 65.7876 54.7575 64.0781 54.5048C63.6549 54.4424 63.263 54.2393 62.8427 54.1908C62.6398 54.1684 62.4326 54.1877 62.2283 54.1777C61.9826 54.1648 61.7383 54.1326 61.4977 54.0814C60.6078 53.8923 59.7926 53.4761 59.0048 53.0379C58.6391 52.8333 58.2297 52.643 57.92 52.3565C57.6103 52.0701 57.5713 51.6532 57.378 51.2946C57.2028 50.9731 56.9607 50.6941 56.8007 50.3622C56.7241 50.1828 56.6838 49.9899 56.6821 49.7948C56.6803 49.5996 56.7172 49.4059 56.7906 49.225C56.926 48.8168 57.1186 48.4313 57.2518 48.0206C57.402 47.5553 57.5047 47.0756 57.6187 46.6001C57.8318 45.6653 58.1963 44.7716 58.6978 43.9545C58.9234 43.5743 59.1958 43.224 59.5086 42.9118C59.6523 42.7731 59.8213 42.6632 60.0063 42.5883C60.1931 42.5358 60.3729 42.4609 60.5418 42.3653C60.691 42.2461 60.8229 42.1068 60.9338 41.9512C60.9951 41.8754 61.0727 41.8144 61.1607 41.7727C61.2488 41.731 61.345 41.7096 61.4424 41.7103C61.9401 41.6625 62.4357 41.6203 62.9324 41.5753C63.382 41.5568 63.8288 41.495 64.2666 41.3905C64.6608 41.2723 65.0132 41.0038 65.4348 40.9887C65.8259 40.9846 66.2056 41.1198 66.5061 41.3701C66.6628 41.4955 66.7923 41.651 66.9386 41.787C67.1192 41.9509 67.3236 42.0862 67.545 42.1883C67.9387 42.3777 68.3735 42.4781 68.7505 42.6997C69.0491 42.8776 69.3098 43.1127 69.5178 43.3915C69.9312 43.9538 70.1419 44.64 70.1156 45.3383C70.0807 46.2215 69.6141 46.9574 69.1182 47.66C68.9176 47.9462 68.7387 48.2518 68.3506 48.2457C68.0634 48.2433 67.7846 48.1495 67.4989 48.1349C67.3601 48.1205 67.2198 48.1385 67.0891 48.1877C66.9584 48.2369 66.8409 48.3158 66.7458 48.4182C66.5486 48.6304 66.9157 48.8917 67.1104 48.6817L67.1088 48.6731Z" fill="#FB9400"/>
<path d="M69.4024 49.5156C70.6053 46.972 73.0135 44.595 75.3359 43.661C75.3257 43.8302 75.3689 43.9983 75.4594 44.1415C75.5498 44.2846 75.683 44.3956 75.8399 44.4588C75.939 44.4809 76.0321 44.5242 76.1129 44.5857C76.231 44.6985 76.2092 44.878 76.1788 45.0334C76.0726 45.5439 75.8902 46.0356 75.6377 46.4919C75.5151 46.6938 75.405 46.9029 75.3078 47.1182C75.2398 47.3014 75.1901 47.4914 75.1165 47.6725C74.9406 48.0993 74.6031 48.4439 74.272 48.7587C73.0568 49.9258 71.7529 50.9964 70.372 51.961C70.4861 51.4708 70.4331 50.9567 70.2217 50.5006C70.0102 50.0445 69.6523 49.6725 69.205 49.4439" fill="#FB9400"/>
<path d="M69.6135 49.5941C70.5844 47.5909 72.0758 45.8858 73.9311 44.6582C74.4037 44.3459 74.9057 44.0805 75.4298 43.866L75.1112 43.642C75.1031 43.7864 75.1248 43.931 75.175 44.0665C75.2252 44.2021 75.3028 44.3258 75.4029 44.4299C75.5049 44.5353 75.6282 44.6177 75.7645 44.6715C75.9206 44.7294 75.9932 44.7323 75.9702 44.9193C75.9133 45.2821 75.806 45.6351 75.6515 45.9682C75.5014 46.3165 75.2818 46.6326 75.1305 46.9757C74.9792 47.3187 74.9104 47.6811 74.6784 47.9959C74.453 48.2782 74.2032 48.5401 73.932 48.7787C73.3885 49.292 72.8273 49.7855 72.2484 50.259C71.5976 50.7913 70.9293 51.299 70.2434 51.782L70.5961 52.0347C70.7282 51.4884 70.6715 50.9136 70.4354 50.4041C70.1993 49.8946 69.7977 49.4806 69.296 49.2294C69.0379 49.1016 68.8824 49.5249 69.1392 49.6522C69.5317 49.8579 69.8457 50.1872 70.0327 50.5895C70.2197 50.9917 70.2694 51.4445 70.1742 51.8782C70.159 51.9244 70.159 51.9743 70.1741 52.0205C70.1892 52.0668 70.2186 52.1069 70.2581 52.1352C70.2977 52.1634 70.3452 52.1783 70.3938 52.1776C70.4424 52.1769 70.4895 52.1607 70.5282 52.1314C71.7917 51.2482 72.9915 50.2769 74.1186 49.2246C74.4031 48.9714 74.6721 48.7013 74.9243 48.4157C75.1611 48.1291 75.3383 47.7981 75.4455 47.442C75.5663 47.0604 75.7814 46.7394 75.9582 46.3834C76.1347 46.035 76.271 45.6676 76.3644 45.2884C76.4387 44.9761 76.5247 44.5848 76.2125 44.3696C76.0696 44.2717 75.89 44.2643 75.7602 44.1441C75.6982 44.0851 75.6495 44.0135 75.6174 43.9342C75.5853 43.8548 75.5706 43.7695 75.5741 43.6839C75.5767 43.6448 75.5691 43.6057 75.5523 43.5704C75.5354 43.5351 75.5097 43.5047 75.4777 43.4823C75.4458 43.4598 75.4085 43.4459 75.3696 43.442C75.3307 43.4381 75.2915 43.4442 75.2556 43.4599C73.1928 44.2978 71.4372 45.9422 70.1818 47.7561C69.8106 48.29 69.4839 48.8535 69.2048 49.4409C69.08 49.704 69.503 49.8577 69.6267 49.5974L69.6135 49.5941Z" fill="#FB9400"/>
<path d="M64.5309 47.4183C65.1549 46.9524 65.9226 46.4917 66.7457 46.6752C66.9394 46.7182 67.1275 46.7976 67.3232 46.8222C67.9339 46.9012 68.4573 46.4606 69.0731 46.4181C69.106 46.4114 69.14 46.413 69.1722 46.4227C69.2043 46.4324 69.2335 46.4498 69.2573 46.4736C69.2685 46.4941 69.2753 46.5168 69.2771 46.5401C69.2789 46.5634 69.2758 46.5869 69.2679 46.6089C69.1262 47.2047 68.8141 47.7464 68.3697 48.1675C68.2915 48.251 68.1948 48.3151 68.0875 48.3545C67.885 48.4173 67.6561 48.3356 67.4371 48.3136C67.1608 48.2865 66.8407 48.6791 66.576 48.7284C66.1984 48.7753 65.8184 48.8003 65.4379 48.8032C65.2074 48.8111 64.9779 48.7691 64.7651 48.6803C64.3914 48.5015 64.4705 47.8271 64.4954 47.458" fill="#FB9400"/>
<path d="M64.674 47.5935C65.242 47.1709 65.9316 46.7438 66.6691 46.8908C66.8615 46.9285 67.0445 47.0044 67.238 47.0393C67.4274 47.0702 67.6211 47.0648 67.8087 47.0234C68.1477 46.9504 68.4578 46.7833 68.7912 46.6953C68.8794 46.6843 68.9669 46.6675 69.053 46.645L69.1006 46.6418L69.0475 46.5435C69.0475 46.5435 69.0037 46.7133 68.9995 46.7245C68.9346 46.9421 68.8446 47.1513 68.7314 47.3481C68.546 47.6624 68.2284 48.1907 67.8151 48.1448C67.6526 48.1059 67.4858 48.0887 67.3188 48.0937C67.1586 48.1327 67.0082 48.2047 66.8772 48.305C66.7734 48.3896 66.6574 48.4579 66.5332 48.5077C66.3123 48.5528 66.0868 48.5714 65.8615 48.5631C65.6404 48.5807 65.4184 48.5825 65.1972 48.5683C65.0629 48.5506 64.8648 48.5284 64.7752 48.4118C64.6088 48.1705 64.6999 47.7522 64.7135 47.4783C64.7135 47.4216 64.6922 47.367 64.6539 47.3252C64.6156 47.2835 64.563 47.2576 64.5066 47.2528C64.4502 47.248 64.3939 47.2645 64.349 47.2991C64.3041 47.3337 64.2737 47.3838 64.2638 47.4397C64.2392 47.7865 64.1976 48.1574 64.3187 48.4909C64.4637 48.8893 64.8709 49.0164 65.2635 49.0322C65.489 49.0453 65.7225 49.0197 65.9506 49.0129C66.2022 49.0212 66.4538 48.9936 66.6978 48.931C66.8687 48.8553 67.0296 48.7589 67.1771 48.6439C67.3702 48.52 67.4871 48.5586 67.7106 48.5902C67.9215 48.6341 68.1413 48.5972 68.3266 48.4868C68.5525 48.3273 68.7478 48.1282 68.903 47.8991C69.0494 47.7021 69.1738 47.4897 69.274 47.2656C69.3947 47.0424 69.4679 46.7966 69.489 46.5438C69.4751 45.9904 68.6943 46.249 68.3982 46.3572C67.9738 46.5091 67.5936 46.6887 67.1379 46.5629C66.8901 46.4792 66.6317 46.4309 66.3704 46.4193C66.132 46.4215 65.8954 46.4602 65.6686 46.5341C65.2036 46.7015 64.7692 46.9444 64.3827 47.253C64.1484 47.4274 64.4357 47.7744 64.6675 47.6023L64.674 47.5935Z" fill="#FB9400"/>
<path d="M67.8256 42.131C67.9905 42.6827 67.7592 43.2975 67.3588 43.7213C66.9584 44.145 66.4208 44.3865 65.8775 44.5745C65.6501 44.6338 65.4362 44.7362 65.2472 44.8761C65.1024 45.017 64.9859 45.1844 64.9042 45.3693C64.5715 46.0297 64.2937 46.7165 64.0737 47.4226" fill="#FB9400"/>
<path d="M67.6041 42.1699C67.6629 42.4221 67.6543 42.6854 67.5791 42.9333C67.504 43.1813 67.365 43.4051 67.1761 43.5822C66.7812 43.9824 66.2506 44.2008 65.7308 44.3815C65.4853 44.449 65.2575 44.5697 65.0636 44.7351C64.8665 44.9554 64.7097 45.2088 64.6004 45.4835C64.3118 46.083 64.067 46.7026 63.8678 47.3375C63.7815 47.6133 64.2029 47.7712 64.2897 47.494C64.4957 46.8354 64.7515 46.1933 65.055 45.5736C65.1836 45.3087 65.3116 45.05 65.5882 44.9169C65.8647 44.7839 66.1192 44.7276 66.3793 44.6173C67.3581 44.2044 68.3683 43.2711 68.0478 42.0909C67.9713 41.814 67.5246 41.8968 67.6041 42.1699Z" fill="#FB9400"/>
<path d="M60.8994 42.1299C61.2054 42.8994 61.3284 43.7299 61.2587 44.5557C61.2183 45.0312 61.1378 45.5801 61.4593 45.9126C61.6655 46.1286 61.9783 46.1869 62.2585 46.2812C62.5387 46.3756 62.8392 46.5576 62.8811 46.8585" fill="#FB9400"/>
<path d="M60.6944 42.2246C60.8844 42.7077 61.0008 43.2167 61.0398 43.7347C61.0771 44.2166 60.988 44.6853 60.9913 45.1595C60.9902 45.5935 61.1251 46.0107 61.5211 46.2458C61.7474 46.3531 61.9827 46.4404 62.2243 46.5067C62.4085 46.575 62.6155 46.6855 62.6564 46.8946C62.6684 46.9517 62.7021 47.0018 62.7503 47.0345C62.7986 47.0672 62.8576 47.0798 62.9151 47.0698C62.9725 47.0597 63.0238 47.0277 63.0582 46.9806C63.0926 46.9334 63.1074 46.8748 63.0996 46.8169C63.0076 46.3403 62.5687 46.139 62.1491 46.0106C61.9165 45.9388 61.6598 45.8676 61.5351 45.6386C61.4497 45.4508 61.4161 45.2435 61.4379 45.0382C61.4816 44.5449 61.4912 44.0492 61.4666 43.5547C61.4156 43.0305 61.2907 42.5162 61.0957 42.0272C60.9895 41.757 60.58 41.9465 60.6862 42.2167L60.6944 42.2246Z" fill="#FB9400"/>
<path d="M57.4785 46.7353C57.5707 47.1767 58.0565 47.3681 58.4405 47.5923C58.6476 47.7384 58.8712 47.8595 59.1066 47.9533C59.5643 48.091 60.0509 47.8964 60.515 47.7624C60.9791 47.6283 61.5439 47.5766 61.8731 47.9183" fill="#FB9400"/>
<path d="M57.2573 46.7761C57.355 47.1682 57.6476 47.4018 57.9852 47.596C58.3619 47.8095 58.7427 48.1159 59.1748 48.1976C59.6068 48.2793 60.0312 48.1402 60.4385 48.0171C60.817 47.9027 61.3706 47.7473 61.7022 48.0611C61.9105 48.2586 62.2605 47.9749 62.0513 47.7754C61.8976 47.6364 61.714 47.5348 61.5146 47.4783C61.3152 47.4219 61.1055 47.4122 60.9017 47.4499C60.4846 47.5004 60.0989 47.686 59.685 47.7537C59.4865 47.7926 59.2811 47.7763 59.0913 47.7065C58.8815 47.6028 58.6786 47.4857 58.4837 47.3561C58.2051 47.2014 57.79 47.0394 57.7049 46.6952C57.6342 46.4157 57.1901 46.4914 57.2612 46.7743L57.2573 46.7761Z" fill="#FB9400"/>
<path d="M57.4883 52.1739C57.5751 51.94 57.5016 51.6594 57.623 51.44C57.6942 51.3292 57.79 51.2364 57.9028 51.1686C58.6023 50.6986 59.4336 50.4654 60.2745 50.5031C60.6822 50.5212 61.0962 50.6043 61.4938 50.5114C61.8915 50.4184 62.2732 50.071 62.2269 49.6611" fill="#FB9400"/>
<path d="M57.6989 52.2519C57.7728 52.0052 57.7021 51.6568 57.8891 51.4632C58.0897 51.2872 58.3199 51.1484 58.5691 51.0534C59.0423 50.8371 59.5559 50.7243 60.0758 50.7226C60.6113 50.7241 61.1687 50.8732 61.6913 50.6807C62.1441 50.5168 62.4835 50.1153 62.4477 49.6211C62.4266 49.3327 61.9829 49.4118 62.0044 49.6987C62.0437 50.2311 61.3147 50.3374 60.9417 50.3208C60.4227 50.2966 59.9248 50.237 59.4058 50.325C58.915 50.4081 58.4432 50.5796 58.0132 50.8311C57.7873 50.9388 57.5914 51.1007 57.4431 51.3026C57.2928 51.5482 57.3582 51.829 57.2791 52.0898C57.1999 52.3506 57.6164 52.526 57.701 52.2463L57.6989 52.2519Z" fill="#FB9400"/>
<path d="M63.1897 54.3418C63.8219 52.9267 64.6244 51.5267 64.7104 49.9795L63.1897 54.3418Z" fill="#FB9400"/>
<path d="M63.3965 54.419C64.0351 52.9951 64.8318 51.5849 64.9311 49.9978C64.9485 49.7093 64.4994 49.6693 64.4814 49.9592C64.3873 51.5066 63.5952 52.8784 62.9745 54.2625C62.8559 54.5263 63.2783 54.6814 63.3965 54.419Z" fill="#FB9400"/>
<path d="M67.6079 54.0457C67.7462 53.0144 67.8388 51.98 67.8856 50.9424C67.9026 50.5255 67.9011 50.0681 67.6382 49.7461" fill="#FB9400"/>
<path d="M67.8306 54.0675C67.9421 53.2378 68.024 52.4062 68.0761 51.5727C68.1159 50.9221 68.2363 50.1492 67.8127 49.5961C67.6343 49.3696 67.2876 49.653 67.4635 49.8817C67.6201 50.1228 67.6917 50.4095 67.6669 50.6963C67.6644 51.048 67.6377 51.4004 67.6134 51.7505C67.5611 52.5124 67.4843 53.2716 67.3829 54.028C67.3445 54.3168 67.7928 54.3548 67.8306 54.0675Z" fill="#FB9400"/>
<path d="M40.7707 25.2686C40.1496 25.1873 40.188 24.1739 39.6547 23.843C39.4557 23.7432 39.2342 23.6969 39.0118 23.7087C38.3498 23.686 37.6759 23.6652 37.0354 23.8348C35.616 24.2108 34.5187 25.6634 34.679 27.1288C34.7443 27.7077 34.9861 28.2719 34.9232 28.8514C34.9009 29.0579 34.839 29.2594 34.8059 29.4651C34.7143 30.0612 34.8999 30.7168 35.362 31.1015C35.5586 31.2658 35.7932 31.3753 36.004 31.5272C36.2728 31.7423 36.5115 31.9926 36.7136 32.2714L37.9237 33.788C37.9976 33.8901 38.0889 33.9782 38.1935 34.0484C38.4466 34.1984 38.7799 34.1153 39.0508 34.2302C39.2039 34.3143 39.3474 34.4149 39.4788 34.5301C39.8184 34.7747 40.2508 34.8469 40.6675 34.8797C41.6577 34.9531 42.6532 34.8448 43.6051 34.5603C44.4247 34.3177 45.2055 33.9469 46.0411 33.7647C46.6715 33.6266 47.3803 33.5705 47.8254 33.104C48.2 32.7108 48.2865 32.124 48.5859 31.6708C48.7244 31.4948 48.8534 31.3115 48.972 31.1215C49.161 30.7588 49.1387 30.3272 49.1122 29.9199C49.0203 28.4942 48.9038 26.9969 48.1227 25.803C48.0291 25.6727 47.9465 25.5348 47.8757 25.3907C47.8177 25.2436 47.7718 25.092 47.7383 24.9374C47.426 23.7651 46.5971 22.7778 45.5993 22.0774C44.6016 21.377 43.4599 20.9438 42.2991 20.5837C40.1777 19.9234 37.9923 19.4958 35.8112 19.0698C35.6453 19.0262 35.4728 19.0133 35.3022 19.0316C35.1048 19.0861 34.9134 19.1601 34.7306 19.2525C34.0914 19.4963 33.346 19.2197 32.7246 19.4846C32.7445 19.7453 32.6854 20.0061 32.555 20.2329C32.4246 20.4597 32.2291 20.6419 31.9938 20.7557C33.066 21.7771 34.5336 22.2895 35.996 22.5178C37.4585 22.7461 38.9478 22.7167 40.4243 22.8124C40.5271 22.8078 40.6287 22.8348 40.7155 22.8899C40.7987 22.9705 40.855 23.0748 40.8767 23.1886C41.2112 24.2847 41.845 25.265 42.7067 26.0189C42.832 26.1169 42.9448 26.2298 43.0427 26.3552C43.1281 26.4974 43.1957 26.6496 43.2442 26.8083C43.4329 27.3158 43.7057 27.7877 44.0512 28.2042C44.1044 28.2548 44.1398 28.3214 44.152 28.3939C44.148 28.4713 44.1173 28.5449 44.0651 28.6022L43.4001 29.5321C43.314 29.6781 43.1904 29.7983 43.0422 29.8803C42.6007 30.074 42.1013 29.5312 41.6455 29.6988C41.6322 29.2995 41.5157 28.9105 41.3075 28.5699C41.5429 28.3366 41.8495 28.213 42.1256 28.0381C42.4017 27.8632 42.6639 27.6094 42.6952 27.2876C42.7335 26.917 42.4725 26.5941 42.2239 26.3111C41.8039 25.8347 41.3515 25.3462 40.7479 25.1576" fill="#FB9400"/>
<path d="M40.7847 25.0419C40.5228 24.9977 40.4181 24.6414 40.326 24.4325C40.2032 24.1513 40.0641 23.8448 39.7975 23.6705C39.4117 23.4168 38.8667 23.4711 38.4324 23.4687C37.9483 23.4517 37.464 23.4996 36.9924 23.611C35.5589 23.9946 34.3965 25.3813 34.4379 26.8956C34.4492 27.331 34.5745 27.7479 34.6532 28.1698C34.6952 28.3651 34.7114 28.5652 34.7013 28.7648C34.6819 29.0109 34.6022 29.2475 34.572 29.4928C34.517 29.8995 34.5814 30.3133 34.7574 30.6837C34.9538 31.0772 35.2595 31.3269 35.6292 31.5554C36.0611 31.8231 36.3528 32.1926 36.6704 32.5829L37.672 33.8379C37.7952 34.024 37.9618 34.1772 38.1576 34.2841C38.364 34.3482 38.5779 34.385 38.7938 34.3935C39.0328 34.4309 39.1732 34.6 39.3663 34.7309C39.5845 34.8733 39.828 34.9723 40.0836 35.0227C40.9977 35.224 42.0215 35.1469 42.9375 34.9593C43.8863 34.7694 44.7622 34.3537 45.6879 34.0879C46.427 33.8812 47.3418 33.8823 47.9308 33.3168C48.2788 32.9826 48.416 32.5221 48.6115 32.0945C48.8069 31.6668 49.1831 31.3558 49.2955 30.8846C49.4079 30.4133 49.3377 29.9383 49.3055 29.4647C49.2735 29.0248 49.2353 28.5842 49.1694 28.1493C49.0642 27.307 48.7882 26.4954 48.3583 25.7643C48.2396 25.6002 48.1369 25.4252 48.0514 25.2416C47.9714 25.026 47.9305 24.7912 47.8554 24.571C47.7121 24.1671 47.5157 23.7843 47.2713 23.4325C46.768 22.7206 46.1237 22.1203 45.3784 21.669C44.5012 21.1481 43.5634 20.7372 42.5859 20.4454C41.5659 20.1199 40.5309 19.8434 39.4829 19.6149C38.4349 19.3864 37.3925 19.16 36.3412 18.9576C35.8805 18.8668 35.4305 18.7255 34.976 18.9112C34.794 19.0032 34.6016 19.0728 34.403 19.1187C34.1934 19.1475 33.9815 19.157 33.7702 19.1468C33.3838 19.1191 32.9956 19.1686 32.6283 19.2923C32.5836 19.314 32.5472 19.3495 32.5242 19.3935C32.5013 19.4375 32.493 19.4877 32.5008 19.5368C32.5112 19.7481 32.4596 19.9579 32.3524 20.1403C32.2452 20.3227 32.0871 20.4698 31.8975 20.5634C31.8626 20.5808 31.8326 20.6067 31.8105 20.6388C31.7883 20.6709 31.7747 20.7081 31.7709 20.747C31.767 20.7858 31.7731 20.8249 31.7885 20.8607C31.804 20.8965 31.8283 20.9278 31.8591 20.9515C33.81 22.7831 36.6275 22.8953 39.1495 22.9892C39.4837 23.0026 39.8179 23.016 40.1499 23.0398C40.2646 23.0454 40.5116 23.0136 40.589 23.1113C40.6664 23.2089 40.6964 23.4125 40.7375 23.5303C40.9261 24.0665 41.1858 24.5748 41.5097 25.0415C41.8469 25.5101 42.2377 25.9375 42.674 26.3151C42.914 26.5308 42.978 26.8111 43.0973 27.0974C43.2816 27.5337 43.5252 27.9424 43.8212 28.3118C43.8804 28.3851 43.9117 28.3999 43.866 28.4887C43.8163 28.5706 43.7601 28.6484 43.6981 28.7214C43.5053 29.0259 43.2908 29.316 43.056 29.5894C42.8578 29.7916 42.6064 29.6759 42.3805 29.5905C42.1259 29.496 41.8541 29.4048 41.5836 29.4872L41.8465 29.7274C41.8335 29.2899 41.7108 28.8629 41.4895 28.4856L41.4267 28.7541C41.7592 28.4446 42.2147 28.3122 42.5394 27.9934C42.7025 27.85 42.8169 27.6593 42.8667 27.4479C42.9164 27.2364 42.899 27.0148 42.8169 26.8139C42.6579 26.423 42.3145 26.0936 42.026 25.7974C41.6914 25.4218 41.2717 25.1319 40.802 24.9522C40.5289 24.8604 40.3706 25.2827 40.6452 25.3749C41.0307 25.5197 41.3764 25.754 41.654 26.0586C41.9304 26.3058 42.1697 26.5917 42.3647 26.9074C42.7677 27.6885 41.5658 28.0041 41.1407 28.3995C41.1029 28.4313 41.0763 28.4746 41.0651 28.5227C41.0539 28.5709 41.0586 28.6214 41.0784 28.6666C41.2678 28.9732 41.3775 29.3225 41.3975 29.6827C41.4031 29.8098 41.5049 29.971 41.6598 29.9243C41.8977 29.8523 42.122 29.9723 42.3405 30.0518C42.569 30.155 42.8266 30.1739 43.0679 30.1052C43.3505 30.0033 43.5141 29.7305 43.682 29.4978L44.0025 29.0652C44.1168 28.926 44.2191 28.7773 44.3082 28.6207C44.4643 28.3035 44.2046 28.0805 44.0313 27.8447C43.8394 27.5807 43.6766 27.2967 43.5456 26.9976C43.4204 26.7139 43.3505 26.3978 43.148 26.1543C42.9455 25.9109 42.7004 25.7478 42.4928 25.5313C42.0697 25.0916 41.7164 24.5897 41.445 24.0428C41.3049 23.7598 41.187 23.4663 41.0923 23.1649C40.9942 22.8512 40.8502 22.6487 40.4988 22.6081C39.7942 22.5279 39.0707 22.5416 38.3615 22.5126C37.6523 22.4835 36.9313 22.4389 36.2226 22.3395C34.7285 22.1315 33.2375 21.6393 32.1197 20.5897L32.0818 20.9765C32.3599 20.8393 32.5906 20.6216 32.7438 20.3517C32.897 20.0818 32.9657 19.7721 32.941 19.4628L32.8121 19.7068C33.1745 19.5623 33.5719 19.6039 33.9517 19.6021C34.3321 19.6061 34.7087 19.5251 35.0541 19.365C35.2437 19.2666 35.4606 19.2342 35.6705 19.2731C35.9076 19.3113 36.1427 19.3633 36.378 19.4105C36.8765 19.5072 37.3725 19.6063 37.8675 19.7082C39.8131 20.1093 41.7944 20.5478 43.6423 21.2942C45.2092 21.9268 46.7456 22.9521 47.3811 24.5858C47.5369 24.9851 47.5892 25.4005 47.8265 25.7658C48.0529 26.1018 48.2412 26.4621 48.388 26.8398C48.6404 27.5957 48.7899 28.3824 48.8324 29.1785C48.8891 29.6217 48.9105 30.0687 48.8965 30.5153C48.8878 30.7342 48.8206 30.9468 48.7018 31.1308C48.5708 31.3243 48.4127 31.5045 48.302 31.7039C48.0958 32.0827 47.9956 32.5297 47.7267 32.8708C47.4857 33.1709 47.1138 33.3023 46.7515 33.3859C46.3893 33.4696 45.9856 33.5314 45.6083 33.6383C45.1788 33.7611 44.7604 33.9185 44.3407 34.0707C43.488 34.4003 42.5902 34.5981 41.6784 34.6573C41.2279 34.6848 40.7758 34.6664 40.3291 34.6024C40.0925 34.5722 39.8645 34.4942 39.659 34.373C39.4648 34.2497 39.3117 34.0758 39.0923 33.9944C38.9114 33.9423 38.7247 33.9124 38.5366 33.9053C38.2727 33.8747 38.1549 33.7092 37.9979 33.5115L37.0659 32.3449C36.7863 31.9943 36.5151 31.6212 36.1551 31.3497C35.795 31.0783 35.4063 30.9357 35.1931 30.5312C35.0274 30.2044 34.9695 29.8332 35.028 29.4712C35.0623 29.245 35.1314 29.0286 35.1502 28.7967C35.162 28.5884 35.1498 28.3795 35.114 28.1741C35.047 27.7725 34.9156 27.3806 34.8907 26.969C34.8723 26.6331 34.9204 26.2968 35.0322 25.9795C35.2675 25.3132 35.7226 24.7468 36.3222 24.3739C37.0269 23.9364 37.8502 23.8908 38.6571 23.9111C39.0455 23.9206 39.4955 23.8679 39.7336 24.2352C39.888 24.4704 39.9615 24.751 40.1027 24.9957C40.1645 25.1222 40.2551 25.2324 40.3673 25.3174C40.4794 25.4025 40.6099 25.4599 40.7482 25.4853C41.0329 25.5332 41.0714 25.0842 40.7868 25.0363L40.7847 25.0419Z" fill="#FB9400"/>
<path d="M40.2174 22.6586C37.4319 23.0552 34.1311 22.3565 32.0762 20.9305C32.2229 20.8449 32.3391 20.7153 32.4085 20.5601C32.4778 20.405 32.4968 20.2319 32.4627 20.0655C32.4262 19.9708 32.4093 19.8696 32.413 19.7681C32.4414 19.6183 32.6076 19.5197 32.7504 19.4668C33.2335 19.2718 33.7432 19.1512 34.2623 19.1091C34.4983 19.0997 34.7335 19.0762 34.9668 19.0387C35.1571 19.0002 35.3413 18.9307 35.5329 18.8928C35.9865 18.8045 36.4528 18.8974 36.9027 19.0001C38.5405 19.3723 40.1468 19.8717 41.7069 20.4939C41.2361 20.6693 40.8373 20.9972 40.5737 21.4255C40.3102 21.8538 40.1971 22.3579 40.2524 22.8576" fill="#FB9400"/>
<path d="M40.1782 22.4375C37.9808 22.7332 35.7451 22.4315 33.7055 21.564C33.1805 21.3426 32.679 21.069 32.2085 20.7474L32.1701 21.1355C32.2958 21.0637 32.4054 20.9669 32.4924 20.8511C32.5794 20.7353 32.6418 20.603 32.6759 20.4622C32.7089 20.3285 32.7137 20.1894 32.6898 20.0538C32.6788 19.9888 32.6295 19.8887 32.644 19.8236C32.6586 19.7585 32.7737 19.7114 32.85 19.6739C33.1734 19.5408 33.511 19.4455 33.8561 19.3899C34.1861 19.3328 34.5175 19.3323 34.8531 19.2901C35.1888 19.2479 35.5134 19.0974 35.8613 19.087C36.1878 19.091 36.5124 19.136 36.8276 19.221C37.5988 19.3933 38.3623 19.5996 39.1183 19.8303C39.9668 20.0906 40.8046 20.3854 41.6318 20.7147L41.617 20.2972C41.1012 20.4942 40.6654 20.8577 40.3785 21.3302C40.0917 21.8027 39.9701 22.3573 40.0331 22.9063C40.0703 23.1942 40.514 23.1152 40.4769 22.8272C40.4304 22.3765 40.5359 21.923 40.7767 21.539C41.0174 21.155 41.3795 20.8626 41.8052 20.7085C41.9919 20.6367 41.9577 20.3579 41.7886 20.2919C40.2741 19.6893 38.7165 19.201 37.129 18.831C36.7848 18.7385 36.4332 18.6761 36.0781 18.6448C35.7297 18.6393 35.3826 18.6897 35.05 18.794C34.7114 18.8565 34.3691 18.896 34.0253 18.9124C33.6624 18.9586 33.305 19.0408 32.9582 19.1578C32.637 19.2647 32.1915 19.4088 32.1795 19.8164C32.1746 19.9893 32.2662 20.1435 32.2393 20.3195C32.2264 20.4034 32.196 20.4837 32.1499 20.5551C32.1039 20.6264 32.0433 20.6872 31.9721 20.7334C31.9369 20.7504 31.9066 20.7763 31.8842 20.8084C31.8618 20.8405 31.848 20.8778 31.8441 20.9168C31.8403 20.9558 31.8465 20.9951 31.8622 21.0309C31.8779 21.0668 31.9025 21.098 31.9337 21.1215C33.7627 22.3804 36.0886 22.9467 38.2887 22.9982C38.9438 23.0148 39.5992 22.9786 40.2487 22.8901C40.5359 22.8491 40.4575 22.4049 40.1704 22.4458L40.1782 22.4375Z" fill="#FB9400"/>
<path d="M41.1462 27.8884C40.4177 27.6182 39.6104 27.2369 39.3116 26.4463C39.2402 26.2595 39.2018 26.0609 39.1158 25.8831C38.8434 25.3235 38.1899 25.1356 37.8144 24.6468C37.773 24.5946 37.7342 24.5225 37.757 24.4652C37.7678 24.4447 37.7828 24.4267 37.801 24.4125C37.8193 24.3982 37.8404 24.3881 37.8629 24.3827C38.4398 24.1718 39.0654 24.1342 39.663 24.2745C39.775 24.29 39.8818 24.3318 39.9745 24.3965C40.1389 24.5313 40.1954 24.7671 40.2989 24.9626C40.4273 25.2074 40.9311 25.2596 41.1182 25.454C41.3649 25.7431 41.5942 26.0466 41.805 26.3629C41.9384 26.5514 42.0299 26.7663 42.0735 26.9932C42.1288 27.4049 41.524 27.7111 41.1982 27.8949" fill="#FB9400"/>
<path d="M41.2244 27.6769C40.5817 27.4385 39.8614 27.12 39.5598 26.4582C39.3954 26.099 39.3506 25.7281 39.0717 25.4275C38.8327 25.1705 38.5296 24.9955 38.2603 24.777C38.1897 24.72 38.1234 24.6579 38.062 24.5912C38.0507 24.587 37.9947 24.5053 37.9913 24.5056L37.9621 24.5846L38.048 24.5555C38.2406 24.4927 38.4392 24.4503 38.6405 24.4291C38.8329 24.4078 39.0269 24.4066 39.2194 24.4258C39.4082 24.4429 39.6899 24.4512 39.8406 24.5841C39.9609 24.6912 39.9977 24.8765 40.0657 25.0123C40.1403 25.1647 40.2636 25.2878 40.4161 25.3619C40.5583 25.4355 40.717 25.4736 40.8562 25.5556C41.011 25.6639 41.1406 25.8044 41.2362 25.9675C41.3758 26.1604 41.523 26.3545 41.6581 26.5553C41.7712 26.7054 41.8384 26.8852 41.8517 27.0728C41.8192 27.3718 41.3314 27.5739 41.1049 27.7015C40.8783 27.8291 41.0381 28.2523 41.2922 28.1109C41.6238 27.9245 42.0161 27.7382 42.2103 27.387C42.4046 27.0359 42.22 26.589 42.0059 26.2691C41.8598 26.0546 41.7082 25.8381 41.5515 25.6308C41.4263 25.4368 41.2584 25.2742 41.0607 25.1554C40.8945 25.0917 40.7316 25.0196 40.5729 24.9391C40.4168 24.838 40.3836 24.5868 40.2817 24.4303C40.0163 24.0112 39.4077 23.9698 38.9557 23.9721C38.7333 23.9717 38.5113 23.9924 38.2927 24.0339C38.0991 24.0727 37.7979 24.1213 37.6447 24.2584C37.25 24.6106 37.9198 25.0995 38.1699 25.2837C38.5284 25.5465 38.8532 25.7664 38.9958 26.2057C39.0608 26.4484 39.1579 26.6812 39.2846 26.898C39.4144 27.0972 39.5748 27.2747 39.7599 27.4238C40.1536 27.7239 40.5954 27.955 41.0664 28.1072C41.1223 28.128 41.1842 28.1256 41.2385 28.1007C41.2928 28.0757 41.3349 28.0302 41.3557 27.9741C41.3765 27.9181 41.3743 27.8561 41.3494 27.8017C41.3245 27.7474 41.2791 27.7052 41.2232 27.6845L41.2244 27.6769Z" fill="#FB9400"/>
<path d="M34.9286 28.0521C35.2987 27.6107 35.937 27.4644 36.5023 27.5667C37.0675 27.6689 37.5733 27.9832 38.0285 28.3348C38.2031 28.4917 38.4059 28.6138 38.6262 28.6945C38.8232 28.7362 39.0264 28.7403 39.225 28.7066C39.9584 28.6201 40.6835 28.473 41.3929 28.2668" fill="#FB9400"/>
<path d="M35.1119 28.1841C35.4212 27.8291 35.9243 27.7192 36.3829 27.7771C36.9946 27.8534 37.5114 28.2198 37.9875 28.584C38.2103 28.7788 38.4839 28.9059 38.7764 28.9504C39.0683 28.9618 39.3605 28.9384 39.647 28.8807C40.2519 28.7915 40.8502 28.6615 41.4377 28.4917C41.712 28.4123 41.6332 27.9647 41.3593 28.0474C40.7388 28.2266 40.1065 28.3617 39.467 28.4516C39.1489 28.4939 38.8046 28.5681 38.5098 28.401C38.2378 28.2456 38.0099 28.0232 37.7423 27.8518C37.2518 27.5352 36.6878 27.3003 36.0953 27.3145C35.8412 27.3159 35.5903 27.3706 35.3585 27.4752C35.1268 27.5798 34.9195 27.7319 34.7501 27.9216C34.5584 28.1407 34.9255 28.4019 35.1147 28.1852L35.1119 28.1841Z" fill="#FB9400"/>
<path d="M38.7355 33.8425C39.2085 33.1623 39.8329 32.6014 40.5593 32.2041C40.9773 31.9745 41.4774 31.7432 41.5847 31.286C41.6526 30.9906 41.5282 30.7007 41.452 30.4144C41.3759 30.128 41.3678 29.7788 41.5903 29.5759" fill="#FB9400"/>
<path d="M38.9185 33.9746C39.1969 33.5741 39.5309 33.2154 39.9105 32.9094C40.2928 32.5991 40.7256 32.3942 41.139 32.1339C41.5101 31.9013 41.8291 31.5675 41.8244 31.1057C41.8083 30.8778 41.762 30.653 41.6867 30.4374C41.6292 30.2301 41.5555 29.9286 41.7318 29.7552C41.9353 29.5517 41.6505 29.2024 41.4451 29.4067C41.0593 29.791 41.1823 30.2791 41.3111 30.7469C41.3698 30.9595 41.4205 31.1851 41.3059 31.3863C41.1768 31.5723 41.0018 31.7217 40.7979 31.8198C40.3682 32.0459 39.9586 32.3085 39.5738 32.6049C39.1852 32.9276 38.8416 33.301 38.5523 33.7153C38.5194 33.7638 38.5067 33.8233 38.5169 33.881C38.527 33.9387 38.5592 33.9902 38.6067 34.0245C38.6541 34.0588 38.713 34.0732 38.771 34.0646C38.8289 34.0561 38.8813 34.0253 38.9169 33.9788L38.9185 33.9746Z" fill="#FB9400"/>
<path d="M44.4545 34.1598C44.7716 33.8398 44.6643 33.327 44.6409 32.8855C44.6484 32.6309 44.6263 32.3763 44.5751 32.1269C44.4379 31.6687 44.008 31.3698 43.6413 31.0558C43.2746 30.7418 42.9219 30.308 43.0254 29.835" fill="#FB9400"/>
<path d="M44.6381 34.2919C44.9637 33.9318 44.911 33.4313 44.8732 32.994C44.8354 32.5568 44.8831 32.1048 44.6187 31.7005C44.3919 31.3502 44.0373 31.1112 43.7347 30.8402C43.4531 30.5899 43.1765 30.2532 43.2478 29.8581C43.3008 29.5731 42.8525 29.5351 42.8001 29.8186C42.6427 30.674 43.4845 31.161 43.9999 31.6649C44.142 31.7942 44.2557 31.9516 44.3341 32.1271C44.3963 32.3297 44.4222 32.5417 44.4105 32.7534C44.4189 33.1621 44.5758 33.6965 44.2705 34.0321C44.0757 34.2468 44.4428 34.508 44.6366 34.2961L44.6381 34.2919Z" fill="#FB9400"/>
<path d="M48.9884 31.1524C48.7452 31.2129 48.5508 31.4261 48.3019 31.446C48.1705 31.4471 48.0406 31.4181 47.9221 31.3612C47.1453 31.0362 46.4934 30.4701 46.0621 29.7462C45.8548 29.3951 45.6977 29.0034 45.4001 28.7231C45.1025 28.4427 44.6046 28.3141 44.2936 28.5787" fill="#FB9400"/>
<path d="M48.9427 30.93C48.821 30.9666 48.7039 31.0173 48.5939 31.0811C48.4925 31.156 48.3739 31.2041 48.2492 31.221C48.0014 31.2204 47.6965 31.0159 47.4919 30.8903C47.0209 30.5974 46.6206 30.2036 46.3196 29.7373C46.0388 29.2996 45.8581 28.7645 45.421 28.442C45.0404 28.1741 44.5293 28.1112 44.1563 28.4008C43.9294 28.5812 44.2133 28.9286 44.4425 28.7507C44.8302 28.4473 45.2974 28.8787 45.4999 29.1911C45.7899 29.6385 45.9958 30.1141 46.3591 30.515C46.7165 30.9081 47.1447 31.2301 47.6214 31.4642C47.8595 31.5814 48.1273 31.7048 48.3995 31.6567C48.6365 31.6132 48.8021 31.4341 49.0336 31.3709C49.3083 31.2901 49.2296 30.8425 48.9552 30.9266L48.9427 30.93Z" fill="#FB9400"/>
<path d="M47.6534 25.1887C46.1205 25.4392 44.519 25.5425 43.1825 26.3244L47.6534 25.1887Z" fill="#FB9400"/>
<path d="M47.6153 24.9678C46.0824 25.2184 44.4651 25.3254 43.0888 26.1197C42.8399 26.2646 43.0253 26.6749 43.2775 26.5296C44.6195 25.7546 46.1951 25.6562 47.6923 25.4116C47.7493 25.3995 47.7994 25.3657 47.8321 25.3173C47.8648 25.2689 47.8775 25.2098 47.8675 25.1523C47.8575 25.0948 47.8257 25.0434 47.7786 25.009C47.7316 24.9746 47.673 24.9599 47.6153 24.9678Z" fill="#FB9400"/>
<path d="M44.98 21.6587C44.0442 22.111 43.1288 22.6061 42.2338 23.1441C41.8776 23.3582 41.4972 23.6114 41.373 24.011" fill="#FB9400"/>
<path d="M44.8862 21.4546C44.174 21.8017 43.4747 22.1685 42.7883 22.5552C42.1991 22.8928 41.4045 23.2361 41.1598 23.9261C41.0594 24.1966 41.4808 24.3546 41.5817 24.0826C41.6931 23.7824 41.9424 23.5848 42.203 23.4169C42.5088 23.2225 42.8215 23.0436 43.1414 22.8673C43.7781 22.5167 44.4221 22.1823 45.0736 21.8639C45.3352 21.7366 45.1479 21.3272 44.8862 21.4546Z" fill="#FB9400"/>
<path d="M77.9755 58.5672C77.7486 58.5103 77.5209 58.421 77.2946 58.3755C77.1921 58.3458 77.0847 58.3367 76.9786 58.3488C76.8725 58.3609 76.7698 58.3939 76.6765 58.446C76.5891 58.518 76.5288 58.6178 76.5057 58.7287C76.4826 58.8397 76.498 58.9552 76.5493 59.0561C76.5916 59.1445 76.6448 59.2272 76.7075 59.3024C76.8158 59.4507 76.9467 59.5809 77.0955 59.6884C77.2196 59.7825 77.3724 59.8309 77.5281 59.8253C77.6839 59.8197 77.8329 59.7604 77.9502 59.6575C78.1493 59.4573 78.2113 59.1132 78.1626 58.7745" fill="#FB9400"/>
<path d="M64.3964 71.1301C64.171 71.0737 63.9427 70.9859 63.7164 70.9404C63.614 70.9099 63.5065 70.9005 63.4003 70.9126C63.2941 70.9247 63.1914 70.9581 63.0983 71.0108C63.0109 71.0829 62.9507 71.1827 62.9275 71.2936C62.9044 71.4046 62.9198 71.52 62.9711 71.6209C63.014 71.709 63.0671 71.7917 63.1294 71.8672C63.2376 72.0153 63.3688 72.1452 63.5179 72.2518C63.642 72.346 63.7948 72.3943 63.9505 72.3887C64.1062 72.3831 64.2553 72.3239 64.3725 72.221C64.5711 72.0221 64.6311 71.6837 64.5849 71.3379" fill="#FB9400"/>
<path d="M79.9556 42.1291C80.0126 41.8633 80.1049 41.6058 80.1488 41.3367C80.2069 41.0693 80.1742 40.7902 80.0557 40.5438C79.9937 40.4233 79.8957 40.3251 79.7752 40.2632C79.6547 40.2012 79.5179 40.1786 79.3838 40.1984C79.2887 40.2235 79.1986 40.2649 79.1176 40.3209C78.955 40.4125 78.8136 40.5376 78.703 40.6881C78.6049 40.8532 78.5579 41.0438 78.5679 41.2355C78.5779 41.4273 78.6445 41.6117 78.7593 41.7654C78.8782 41.916 79.026 42.041 79.1942 42.1331C79.3623 42.2252 79.5472 42.2825 79.738 42.3017" fill="#FB9400"/>
<path d="M47.1357 38.3621C47.1922 38.0977 47.2845 37.8402 47.3283 37.5711C47.3865 37.3037 47.3537 37.0247 47.2353 36.7783C47.1732 36.6578 47.0752 36.5597 46.955 36.4976C46.8347 36.4355 46.698 36.4123 46.5639 36.4315C46.4688 36.4575 46.3786 36.4994 46.2972 36.5553C46.1348 36.6464 45.9936 36.7711 45.8831 36.9211C45.7861 37.0854 45.7397 37.2746 45.7496 37.4651C45.7595 37.6555 45.8253 37.8388 45.9387 37.9918C46.0571 38.1428 46.2048 38.2682 46.3729 38.3606C46.541 38.453 46.726 38.5104 46.9168 38.5294" fill="#FB9400"/>
<path d="M66.3337 60.6561C66.2213 60.903 66.0762 61.1345 65.9746 61.387C65.8612 61.636 65.8334 61.9155 65.8957 62.1817C65.9298 62.3137 66.0046 62.4314 66.1093 62.5183C66.214 62.6052 66.3435 62.6569 66.4793 62.666C66.5776 62.6612 66.6746 62.6403 66.7662 62.6041C66.944 62.5497 67.1083 62.4582 67.2482 62.3356C67.3801 62.1958 67.4674 62.0199 67.499 61.8303C67.5306 61.6407 67.505 61.446 67.4255 61.2712C67.3423 61.0983 67.2251 60.944 67.081 60.8175C66.9369 60.691 66.7687 60.595 66.5866 60.5351" fill="#FB9400"/>
<path d="M45.2669 11.2347C45.1545 11.4815 45.0089 11.7145 44.9091 11.966C44.7945 12.215 44.7661 12.495 44.8284 12.7617C44.8627 12.8935 44.9375 13.0111 45.0422 13.098C45.1469 13.1849 45.2762 13.2366 45.4119 13.2459C45.5091 13.2435 45.6051 13.225 45.6963 13.1911C45.8761 13.1341 46.0417 13.0392 46.1819 12.9127C46.3119 12.7733 46.3979 12.5985 46.429 12.4103C46.4601 12.2222 46.4349 12.0291 46.3566 11.8553C46.2734 11.6828 46.1563 11.5288 46.0123 11.4027C45.8684 11.2766 45.7004 11.1808 45.5185 11.1212" fill="#FB9400"/>
<path d="M87.4928 36.4924C87.8222 36.6146 88.1884 36.4461 88.3108 36.1161C88.4333 35.7861 88.2655 35.4196 87.9362 35.2974C87.6068 35.1752 87.2406 35.3437 87.1182 35.6737C86.9958 36.0037 87.1635 36.3702 87.4928 36.4924Z" fill="#FB9400"/>
<path d="M75.2004 66.7639C75.5297 66.8861 75.8959 66.7176 76.0184 66.3876C76.1408 66.0576 75.973 65.6911 75.6437 65.5689C75.3143 65.4467 74.9481 65.6152 74.8257 65.9452C74.7033 66.2751 74.871 66.6417 75.2004 66.7639Z" fill="#FB9400"/>
<path d="M24.0348 32.5314C24.3642 32.6536 24.7304 32.4852 24.8528 32.1552C24.9752 31.8252 24.8075 31.4586 24.4782 31.3365C24.1488 31.2143 23.7826 31.3827 23.6602 31.7127C23.5378 32.0427 23.7055 32.4093 24.0348 32.5314Z" fill="#FB9400"/>
<path d="M96.7477 62.2082C97.4818 62.4805 98.298 62.105 98.5708 61.3696C98.8437 60.6341 98.4698 59.8171 97.7358 59.5448C97.0018 59.2725 96.1856 59.648 95.9127 60.3834C95.6399 61.1189 96.0137 61.9359 96.7477 62.2082Z" fill="#FB9400"/>
<path d="M31.8322 60.8439C32.5662 61.1163 33.3825 60.7408 33.6553 60.0053C33.9282 59.2698 33.5543 58.4529 32.8203 58.1806C32.0863 57.9083 31.27 58.2837 30.9972 59.0192C30.7243 59.7547 31.0982 60.5716 31.8322 60.8439Z" fill="#FB9400"/>
<path d="M103.03 51.2776C103.359 51.3997 103.726 51.2313 103.848 50.9013C103.97 50.5713 103.803 50.2047 103.473 50.0826C103.144 49.9604 102.778 50.1288 102.655 50.4588C102.533 50.7888 102.701 51.1554 103.03 51.2776Z" fill="#FB9400"/>
<path d="M60.1667 36.4406C60.496 36.5628 60.8622 36.3944 60.9847 36.0644C61.1071 35.7344 60.9393 35.3678 60.61 35.2456C60.2807 35.1235 59.9144 35.2919 59.792 35.6219C59.6696 35.9519 59.8373 36.3185 60.1667 36.4406Z" fill="#FB9400"/>
<path d="M18.5998 59.7339C18.5998 59.7339 10.9763 78.77 25.5696 93.2281L22.7818 100.743L60.5716 114.762L63.1149 107.907C63.1149 107.907 85.4955 104.4 90.7335 86.4877L18.5998 59.7339Z" fill="#FB9400" stroke="#FB9400" stroke-width="2" stroke-miterlimit="10" stroke-linecap="round"/>
</g>
<path d="M22.2471 64.28C22.2471 64.28 14.0913 84.3353 34.534 94.4052C34.534 94.4052 21.4489 91.5343 26.8098 65.9727L22.2471 64.28Z" fill="white"/>
<defs>
<clipPath id="clip0">
<rect width="82.5481" height="101" fill="white" transform="translate(35.1299 0.796875) rotate(20.354)"/>
</clipPath>
</defs>
</svg>
