<svg width="91" height="63" viewBox="0 0 91 63" fill="none" xmlns="http://www.w3.org/2000/svg">
<path d="M22 1.02193V10.7328C21.9993 11.1258 21.8552 11.5106 21.5845 11.8419L16.4928 18.1498L14.2609 20.919C13.6187 21.7329 13.2838 22.6718 13.2947 23.6277V61.9731C13.2796 62.256 13.1217 62.5228 12.8556 62.715C12.5895 62.9073 12.2367 63.0095 11.8744 62.9993H10.1739C9.81159 63.0095 9.45882 62.9073 9.19269 62.715C8.92656 62.5228 8.76871 62.256 8.75362 61.9731V23.4919C8.7477 22.648 8.43982 21.8221 7.86473 21.1076L5.49758 18.1498L0.502415 11.9476C0.17655 11.5513 0.00225533 11.0906 0 10.6196L0 1.02193C0.0175547 0.740373 0.176484 0.475563 0.442343 0.284891C0.708201 0.0942196 1.05957 -0.00695006 1.42029 0.00330919C1.60363 -0.00797001 1.78801 0.00965253 1.96246 0.0551292C2.1369 0.100606 2.29786 0.173009 2.43577 0.268033C2.57367 0.363058 2.6857 0.478765 2.7652 0.608276C2.84471 0.737787 2.89005 0.878459 2.89855 1.02193V10.3102C2.91608 10.5871 3.0713 10.8477 3.33115 11.0365C3.59101 11.2254 3.93498 11.3275 4.28986 11.3213H4.95652C5.31632 11.3336 5.66771 11.2342 5.93387 11.0447C6.20002 10.8552 6.35928 10.5912 6.37681 10.3102V1.02193C6.39437 0.740373 6.5533 0.475563 6.81915 0.284891C7.08501 0.0942196 7.43638 -0.00695006 7.7971 0.00330919C7.97732 -0.00380027 8.15757 0.0169246 8.32752 0.0642969C8.49747 0.111669 8.65379 0.184758 8.78751 0.279378C8.92124 0.373998 9.02975 0.48829 9.10683 0.615709C9.18391 0.743128 9.22805 0.88117 9.23672 1.02193V10.3102C9.25425 10.5871 9.40946 10.8477 9.66932 11.0365C9.92917 11.2254 10.2731 11.3275 10.628 11.3213H11.314C11.493 11.3274 11.6717 11.3058 11.8399 11.2579C12.0082 11.21 12.1627 11.1366 12.2946 11.042C12.4266 10.9474 12.5333 10.8334 12.6087 10.7065C12.6842 10.5797 12.7268 10.4424 12.7343 10.3027V1.02193C12.7429 0.879824 12.7877 0.740479 12.8659 0.612025C12.9442 0.483571 13.0545 0.368579 13.1903 0.27376C13.3261 0.17894 13.4848 0.106191 13.6569 0.059757C13.8291 0.0133229 14.0114 -0.00586618 14.1932 0.00330919C14.554 -0.00695006 14.9053 0.0942196 15.1712 0.284891C15.437 0.475563 15.596 0.740373 15.6135 1.02193V10.3102C15.6222 10.45 15.6661 10.5871 15.7427 10.7136C15.8193 10.8401 15.9271 10.9535 16.0599 11.0475C16.1927 11.1414 16.348 11.2139 16.5168 11.2609C16.6855 11.3079 16.8645 11.3284 17.0435 11.3213H17.7101C17.8899 11.3284 18.0696 11.3076 18.239 11.2602C18.4084 11.2127 18.5641 11.1395 18.697 11.0448C18.83 10.9501 18.9376 10.8357 19.0136 10.7084C19.0897 10.581 19.1327 10.4431 19.1401 10.3027V1.02193C19.1577 0.740373 19.3166 0.475563 19.5824 0.284891C19.8483 0.0942196 20.1997 -0.00695006 20.5604 0.00330919C20.7406 -0.00380027 20.9209 0.0169246 21.0908 0.0642969C21.2608 0.111669 21.4171 0.184758 21.5508 0.279378C21.6845 0.373998 21.793 0.48829 21.8701 0.615709C21.9472 0.743128 21.9913 0.88117 22 1.02193Z" fill="#FB9400"/>
<path d="M91 2.57655V28.9345C90.9894 29.4379 90.7951 29.9275 90.4415 30.3418C90.088 30.7561 89.5909 31.0766 89.0129 31.2631V61.9552C88.996 62.2435 88.8393 62.5147 88.5768 62.7102C88.3144 62.9056 87.9672 63.0095 87.6107 62.9993H85.9021C85.5456 63.0095 85.1985 62.9056 84.936 62.7102C84.6735 62.5147 84.5169 62.2435 84.5 61.9552V31.1579C82.6642 30.7431 81.0416 29.8622 79.8714 28.6451C78.7011 27.428 78.0451 25.939 78 24.3976V7.12103C78 3.1925 82.2807 9.64318e-05 87.555 9.64318e-05C88.4539 -0.00583832 89.3225 0.262354 89.9879 0.75125C90.3054 0.981025 90.5597 1.26229 90.734 1.57677C90.9084 1.89125 90.999 2.23189 91 2.57655Z" fill="#FB9400"/>
<path d="M47.2642 54.34C58.1015 54.34 66.8869 45.5547 66.8869 34.7174C66.8869 23.8801 58.1015 15.0947 47.2642 15.0947C36.427 15.0947 27.6416 23.8801 27.6416 34.7174C27.6416 45.5547 36.427 54.34 47.2642 54.34Z" stroke="#FB9400" stroke-width="6" stroke-miterlimit="10"/>
<path d="M48.0001 36.0002C49.5168 36.0002 50.7463 34.7707 50.7463 33.254C50.7463 31.7373 49.5168 30.5078 48.0001 30.5078C46.4834 30.5078 45.2539 31.7373 45.2539 33.254C45.2539 34.7707 46.4834 36.0002 48.0001 36.0002Z" fill="#FB9400"/>
<path d="M47.8568 24.8772V33.1106L42 24" stroke="#FB9400" stroke-width="2" stroke-linecap="round" stroke-linejoin="round"/>
</svg>
