<svg width="1626" height="1509" viewBox="0 0 1626 1509" fill="none" xmlns="http://www.w3.org/2000/svg">
<path d="M859 1120.28L859.52 1491.72C859.52 1491.72 855.844 1507.53 872.17 1501.19C887.571 1495.25 1239.61 1375.31 1280.46 1361.32C1281.59 1360.94 1282.56 1360.21 1283.25 1359.24C1283.95 1358.27 1284.31 1357.1 1284.3 1355.92L1282.24 974.328L859 1120.28Z" fill="#BEE0C9"/>
<path d="M434.469 958.787L857.912 1120.59L858.8 1138.92L434.551 977.154L434.469 958.787Z" fill="#CEE8D8"/>
<path d="M1282.22 974.328L1282.4 991.377L858.797 1138.92L857.91 1120.59L1282.22 974.328Z" fill="#BEE0C9"/>
<path d="M1140.83 1408.74L1034.73 1445.24L1031.39 1060.87L1139.18 1023.75L1140.83 1408.74Z" fill="#F2B61B"/>
<path d="M434.469 958.787L435.191 1326.79C435.191 1326.79 431.515 1344.19 448.9 1347.89C466.279 1351.58 863.027 1502.18 863.027 1502.18L858.901 1120.28L434.469 958.787Z" fill="#CEE8D8"/>
<path d="M568.939 1391.02L683.111 1433.9L689.119 1055.47L576.329 1013.33L568.939 1391.02Z" fill="#FFC317"/>
<path d="M434.469 958.791L859.002 1120.28L1282.22 974.333L855.041 812.076L434.469 958.791Z" fill="#CEE8D8"/>
<path d="M477.695 961.66L858.947 1106.68L1238.99 975.605L855.398 829.885L477.695 961.66Z" fill="#BDE1D4"/>
<path d="M563.07 524.109L472.317 384.445L-0.371094 476.851L79.9673 603.786C81.2133 605.75 83.0158 607.296 85.1447 608.227C87.2736 609.165 89.6332 609.444 91.9219 609.032L563.07 524.109Z" fill="#CEE8D8"/>
<path d="M472.918 385.102L559.912 520.792L851.559 165.372C859.101 153.488 859.202 152.648 850.817 137.929L778.577 16.8633L472.918 385.102Z" fill="#BEE0C9"/>
<path d="M-0.386719 476.853L472.926 385.107L778.585 16.8633L294.311 120.285L-0.386719 476.853Z" fill="#DAF1E1"/>
<path d="M244.945 579.117L164.092 444.51L284.061 421.309L364.181 556.448L244.945 579.117Z" fill="#FFC317"/>
<path d="M682.511 370.347L756.468 280.261L674.474 141.387L599.49 233.387L682.511 370.347Z" fill="#F2B61B"/>
<path d="M164.08 444.518L445.3 88.1815L553.064 64.9746L284.049 421.323L164.08 444.518Z" fill="#FFC317"/>
<path d="M599.493 233.389L137.713 310.017L208.876 222.825L674.477 141.389L599.493 233.389Z" fill="#FFC317"/>
<path d="M351.574 220.289C351.574 220.289 320.936 209.716 307.275 200.499C293.613 191.283 196.274 153.862 143.566 177.375C143.566 177.375 128.046 233.285 140.523 314.03C140.523 314.03 140.141 344.248 242.418 335.543C274.385 332.831 315.189 302.396 331.221 286.799C366.48 252.435 351.574 220.289 351.574 220.289Z" fill="#FFC317"/>
<path d="M310.277 278.334C310.277 278.334 236.013 298.887 213.552 299.677C191.09 300.467 157.88 305.198 140.818 315.77C140.818 315.77 143.761 324.33 156.164 329.203C176.85 337.324 217.647 342.266 253.71 332.68C253.739 332.598 318.815 317.478 310.277 278.334Z" fill="#FFA217"/>
<path d="M335.332 237.662C335.332 237.662 209.436 240.153 194.583 212.84C179.73 185.526 283.747 204.477 328.399 225.169C328.328 225.266 337.53 232.041 335.332 237.662Z" fill="#FFA217"/>
<path d="M333.244 253.375C333.244 253.375 267.669 262.42 249.661 266.397C231.654 270.374 215.499 274.709 230.904 279.174C246.309 283.64 325.326 267.297 333.244 253.375Z" fill="#FFA217"/>
<path d="M369.047 188.845C369.047 188.845 385.344 92.5769 383.055 81.8804C380.766 71.1839 391.879 -3.92733 415.913 0.483563C439.95 4.89509 557.854 40.7087 565.764 58.0988C573.68 75.4883 545.483 119.144 501.967 157.367C458.457 195.591 402.011 229.722 402.011 229.722L369.047 188.845Z" fill="#FFC317"/>
<path d="M370.077 189.679C370.077 189.679 417.029 30.068 414.814 0.810499C414.814 0.810499 400.237 -2.29397 390.171 33.3537C380.105 69.0019 377.443 184.431 368.168 187.452L370.077 189.679Z" fill="#FFA217"/>
<path d="M384.322 203.019C384.322 203.019 418.725 142.861 450.889 126.8C483.048 110.74 445.248 165.488 417.02 191.484C388.793 217.481 392.594 215.158 392.594 215.158L384.322 203.019Z" fill="#FFA217"/>
<path d="M325.692 221.939C325.692 221.939 341.625 184.034 369.239 187.158C369.239 187.158 379.902 193.155 401.035 227.679C402.067 229.37 402.505 231.358 402.278 233.328C402.052 235.296 401.174 237.133 399.784 238.546C387.436 251.132 373.296 261.825 357.823 270.282C355.402 271.536 352.587 271.8 349.975 271.018C347.362 270.236 345.156 268.469 343.823 266.091C336.95 253.853 325.37 231.731 325.692 221.939Z" fill="#FFC317"/>
<path d="M340.395 203.445C340.395 203.445 349.355 247.913 368.212 260.136C368.212 260.136 370.984 255.252 359.526 240.126C346.146 222.459 339.756 209.706 340.395 203.445Z" fill="#FFA217"/>
<path d="M391.483 243.981C391.483 243.981 360.909 220.793 357.238 188.211C357.238 188.211 360.703 205.709 366.592 211.992C370.364 216.049 370.393 220.01 378.253 224.692C381.128 226.596 383.44 229.234 384.949 232.334C390.175 242.43 391.156 241.008 391.483 243.981Z" fill="#FFA217"/>
<path d="M1111.16 65.0996C1111.16 65.0996 1108 354.353 827.223 339.008C827.223 339.008 1123.45 315.505 1126.85 590.414C1126.85 590.414 1084.66 297.973 1414.49 333.135C1414.49 333.135 1117.29 313.244 1111.16 65.0996Z" fill="#F8F800"/>
<path d="M212.452 628.342C212.452 628.342 239.061 902.296 -28.1992 916.551C-28.1992 916.551 249.712 863.997 281.068 1123.82C281.068 1123.82 211.172 851.427 526.921 850.952C526.921 850.952 243.664 862.533 212.452 628.342Z" fill="#F8F800"/>
<path d="M1410.56 653.686C1410.56 653.686 1413.4 852.321 1220.37 846.644C1220.37 846.644 1423.33 825.35 1430.43 1014.06C1430.43 1014.06 1396.37 813.895 1623.46 832.472C1623.46 832.446 1419.08 823.944 1410.56 653.686Z" fill="#F8F800"/>
<path d="M866.431 1035.8C1010.49 1035.8 1127.28 919.055 1127.28 775.045C1127.28 631.042 1010.49 514.301 866.431 514.301C722.376 514.301 605.594 631.042 605.594 775.045C605.594 919.055 722.376 1035.8 866.431 1035.8Z" fill="white" stroke="#FB9400" stroke-width="8" stroke-miterlimit="10"/>
<path d="M983.116 695.724C982.026 705.355 978.946 714.649 974.078 723.025C969.882 729.867 964.59 735.969 958.411 741.081C952.174 746.137 945.589 750.737 938.693 754.849C931.278 759.328 924.142 764.251 917.309 769.579C909.805 775.497 903.024 782.27 897.104 789.765C890.094 798.945 884.644 809.209 880.961 820.157C877.78 829.363 873.901 835.857 869.318 839.639C865.509 843.067 860.819 845.366 855.774 846.279C850.533 847.546 845.019 847.045 840.088 844.86C833.439 824.224 830.904 806.89 832.489 792.857C833.585 780.217 837.648 768.014 844.36 757.237C850.476 747.804 858.297 739.593 867.417 733.016C876.442 726.522 885.157 720.579 893.548 715.188C901.255 710.334 908.493 704.772 915.161 698.575C918.032 696.003 920.32 692.848 921.879 689.332C923.432 685.809 924.23 681.995 924.205 678.143C924.256 673.607 923.191 669.121 921.106 665.085C918.723 660.796 915.18 657.254 910.889 654.872C904.969 651.603 898.543 649.36 891.882 648.226C882.001 646.503 871.974 645.736 861.947 645.932C853.017 645.939 844.106 646.813 835.341 648.536C826.461 650.279 818.311 652.186 810.876 654.251C804.557 655.917 798.353 657.983 792.3 660.441C789.277 661.791 786.184 662.975 783.028 663.989C780.492 664.939 778.198 665.744 776.138 666.365C774.066 666.999 771.904 667.322 769.737 667.315C766.137 667.29 762.638 666.124 759.748 663.989C756.104 661.341 752.903 658.135 750.248 654.498L748.828 653.073C756.814 643.867 766.099 635.865 776.385 629.32C787.337 622.471 799.082 616.959 811.352 612.917C825.428 608.007 842.294 605.549 861.947 605.549C905.033 605.549 936.951 613.868 957.688 630.499C978.426 647.13 986.906 668.874 983.116 695.724ZM886.101 927.996C879.453 939.084 870.269 944.621 858.544 944.608C853.594 944.634 848.708 943.493 844.277 941.288C839.701 938.615 835.93 934.756 833.357 930.125C830.822 925.544 829.516 920.393 829.561 915.16C829.63 909.509 831.101 903.959 833.832 899.004C836.545 893.79 840.652 889.431 845.703 886.415C850.425 883.52 855.85 881.968 861.39 881.917C866.238 881.942 870.998 883.254 875.181 885.718C880.036 888.056 884.029 891.877 886.577 896.628C889.086 901.304 890.392 906.531 890.373 911.84C890.405 917.498 888.96 923.067 886.184 927.996H886.101Z" fill="#FB9400"/>
</svg>
