<svg width="72" height="72" viewBox="0 0 72 72" fill="none" xmlns="http://www.w3.org/2000/svg">
<path d="M66.7078 35.523C66.6524 48.3625 58.526 60.3092 46.364 64.7338C33.933 69.2533 19.8957 65.4292 11.4369 55.2919C3.07306 45.2731 2.11561 30.5453 8.83358 19.4362C15.5357 8.35076 28.8925 2.39324 41.6321 4.98484C54.3876 7.58434 64.2865 17.9428 66.3596 30.7665C66.6129 32.331 66.6999 33.927 66.7078 35.523C66.7236 38.3675 71.1469 38.3675 71.1311 35.523C71.0599 20.6609 61.6357 7.24459 47.6775 2.1088C33.7906 -3.01119 17.4981 1.42929 8.12142 12.8544C-1.37394 24.4297 -2.75077 41.125 5.09082 53.9645C12.8612 66.7012 28.0459 73.2514 42.6608 70.3516C56.9276 67.523 68.4803 55.5368 70.6721 41.1566C70.957 39.284 71.1232 37.4114 71.1311 35.523C71.1469 32.6786 66.7236 32.6707 66.7078 35.523Z" fill="#FB9400"/>
<path d="M27.5639 46.1184C26.1317 44.9806 25.5145 43.1396 26.2899 41.4487C26.5906 40.7929 26.6856 40.7613 27.1841 40.1608C28.553 38.5174 29.9298 36.8739 31.2987 35.2226C34.7171 31.1298 38.1275 27.0369 41.5458 22.9362C42.8989 21.3085 44.4973 19.7283 46.8949 20.5658C48.4379 21.1031 49.7514 22.7307 49.4903 24.6903C49.3557 25.67 48.9838 26.152 48.5249 26.7288C45.431 30.5609 42.2105 34.2981 39.0533 38.0828C37.3283 40.1529 35.6033 42.2231 33.8783 44.2853C33.6093 44.6092 33.3481 44.9411 33.0712 45.2571C31.4332 47.1139 29.1148 47.2482 27.1445 45.7944C26.2345 45.1228 24.8023 45.6601 24.2643 46.5292C23.6233 47.5722 24.1218 48.6705 25.016 49.3342C28.5213 51.9179 33.4748 51.1751 36.2284 47.9277C37.6606 46.2369 39.0691 44.5223 40.4855 42.8157C44.1412 38.4305 47.8207 34.0611 51.4606 29.6601C54.0797 26.4996 54.5703 22.2567 51.7375 19.0014C48.5407 15.3352 42.5745 15.4458 39.3935 19.0488C35.9356 22.9678 32.6835 27.0922 29.3443 31.106C27.5718 33.2315 25.7914 35.3569 24.0269 37.4823C23.0615 38.6517 22.2307 39.8685 21.93 41.3776C21.3761 44.1431 22.3098 47.2008 24.5966 49.0023C25.4828 49.7055 26.7014 49.8319 27.5718 49.0023C28.3077 48.2991 28.4422 46.8137 27.5639 46.1184Z" fill="#FB9400"/>
<path d="M22.4987 43.1787L19.8242 53.64L30.918 49.9896" fill="#FB9400"/>
<path d="M18.7959 54.7234L21.7948 43.0059L23.2033 43.3535L20.8453 52.5584L30.6888 49.3268L31.1478 50.6621L18.7959 54.7234Z" fill="#FB9400"/>
</svg>
