<svg width="51" height="59" viewBox="0 0 51 59" fill="none" xmlns="http://www.w3.org/2000/svg">
<path d="M26.2562 18.1929C26.6407 17.5671 27.5627 15.9525 27.8507 13.7225C28.0045 12.5337 28.106 10.187 27.305 9.9088C26.4171 9.5993 25.1772 12.1021 24.2861 11.772C23.8098 11.5951 23.8944 10.78 23.5751 8.94581C23.2649 7.16675 22.929 5.35154 21.7136 3.89665C21.3077 3.40988 20.412 2.33685 19.4105 2.49581C18.3592 2.66152 17.8247 4.08303 17.7632 4.2503C16.6938 7.19547 19.7995 10.7862 19.5136 10.9728C19.3011 11.1115 17.8861 8.95808 15.2648 7.04663C14.5169 6.50092 13.012 5.40462 12.6049 5.75525C11.8417 6.41144 15.5241 11.6198 14.9317 12.0667C14.5536 12.3535 12.9553 10.285 9.66706 9.15477C8.67707 8.81477 7.58552 8.45107 7.17097 8.90599C6.5145 9.62528 7.86979 12.0551 9.08751 13.626C11.746 17.0564 15.2291 18.313 14.9537 19.0074C14.7466 19.5339 12.7493 18.8175 12.3198 19.5815C11.8972 20.3349 13.2315 22.1096 14.786 23.04C16.1547 23.8588 17.5198 23.9199 18.0222 23.9203C22.7209 23.9298 25.842 18.8657 26.2562 18.1929Z" fill="#1AA54A"/>
<path d="M25.6127 18.8765C25.8591 18.4755 26.4512 17.4406 26.6356 16.009C26.7348 15.2466 26.7993 13.7414 26.285 13.5615C25.7153 13.3622 24.9205 14.968 24.3478 14.7565C24.0418 14.6432 24.0976 14.1199 23.891 12.9428C23.692 11.8005 23.4765 10.637 22.6963 9.70394C22.4353 9.3922 21.8606 8.70294 21.2187 8.80486C20.5443 8.91136 20.2008 9.82211 20.1624 9.93127C19.4773 11.8218 21.4688 14.1236 21.2862 14.2438C21.1506 14.3333 20.2413 12.9515 18.5605 11.7252C18.0814 11.3753 17.1153 10.6724 16.8533 10.8965C16.3641 11.3172 18.7258 14.6593 18.3461 14.9459C18.1026 15.1296 17.0786 13.8022 14.9689 13.077C14.3338 12.8584 13.634 12.6257 13.3674 12.9177C12.9466 13.38 13.8147 14.9376 14.5973 15.9464C16.3026 18.1467 18.5361 18.9529 18.3609 19.3993C18.2272 19.7371 16.9459 19.2763 16.6709 19.768C16.399 20.2518 17.2552 21.3903 18.2526 21.9861C19.1311 22.5118 20.0076 22.5497 20.3289 22.5516C23.3447 22.5574 25.3459 19.3093 25.6127 18.8765Z" fill="#097B3E"/>
<path d="M30.8196 17.7608C31.349 18.1007 31.9664 18.6447 34.2433 24.5943C34.9236 26.3734 35.5084 28.0025 36.6795 31.2625C38.4961 36.3192 38.2831 35.6403 38.7598 37.0251C40.0017 40.632 40.5643 42.6946 41.6871 46.8227C41.6871 46.8227 42.3371 49.2131 42.5595 53.7365C42.5764 54.0861 42.6083 54.9358 42.2013 55.8761C42.1058 56.0963 41.5986 57.2644 40.7186 57.6581C39.3408 58.2734 37.4407 56.8161 36.5776 56.1187C31.2426 51.8063 25.7512 44.3568 25.01 43.3515C22.0421 39.3283 19.8294 34.7764 16.7889 30.8063C16.2267 30.0723 14.9536 28.4419 15.0094 26.2785C15.0628 24.2387 16.2707 22.7674 17.1252 21.7261C19.9449 18.2918 23.8533 17.4788 24.9741 17.2879C26.9119 16.959 29.0171 16.6013 30.8196 17.7608Z" fill="#FB9400"/>
<path d="M30.1068 24.6574C30.1266 24.7394 29.6757 24.8214 28.2288 25.5792C27.5419 25.9399 27.1656 26.1366 26.6664 26.4667C25.7718 27.0574 24.7198 27.9182 24.5956 28.0197C24.048 28.469 23.8694 28.6452 23.7928 28.5922C23.6218 28.4731 24.069 27.253 24.7756 26.4148C26.535 24.3306 30.0505 24.4335 30.1068 24.6574Z" fill="#E46625"/>
<path d="M39.903 51.6176C39.9095 51.6489 39.7348 51.6716 39.1632 51.9343C38.8912 52.058 38.7423 52.1269 38.5453 52.243C38.1904 52.4516 37.7668 52.7609 37.7171 52.7978C37.4975 52.9587 37.4246 53.0236 37.3964 53.0021C37.3326 52.9529 37.5302 52.4934 37.818 52.1848C38.5373 51.4208 39.8857 51.531 39.903 51.6176Z" fill="#E46625"/>
<path d="M28.8534 37.397C28.8599 37.4283 28.6853 37.451 28.1136 37.7137C27.8416 37.8374 27.6927 37.9063 27.4957 38.0224C27.1409 38.231 26.7172 38.5403 26.6675 38.5772C26.4479 38.7381 26.3751 38.803 26.3468 38.7815C26.283 38.7323 26.4806 38.2728 26.7684 37.9642C27.488 37.1985 28.8377 37.3107 28.8534 37.397Z" fill="#E46625"/>
<path d="M37.5895 47.6261C37.5992 47.678 37.3151 47.7142 36.3862 48.14C35.9452 48.3425 35.704 48.4529 35.3809 48.6417C34.8032 48.9805 34.1176 49.4838 34.0358 49.5422C33.6787 49.804 33.5607 49.9082 33.5165 49.8723C33.4128 49.7913 33.7336 49.046 34.2025 48.5465C35.3705 47.3031 37.563 47.4843 37.5895 47.6261Z" fill="#E46625"/>
<path d="M36.4973 40.1641C36.5105 40.235 36.1218 40.2855 34.8519 40.8669C34.2479 41.1426 33.9175 41.295 33.4773 41.553C32.6877 42.0172 31.7485 42.7042 31.6379 42.7845C31.149 43.1432 30.9895 43.2857 30.9273 43.2367C30.7867 43.1261 31.224 42.1054 31.866 41.4222C33.4619 39.7245 36.4591 39.9717 36.4973 40.1641Z" fill="#E46625"/>
</svg>
