<svg width="535" height="358" viewBox="0 0 535 358" fill="none" xmlns="http://www.w3.org/2000/svg">
<path d="M136.992 177.14V181.07L136.482 306.804C136.474 308.806 136.862 310.791 137.623 312.643C138.384 314.495 139.503 316.179 140.917 317.598C142.33 319.017 144.01 320.143 145.859 320.911C147.708 321.679 149.691 322.074 151.694 322.074H421.504C423.502 322.076 425.481 321.683 427.327 320.919C429.174 320.155 430.851 319.035 432.264 317.622C433.677 316.209 434.798 314.531 435.561 312.685C436.325 310.839 436.718 308.86 436.716 306.862V165.73C436.722 163.729 436.333 161.746 435.572 159.895C434.81 158.044 433.69 156.361 432.277 154.944C430.864 153.526 429.185 152.401 427.336 151.634C425.488 150.867 423.506 150.472 421.504 150.472H151.961C149.934 150.471 147.928 150.876 146.06 151.661C144.192 152.446 142.5 153.597 141.083 155.045C139.666 156.494 138.553 158.211 137.808 160.095C137.064 161.98 136.703 163.994 136.748 166.02L136.992 177.14Z" fill="#DAF1E1"/>
<path d="M147.428 147.62V307.628H353.814V154.577L147.428 147.62Z" fill="#AADBFF"/>
<path d="M423.383 152.258H364.25V307.628H423.383V152.258Z" fill="#AADBFF"/>
<path d="M160.762 106.412H202.503V163.226C202.503 163.226 183.951 194.532 160.762 163.226V106.412Z" fill="#FFE297"/>
<path d="M135.728 114.146L120.18 153.951C120.18 153.951 124.818 194.532 160.761 163.226V106.412H146.987C144.55 106.418 142.171 107.159 140.163 108.539C138.154 109.919 136.608 111.873 135.728 114.146Z" fill="#FFC470"/>
<path d="M436.242 114.157L451.791 153.951C451.791 153.951 447.153 194.532 411.209 163.226V106.412H424.984C427.422 106.417 429.802 107.16 431.812 108.542C433.821 109.924 435.365 111.882 436.242 114.157Z" fill="#FFE297"/>
<path d="M202.503 106.412H244.244V163.226C244.244 163.226 225.692 194.532 202.503 163.226V106.412Z" fill="#FFC470"/>
<path d="M244.244 106.412H285.985V163.226C285.985 163.226 267.434 194.532 244.244 163.226V106.412Z" fill="#FFE297"/>
<path d="M285.985 106.412H327.726V163.226C327.726 163.226 309.175 194.532 285.985 163.226V106.412Z" fill="#FFC470"/>
<path d="M327.727 106.412H369.468V163.226C369.468 163.226 350.916 194.532 327.727 163.226V106.412Z" fill="#FFE297"/>
<path d="M369.468 106.412H411.209V163.226C411.209 163.226 392.657 194.532 369.468 163.226V106.412Z" fill="#FFC470"/>
<path d="M304.095 209.893H210.386C202.702 209.893 196.473 216.122 196.473 223.806V253.373C196.473 261.057 202.702 267.287 210.386 267.287H304.095C311.78 267.287 318.009 261.057 318.009 253.373V223.806C318.009 216.122 311.78 209.893 304.095 209.893Z" fill="#FFC470"/>
<path d="M226.057 225.757C220.297 225.757 217.417 229.537 217.417 232.921C217.417 237.493 220.081 239.329 223.573 240.445L225.841 241.201C228.937 242.173 229.981 243.289 229.981 245.053C229.981 247.681 227.461 249.301 224.905 249.301C222.673 249.301 220.621 248.293 219.505 246.565L216.661 249.013C218.317 251.245 221.197 252.541 224.797 252.541C229.945 252.541 233.653 249.373 233.653 244.657C233.653 241.057 231.673 239.149 228.109 237.997L224.905 236.953C222.565 236.233 221.089 235.081 221.089 232.921C221.089 231.445 222.097 228.997 226.021 228.997C228.073 228.997 229.729 229.897 230.593 231.229L233.401 228.673C231.925 226.837 229.693 225.757 226.057 225.757ZM241.165 251.893V242.965C241.165 239.545 242.929 237.421 245.917 237.421C248.365 237.421 249.805 239.077 249.805 241.705V251.893H253.045V240.769C253.045 236.881 250.633 234.397 246.853 234.397C244.369 234.397 242.137 235.549 241.237 237.457H241.165V224.677H237.925V251.893H241.165ZM266.172 234.397C261.096 234.397 257.1 238.393 257.1 243.361C257.1 248.437 261.24 252.325 266.172 252.325C271.248 252.325 275.244 248.329 275.244 243.361C275.244 238.141 270.996 234.397 266.172 234.397ZM260.556 243.361C260.556 239.869 262.824 237.421 266.136 237.421C269.484 237.421 271.788 239.761 271.788 243.361C271.788 246.889 269.556 249.301 266.172 249.301C262.824 249.301 260.556 246.925 260.556 243.361ZM279.303 262.045H282.543V249.445H282.615C283.731 251.173 286.071 252.325 288.555 252.325C293.667 252.325 297.231 248.617 297.231 243.361C297.231 237.997 293.559 234.397 288.591 234.397C286.143 234.397 283.911 235.441 282.615 237.277H282.543V234.829H279.303V262.045ZM282.543 243.361C282.543 239.761 284.847 237.421 288.123 237.421C291.471 237.421 293.775 239.761 293.775 243.361C293.775 246.961 291.543 249.301 288.159 249.301C284.775 249.301 282.543 246.889 282.543 243.361Z" fill="#585858"/>
<path d="M97.3024 250.801C101.013 249.697 104.45 247.824 107.39 245.305C109.593 243.415 113.57 239.346 112.573 237.548C111.413 235.566 105.187 238.07 104.12 236.041C103.54 234.951 105.013 233.618 107.401 229.791C109.79 225.965 112.039 222.266 112.202 217.687C112.202 216.144 112.364 212.77 110.312 211.437C108.259 210.104 104.885 211.738 104.514 211.935C97.8242 215.518 97.627 227.009 96.8154 226.893C96.2009 226.788 97.1285 220.62 95.4936 212.979C95.0298 210.788 94.079 206.382 92.7804 206.358C90.3455 206.358 88.5715 221.64 86.7859 221.49C85.6265 221.397 86.1018 215.089 81.9973 207.738C80.7566 205.524 79.3769 203.1 77.8927 203.263C75.5738 203.495 74.0665 210.069 73.7302 214.857C72.9882 225.293 77.2086 233.223 75.6202 234.035C74.3911 234.65 71.9446 230.128 69.9387 230.812C67.9328 231.496 67.5038 236.841 68.7793 241.038C69.6192 243.657 71.1397 246.006 73.1853 247.844C81.661 255.427 95.4472 251.346 97.3024 250.801Z" fill="#18A357"/>
<path d="M95.0421 250.987C97.4193 250.295 99.6238 249.11 101.512 247.508C102.927 246.291 105.466 243.682 104.828 242.522C104.19 241.363 100.097 242.859 99.4134 241.548C99.0423 240.853 99.9815 239.995 101.512 237.537C103.043 235.079 104.492 232.713 104.596 229.768C104.596 228.794 104.701 226.614 103.437 225.768C102.173 224.922 99.9583 225.954 99.7148 226.093C95.4248 228.412 95.2972 235.763 94.7755 235.682C94.2537 235.6 94.9842 231.658 93.929 226.742C93.6276 225.327 93.0246 222.51 92.1898 222.487C90.6245 222.487 89.4882 232.296 88.3404 232.203C87.6099 232.134 87.8998 228.087 85.2678 223.38C84.4793 221.953 83.5865 220.4 82.6357 220.504C81.1284 220.655 80.1776 224.864 79.9689 227.948C79.482 234.673 82.2067 239.728 81.1284 240.25C80.34 240.644 78.8095 237.745 77.4877 238.186C76.1659 238.627 75.9224 242.059 76.7572 244.737C77.2926 246.424 78.2694 247.937 79.5863 249.12C85.0127 253.966 93.8595 251.346 95.0421 250.987Z" fill="#077B46"/>
<path d="M106.232 257.387C106.638 258.859 106.87 260.865 101.362 275.243C99.7157 279.545 98.1388 283.429 94.985 291.197C90.092 303.244 90.8109 301.633 89.4311 304.949C85.8483 313.459 83.5294 318.086 78.8915 327.338C76.1537 332.279 72.9382 336.939 69.291 341.252C68.198 342.651 66.7923 343.775 65.1865 344.533C64.6647 344.777 61.8588 346.064 59.6442 345.345C56.1657 344.185 55.0875 338.539 54.6584 335.884C52.0032 319.489 54.1367 297.192 54.4265 294.142C55.586 282.095 58.9253 270.315 59.8529 258.199C60.0268 255.972 60.3631 250.975 63.9574 247.16C67.3547 243.578 71.9114 242.87 75.1348 242.372C82.5627 241.368 90.1071 243.01 96.446 247.01C100.481 249.63 104.852 252.39 106.232 257.387Z" fill="#FFC470" stroke="#F9922B" stroke-width="2" stroke-miterlimit="10" stroke-linecap="round"/>
<path d="M93.8011 268.67C93.7084 268.855 92.7576 268.276 88.9313 267.302C87.5307 266.916 86.1102 266.606 84.676 266.374C82.1136 266.003 78.8207 265.852 78.4381 265.829C76.722 265.759 76.1191 265.829 76.0611 265.574C75.9452 265.075 78.7279 263.603 81.3483 263.255C87.8878 262.316 94.0678 268.183 93.8011 268.67Z" fill="#E2662E"/>
<path d="M67.9221 333.101C67.9221 333.17 67.5394 332.927 66.0785 332.486C65.5502 332.305 65.0122 332.154 64.4668 332.034C63.4929 331.837 62.229 331.721 62.0783 331.698C61.4174 331.64 61.1855 331.64 61.1739 331.547C61.1623 331.454 62.229 330.851 63.2494 330.758C64.1592 330.744 65.0589 330.95 65.8724 331.358C66.6858 331.765 67.3889 332.363 67.9221 333.101Z" fill="#E2662E"/>
<path d="M70.972 289.609C70.972 289.667 70.5778 289.435 69.1285 288.983C68.6009 288.803 68.0627 288.656 67.5168 288.543C66.5312 288.345 65.2674 288.218 65.1167 288.206C64.4674 288.137 64.2355 288.137 64.2123 288.056C64.1891 287.974 65.279 287.348 66.2993 287.267C67.2088 287.255 68.1079 287.461 68.921 287.869C69.7341 288.276 70.4375 288.873 70.972 289.609Z" fill="#E2662E"/>
<path d="M70.1954 322.166C70.1375 322.282 69.5577 321.888 67.204 321.158C66.3415 320.867 65.4627 320.627 64.572 320.439C62.9835 320.114 60.9428 319.917 60.6993 319.882C59.6326 319.778 59.25 319.778 59.2268 319.639C59.2036 319.5 60.9544 318.479 62.6009 318.363C66.717 318.004 70.381 321.877 70.1954 322.166Z" fill="#E2662E"/>
<path d="M80.282 307.001C80.1892 307.152 79.4124 306.607 76.1775 305.61C75.0025 305.215 73.8063 304.886 72.5947 304.624C70.4264 304.183 67.6205 303.905 67.2843 303.87C65.8233 303.731 65.3132 303.731 65.2784 303.546C65.1972 303.117 67.5973 301.98 69.9163 301.783C75.5165 301.204 80.5255 306.537 80.282 307.001Z" fill="#E2662E"/>
<path d="M30.3091 254.524C32.5696 252.513 34.3793 250.048 35.6195 247.289C36.5471 245.213 37.9384 241.016 36.6978 240.077C35.4572 239.138 31.6541 242.906 30.2163 241.816C29.4511 241.236 30.054 239.81 30.4598 236.32C30.8656 232.83 31.2367 229.456 29.8221 226.163C29.3583 225.061 28.3148 222.627 26.4133 222.371C24.5117 222.116 22.6798 224.389 22.4826 224.69C19.0042 229.456 22.6218 237.642 22.0072 237.816C21.3927 237.99 20.1521 233.294 16.4418 228.401C15.375 227.009 13.2416 224.215 12.314 224.621C10.5748 225.398 14.4243 236.83 13.1141 237.375C12.2792 237.688 10.4937 233.085 5.14847 229.259C3.54839 228.099 1.76279 226.859 0.765639 227.462C-0.811249 228.412 0.325039 233.549 1.68163 237.05C4.63829 244.703 10.2733 248.866 9.39214 249.979C8.73124 250.813 5.5079 248.437 4.31364 249.584C3.11938 250.732 4.59191 254.663 6.89927 257.191C8.37097 258.762 10.2305 259.917 12.2908 260.541C20.8014 263 29.196 255.509 30.3091 254.524Z" fill="#18A357"/>
<path d="M28.7778 255.405C30.2249 254.114 31.386 252.534 32.1866 250.767C32.7779 249.445 33.7055 246.744 32.8707 246.129C32.0359 245.515 29.6358 247.938 28.7198 247.289C28.2212 246.918 28.6038 246.002 28.8705 243.81C29.3172 241.641 29.1771 239.392 28.4647 237.294C28.1516 236.587 27.4907 234.975 26.2733 234.859C25.0558 234.743 23.8732 236.158 23.7456 236.332C21.4846 239.381 23.8384 244.634 23.4442 244.75C23.0499 244.866 22.2847 241.851 19.873 238.709C19.1889 237.816 17.8207 236.019 17.2294 236.285C16.0699 236.784 18.586 244.124 17.7395 244.402C17.1946 244.599 16.0583 241.642 12.6378 239.184C11.6059 238.442 10.458 237.642 9.82031 238.025C8.79998 238.639 9.53045 241.932 10.4001 244.181C12.3016 249.086 15.9076 251.764 15.351 252.472C14.7945 253.179 12.8581 251.486 12.0929 252.228C11.3276 252.97 12.2668 255.486 13.7509 257.098C14.7035 258.107 15.9023 258.85 17.2294 259.255C22.6673 260.843 28.0589 256.043 28.7778 255.405Z" fill="#077B46"/>
<path d="M38.8071 256.204C39.584 257.109 40.4072 258.431 41.3116 270.443C41.5783 274.037 41.7522 277.307 42.1116 283.846C42.6682 293.992 42.645 292.647 42.7609 295.441C43.0508 302.641 42.958 306.688 42.7609 314.769C42.4647 319.162 41.7425 323.515 40.6043 327.767C40.2929 329.119 39.6739 330.381 38.7955 331.454C37.8822 332.647 36.5967 333.5 35.1432 333.878C32.314 334.249 29.6588 330.573 28.4762 328.845C21.1483 318.144 15.235 301.667 14.4349 299.453C11.2348 290.548 9.69266 281.11 6.31858 272.263C5.69247 270.628 4.26631 266.987 5.54174 263.103C6.70121 259.428 9.72745 257.422 11.8377 255.996C16.7627 252.818 22.649 251.476 28.4646 252.204C32.1633 252.645 36.1751 253.132 38.8071 256.204Z" fill="#FFC470" stroke="#F9922B" stroke-width="2" stroke-miterlimit="10" stroke-linecap="round"/>
<path d="M33.787 268.32C33.787 268.483 32.9174 268.378 29.8796 268.97C28.7635 269.157 27.6599 269.413 26.5751 269.735C24.6272 270.315 22.2618 271.312 21.9372 271.428C20.6965 271.938 20.2791 272.158 20.1632 272.031C19.9197 271.718 21.3922 269.712 23.1314 268.61C27.4911 265.793 33.7986 267.88 33.787 268.32Z" fill="#E2662E"/>
<path d="M36.9284 322.468C36.9284 322.526 36.5922 322.468 35.4095 322.642C34.9762 322.687 34.5463 322.761 34.1225 322.862C33.3688 323.048 32.4412 323.384 32.3253 323.419C31.8383 323.593 31.676 323.674 31.6296 323.616C31.5832 323.558 32.1514 322.769 32.7891 322.363C33.4362 322.045 34.1507 321.889 34.8716 321.907C35.5925 321.925 36.2982 322.117 36.9284 322.468Z" fill="#E2662E"/>
<path d="M24.6159 290.769C24.6159 290.827 24.2797 290.769 23.097 290.943C22.6637 290.988 22.2338 291.062 21.81 291.163C21.2019 291.318 20.6021 291.504 20.0128 291.72C19.5258 291.893 19.3635 291.975 19.3171 291.917C19.2707 291.859 19.8389 291.07 20.4766 290.664C21.1226 290.342 21.8376 290.183 22.5592 290.202C23.2808 290.22 23.987 290.415 24.6159 290.769Z" fill="#E2662E"/>
<path d="M34.9008 313.958C34.9008 314.062 34.3559 313.958 32.4427 314.236C31.7363 314.317 31.0355 314.441 30.3441 314.607C29.1151 314.909 27.5961 315.442 27.4222 315.512C26.6338 315.79 26.3671 315.917 26.2627 315.825C26.1584 315.732 27.1092 314.445 28.2223 313.795C31.0514 312.195 34.924 313.714 34.9008 313.958Z" fill="#E2662E"/>
<path d="M36.964 299.87C36.964 300.009 36.2103 299.87 33.6015 300.253C32.6382 300.365 31.6821 300.531 30.7376 300.751C29.0564 301.169 26.9809 301.911 26.7374 301.98C25.6591 302.375 25.2881 302.537 25.2069 302.421C25.1257 302.305 26.3664 300.531 27.8853 299.638C31.6768 297.435 36.9988 299.499 36.964 299.87Z" fill="#E2662E"/>
<path d="M474.342 323.859C486.957 323.859 497.183 313.633 497.183 301.017C497.183 288.402 486.957 278.176 474.342 278.176C461.727 278.176 451.5 288.402 451.5 301.017C451.5 313.633 461.727 323.859 474.342 323.859Z" fill="#FA836D"/>
<path d="M467.82 286.189C468.898 281.581 467.698 277.361 465.142 276.764C462.585 276.166 459.64 279.417 458.562 284.025C457.485 288.633 458.684 292.853 461.24 293.45C463.797 294.048 466.743 290.797 467.82 286.189Z" fill="#61C590"/>
<path d="M473.471 291.787C475.939 290.868 476.597 286.517 474.941 282.069C473.285 277.62 469.941 274.759 467.474 275.678C465.006 276.597 464.348 280.948 466.004 285.396C467.66 289.845 471.004 292.706 473.471 291.787Z" fill="#61C590"/>
<path d="M478.199 287.667C479.894 285.662 478.339 281.56 474.725 278.505C471.111 275.45 466.807 274.599 465.112 276.604C463.417 278.609 464.973 282.711 468.587 285.766C472.201 288.821 476.504 289.673 478.199 287.667Z" fill="#61C590"/>
<path d="M461.008 273.527L461.159 273.585L460.996 273.515C461.074 273.557 461.156 273.592 461.24 273.62L461.704 273.875C461.876 273.968 462.043 274.073 462.202 274.188C462.26 274.188 462.492 274.431 462.283 274.246C462.075 274.06 462.283 274.246 462.353 274.304C462.64 274.545 462.911 274.804 463.165 275.081C463.223 275.15 463.269 275.22 463.338 275.289C463.408 275.359 463.165 275.057 463.338 275.289C463.512 275.521 463.57 275.602 463.675 275.776C463.863 276.079 464.033 276.393 464.185 276.715C464.359 277.052 464.046 276.333 464.185 276.715L464.289 276.959C464.347 277.133 464.394 277.295 464.44 277.469C464.497 277.656 464.544 277.845 464.579 278.037C464.574 278.126 464.574 278.215 464.579 278.304C464.579 278.524 464.579 277.886 464.579 278.211C464.607 278.597 464.607 278.985 464.579 279.371C464.578 279.599 464.621 279.826 464.708 280.038C464.795 280.25 464.923 280.442 465.085 280.604C465.247 280.766 465.439 280.894 465.651 280.981C465.863 281.067 466.089 281.111 466.318 281.11C466.776 281.098 467.211 280.911 467.535 280.587C467.859 280.264 468.046 279.828 468.058 279.371C468.143 277.397 467.597 275.448 466.498 273.807C465.399 272.165 463.804 270.918 461.947 270.246C461.503 270.125 461.029 270.185 460.629 270.413C460.229 270.641 459.936 271.019 459.814 271.463C459.699 271.899 459.756 272.363 459.971 272.759C460.187 273.155 460.545 273.455 460.973 273.596L461.008 273.527Z" fill="#61C590"/>
<path d="M447.5 357.485C456.177 357.485 463.211 350.451 463.211 341.774C463.211 333.097 456.177 326.063 447.5 326.063C438.823 326.063 431.789 333.097 431.789 341.774C431.789 350.451 438.823 357.485 447.5 357.485Z" fill="#FA836D"/>
<path d="M443.023 331.571C443.764 328.403 442.939 325.502 441.18 325.091C439.422 324.68 437.396 326.914 436.655 330.082C435.915 333.25 436.74 336.151 438.498 336.562C440.257 336.973 442.283 334.738 443.023 331.571Z" fill="#61C590"/>
<path d="M445.344 335.831C447.037 335.203 447.493 332.222 446.363 329.172C445.232 326.121 442.943 324.158 441.249 324.785C439.556 325.413 439.1 328.395 440.231 331.445C441.362 334.495 443.651 336.459 445.344 335.831Z" fill="#61C590"/>
<path d="M450.152 332.568C451.318 331.189 450.249 328.369 447.765 326.269C445.281 324.168 442.322 323.584 441.156 324.963C439.99 326.342 441.059 329.162 443.543 331.263C446.027 333.363 448.986 333.947 450.152 332.568Z" fill="#61C590"/>
<path d="M438.189 323.384L438.398 323.465L437.981 323.291C438.365 323.454 438.727 323.665 439.059 323.917L438.7 323.639C439.046 323.912 439.361 324.223 439.639 324.567L439.36 324.219C439.647 324.574 439.888 324.964 440.079 325.378L439.905 324.961C440.083 325.388 440.204 325.836 440.265 326.294L440.207 325.831C440.236 326.151 440.236 326.473 440.207 326.793C440.207 327.254 440.39 327.697 440.716 328.023C441.042 328.349 441.485 328.532 441.946 328.532C442.407 328.532 442.85 328.349 443.176 328.023C443.502 327.697 443.685 327.254 443.685 326.793C443.76 325.375 443.382 323.97 442.607 322.781C441.783 321.496 440.561 320.515 439.129 319.987C438.908 319.925 438.677 319.908 438.449 319.936C438.222 319.964 438.002 320.036 437.803 320.149C437.604 320.263 437.429 320.414 437.288 320.595C437.147 320.776 437.044 320.983 436.983 321.204C436.922 321.427 436.906 321.659 436.935 321.889C436.965 322.118 437.041 322.338 437.157 322.538C437.401 322.918 437.77 323.201 438.201 323.338L438.189 323.384Z" fill="#61C590"/>
<path d="M521.648 336.997C529.013 336.997 534.982 331.027 534.982 323.663C534.982 316.299 529.013 310.329 521.648 310.329C514.284 310.329 508.314 316.299 508.314 323.663C508.314 331.027 514.284 336.997 521.648 336.997Z" fill="#FA836D"/>
<path d="M517.857 315.013C518.485 312.326 517.781 309.864 516.285 309.514C514.788 309.164 513.066 311.059 512.438 313.746C511.809 316.434 512.513 318.896 514.009 319.246C515.506 319.596 517.229 317.701 517.857 315.013Z" fill="#61C590"/>
<path d="M519.82 318.623C521.261 318.089 521.651 315.558 520.692 312.97C519.732 310.382 517.787 308.717 516.346 309.251C514.905 309.786 514.514 312.317 515.473 314.904C516.433 317.492 518.379 319.157 519.82 318.623Z" fill="#61C590"/>
<path d="M523.888 315.835C524.88 314.662 523.976 312.266 521.868 310.484C519.761 308.702 517.248 308.209 516.255 309.383C515.263 310.556 516.168 312.952 518.275 314.734C520.383 316.516 522.896 317.009 523.888 315.835Z" fill="#61C590"/>
<path d="M513.671 308.312L513.845 308.381L513.439 308.207C513.763 308.344 514.067 308.524 514.343 308.741L513.996 308.462C514.287 308.695 514.551 308.96 514.784 309.251L514.517 308.903C514.76 309.217 514.963 309.559 515.12 309.923L514.946 309.506C515.1 309.878 515.205 310.267 515.259 310.665L515.19 310.202C515.219 310.471 515.219 310.744 515.19 311.013C515.2 311.472 515.382 311.911 515.7 312.242C516.03 312.562 516.469 312.745 516.929 312.752C517.389 312.747 517.829 312.564 518.158 312.242C518.467 311.905 518.648 311.47 518.668 311.013C518.731 309.764 518.398 308.526 517.717 307.477C517.407 306.962 517.015 306.5 516.558 306.109C515.984 305.607 515.324 305.214 514.61 304.949C514.39 304.886 514.16 304.868 513.932 304.895C513.705 304.922 513.486 304.995 513.287 305.108C513.088 305.222 512.914 305.374 512.775 305.556C512.636 305.737 512.534 305.945 512.477 306.167C512.415 306.389 512.399 306.622 512.429 306.851C512.458 307.08 512.534 307.301 512.651 307.5C512.89 307.88 513.255 308.163 513.683 308.3L513.671 308.312Z" fill="#61C590"/>
<path d="M285.986 85.008C285.986 85.008 223.374 17.7584 285.986 0.366211C348.597 17.7584 285.986 85.008 285.986 85.008Z" fill="#FFC470"/>
<path d="M285.985 47.9052C294.31 47.9052 301.058 41.1567 301.058 32.832C301.058 24.5073 294.31 17.7588 285.985 17.7588C277.661 17.7588 270.912 24.5073 270.912 32.832C270.912 41.1567 277.661 47.9052 285.985 47.9052Z" fill="white"/>
</svg>
