<svg width="75" height="75" viewBox="0 0 75 75" fill="none" xmlns="http://www.w3.org/2000/svg">
<circle cx="37.5" cy="37.5" r="36" fill="#FFF8EF" stroke="#FB9400" stroke-width="3"/>
<path d="M28.637 32.8742L35.5467 17.2109C36.9211 17.2109 38.2392 17.761 39.2111 18.7402C40.1829 19.7193 40.7289 21.0473 40.7289 22.432V29.3934H50.5061C51.0068 29.3877 51.5029 29.4918 51.9598 29.6984C52.4167 29.905 52.8236 30.2092 53.1522 30.59C53.4808 30.9707 53.7234 31.4189 53.863 31.9035C54.0026 32.388 54.036 32.8974 53.9609 33.3963L51.5771 49.0595C51.4521 49.8895 51.0337 50.646 50.3988 51.1897C49.7639 51.7334 48.9554 52.0276 48.1222 52.0181H28.637M28.637 32.8742V52.0181M28.637 32.8742H23.4548C22.5385 32.8742 21.6598 33.2409 21.0119 33.8936C20.364 34.5464 20 35.4317 20 36.3549V48.5374C20 49.4605 20.364 50.3458 21.0119 50.9986C21.6598 51.6514 22.5385 52.0181 23.4548 52.0181H28.637" stroke="#FB9400" stroke-width="3" stroke-linecap="round" stroke-linejoin="round"/>
</svg>
