<svg width="75" height="75" viewBox="0 0 75 75" fill="none" xmlns="http://www.w3.org/2000/svg">
<circle cx="37.5" cy="37.5" r="36" fill="#FFF8EF" stroke="#FB9400" stroke-width="3"/>
<path d="M46.0418 23.4166H50.6031C51.5699 23.3995 52.5094 23.738 53.2432 24.3679C53.9769 24.9977 54.4539 25.875 54.5835 26.8333V38.7916C54.4539 39.7499 53.9769 40.6272 53.2432 41.2571C52.5094 41.8869 51.5699 42.2254 50.6031 42.2083H46.0418M34.0835 45.625V52.4583C34.0835 53.8175 34.6235 55.1211 35.5846 56.0822C36.5457 57.0433 37.8493 57.5833 39.2085 57.5833L46.0418 42.2083V23.4166H26.7718C25.9479 23.4073 25.1483 23.6961 24.5204 24.2298C23.8926 24.7635 23.4787 25.5061 23.3552 26.3208L20.9977 41.6958C20.9233 42.1855 20.9564 42.6855 21.0945 43.1611C21.2326 43.6368 21.4724 44.0767 21.7974 44.4505C22.1224 44.8242 22.5248 45.1228 22.9767 45.3256C23.4285 45.5284 23.9191 45.6306 24.4143 45.625H34.0835Z" stroke="#FB9400" stroke-width="3" stroke-linecap="round" stroke-linejoin="round"/>
</svg>
