<svg width="509" height="306" viewBox="0 0 509 306" fill="none" xmlns="http://www.w3.org/2000/svg">
<path d="M56.3945 165.213H266.703" stroke="#C4C4C4" stroke-width="5" stroke-linecap="round" stroke-linejoin="round"/>
<path d="M56.5 30C56.5 14.8122 68.8122 2.5 84 2.5H238.698C253.886 2.5 266.198 14.8122 266.198 30V286.424H56.5V30Z" stroke="#C4C4C4" stroke-width="5"/>
<rect x="71.5586" y="181.176" width="171.599" height="12.7701" rx="6.38506" fill="#C4C4C4"/>
<rect x="71.5586" y="201.129" width="115.729" height="12.7701" rx="6.38506" fill="#C4C4C4"/>
<rect x="71.5586" y="241.834" width="59.86" height="12.7701" rx="6.38506" fill="#C4C4C4"/>
<rect x="71.5586" y="262.586" width="81.4096" height="12.7701" rx="6.38506" fill="#C4C4C4"/>
<path d="M241.157 90.987C241.157 102.738 232.762 113.772 218.324 121.982C203.945 130.158 183.946 135.279 161.747 135.279C139.549 135.279 119.55 130.158 105.171 121.982C90.7331 113.772 82.3379 102.738 82.3379 90.987C82.3379 79.2364 90.7331 68.2021 105.171 59.9924C119.55 51.816 139.549 46.6953 161.747 46.6953C183.946 46.6953 203.945 51.816 218.324 59.9924C232.762 68.2021 241.157 79.2364 241.157 90.987Z" stroke="#ACACAC" stroke-width="4"/>
<path d="M224.099 90.9876C224.099 100.355 217.441 109.129 206.037 115.646C194.675 122.138 178.879 126.202 161.349 126.202C143.82 126.202 128.024 122.138 116.662 115.646C105.258 109.129 98.5996 100.355 98.5996 90.9876C98.5996 81.6198 105.258 72.8458 116.662 66.3291C128.024 59.8367 143.82 55.7734 161.349 55.7734C178.879 55.7734 194.675 59.8367 206.037 66.3291C217.441 72.8458 224.099 81.6198 224.099 90.9876Z" stroke="#B9B9B9" stroke-width="3"/>
<path d="M120.138 89.3445C124.683 88.1729 128.714 85.5522 131.608 81.8865C131.749 81.6748 131.804 81.4186 131.764 81.1684C131.723 80.9183 131.59 80.6922 131.389 80.5348C129.556 79.148 127.918 77.5246 126.519 75.7076C126.311 75.4328 126.165 75.1173 126.091 74.7822C126.016 74.4471 126.015 74.1001 126.086 73.7644C126.158 73.4286 126.3 73.1118 126.505 72.8351C126.71 72.5584 126.972 72.3281 127.274 72.1597C128.572 71.3748 129.609 70.2284 130.254 68.8635C130.899 67.4986 131.125 65.9755 130.902 64.4844C130.342 57.1712 119.821 48.965 106.768 58.7883C93.7143 68.6117 97.6596 78.9419 97.6596 78.9419C97.6596 78.9419 100.655 90.2858 113.976 82.9484C114.15 82.8247 114.359 82.7581 114.573 82.7581C114.787 82.7581 114.996 82.8247 115.17 82.9484C116.974 84.3901 118.291 86.3439 118.945 88.548C118.968 88.6791 119.017 88.8042 119.091 88.9159C119.164 89.0275 119.259 89.1234 119.37 89.1978C119.482 89.2722 119.607 89.3235 119.739 89.3487C119.871 89.3739 120.007 89.3725 120.138 89.3445Z" fill="#FEF3D5"/>
<path d="M120.778 79.6247C125.647 76.1092 127.955 71.0274 125.931 68.2741C123.908 65.5208 118.319 66.1386 113.45 69.6541C108.58 73.1697 106.272 78.2515 108.296 81.0048C110.319 83.7581 115.908 83.1402 120.778 79.6247Z" fill="#E5CDA6"/>
<path d="M118.797 66.8027H118.31C118.061 66.8449 117.817 66.9095 117.58 66.9958C116.887 67.2525 116.226 67.5844 115.607 67.9854L115.266 68.2026C114.535 68.8543 113.659 69.337 112.831 69.9645C112.525 70.2402 112.19 70.483 111.832 70.6886L111.637 70.7369C110.541 71.6058 109.47 72.523 108.374 73.3677C108.788 74.1642 109.226 74.9607 109.665 75.7813C110.103 76.6019 110.736 77.3743 111.223 78.1949C111.71 79.0155 112.173 79.7155 112.709 80.4637L114.121 82.3704C114.376 82.3834 114.618 82.4861 114.803 82.6601C116.698 84.1437 118.133 86.1261 118.943 88.3803C118.972 88.5304 119.031 88.6731 119.118 88.7995C119.204 88.9258 119.316 89.0332 119.446 89.1147C119.577 89.1963 119.723 89.2503 119.875 89.2734C120.027 89.2966 120.183 89.2883 120.332 89.2492C121.952 88.8441 123.526 88.2781 125.032 87.5597C125.298 87.4113 125.575 87.2823 125.86 87.1735L126.055 87.0528C126.517 86.7632 126.956 86.4494 127.394 86.1357C128.091 85.6739 128.744 85.1486 129.342 84.5668C129.951 83.9634 130.463 83.2876 131.023 82.6601C131.583 82.0325 131.778 81.8636 132.167 81.4533C132.169 81.2809 132.131 81.1105 132.055 80.9555C131.979 80.8005 131.867 80.6652 131.729 80.5602C129.744 79.0611 127.96 77.3173 126.42 75.371C126.146 74.9952 125.978 74.5536 125.933 74.0918C125.769 73.9841 125.622 73.8541 125.495 73.7056C124.277 72.0644 123.059 70.4714 121.647 68.8784L120.697 67.8406C120.116 67.4075 119.477 67.0581 118.797 66.8027Z" fill="#FEF3D5"/>
<path d="M125.934 87.1229C126.421 86.8333 126.908 86.4713 127.371 86.1334L128.637 85.1679C128.665 84.9558 128.613 84.741 128.491 84.5645L115.145 68.2969C114.439 68.9003 113.635 69.383 112.88 69.9623C112.574 70.2379 112.239 70.4807 111.882 70.6863L111.443 70.8794L124.96 87.3643H125.179C125.424 87.2655 125.676 87.1848 125.934 87.1229Z" fill="#E9DEC2"/>
<path d="M125.603 115.269C129.425 112.544 132.247 108.651 133.633 104.191C133.688 103.943 133.648 103.684 133.52 103.465C133.392 103.246 133.187 103.083 132.943 103.008C130.734 102.371 128.623 101.444 126.664 100.25C126.372 100.068 126.123 99.8261 125.933 99.5401C125.743 99.2541 125.617 98.9308 125.563 98.5918C125.509 98.2528 125.529 97.9058 125.621 97.574C125.713 97.2423 125.875 96.9333 126.096 96.6678C127.026 95.4692 127.582 94.0272 127.694 92.5216C127.807 91.016 127.471 89.5135 126.728 88.2016C123.58 81.5767 110.815 77.6931 102.157 91.5469C93.4989 105.401 100.889 113.627 100.889 113.627C100.889 113.627 107.756 123.14 117.557 111.51C117.675 111.332 117.845 111.195 118.045 111.118C118.245 111.042 118.464 111.029 118.67 111.082C120.872 111.78 122.803 113.131 124.203 114.954C124.272 115.068 124.363 115.167 124.472 115.245C124.58 115.323 124.703 115.378 124.834 115.407C124.965 115.437 125.1 115.44 125.232 115.416C125.364 115.392 125.491 115.342 125.603 115.269Z" fill="#FEF3D5"/>
<path d="M122.711 105.967C125.994 100.938 126.324 95.3663 123.447 93.5227C120.57 91.6791 115.576 94.2614 112.292 99.2905C109.009 104.32 108.679 109.891 111.556 111.735C114.433 113.578 119.427 110.996 122.711 105.967Z" fill="#E5CDA6"/>
<path d="M116.262 94.7102L115.807 94.885C115.59 95.0137 115.385 95.1618 115.195 95.3275C114.641 95.8155 114.142 96.3627 113.709 96.9591L113.469 97.2842C113.02 98.1547 112.375 98.9199 111.828 99.8028C111.641 100.17 111.416 100.517 111.156 100.837L110.991 100.952C110.28 102.156 109.609 103.397 108.889 104.579C109.562 105.174 110.257 105.76 110.96 106.368C111.664 106.977 112.532 107.471 113.281 108.062C114.031 108.653 114.714 109.14 115.482 109.646L117.485 110.919C117.728 110.84 117.99 110.849 118.225 110.945C120.526 111.649 122.577 112.985 124.143 114.798C124.223 114.928 124.33 115.04 124.456 115.126C124.582 115.213 124.725 115.273 124.876 115.303C125.027 115.332 125.182 115.33 125.333 115.297C125.483 115.264 125.625 115.201 125.75 115.111C127.117 114.151 128.384 113.058 129.531 111.847C129.726 111.613 129.938 111.393 130.165 111.189L130.304 111.006C130.632 110.57 130.928 110.12 131.225 109.67C131.71 108.988 132.13 108.264 132.48 107.506C132.832 106.724 133.067 105.91 133.364 105.123C133.662 104.337 133.783 104.109 134 103.586C133.939 103.425 133.842 103.279 133.716 103.162C133.589 103.045 133.436 102.958 133.27 102.91C130.879 102.223 128.588 101.236 126.452 99.9719C126.061 99.7195 125.746 99.3677 125.538 98.9527C125.347 98.9109 125.163 98.8425 124.991 98.7496C123.265 97.6547 121.557 96.6049 119.667 95.625L118.408 94.9972C117.71 94.8013 116.988 94.7047 116.262 94.7102Z" fill="#FEF3D5"/>
<path d="M130.215 111.115C130.566 110.67 130.891 110.157 131.201 109.676L132.037 108.32C131.987 108.112 131.861 107.931 131.684 107.81L113.389 97.4156C112.946 98.2323 112.369 98.9712 111.872 99.7829C111.686 100.15 111.46 100.497 111.2 100.817L110.86 101.155L129.393 111.69L129.597 111.612C129.791 111.431 129.997 111.265 130.215 111.115Z" fill="#E9DEC2"/>
<path d="M147.304 122.607C150.664 119.329 152.856 115.05 153.543 110.43C153.559 110.176 153.48 109.927 153.32 109.73C153.16 109.533 152.932 109.404 152.68 109.367C150.4 109.076 148.171 108.483 146.053 107.603C145.736 107.468 145.453 107.267 145.222 107.013C144.99 106.76 144.816 106.46 144.711 106.133C144.606 105.806 144.572 105.46 144.612 105.118C144.652 104.776 144.765 104.446 144.942 104.15C145.678 102.823 146.007 101.313 145.887 99.8079C145.768 98.3029 145.206 96.8696 144.271 95.6869C140.146 89.6222 126.936 87.7393 120.502 102.756C114.068 117.772 122.63 124.769 122.63 124.769C122.63 124.769 130.873 133.118 138.777 120.125C138.866 119.931 139.014 119.77 139.2 119.663C139.386 119.556 139.6 119.51 139.812 119.531C142.095 119.884 144.21 120.923 145.873 122.51C145.958 122.612 146.064 122.696 146.183 122.756C146.302 122.817 146.432 122.853 146.565 122.862C146.699 122.871 146.833 122.853 146.96 122.809C147.087 122.765 147.204 122.697 147.304 122.607Z" fill="#FEF3D5"/>
<path d="M143.022 113.857C145.497 108.384 144.97 102.828 141.845 101.446C138.719 100.065 134.179 103.382 131.705 108.855C129.23 114.327 129.757 119.883 132.883 121.265C136.008 122.646 140.548 119.329 143.022 113.857Z" fill="#E5CDA6"/>
<path d="M134.925 103.721L134.503 103.964C134.308 104.124 134.128 104.302 133.965 104.495C133.492 105.062 133.083 105.679 132.746 106.335L132.559 106.693C132.249 107.622 131.729 108.477 131.323 109.433C131.195 109.824 131.025 110.202 130.817 110.558L130.672 110.697C130.154 111.996 129.681 113.325 129.151 114.603C129.906 115.088 130.683 115.56 131.471 116.054C132.26 116.548 133.193 116.902 134.024 117.372C134.855 117.841 135.605 118.218 136.442 118.601L138.616 119.552C138.843 119.436 139.104 119.405 139.351 119.464C141.733 119.808 143.964 120.813 145.789 122.365C145.888 122.481 146.011 122.576 146.149 122.642C146.287 122.709 146.437 122.746 146.591 122.752C146.744 122.758 146.898 122.732 147.041 122.676C147.185 122.621 147.316 122.536 147.425 122.428C148.629 121.271 149.713 119.996 150.662 118.624C150.819 118.363 150.995 118.113 151.188 117.877L151.297 117.675C151.554 117.194 151.778 116.703 152.002 116.213C152.377 115.465 152.682 114.685 152.911 113.883C153.139 113.056 153.247 112.216 153.42 111.393C153.594 110.57 153.679 110.326 153.812 109.776C153.728 109.626 153.61 109.497 153.467 109.401C153.324 109.304 153.16 109.242 152.988 109.22C150.52 108.907 148.105 108.282 145.801 107.36C145.376 107.171 145.01 106.872 144.742 106.493C144.546 106.481 144.353 106.442 144.169 106.376C142.296 105.559 140.447 104.783 138.429 104.104L137.089 103.676C136.37 103.59 135.641 103.605 134.925 103.721Z" fill="#FEF3D5"/>
<path d="M151.226 117.797C151.504 117.303 151.747 116.747 151.98 116.224L152.598 114.756C152.517 114.558 152.365 114.398 152.171 114.305L132.5 106.836C132.188 107.711 131.731 108.529 131.364 109.407C131.236 109.799 131.066 110.176 130.858 110.532L130.574 110.918L150.501 118.491L150.691 118.382C150.855 118.174 151.034 117.979 151.226 117.797Z" fill="#E9DEC2"/>
<path d="M124.394 99.5681C125.757 107.338 137.229 110.416 142.795 110.984C144.328 111.184 163.581 114.562 174.827 105.191C186.072 95.82 201.406 95.4792 209.584 95.9904C217.763 96.5015 221.682 95.1385 229.86 89.8566C236.403 85.6312 234.29 73.1024 232.416 67.3662C232.132 64.356 226.657 56.0185 207.029 46.7497C187.401 37.481 160.798 44.8187 149.951 49.6462C143.022 52.0316 128.21 59.9373 124.394 72.4774C119.623 88.1525 122.69 89.8564 124.394 99.5681Z" fill="#86302F"/>
<path d="M127.387 91.893C118.786 69.3869 143.142 52.8703 156.395 47.4253C165.131 42.7786 184.266 42.1011 192.741 42.3432C226.356 50.3293 233.864 75.0134 229.94 82.0919C226.8 87.7548 199.282 90.9855 185.915 91.893C169.989 101.271 135.987 114.399 127.387 91.893Z" fill="#AE252B"/>
<path d="M131.042 78.9536C133.495 63.8237 146.831 54.021 153.192 51.011C186.927 37.21 191.868 41.8103 214.7 51.011C237.531 60.2116 231.738 75.7163 223.9 80.9982C217.63 85.2237 199.024 85.2577 190.505 84.7466C187.609 87.1887 177.113 93.2998 158.303 98.2068C139.493 103.114 132.291 87.4159 131.042 78.9536Z" fill="#E52D33"/>
<ellipse cx="153.191" cy="76.889" rx="10.5637" ry="6.64489" fill="#F7C9A3"/>
<path d="M296.092 165.213H506.4" stroke="#C4C4C4" stroke-width="5" stroke-linecap="round" stroke-linejoin="round"/>
<path d="M296.198 30C296.198 14.8122 308.51 2.5 323.698 2.5H478.396C493.584 2.5 505.896 14.8122 505.896 30V286.424H296.198V30Z" stroke="#C4C4C4" stroke-width="5"/>
<rect x="311.257" y="181.176" width="158.828" height="12.7701" rx="6.38506" fill="#C4C4C4"/>
<rect x="311.257" y="201.129" width="92.5834" height="12.7701" rx="6.38506" fill="#C4C4C4"/>
<rect x="311.257" y="241.834" width="67.0432" height="12.7701" rx="6.38506" fill="#C4C4C4"/>
<rect x="311.257" y="262.586" width="78.217" height="12.7701" rx="6.38506" fill="#C4C4C4"/>
<path d="M326.812 110.81C316.589 67.649 348.298 46.2578 365.43 40.9573C370.427 35.9597 394.961 33.3852 406.603 32.7227C460.838 34.4264 475.036 58.8464 478.443 63.3897C481.851 67.9329 490.085 110.81 468.505 131.823C451.24 148.633 423.072 154.728 411.146 155.675C387.294 158.704 337.034 153.971 326.812 110.81Z" fill="#885A4A"/>
<path d="M345.503 119.583C320.288 107.77 325.532 79.8293 331.305 67.3353C346.525 44.3919 377.211 34.8699 390.652 32.9768C407.973 31.9357 446.932 33.5448 464.196 48.3104C485.777 66.7674 488.332 90.0516 464.196 111.916C440.06 133.781 377.022 134.348 345.503 119.583Z" fill="#603932"/>
<path d="M425.628 46.6363L423.784 42.377C408.563 52.5993 414.413 64.4307 419.241 69.0686L420.944 64.5254C413.913 60.3972 420.858 46.8933 425.628 46.6363Z" fill="#016A2D"/>
<path d="M425.627 46.636L424.207 43.2285C410.011 53.7348 416.131 64.5774 419.664 67.9325L421.083 64.5251C415.939 61.5387 422.136 46.8219 425.627 46.636Z" fill="#A3B164"/>
<path d="M418.246 38.6851L416.401 34.4258C401.181 44.6481 407.03 56.4795 411.858 61.1175L413.561 56.5742C406.53 52.446 413.476 38.9422 418.246 38.6851Z" fill="#016A2D"/>
<path d="M418.244 38.6848L416.824 35.2773C402.628 45.7836 408.749 56.6263 412.281 59.9813L413.701 56.5739C408.556 53.5876 414.754 38.8708 418.244 38.6848Z" fill="#A3B164"/>
<path d="M413.784 73.243L417.953 75.2847C422.892 57.6282 410.761 52.4275 404.078 52.0342L405.733 56.5957C413.76 55.1706 417.245 69.9505 413.784 73.243Z" fill="#016A2D"/>
<path d="M413.786 73.243L417.078 74.9129C421.054 57.7054 409.359 53.4323 404.495 53.1739L405.627 56.6873C411.479 55.6184 416.32 70.8354 413.786 73.243Z" fill="#A3B164"/>
<path d="M417.831 62.5338L415.826 58.3471C401.003 69.1365 407.295 80.7387 412.294 85.1912L413.825 80.5869C406.643 76.727 413.074 62.9707 417.831 62.5338Z" fill="#016A2D"/>
<path d="M417.828 62.5339L416.281 59.1825C402.492 70.2169 409.016 80.8209 412.673 84.0403L413.963 80.5817C408.709 77.7916 414.347 62.8515 417.828 62.5339Z" fill="#A3B164"/>
<path d="M416.695 55.7193L414.691 51.5327C399.867 62.322 406.159 73.9243 411.158 78.3768L412.689 73.7725C405.507 69.9125 411.938 56.1562 416.695 55.7193Z" fill="#016A2D"/>
<path d="M416.692 55.7195L415.145 52.368C401.356 63.4025 407.881 74.0064 411.537 77.2259L412.827 73.7673C407.574 70.9772 413.211 56.037 416.692 55.7195Z" fill="#A3B164"/>
<path d="M406.401 59.6141L410.57 61.6558C415.509 43.9993 403.378 38.7986 396.696 38.4053L398.35 42.9668C406.377 41.5417 409.863 56.3216 406.401 59.6141Z" fill="#016A2D"/>
<path d="M406.403 59.6121L409.695 61.2821C413.671 44.0745 401.977 39.8015 397.112 39.543L398.244 43.0564C404.096 41.9876 408.937 57.2046 406.403 59.6121Z" fill="#A3B164"/>
<path d="M417.192 59.0458L421.361 61.0875C426.3 43.4309 414.169 38.2302 407.487 37.837L409.141 42.3984C417.168 40.9733 420.654 55.7532 417.192 59.0458Z" fill="#016A2D"/>
<path d="M417.193 59.0438L420.485 60.7137C424.461 43.5062 412.767 39.2331 407.902 38.9747L409.034 42.4881C414.886 41.4192 419.727 56.6362 417.193 59.0438Z" fill="#A3B164"/>
<path d="M418.556 54.4924L418.645 49.8515C400.555 52.8346 400.966 66.0268 403.433 72.2499L406.869 68.8235C402.185 62.1495 414.109 52.7464 418.556 54.4924Z" fill="#016A2D"/>
<path d="M418.554 54.4925L418.677 50.8033C401.401 54.4698 402.469 66.8746 404.29 71.3931L406.996 68.8823C403.555 64.0301 415.301 53.2131 418.554 54.4925Z" fill="#A3B164"/>
<path d="M413.444 49.381L413.534 44.7402C395.444 47.7233 395.855 60.9154 398.322 67.1386L401.757 63.7122C397.074 57.0382 408.998 47.6351 413.444 49.381Z" fill="#016A2D"/>
<path d="M413.443 49.3812L413.566 45.692C396.289 49.3585 397.357 61.7633 399.178 66.2818L401.884 63.771C398.443 58.9187 410.19 48.1017 413.443 49.3812Z" fill="#A3B164"/>
<path d="M440.136 59.0353L440.225 54.3945C422.135 57.3776 422.546 70.5697 425.013 76.7929L428.449 73.3665C423.766 66.6925 435.689 57.2894 440.136 59.0353Z" fill="#016A2D"/>
<path d="M440.134 59.0355L440.257 55.3463C422.981 59.0128 424.049 71.4176 425.87 75.9361L428.576 73.4253C425.135 68.573 436.881 57.756 440.134 59.0355Z" fill="#A3B164"/>
<path d="M432.335 64.1469L436.964 63.8029C432.306 46.0701 419.209 47.7107 413.244 50.7476L416.976 53.8484C423.184 48.5627 433.658 59.5569 432.335 64.1469Z" fill="#016A2D"/>
<path d="M432.336 64.1439L436.021 63.9219C430.758 47.0633 418.507 49.284 414.179 51.5188L416.931 53.9786C421.441 50.0998 433.307 60.786 432.336 64.1439Z" fill="#A3B164"/>
<path d="M435.743 55.6274L440.372 55.2833C435.714 37.5506 422.618 39.1912 416.652 42.228L420.384 45.3288C426.592 40.0432 437.066 51.0374 435.743 55.6274Z" fill="#016A2D"/>
<path d="M435.744 55.6263L439.428 55.4043C434.166 38.5458 421.915 40.7664 417.586 43.0012L420.338 45.4611C424.848 41.5823 436.714 52.2685 435.744 55.6263Z" fill="#A3B164"/>
<path d="M434.039 60.7387L438.668 60.3947C434.01 42.6619 420.914 44.3025 414.948 47.3394L418.68 50.4402C424.888 45.1545 435.362 56.1487 434.039 60.7387Z" fill="#016A2D"/>
<path d="M434.041 60.7377L437.725 60.5157C432.463 43.6571 420.212 45.8778 415.883 48.1125L418.635 50.5724C423.145 46.6936 435.011 57.3798 434.041 60.7377Z" fill="#A3B164"/>
<path d="M423.705 77.2962L427.38 80.1311C435.754 63.8207 424.91 56.2969 418.441 54.5738L419.148 59.374C427.299 59.5848 427.755 74.7632 423.705 77.2962Z" fill="#016A2D"/>
<path d="M423.707 77.2946L426.598 79.5898C433.938 63.5264 423.335 56.9988 418.621 55.7717L419.027 59.4407C424.974 59.5649 426.671 75.443 423.707 77.2946Z" fill="#A3B164"/>
<path d="M429.952 78.4329L433.627 81.2678C442.001 64.9574 431.157 57.4336 424.688 55.7105L425.396 60.5107C433.546 60.7215 434.002 75.8999 429.952 78.4329Z" fill="#016A2D"/>
<path d="M429.954 78.4333L432.845 80.7284C440.185 64.6651 429.582 58.1375 424.868 56.9104L425.274 60.5794C431.221 60.7036 432.918 76.5817 429.954 78.4333Z" fill="#A3B164"/>
<path d="M434.126 69.1283L435.799 73.4577C451.414 63.8493 446.04 51.7944 441.401 46.968L439.518 51.4399C446.379 55.8446 438.902 69.0613 434.126 69.1283Z" fill="#016A2D"/>
<path d="M434.127 69.1285L435.41 72.5897C450.013 62.6568 444.329 51.5792 440.934 48.0862L439.379 51.4344C444.401 54.6232 437.622 69.0816 434.127 69.1285Z" fill="#A3B164"/>
<path d="M434.033 84.101L435.707 88.4303C451.322 78.8219 445.947 66.767 441.309 61.9407L439.426 66.4125C446.287 70.8173 438.809 84.034 434.033 84.101Z" fill="#016A2D"/>
<path d="M434.036 84.1012L435.318 87.5624C449.921 77.6295 444.238 66.5519 440.842 63.0588L439.287 66.4071C444.309 69.5958 437.531 84.0543 434.036 84.1012Z" fill="#A3B164"/>
<path d="M418.984 71.5995L414.356 71.948C419.03 89.6763 432.125 88.0233 438.088 84.9808L434.353 81.8835C428.15 87.1751 417.665 76.1908 418.984 71.5995Z" fill="#016A2D"/>
<path d="M418.984 71.5998L415.299 71.8253C420.578 88.6789 432.827 86.4466 437.153 84.2078L434.399 81.7505C429.892 85.6336 418.016 74.9586 418.984 71.5998Z" fill="#A3B164"/>
<path d="M421.823 64.7831L417.194 65.1316C421.869 82.8599 434.964 81.2069 440.927 78.1644L437.192 75.0671C430.989 80.3587 420.504 69.3744 421.823 64.7831Z" fill="#016A2D"/>
<path d="M421.823 64.7854L418.139 65.0109C423.418 81.8644 435.666 79.6322 439.993 77.3933L437.238 74.936C432.732 78.8191 420.856 68.1442 421.823 64.7854Z" fill="#A3B164"/>
<path d="M428.07 56.2656L423.442 56.614C428.116 74.3424 441.211 72.6894 447.174 69.6468L443.439 66.5496C437.236 71.8411 426.751 60.8568 428.07 56.2656Z" fill="#016A2D"/>
<path d="M428.07 56.2658L424.386 56.4913C429.665 73.3449 441.913 71.1126 446.24 68.8738L443.486 66.4165C438.979 70.2996 427.103 59.6246 428.07 56.2658Z" fill="#A3B164"/>
<path d="M442.551 80.1264L444.225 84.4557C459.84 74.8473 454.466 62.7924 449.827 57.966L447.944 62.4379C454.805 66.8427 447.328 80.0594 442.551 80.1264Z" fill="#016A2D"/>
<path d="M442.554 80.1265L443.837 83.5878C458.44 73.6549 452.756 62.5773 449.36 59.0842L447.806 62.4325C452.828 65.6212 446.049 80.0797 442.554 80.1265Z" fill="#A3B164"/>
<path d="M436.906 73.8861L435.811 78.3969C454.118 79.4109 456.579 66.4438 455.521 59.8336L451.424 62.4328C454.547 69.9641 440.867 76.5554 436.906 73.8861Z" fill="#016A2D"/>
<path d="M436.907 73.8861L435.987 77.4608C453.647 77.6309 455.296 65.2901 454.499 60.484L451.313 62.3478C453.619 67.8311 439.805 75.841 436.907 73.8861Z" fill="#A3B164"/>
<path d="M431.319 69.9329L430.224 74.4438C448.531 75.4577 450.992 62.4907 449.935 55.8805L445.837 58.4796C448.961 66.011 435.28 72.6023 431.319 69.9329Z" fill="#016A2D"/>
<path d="M431.32 69.933L430.4 73.5077C448.06 73.6778 449.709 61.337 448.912 56.5309L445.726 58.3946C448.032 63.878 434.218 71.8879 431.32 69.933Z" fill="#A3B164"/>
<path d="M465.246 83.9536L460.656 85.9957C464.308 94.7421 457.919 107.181 453.931 113.089L456.238 115.629C470.341 102.412 467.622 89.2029 465.246 83.9536Z" fill="#AB191A"/>
<path d="M466.738 83.3599L462.148 85.4019C465.8 94.1484 458.737 108.152 454.749 114.06L456.237 115.629C470.341 102.412 469.114 88.6091 466.738 83.3599Z" fill="#DB4E19"/>
<path d="M462.802 104.474L460.333 100.099C451.973 104.565 438.984 99.386 432.723 95.9769L430.414 98.5146C444.911 111.299 457.802 107.338 462.802 104.474Z" fill="#AB191A"/>
<path d="M463.534 105.903L461.066 101.528C452.705 105.995 438.095 100.293 431.834 96.8842L430.414 98.5149C444.911 111.3 458.534 108.768 463.534 105.903Z" fill="#DB4E19"/>
<path d="M469.74 105.104L471.739 100.496C463.133 96.5244 459.425 83.0413 458.366 75.992L454.949 75.682C453.502 94.9566 464.439 102.846 469.74 105.104Z" fill="#AB191A"/>
<path d="M469.044 106.552L471.043 101.943C462.437 97.9716 458.167 82.8802 457.107 75.8309L454.95 75.6823C453.503 94.957 463.743 104.293 469.044 106.552Z" fill="#DB4E19"/>
<path d="M408.46 81.0338L405.551 85.13C413.151 90.7939 413.994 104.752 413.573 111.868L416.853 112.878C422.251 94.3179 413.179 84.339 408.46 81.0338Z" fill="#AB191A"/>
<path d="M409.441 79.7623L406.533 83.8585C414.133 89.5224 415.192 105.17 414.772 112.286L416.852 112.878C422.251 94.318 414.161 83.0675 409.441 79.7623Z" fill="#DB4E19"/>
<path d="M407.807 93.1832L408.606 98.143C417.997 96.8512 428.385 106.212 433.076 111.579L436.121 110C426.955 92.9824 413.49 92.2298 407.807 93.1832Z" fill="#AB191A"/>
<path d="M407.615 91.5895L408.414 96.5492C417.804 95.2575 429.533 105.67 434.223 111.038L436.121 110.001C426.955 92.9834 413.298 90.636 407.615 91.5895Z" fill="#DB4E19"/>
<path d="M447.469 112.427L445 108.052C436.64 112.518 423.651 107.339 417.39 103.93L415.081 106.468C429.578 119.252 442.469 115.291 447.469 112.427Z" fill="#AB191A"/>
<path d="M448.201 113.857L445.733 109.481C437.372 113.948 422.762 108.246 416.501 104.837L415.081 106.468C429.578 119.253 443.201 116.721 448.201 113.857Z" fill="#DB4E19"/>
<path d="M450.681 82.2949L445.659 82.1743C445.213 91.6422 434.112 100.146 427.977 103.776L428.974 107.059C447.38 101.157 450.58 88.0561 450.681 82.2949Z" fill="#AB191A"/>
<path d="M452.284 82.3984L447.261 82.2778C446.816 91.7457 434.435 101.374 428.301 105.005L428.974 107.06C447.379 101.158 452.183 88.1596 452.284 82.3984Z" fill="#DB4E19"/>
<path d="M438.302 100.552L443.221 101.571C445.356 92.336 457.802 85.9593 464.487 83.4864L464.095 80.0779C444.93 82.5871 439.434 94.9024 438.302 100.552Z" fill="#AB191A"/>
<path d="M436.743 100.164L441.663 101.182C443.798 91.9473 457.703 84.6929 464.389 82.22L464.095 80.0775C444.93 82.5867 437.875 94.5137 436.743 100.164Z" fill="#DB4E19"/>
<path d="M456.09 88.8457L451.068 88.725C450.622 98.193 439.521 106.696 433.387 110.327L434.383 113.61C452.789 107.708 455.989 94.6069 456.09 88.8457Z" fill="#AB191A"/>
<path d="M457.693 88.9492L452.671 88.8286C452.225 98.2965 439.844 107.925 433.71 111.556L434.383 113.611C452.789 107.708 457.592 94.7104 457.693 88.9492Z" fill="#DB4E19"/>
<path d="M418.457 99.7601L423.346 100.916C425.738 91.7444 438.357 85.7183 445.109 83.4334L444.812 80.0153C425.584 81.9874 419.746 94.1441 418.457 99.7601Z" fill="#AB191A"/>
<path d="M416.91 99.3285L421.799 100.484C424.191 91.3128 438.294 84.4501 445.046 82.1652L444.813 80.0154C425.584 81.9875 418.199 93.7125 416.91 99.3285Z" fill="#DB4E19"/>
<path d="M408.22 115.105L413.228 114.719C412.716 105.254 422.903 95.6737 428.639 91.4423L427.316 88.2766C409.601 96.0066 407.739 109.363 408.22 115.105Z" fill="#AB191A"/>
<path d="M406.614 115.164L411.623 114.777C411.111 105.313 422.456 94.4837 428.193 90.2523L427.316 88.2756C409.6 96.0056 406.133 109.422 406.614 115.164Z" fill="#DB4E19"/>
<path d="M470.72 83.9621L465.739 83.3056C464.285 92.6717 452.339 99.9405 445.851 102.895L446.492 106.266C465.423 102.363 470.004 89.6795 470.72 83.9621Z" fill="#AB191A"/>
<path d="M472.304 84.2375L467.323 83.581C465.869 92.9471 452.53 101.198 446.043 104.153L446.493 106.268C465.424 102.365 471.588 89.9549 472.304 84.2375Z" fill="#DB4E19"/>
<path d="M435.175 91.8251L433.419 96.5318C442.221 100.049 446.627 113.32 448.052 120.305L451.481 120.436C451.921 101.112 440.587 93.8044 435.175 91.8251Z" fill="#AB191A"/>
<path d="M435.797 90.3447L434.041 95.0514C442.843 98.5685 447.894 113.417 449.319 120.401L451.482 120.437C451.922 101.113 441.209 92.3239 435.797 90.3447Z" fill="#DB4E19"/>
<path d="M447.417 113.732L450.108 109.489C442.223 104.229 440.654 90.3341 440.703 83.2058L437.376 82.3687C432.952 101.185 442.531 110.677 447.417 113.732Z" fill="#AB191A"/>
<path d="M446.503 115.052L449.194 110.81C441.309 105.55 439.435 89.9783 439.483 82.85L437.375 82.3681C432.952 101.184 441.617 111.997 446.503 115.052Z" fill="#DB4E19"/>
<path d="M413.114 124.451L418.123 124.064C417.611 114.6 427.797 105.019 433.534 100.788L432.211 97.6223C414.495 105.352 412.633 118.709 413.114 124.451Z" fill="#AB191A"/>
<path d="M411.509 124.51L416.517 124.123C416.006 114.658 427.351 103.829 433.088 99.598L432.211 97.6213C414.495 105.351 411.028 118.768 411.509 124.51Z" fill="#DB4E19"/>
<path d="M467.863 73.8059L462.882 73.1493C461.427 82.5155 449.481 89.7843 442.994 92.7389L443.634 96.1097C462.565 92.2072 467.147 79.5233 467.863 73.8059Z" fill="#AB191A"/>
<path d="M469.447 74.0812L464.466 73.4247C463.011 82.7909 449.673 91.0418 443.186 93.9964L443.635 96.1117C462.566 92.2092 468.731 79.7987 469.447 74.0812Z" fill="#DB4E19"/>
<path d="M429.454 96.0355L424.75 97.7984C427.871 106.748 420.747 118.781 416.411 124.44L418.561 127.113C433.433 114.766 431.511 101.418 429.454 96.0355Z" fill="#AB191A"/>
<path d="M430.979 95.5335L426.275 97.2964C429.396 106.246 421.505 119.801 417.17 125.459L418.561 127.114C433.433 114.767 433.036 100.916 430.979 95.5335Z" fill="#DB4E19"/>
<path d="M442.271 116.883L438.201 113.939C432.47 121.488 418.505 122.206 411.393 121.723L410.354 124.993C428.865 130.556 438.924 121.574 442.271 116.883Z" fill="#AB191A"/>
<path d="M443.533 117.875L439.463 114.931C433.731 122.48 418.075 123.401 410.963 122.918L410.353 124.992C428.864 130.556 440.186 122.566 443.533 117.875Z" fill="#DB4E19"/>
<path d="M387.656 100.705L390.889 100.545C391.654 116.067 396.006 124.762 398.086 127.17L395.111 129.037C392.617 125.789 389.102 108.795 387.656 100.705Z" fill="#F0A155"/>
<path d="M380.84 98.4331L384.074 98.2737C384.839 113.795 389.191 122.491 391.271 124.898L388.296 126.765C385.802 123.517 382.286 106.524 380.84 98.4331Z" fill="#F0A155"/>
<path d="M385.686 106.364L383.277 108.526C372.899 96.9593 364.039 92.952 360.907 92.3943L362.039 89.0695C366.023 90.0191 379.464 100.995 385.686 106.364Z" fill="#F0A155"/>
<path d="M372.274 101.186L372.584 97.9633C388.053 99.4497 397.286 96.4006 399.969 94.6902L401.386 97.9037C397.812 99.9021 380.489 100.925 372.274 101.186Z" fill="#F0A155"/>
<path d="M386.518 107.113L389.287 105.434C397.345 118.722 405.309 124.3 408.285 125.428L406.556 128.485C402.817 126.815 391.64 113.541 386.518 107.113Z" fill="#F3C45D"/>
<path d="M375.806 103.206L374.716 106.255C360.084 101.018 350.385 101.709 347.364 102.709L346.779 99.2458C350.734 98.1856 367.779 101.444 375.806 103.206Z" fill="#F3C45D"/>
<path d="M381.683 96.8223L380.422 93.8404C394.735 87.7876 401.405 80.7126 402.951 77.9317L405.727 80.0837C403.534 83.5421 388.784 92.6838 381.683 96.8223Z" fill="#F3C45D"/>
<path d="M336.979 103.799L335.718 100.817C350.031 94.7641 356.701 87.6891 358.247 84.9082L361.023 87.0603C358.83 90.5187 344.079 99.6603 336.979 103.799Z" fill="#F3C45D"/>
<path d="M387.655 100.298L390.423 98.6194C398.481 111.907 406.446 117.485 409.421 118.613L407.693 121.671C403.954 120 392.776 106.726 387.655 100.298Z" fill="#F3C45D"/>
<path d="M379.221 109.212L378.13 112.26C363.498 107.024 353.799 107.715 350.778 108.715L350.193 105.252C354.148 104.191 371.193 107.45 379.221 109.212Z" fill="#F3C45D"/>
<path d="M365.584 108.138L364.493 111.186C349.861 105.95 340.162 106.641 337.142 107.641L336.556 104.177C340.512 103.117 357.556 106.376 365.584 108.138Z" fill="#F3C45D"/>
<path d="M375.104 94.7129L373.843 91.731C388.156 85.6782 394.826 78.6032 396.372 75.8223L399.148 77.9743C396.955 81.4328 382.204 90.5744 375.104 94.7129Z" fill="#F3C45D"/>
<path d="M401.423 93.0403L403.48 95.5402C391.48 105.415 387.098 114.095 386.408 117.201L383.134 115.928C384.253 111.988 395.793 99.028 401.423 93.0403Z" fill="#EF894E"/>
<path d="M377.924 124.441L374.801 123.589C378.89 108.596 377.451 98.9794 376.221 96.0452L379.628 95.1934C380.991 99.0551 379.06 116.301 377.924 124.441Z" fill="#EF894E"/>
<path d="M407.51 110.592C403.675 107.287 389.66 108.424 383.132 109.406L383.259 111.433L406.909 112.699L407.51 110.592Z" fill="#F4C35D"/>
<path d="M357.317 113.737C362.378 113.885 372.54 104.168 376.989 99.2911L375.612 97.7969L356.455 111.723L357.317 113.737Z" fill="#F4C35D"/>
<path d="M388.161 76.5541C384.335 79.8715 383.435 93.9032 383.463 100.504L385.488 100.672L390.158 77.4528L388.161 76.5541Z" fill="#F4C35D"/>
<path d="M384.387 107.686C379.324 107.686 369.45 117.696 365.146 122.702L366.566 124.155L385.307 109.673L384.387 107.686Z" fill="#F4C35D"/>
<path d="M408.709 102.93C406.542 98.3531 393.27 93.7121 386.904 91.9637L386.198 93.8687L407.306 104.612L408.709 102.93Z" fill="#F1A055"/>
<path d="M377.004 105.414C371.941 105.414 362.067 115.425 357.764 120.43L359.183 121.883L377.924 107.402L377.004 105.414Z" fill="#F1A055"/>
<path d="M384.264 98.5269C388.194 95.3352 389.549 81.34 389.735 74.7414L387.716 74.5082L382.296 97.5639L384.264 98.5269Z" fill="#F1A055"/>
<path d="M352.959 116.13C356.89 112.939 358.244 98.9435 358.43 92.3449L356.412 92.1117L350.992 115.167L352.959 116.13Z" fill="#F1A055"/>
<path d="M378.627 105.993C377.896 111.003 386.374 122.219 390.705 127.201L392.348 126.007L380.727 105.369L378.627 105.993Z" fill="#F1A055"/>
<path d="M392.337 97.4648C387.274 97.4648 377.4 107.476 373.097 112.481L374.516 113.934L393.257 99.4525L392.337 97.4648Z" fill="#F1A055"/>
<path d="M377.941 109.972C379.599 114.757 392.29 120.808 398.429 123.236L399.337 121.419L379.518 108.452L377.941 109.972Z" fill="#D77F28"/>
<path d="M408.714 106.939C405.594 102.951 391.626 101.343 385.032 101.038L384.762 103.052L407.716 108.888L408.714 106.939Z" fill="#D77F28"/>
<path d="M396.788 105.036C393.668 101.049 379.699 99.4411 373.105 99.1358L372.836 101.149L395.789 106.986L396.788 105.036Z" fill="#D77F28"/>
<path d="M359.875 115.456C356.755 111.468 342.786 109.861 336.192 109.556L335.922 111.569L358.876 117.406L359.875 115.456Z" fill="#D77F28"/>
<path d="M380.528 81.6249C380.789 86.6815 391.295 96.0265 396.515 100.067L397.893 98.5743L382.466 80.6035L380.528 81.6249Z" fill="#D77F28"/>
<path d="M358.687 117.333C363.623 118.462 375.48 110.905 380.792 106.985L379.732 105.252L358.233 115.19L358.687 117.333Z" fill="#D77F28"/>
<path d="M384.719 74.8354C380.322 77.3464 376.712 90.9358 375.457 97.4166L377.411 97.9744L386.504 76.1051L384.719 74.8354Z" fill="#D77F28"/>
<path d="M372.793 72.9331C368.396 75.444 364.787 89.0334 363.532 95.5143L365.485 96.0721L374.578 74.2028L372.793 72.9331Z" fill="#D77F28"/>
<path d="M381.706 121.689C386.747 122.162 397.512 113.117 402.265 108.536L400.987 106.956L380.975 119.624L381.706 121.689Z" fill="#D77F28"/>
<path d="M380.979 96.8965C375.915 96.8965 366.042 106.907 361.738 111.913L363.158 113.366L381.899 98.8842L380.979 96.8965Z" fill="#D57C26"/>
<path d="M386.547 107.644C390.478 104.452 391.832 90.4572 392.018 83.8586L390 83.6254L384.58 106.681L386.547 107.644Z" fill="#D57C26"/>
<path d="M370.774 100.827C370.042 105.837 378.521 117.053 382.852 122.035L384.495 120.841L372.874 100.203L370.774 100.827Z" fill="#D57C26"/>
<path d="M358.847 98.9245C358.115 103.935 366.594 115.151 370.925 120.133L372.568 118.938L360.947 98.3011L358.847 98.9245Z" fill="#D57C26"/>
<path d="M408.059 108.437C411.538 104.758 411.048 90.7059 410.368 84.1398L408.336 84.1729L405.982 107.74L408.059 108.437Z" fill="#D57C26"/>
<path d="M396.881 105.414C391.818 105.414 381.944 115.425 377.641 120.43L379.06 121.883L397.801 107.402L396.881 105.414Z" fill="#D57C26"/>
<path d="M362.238 102.008C357.175 102.008 347.302 112.019 342.998 117.024L344.418 118.477L363.159 103.995L362.238 102.008Z" fill="#D57C26"/>
<path d="M398.015 86.7922L400.073 89.2921C388.073 99.167 383.691 107.847 383 110.953L379.727 109.68C380.846 105.74 392.385 92.78 398.015 86.7922Z" fill="#EF894E"/>
<path d="M379.691 126.227L376.518 125.583C379.609 110.354 377.539 100.853 376.117 98.0063L379.461 96.9314C381.076 100.695 380.288 118.03 379.691 126.227Z" fill="#EF894E"/>
<path d="M367.766 124.325L364.593 123.681C367.683 108.451 365.613 98.9506 364.192 96.104L367.535 95.0291C369.15 98.7925 368.362 116.128 367.766 124.325Z" fill="#EF894E"/>
<path d="M415.363 82.5265L417.589 84.8773C406.305 95.5627 402.538 104.527 402.065 107.673L398.711 106.63C399.553 102.623 410.163 88.8913 415.363 82.5265Z" fill="#EF894E"/>
<path d="M360.62 80.9875L362.846 83.3383C351.562 94.0237 347.795 102.988 347.321 106.134L343.967 105.091C344.809 101.084 355.42 87.3522 360.62 80.9875Z" fill="#EF894E"/>
<path d="M363.237 82.5113L366.008 80.837C374.045 94.1377 382.001 99.728 384.974 100.861L383.241 103.916C379.505 102.239 368.348 88.9476 363.237 82.5113Z" fill="#EF894E"/>
<path d="M351.311 80.609L354.082 78.9346C362.119 92.2354 370.075 97.8257 373.049 98.9582L371.315 102.013C367.579 100.337 356.422 87.0452 351.311 80.609Z" fill="#EF894E"/>
<path d="M336.546 99.7262L339.317 98.0518C347.354 111.353 355.31 116.943 358.283 118.075L356.55 121.13C352.813 119.454 341.657 106.162 336.546 99.7262Z" fill="#EF894E"/>
<path d="M403.697 127.756L400.467 127.534C401.537 112.03 398.241 102.882 396.459 100.246L399.633 98.7429C401.727 102.262 403.215 119.552 403.697 127.756Z" fill="#EF894E"/>
<path d="M388.999 46.3516C383.32 48.1499 370.598 50.6677 365.146 46.3516C368.081 47.1088 376.959 48.1689 388.999 46.3516Z" fill="#F8F7F1"/>
<path d="M355.657 50.3424C361.614 50.2657 374.519 51.54 378.487 57.25C375.898 55.6755 367.707 52.0896 355.657 50.3424Z" fill="#F8F7F1"/>
<path d="M354.522 61.6998C360.478 61.6231 373.383 62.8974 377.352 68.6074C374.762 67.0329 366.572 63.4471 354.522 61.6998Z" fill="#F8F7F1"/>
<path d="M355.628 71.157C359.472 66.6065 368.889 57.691 375.803 58.4336C372.917 59.3583 364.842 63.1976 355.628 71.157Z" fill="#F8F7F1"/>
<path d="M339.158 84.2195C343.002 79.669 352.419 70.7535 359.333 71.4961C356.447 72.4208 348.372 76.2601 339.158 84.2195Z" fill="#F8F7F1"/>
<path d="M339.692 75.4708C345.457 73.9701 358.292 72.1172 363.512 76.7109C360.621 75.8022 351.81 74.2819 339.692 75.4708Z" fill="#F8F7F1"/>
<path d="M389.567 62.8223C383.888 64.6206 371.167 67.1384 365.715 62.8223C368.649 63.5795 377.527 64.6396 389.567 62.8223Z" fill="#F8F7F1"/>
<path d="M400.871 62.0025C394.96 61.2621 382.351 58.2313 379.203 52.0312C381.552 53.9457 389.174 58.6203 400.871 62.0025Z" fill="#F8F7F1"/>
<path d="M399.735 73.3599C393.824 72.6195 381.216 69.5887 378.067 63.3887C380.416 65.3032 388.038 69.9777 399.735 73.3599Z" fill="#F8F7F1"/>
<path d="M394.058 44.6362C389.626 48.617 379.076 56.1577 372.329 54.4746C375.314 53.9541 383.84 51.2578 394.058 44.6362Z" fill="#F8F7F1"/>
<path d="M377.589 57.6987C373.157 61.6795 362.607 69.2202 355.86 67.5371C358.846 67.0166 367.371 64.3203 377.589 57.6987Z" fill="#F8F7F1"/>
<path d="M386.382 75.9676C380.466 76.664 367.498 76.7404 362.957 71.4746C365.696 72.771 374.216 75.4845 386.382 75.9676Z" fill="#F8F7F1"/>
<path d="M367.366 65.4107C361.455 64.6703 348.847 61.6395 345.698 55.4395C348.047 57.3539 355.669 62.0285 367.366 65.4107Z" fill="#F8F7F1"/>
<path d="M344.135 75.8828C350.062 75.2891 363.029 75.4375 367.479 80.7812C364.762 79.4376 356.291 76.5768 344.135 75.8828Z" fill="#F8F7F1"/>
<path d="M361.171 74.1797C355.492 75.9781 342.771 78.4958 337.319 74.1797C340.254 74.9369 349.132 75.997 361.171 74.1797Z" fill="#F8F7F1"/>
<path d="M366.154 64.8723C371.699 62.6954 384.222 59.3266 389.952 63.2656C386.974 62.7078 378.044 62.2481 366.154 64.8723Z" fill="#F8F7F1"/>
<path d="M363.958 75.649C358.047 74.9086 345.438 71.8777 342.29 65.6777C344.639 67.5922 352.261 72.2668 363.958 75.649Z" fill="#F8F7F1"/>
<path d="M362.822 87.0084C356.911 86.268 344.303 83.2371 341.154 77.0371C343.503 78.9516 351.125 83.6262 362.822 87.0084Z" fill="#F8F7F1"/>
<path d="M380.186 81.4644C375.754 85.4451 365.204 92.9858 358.457 91.3027C361.442 90.7823 369.967 88.0859 380.186 81.4644Z" fill="#F8F7F1"/>
<path d="M363.716 94.5269C359.284 98.5076 348.734 106.048 341.987 104.365C344.973 103.845 353.498 101.148 363.716 94.5269Z" fill="#F8F7F1"/>
<path d="M353.81 98.0554C347.894 98.7519 334.926 98.8283 330.385 93.5625C333.124 94.8589 341.643 97.5724 353.81 98.0554Z" fill="#F8F7F1"/>
<path d="M377.084 54.3633C383.011 53.7695 395.978 53.918 400.428 59.2617C397.712 57.9181 389.24 55.0573 377.084 54.3633Z" fill="#F8F7F1"/>
<path d="M375.948 65.7227C381.876 65.1289 394.843 65.2773 399.292 70.6211C396.576 69.2774 388.105 66.4166 375.948 65.7227Z" fill="#F8F7F1"/>
<path d="M372.704 57.6036C376.138 52.7363 384.745 43.0366 391.697 43.1758C388.903 44.3477 381.192 48.8738 372.704 57.6036Z" fill="#F8F7F1"/>
<path d="M356.235 70.6661C359.669 65.7988 368.276 56.0991 375.229 56.2383C372.434 57.4102 364.723 61.9363 356.235 70.6661Z" fill="#F8F7F1"/>
<path d="M361.458 74.2457C367.071 72.2499 379.696 69.2892 385.296 73.4121C382.337 72.7579 373.427 72.0087 361.458 74.2457Z" fill="#F8F7F1"/>
<path d="M374.801 43.0059C380.728 42.4121 393.695 42.5606 398.145 47.9043C395.428 46.5606 386.957 43.6998 374.801 43.0059Z" fill="#F8F7F1"/>
<path d="M373.665 54.3633C379.592 53.7695 392.559 53.918 397.009 59.2617C394.293 57.9181 385.821 55.0573 373.665 54.3633Z" fill="#F8F7F1"/>
<path d="M355.023 85.4868C349.149 86.4785 336.202 87.2038 331.402 82.1719C334.203 83.3295 342.848 85.6132 355.023 85.4868Z" fill="#F8F7F1"/>
<path d="M362.626 51.8887C366.061 47.0215 374.668 37.3218 381.62 37.4609C378.826 38.6328 371.114 43.159 362.626 51.8887Z" fill="#F8F7F1"/>
<path d="M346.158 64.9493C349.592 60.082 358.199 50.3823 365.151 50.5215C362.357 51.6934 354.646 56.2195 346.158 64.9493Z" fill="#F8F7F1"/>
<path d="M356.522 63.7652C362.135 61.7695 374.76 58.8087 380.359 62.9316C377.401 62.2774 368.491 61.5283 356.522 63.7652Z" fill="#F8F7F1"/>
<path d="M377.072 57.1426C371.393 58.941 358.672 61.4587 353.22 57.1426C356.154 57.8998 365.032 58.9599 377.072 57.1426Z" fill="#F8F7F1"/>
<path d="M384.432 67.8339C379.733 71.4954 368.682 78.281 362.069 76.1309C365.084 75.8201 373.776 73.7257 384.432 67.8339Z" fill="#F8F7F1"/>
<path d="M385.526 66.8189C379.615 66.0785 367.007 63.0477 363.858 56.8477C366.207 58.7622 373.829 63.4367 385.526 66.8189Z" fill="#F8F7F1"/>
<path d="M342.35 73.8585C348.298 74.1991 361.082 76.3738 364.641 82.3477C362.168 80.5957 354.248 76.4452 342.35 73.8585Z" fill="#F8F7F1"/>
<path d="M384.391 78.1763C378.48 77.4359 365.871 74.4051 362.723 68.2051C365.072 70.1196 372.694 74.7941 384.391 78.1763Z" fill="#F8F7F1"/>
<path d="M387.644 59.3843C383.212 63.365 372.662 70.9057 365.915 69.2227C368.9 68.7022 377.425 66.0058 387.644 59.3843Z" fill="#F8F7F1"/>
<path d="M371.174 72.4468C366.742 76.4275 356.192 83.9682 349.445 82.2852C352.431 81.7647 360.956 79.0683 371.174 72.4468Z" fill="#F8F7F1"/>
<path d="M372.637 84.3172C366.721 85.0136 353.753 85.09 349.212 79.8242C351.951 81.1206 360.471 83.8341 372.637 84.3172Z" fill="#F8F7F1"/>
<path d="M354.032 55.5326C359.888 54.4393 372.821 53.4896 377.707 58.4375C374.887 57.3286 366.204 55.1951 354.032 55.5326Z" fill="#F8F7F1"/>
<path d="M358.022 67.7734C363.949 67.1797 376.916 67.3281 381.365 72.6719C378.649 71.3282 370.178 68.4674 358.022 67.7734Z" fill="#F8F7F1"/>
<path d="M369.69 66.2285C364.011 68.0269 351.29 70.5446 345.838 66.2285C348.772 66.9857 357.65 68.0458 369.69 66.2285Z" fill="#F8F7F1"/>
<path d="M358.19 73.3801C363.735 71.2033 376.258 67.8344 381.988 71.7734C379.01 71.2156 370.08 70.7559 358.19 73.3801Z" fill="#F8F7F1"/>
<path d="M368.554 77.5879C362.875 79.3863 350.154 81.904 344.702 77.5879C347.636 78.3451 356.515 79.4052 368.554 77.5879Z" fill="#F8F7F1"/>
<path d="M376.823 70.9654C374.461 76.4342 368.03 87.6948 361.197 88.9863C363.692 87.2655 370.309 81.2522 376.823 70.9654Z" fill="#F8F7F1"/>
<path d="M360.354 84.0259C357.993 89.4948 351.561 100.755 344.729 102.047C347.223 100.326 353.84 94.3127 360.354 84.0259Z" fill="#F8F7F1"/>
<path d="M357.119 87.5368C352.036 90.6427 340.288 96.1332 333.961 93.248C336.991 93.2807 345.865 92.1841 357.119 87.5368Z" fill="#F8F7F1"/>
<path d="M375.021 71.9888C369.111 71.2484 356.502 68.2176 353.354 62.0176C355.702 63.9321 363.325 68.6066 375.021 71.9888Z" fill="#F8F7F1"/>
<path d="M367.112 60.3965C373.04 59.8027 386.007 59.9512 390.456 65.2949C387.74 63.9513 379.269 61.0905 367.112 60.3965Z" fill="#F8F7F1"/>
<path d="M378.451 65.0723C381.508 66.1108 386.186 69.8013 380.04 74.0188C378.152 74.1682 375.033 71.7079 378.451 65.0723Z" fill="#ABB655"/>
<path d="M378.857 65.2887C381.654 66.426 385.879 69.7516 380.396 73.9556C378.685 74.0672 375.903 72.0427 378.857 65.2887Z" fill="#E7D631"/>
<path d="M380.457 51.369C383.458 50.1774 389.412 49.9542 387.468 57.1496C386.127 58.4879 382.158 58.6368 380.457 51.369Z" fill="#ABB655"/>
<path d="M380.907 51.2706C383.774 50.3226 389.146 50.1153 387.698 56.8707C386.468 58.0648 383.037 58.3275 380.907 51.2706Z" fill="#E7D631"/>
<path d="M364.908 68.9591C362.619 67.7704 359.37 64.2922 364.731 61.7027C366.241 61.8124 368.407 64.1313 364.908 68.9591Z" fill="#ABB655"/>
<path d="M364.613 68.7394C362.541 67.5039 359.606 64.3684 364.443 61.7097C365.807 61.8279 367.76 63.762 364.613 68.7394Z" fill="#E7D631"/>
<path d="M372.981 48.7435C371.026 47.7281 368.251 44.7571 372.83 42.5453C374.119 42.6391 375.969 44.6197 372.981 48.7435Z" fill="#ABB655"/>
<path d="M372.729 48.5558C370.959 47.5005 368.452 44.8223 372.583 42.5513C373.749 42.6522 375.417 44.3043 372.729 48.5558Z" fill="#E7D631"/>
<path d="M344.226 61.4268C344.662 58.3159 347.337 53.1735 352.487 58.2786C352.974 60.0564 351.19 63.4848 344.226 61.4268Z" fill="#ABB655"/>
<path d="M344.359 60.9997C344.937 58.1189 347.345 53.4757 352.362 57.9499C352.78 59.5645 351.352 62.5922 344.359 60.9997Z" fill="#E7D631"/>
<path d="M351.549 72.7345C354.606 73.7729 359.283 77.4634 353.138 81.6809C351.249 81.8303 348.131 79.3701 351.549 72.7345Z" fill="#ABB655"/>
<path d="M351.954 72.9508C354.752 74.0881 358.976 77.4137 353.494 81.6177C351.783 81.7293 349.001 79.7048 351.954 72.9508Z" fill="#E7D631"/>
<path d="M361.569 51.9671C364.18 52.8541 368.175 56.0063 362.926 59.6087C361.313 59.7364 358.649 57.6349 361.569 51.9671Z" fill="#ABB655"/>
<path d="M361.915 52.1519C364.305 53.1233 367.913 55.9639 363.23 59.5547C361.769 59.6501 359.392 57.9209 361.915 52.1519Z" fill="#E7D631"/>
<path d="M353.618 63.9495C356.23 64.8365 360.225 67.9888 354.976 71.5912C353.363 71.7188 350.699 69.6173 353.618 63.9495Z" fill="#ABB655"/>
<path d="M353.965 64.1343C356.354 65.1057 359.963 67.9463 355.28 71.5372C353.819 71.6325 351.442 69.9033 353.965 64.1343Z" fill="#E7D631"/>
<path d="M364.946 74.6463C367.947 73.4547 373.9 73.2316 371.956 80.4269C370.615 81.7653 366.646 81.9141 364.946 74.6463Z" fill="#ABB655"/>
<path d="M365.395 74.548C368.262 73.5999 373.635 73.3926 372.186 80.148C370.956 81.3421 367.526 81.6048 365.395 74.548Z" fill="#E7D631"/>
<path d="M376.391 40.158C379.392 38.9664 385.346 38.7433 383.402 45.9386C382.061 47.277 378.091 47.4258 376.391 40.158Z" fill="#ABB655"/>
<path d="M376.84 40.0597C379.707 39.1116 385.08 38.9043 383.632 45.6597C382.402 46.8539 378.971 47.1166 376.84 40.0597Z" fill="#E7D631"/>
<path d="M387.074 66.1505C384.785 64.9618 381.536 61.4836 386.897 58.8941C388.407 59.0038 390.573 61.3227 387.074 66.1505Z" fill="#ABB655"/>
<path d="M386.779 65.9308C384.707 64.6954 381.772 61.5598 386.609 58.9011C387.973 59.0193 389.926 60.9534 386.779 65.9308Z" fill="#E7D631"/>
<path d="M391.912 46.345C389.957 45.3297 387.182 42.3587 391.762 40.1469C393.051 40.2406 394.901 42.2213 391.912 46.345Z" fill="#ABB655"/>
<path d="M391.661 46.1573C389.891 45.1021 387.384 42.4238 391.515 40.1529C392.68 40.2538 394.349 41.9059 391.661 46.1573Z" fill="#E7D631"/>
<path d="M349.112 93.4817C347.157 92.4664 344.382 89.4954 348.962 87.2836C350.251 87.3773 352.101 89.358 349.112 93.4817Z" fill="#ABB655"/>
<path d="M348.861 93.294C347.091 92.2388 344.584 89.5605 348.715 87.2896C349.881 87.3905 351.549 89.0426 348.861 93.294Z" fill="#E7D631"/>
<path d="M356.449 85.7374C356.885 82.6265 359.56 77.484 364.71 82.5891C365.196 84.3669 363.413 87.7953 356.449 85.7374Z" fill="#ABB655"/>
<path d="M356.582 85.3103C357.159 82.4294 359.568 77.7863 364.584 82.2605C365.003 83.875 363.575 86.9028 356.582 85.3103Z" fill="#E7D631"/>
<path d="M356.77 62.1486C357.008 60.4487 358.47 57.6388 361.284 60.4283C361.55 61.3997 360.575 63.2731 356.77 62.1486Z" fill="#ABB655"/>
<path d="M356.843 61.9152C357.158 60.3411 358.474 57.804 361.215 60.2487C361.444 61.131 360.664 62.7854 356.843 61.9152Z" fill="#E7D631"/>
<path d="M332.35 78.8986C332.588 77.1987 334.05 74.3888 336.864 77.1783C337.13 78.1497 336.155 80.0231 332.35 78.8986Z" fill="#ABB655"/>
<path d="M332.423 78.6652C332.738 77.0911 334.054 74.554 336.795 76.9987C337.024 77.881 336.244 79.5354 332.423 78.6652Z" fill="#E7D631"/>
<path d="M369.231 58.6329C372.288 59.6714 376.966 63.3619 370.82 67.5794C368.932 67.7288 365.813 65.2685 369.231 58.6329Z" fill="#ABB655"/>
<path d="M369.637 58.8492C372.434 59.9865 376.659 63.3121 371.176 67.5161C369.466 67.6277 366.683 65.6033 369.637 58.8492Z" fill="#E7D631"/>
<path d="M363.753 47.3388C365.423 47.9063 367.979 49.9228 364.621 52.2273C363.589 52.309 361.885 50.9646 363.753 47.3388Z" fill="#ABB655"/>
<path d="M363.975 47.4571C365.503 48.0785 367.812 49.8957 364.816 52.1928C363.881 52.2538 362.361 51.1476 363.975 47.4571Z" fill="#E7D631"/>
<path d="M376.714 63.2392C378.384 63.8067 380.94 65.8232 377.582 68.1277C376.55 68.2094 374.846 66.865 376.714 63.2392Z" fill="#ABB655"/>
<path d="M376.935 63.3574C378.464 63.9789 380.772 65.7961 377.777 68.0932C376.842 68.1542 375.322 67.048 376.935 63.3574Z" fill="#E7D631"/>
<path d="M359.107 73.4619C360.778 74.0293 363.334 76.0459 359.976 78.3504C358.944 78.432 357.24 77.0877 359.107 73.4619Z" fill="#ABB655"/>
<path d="M359.329 73.5801C360.858 74.2015 363.166 76.0187 360.17 78.3158C359.236 78.3768 357.715 77.2706 359.329 73.5801Z" fill="#E7D631"/>
<path d="M344.343 78.5732C346.013 79.1407 348.569 81.1572 345.211 83.4617C344.179 83.5434 342.475 82.199 344.343 78.5732Z" fill="#ABB655"/>
<path d="M344.564 78.6914C346.093 79.3129 348.401 81.13 345.406 83.4272C344.471 83.4881 342.951 82.3819 344.564 78.6914Z" fill="#E7D631"/>
<path d="M332.416 91.6357C334.086 92.2032 336.642 94.2197 333.284 96.5242C332.252 96.6059 330.548 95.2615 332.416 91.6357Z" fill="#ABB655"/>
<path d="M332.638 91.7539C334.166 92.3754 336.475 94.1925 333.479 96.4897C332.544 96.5506 331.024 95.4444 332.638 91.7539Z" fill="#E7D631"/>
<path d="M369.265 52.4451C372.266 51.2535 378.22 51.0304 376.276 58.2258C374.935 59.5641 370.965 59.713 369.265 52.4451Z" fill="#ABB655"/>
<path d="M369.714 52.3468C372.581 51.3987 377.954 51.1915 376.506 57.9469C375.276 59.141 371.845 59.4037 369.714 52.3468Z" fill="#E7D631"/>
<path d="M363.771 43.9566C365.41 43.3055 368.664 43.1836 367.601 47.1153C366.869 47.8466 364.7 47.9279 363.771 43.9566Z" fill="#ABB655"/>
<path d="M364.016 43.9029C365.583 43.3849 368.518 43.2716 367.727 46.9629C367.055 47.6154 365.18 47.7589 364.016 43.9029Z" fill="#E7D631"/>
<path d="M376.732 59.859C378.371 59.2079 381.625 59.0859 380.562 63.0176C379.83 63.7489 377.661 63.8302 376.732 59.859Z" fill="#ABB655"/>
<path d="M376.977 59.8053C378.544 59.2872 381.479 59.174 380.688 62.8652C380.016 63.5177 378.141 63.6612 376.977 59.8053Z" fill="#E7D631"/>
<path d="M383.053 46.2301C384.693 45.579 387.946 45.457 386.884 49.3887C386.151 50.12 383.982 50.2013 383.053 46.2301Z" fill="#ABB655"/>
<path d="M383.298 46.1764C384.865 45.6583 387.801 45.545 387.009 49.2363C386.337 49.8888 384.463 50.0323 383.298 46.1764Z" fill="#E7D631"/>
<path d="M359.126 70.0816C360.766 69.4305 364.019 69.3086 362.957 73.2403C362.224 73.9716 360.055 74.0529 359.126 70.0816Z" fill="#ABB655"/>
<path d="M359.372 70.0279C360.938 69.5099 363.874 69.3966 363.083 73.0879C362.41 73.7404 360.536 73.8839 359.372 70.0279Z" fill="#E7D631"/>
<path d="M344.361 75.193C346 74.5419 349.253 74.4199 348.191 78.3516C347.459 79.0829 345.29 79.1642 344.361 75.193Z" fill="#ABB655"/>
<path d="M344.606 75.1392C346.173 74.6212 349.108 74.5079 348.317 78.1992C347.645 78.8517 345.77 78.9952 344.606 75.1392Z" fill="#E7D631"/>
<path d="M332.435 88.2535C334.074 87.6024 337.328 87.4805 336.265 91.4121C335.533 92.1434 333.364 92.2248 332.435 88.2535Z" fill="#ABB655"/>
<path d="M332.68 88.1998C334.247 87.6818 337.182 87.5685 336.391 91.2597C335.719 91.9122 333.844 92.0558 332.68 88.1998Z" fill="#E7D631"/>
<path d="M371.411 75.1544C369.122 73.9658 365.873 70.4875 371.234 67.898C372.744 68.0078 374.91 70.3266 371.411 75.1544Z" fill="#ABB655"/>
<path d="M371.116 74.9347C369.044 73.6993 366.109 70.5637 370.946 67.905C372.31 68.0232 374.263 69.9573 371.116 74.9347Z" fill="#E7D631"/>
<path d="M393.304 59.9044C391.015 58.7158 387.767 55.2375 393.128 52.648C394.637 52.7578 396.803 55.0766 393.304 59.9044Z" fill="#ABB655"/>
<path d="M393.01 59.6847C390.938 58.4493 388.003 55.3137 392.839 52.655C394.204 52.7732 396.157 54.7073 393.01 59.6847Z" fill="#E7D631"/>
<path d="M378.535 54.0345C376.58 53.0191 373.805 50.0482 378.385 47.8364C379.674 47.9301 381.524 49.9107 378.535 54.0345Z" fill="#ABB655"/>
<path d="M378.284 53.8468C376.514 52.7915 374.007 50.1133 378.138 47.8423C379.304 47.9432 380.972 49.5953 378.284 53.8468Z" fill="#E7D631"/>
<path d="M338.89 86.6653C336.935 85.65 334.16 82.679 338.739 80.4672C340.029 80.5609 341.879 82.5416 338.89 86.6653Z" fill="#ABB655"/>
<path d="M338.638 86.4776C336.869 85.4224 334.362 82.7441 338.493 80.4732C339.658 80.5741 341.326 82.2262 338.638 86.4776Z" fill="#E7D631"/>
<path d="M339.754 71.4093C340.189 68.2983 342.864 63.1559 348.014 68.261C348.501 70.0388 346.718 73.4672 339.754 71.4093Z" fill="#ABB655"/>
<path d="M339.886 70.9822C340.464 68.1013 342.873 63.4581 347.889 67.9324C348.307 69.5469 346.879 72.5747 339.886 70.9822Z" fill="#E7D631"/>
<path d="M336.914 93.7979C337.349 90.687 340.025 85.5446 345.175 90.6497C345.661 92.4275 343.878 95.8559 336.914 93.7979Z" fill="#ABB655"/>
<path d="M337.047 93.3708C337.624 90.49 340.033 85.8468 345.049 90.321C345.468 91.9356 344.039 94.9633 337.047 93.3708Z" fill="#E7D631"/>
<path d="M375.14 120.247C371.304 116.941 357.29 118.078 350.762 119.06L350.889 121.088L374.539 122.353L375.14 120.247Z" fill="#F4C35D"/>
<path d="M375.14 98.1001C371.304 94.7946 357.29 95.9318 350.762 96.9136L350.889 98.9413L374.539 100.207L375.14 98.1001Z" fill="#F4C35D"/>
<path d="M398.707 52.604C390.792 52.4109 384.504 58.6299 381.342 63.1744C380.354 64.5934 379.397 66.052 378.181 67.2814C376.747 68.7321 376.16 68.7568 370.348 71.1083C367.699 72.1801 365.23 73.785 363.622 76.1471C359.027 82.8944 360.366 88.2503 363.085 91.7548C365.407 94.7465 369.477 95.283 373.263 95.3665C380.84 95.5336 391.335 96.8922 397.287 101.444C406.942 108.827 414.893 111.383 432.782 107.123C444.338 104.372 446.674 97.3619 446.248 92.3728C446.066 90.2451 444.843 88.4021 443.591 86.6724C442.116 84.635 441.343 83.2117 440.932 82.0863C439.65 78.575 441.051 74.6112 441.402 70.8897C441.757 67.1258 440.222 65.1624 436.757 60.2708C431.93 53.4559 419.152 57.4313 413.757 57.9992C408.362 58.5671 410.349 52.888 398.707 52.604Z" fill="white"/>
<ellipse cx="405.183" cy="79.5757" rx="17.8891" ry="11.6421" fill="#F9A532"/>
<path d="M403.177 71.1771C403.858 72.9944 401.378 73.8273 400.053 74.0166C399.201 74.1968 398.065 73.4487 398.349 72.3129C398.633 71.1771 402.325 68.9054 403.177 71.1771Z" fill="white"/>
<path d="M393.522 80.5472C393.757 80.3905 393.909 80.1393 394.003 79.8541C394.335 78.8463 393.709 77.3306 394.658 76.8558C396.298 76.035 397.578 73.1686 395.745 73.1099C395.26 73.0944 395.006 73.2749 394.606 73.5495C393.448 74.3447 391.723 75.9126 390.967 77.9916C389.831 81.1151 392.67 81.1151 393.522 80.5472Z" fill="white"/>
<path d="M44.1477 107L21.333 115.593L44.1477 147.296V107Z" fill="#FFC470"/>
<path d="M0 146.703L9.18515 126.555L37.9258 153.518L0 146.703Z" fill="#FFC470"/>
<path d="M37.9258 162.11L5.03702 185.221L0 165.666L37.9258 162.11Z" fill="#FFC470"/>
<path d="M48 247.148L57.1851 238.555L57.4814 237.963L68.4444 249.222L58.6666 258.111L48 247.148Z" fill="#A2A4A1"/>
<circle cx="100.147" cy="197.667" r="56.4442" fill="#AADBFF" stroke="#A7A7A7" stroke-width="8"/>
<circle cx="79.5" cy="175.5" r="11.5" fill="white"/>
<path d="M43.7612 245.886L22.428 267.219L1.68734 287.96C-0.445985 290.331 -0.675972 293.37 1.68734 296.257L9.68731 303.96C14.1388 307.888 16.6996 305.145 18.5762 303.96L59.7612 262.775C62.8426 259.22 62.6254 255.565 62.1315 254.183L52.9464 244.997C49.3908 242.627 45.3415 244.602 43.7612 245.886Z" fill="#858585"/>
</svg>
