<svg width="456" height="347" viewBox="0 0 456 347" fill="none" xmlns="http://www.w3.org/2000/svg">
<path d="M3.39453 165.213H213.703" stroke="#C4C4C4" stroke-width="5" stroke-linecap="round" stroke-linejoin="round"/>
<path d="M3.5 30C3.5 14.8122 15.8122 2.5 31 2.5H185.698C200.886 2.5 213.198 14.8122 213.198 30V286.424H3.5V30Z" stroke="#C4C4C4" stroke-width="5"/>
<rect x="18.5586" y="181.176" width="171.599" height="12.7701" rx="6.38506" fill="#C4C4C4"/>
<rect x="18.5586" y="201.129" width="115.729" height="12.7701" rx="6.38506" fill="#C4C4C4"/>
<rect x="18.5586" y="241.834" width="59.86" height="12.7701" rx="6.38506" fill="#C4C4C4"/>
<rect x="18.5586" y="262.586" width="81.4096" height="12.7701" rx="6.38506" fill="#C4C4C4"/>
<path d="M188.157 90.987C188.157 102.738 179.762 113.772 165.324 121.982C150.945 130.158 130.946 135.279 108.747 135.279C86.5488 135.279 66.5501 130.158 52.1708 121.982C37.7331 113.772 29.3379 102.738 29.3379 90.987C29.3379 79.2364 37.7331 68.2021 52.1708 59.9924C66.5501 51.816 86.5488 46.6953 108.747 46.6953C130.946 46.6953 150.945 51.816 165.324 59.9924C179.762 68.2021 188.157 79.2364 188.157 90.987Z" stroke="#ACACAC" stroke-width="4"/>
<path d="M171.099 90.9871C171.099 100.355 164.441 109.129 153.037 115.646C141.675 122.138 125.879 126.201 108.349 126.201C90.8199 126.201 75.0238 122.138 63.6621 115.646C52.258 109.129 45.5996 100.355 45.5996 90.9871C45.5996 81.6193 52.258 72.8453 63.6621 66.3286C75.0238 59.8362 90.8199 55.7729 108.349 55.7729C125.879 55.7729 141.675 59.8362 153.037 66.3286C164.441 72.8453 171.099 81.6193 171.099 90.9871Z" stroke="#B9B9B9" stroke-width="3"/>
<path d="M67.1379 89.344C71.6834 88.1724 75.714 85.5518 78.6085 81.886C78.749 81.6743 78.8044 81.4181 78.7639 81.168C78.7233 80.9178 78.5897 80.6917 78.3893 80.5344C76.556 79.1475 74.9179 77.5241 73.5186 75.7072C73.3112 75.4323 73.1654 75.1168 73.0909 74.7817C73.0163 74.4467 73.0147 74.0997 73.0861 73.7639C73.1576 73.4281 73.3004 73.1113 73.5052 72.8346C73.7099 72.5579 73.9719 72.3276 74.2735 72.1592C75.572 71.3743 76.6085 70.2279 77.2539 68.863C77.8992 67.4981 78.1247 65.975 77.9022 64.4839C77.3421 57.1707 66.8213 48.9645 53.7678 58.7878C40.7143 68.6112 44.6596 78.9414 44.6596 78.9414C44.6596 78.9414 47.6551 90.2853 60.9765 82.948C61.1504 82.8242 61.3591 82.7576 61.5731 82.7576C61.7872 82.7576 61.9959 82.8242 62.1698 82.948C63.9744 84.3896 65.2915 86.3434 65.9446 88.5475C65.9678 88.6786 66.0175 88.8038 66.0906 88.9154C66.1638 89.0271 66.2589 89.1229 66.3703 89.1973C66.4817 89.2717 66.6072 89.323 66.739 89.3482C66.8709 89.3734 67.0066 89.372 67.1379 89.344Z" fill="#FEF3D5"/>
<path d="M67.7775 79.6235C72.6474 76.108 74.9548 71.0261 72.9312 68.2728C70.9077 65.5195 65.3194 66.1374 60.4495 69.6529C55.5797 73.1684 53.2723 78.2503 55.2958 81.0036C57.3194 83.7569 62.9076 83.139 67.7775 79.6235Z" fill="#E5CDA6"/>
<path d="M65.7974 66.8024H65.3103C65.0613 66.8445 64.8168 66.9091 64.5797 66.9955C63.8873 67.2521 63.2257 67.584 62.607 67.985L62.2661 68.2023C61.5355 68.8539 60.6587 69.3366 59.8307 69.9642C59.5247 70.2399 59.19 70.4826 58.8322 70.6883L58.6374 70.7365C57.5415 71.6054 56.4699 72.5226 55.374 73.3674C55.788 74.1638 56.2264 74.9603 56.6648 75.781C57.1031 76.6016 57.7363 77.3739 58.2234 78.1946C58.7105 79.0152 59.1732 79.7151 59.709 80.4633L61.1215 82.3701C61.3763 82.3831 61.6181 82.4858 61.8034 82.6597C63.698 84.1434 65.1327 86.1258 65.9435 88.3799C65.9718 88.5301 66.0311 88.6727 66.1177 88.7991C66.2042 88.9255 66.3161 89.0328 66.4464 89.1143C66.5767 89.1959 66.7225 89.2499 66.8749 89.2731C67.0272 89.2962 67.1827 89.288 67.3316 89.2488C68.9517 88.8438 70.5264 88.2777 72.0319 87.5593C72.2981 87.411 72.5748 87.2819 72.8599 87.1731L73.0547 87.0525C73.5174 86.7628 73.9558 86.4491 74.3942 86.1353C75.0914 85.6735 75.7436 85.1483 76.3425 84.5665C76.9513 83.9631 77.4627 83.2872 78.0229 82.6597C78.583 82.0322 78.7778 81.8632 79.1675 81.4529C79.1694 81.2805 79.1307 81.1101 79.0547 80.9551C78.9786 80.8001 78.8671 80.6648 78.7291 80.5599C76.7441 79.0607 74.9601 77.3169 73.42 75.3706C73.1457 74.9948 72.9776 74.5532 72.933 74.0914C72.7693 73.9837 72.6217 73.8537 72.4946 73.7053C71.2769 72.064 70.0592 70.471 68.6467 68.8781L67.6969 67.8402C67.1164 67.4071 66.4768 67.0577 65.7974 66.8024Z" fill="#FEF3D5"/>
<path d="M72.9337 87.1233C73.4208 86.8337 73.9079 86.4716 74.3706 86.1337L75.637 85.1683C75.6649 84.9562 75.6129 84.7413 75.4909 84.5649L62.1451 68.2972C61.4388 68.9006 60.6352 69.3834 59.8802 69.9626C59.5742 70.2383 59.2395 70.481 58.8817 70.6867L58.4434 70.8798L71.9596 87.3647H72.1788C72.4241 87.2658 72.6764 87.1852 72.9337 87.1233Z" fill="#E9DEC2"/>
<path d="M72.6031 115.269C76.4253 112.544 79.2468 108.652 80.6328 104.191C80.688 103.943 80.6478 103.684 80.5201 103.465C80.3925 103.246 80.1866 103.083 79.9431 103.008C77.7342 102.372 75.6226 101.445 73.6644 100.251C73.3722 100.069 73.1229 99.8266 72.9331 99.5406C72.7432 99.2546 72.6171 98.9313 72.5633 98.5923C72.5095 98.2533 72.5291 97.9063 72.6209 97.5745C72.7127 97.2427 72.8746 96.9338 73.0957 96.6683C74.026 95.4697 74.582 94.0277 74.6944 92.5221C74.8069 91.0165 74.4707 89.514 73.728 88.2021C70.5804 81.5772 57.8154 77.6936 49.1572 91.5474C40.4989 105.401 47.8889 113.627 47.8889 113.627C47.8889 113.627 54.7562 123.14 64.5567 111.511C64.6745 111.333 64.8454 111.196 65.0452 111.119C65.2451 111.042 65.4637 111.029 65.6705 111.082C67.8723 111.78 69.8028 113.131 71.2035 114.954C71.2722 115.068 71.3635 115.167 71.4718 115.245C71.5802 115.323 71.7034 115.378 71.834 115.408C71.9647 115.437 72.1002 115.44 72.2323 115.416C72.3645 115.392 72.4906 115.342 72.6031 115.269Z" fill="#FEF3D5"/>
<path d="M69.7106 105.967C72.9943 100.938 73.3241 95.3663 70.4471 93.5227C67.5702 91.6791 62.5761 94.2614 59.2924 99.2905C56.0086 104.32 55.6789 109.891 58.5558 111.735C61.4327 113.578 66.4269 110.996 69.7106 105.967Z" fill="#E5CDA6"/>
<path d="M63.2621 94.71L62.8075 94.8848C62.5902 95.0135 62.3851 95.1616 62.1948 95.3272C61.6407 95.8153 61.1423 96.3625 60.7088 96.9589L60.4685 97.284C60.0205 98.1544 59.3754 98.9197 58.8278 99.8026C58.6411 100.17 58.4158 100.516 58.1557 100.837L57.9911 100.952C57.2801 102.156 56.6091 103.397 55.8894 104.579C56.5617 105.173 57.2567 105.759 57.9604 106.368C58.6641 106.977 59.5323 107.47 60.2814 108.061C61.0305 108.653 61.7136 109.14 62.4823 109.646L64.485 110.919C64.7275 110.839 64.9901 110.848 65.2254 110.944C67.5263 111.649 69.5769 112.984 71.1427 114.798C71.223 114.927 71.3296 115.039 71.4557 115.126C71.5818 115.213 71.7248 115.273 71.8757 115.302C72.0266 115.332 72.1821 115.33 72.3326 115.297C72.483 115.264 72.6252 115.2 72.7502 115.11C74.117 114.151 75.3836 113.057 76.5309 111.846C76.7262 111.612 76.9382 111.393 77.1652 111.189L77.3037 111.006C77.6317 110.57 77.9282 110.12 78.2248 109.669C78.7098 108.988 79.1301 108.264 79.4802 107.506C79.8319 106.724 80.0667 105.91 80.3643 105.123C80.6619 104.336 80.7831 104.109 80.9995 103.586C80.9394 103.424 80.8422 103.279 80.7156 103.162C80.5889 103.044 80.4363 102.958 80.2699 102.91C77.8791 102.223 75.588 101.235 73.4521 99.9716C73.0611 99.7192 72.7457 99.3674 72.5383 98.9524C72.3469 98.9106 72.1625 98.8423 71.9906 98.7493C70.265 97.6545 68.5567 96.6046 66.6666 95.6247L65.4076 94.9969C64.7103 94.801 63.9879 94.7044 63.2621 94.71Z" fill="#FEF3D5"/>
<path d="M77.2153 111.116C77.5659 110.671 77.8906 110.159 78.2012 109.677L79.0367 108.321C78.9867 108.113 78.861 107.932 78.6838 107.811L60.3887 97.4167C59.9461 98.2334 59.3692 98.9723 58.8724 99.784C58.6857 100.151 58.4604 100.498 58.2003 100.818L57.8605 101.156L76.3926 111.691L76.5972 111.613C76.7907 111.432 76.9973 111.267 77.2153 111.116Z" fill="#E9DEC2"/>
<path d="M94.3043 122.606C97.6641 119.328 99.8561 115.05 100.543 110.43C100.559 110.176 100.48 109.926 100.32 109.729C100.16 109.533 99.9321 109.403 99.68 109.366C97.3997 109.076 95.171 108.482 93.053 107.603C92.7365 107.468 92.453 107.266 92.2216 107.013C91.9901 106.759 91.8161 106.459 91.7109 106.132C91.6058 105.806 91.5721 105.46 91.612 105.118C91.6519 104.776 91.7646 104.446 91.9424 104.15C92.6781 102.823 93.0068 101.313 92.8873 99.8075C92.7679 98.3024 92.2056 96.8691 91.2706 95.6864C87.1457 89.6217 73.9365 87.7388 67.502 102.755C61.0676 117.771 69.6301 124.769 69.6301 124.769C69.6301 124.769 77.8732 133.118 85.7771 120.125C85.8664 119.931 86.0142 119.769 86.1999 119.663C86.3856 119.556 86.5998 119.51 86.8122 119.531C89.0949 119.883 91.2096 120.923 92.8729 122.509C92.9582 122.612 93.0636 122.695 93.1826 122.756C93.3016 122.816 93.4318 122.852 93.5655 122.861C93.6991 122.87 93.8334 122.852 93.9604 122.809C94.0873 122.765 94.2043 122.696 94.3043 122.606Z" fill="#FEF3D5"/>
<path d="M90.0224 113.856C92.4972 108.384 91.9698 102.828 88.8445 101.446C85.7192 100.065 81.1794 103.382 78.7046 108.854C76.2298 114.327 76.7572 119.883 79.8825 121.265C83.0078 122.646 87.5476 119.329 90.0224 113.856Z" fill="#E5CDA6"/>
<path d="M81.925 103.72L81.5025 103.963C81.3075 104.123 81.1276 104.301 80.9649 104.494C80.492 105.061 80.0833 105.678 79.7462 106.334L79.5586 106.692C79.2491 107.621 78.7288 108.475 78.3229 109.432C78.1946 109.823 78.0251 110.2 77.8171 110.557L77.6721 110.696C77.1539 111.995 76.6808 113.323 76.1506 114.601C76.906 115.086 77.6826 115.559 78.4712 116.053C79.2598 116.546 80.1934 116.901 81.0242 117.371C81.855 117.84 82.6047 118.217 83.4417 118.599L85.6158 119.55C85.8433 119.435 86.1041 119.404 86.3514 119.462C88.733 119.807 90.964 120.812 92.7889 122.364C92.8882 122.48 93.0107 122.574 93.1486 122.641C93.2866 122.707 93.437 122.745 93.5906 122.751C93.7442 122.757 93.8976 122.731 94.0413 122.675C94.1849 122.619 94.3157 122.535 94.4254 122.427C95.6291 121.269 96.7134 119.995 97.6617 118.622C97.8188 118.361 97.9946 118.112 98.1877 117.875L98.2967 117.674C98.5539 117.192 98.778 116.702 99.0021 116.212C99.3771 115.464 99.6815 114.684 99.9114 113.881C100.139 113.055 100.247 112.214 100.42 111.391C100.594 110.568 100.679 110.325 100.812 109.775C100.728 109.625 100.61 109.496 100.467 109.399C100.324 109.303 100.16 109.241 99.9879 109.219C97.5201 108.906 95.1049 108.281 92.8006 107.359C92.3756 107.17 92.01 106.87 91.7415 106.492C91.546 106.48 91.3533 106.441 91.1691 106.375C89.2962 105.558 87.4473 104.782 85.4294 104.103L84.0891 103.675C83.37 103.588 82.6414 103.604 81.925 103.72Z" fill="#FEF3D5"/>
<path d="M98.2261 117.796C98.5044 117.303 98.7468 116.746 98.98 116.223L99.598 114.755C99.5167 114.557 99.3646 114.397 99.171 114.305L79.5 106.835C79.1876 107.71 78.7307 108.528 78.3641 109.407C78.2358 109.798 78.0663 110.175 77.8583 110.531L77.5742 110.917L97.5012 118.49L97.6913 118.381C97.8549 118.173 98.0336 117.978 98.2261 117.796Z" fill="#E9DEC2"/>
<path d="M71.3936 99.5687C72.7566 107.338 84.229 110.416 89.7948 110.984C91.3283 111.184 110.581 114.563 121.827 105.192C133.072 95.8206 148.406 95.4798 156.584 95.991C164.763 96.5021 168.682 95.1391 176.86 89.8572C183.403 85.6318 181.29 73.103 179.416 67.3668C179.132 64.3567 173.657 56.0191 154.029 46.7503C134.401 37.4816 107.798 44.8194 96.9508 49.6468C90.022 52.0322 75.2101 59.9379 71.3936 72.478C66.6229 88.1531 69.6898 89.857 71.3936 99.5687Z" fill="#86302F"/>
<path d="M74.3866 91.893C65.7865 69.3869 90.142 52.8703 103.395 47.4253C112.131 42.7786 131.266 42.1011 139.741 42.3432C173.356 50.3293 180.864 75.0134 176.94 82.0919C173.8 87.7548 146.282 90.9855 132.915 91.893C116.989 101.271 82.9866 114.399 74.3866 91.893Z" fill="#AE252B"/>
<path d="M78.042 78.9536C80.4955 63.8237 93.8307 54.021 100.192 51.011C133.927 37.21 138.868 41.8103 161.7 51.011C184.531 60.2116 178.738 75.7163 170.9 80.9982C164.63 85.2237 146.024 85.2577 137.505 84.7466C134.609 87.1887 124.113 93.2998 105.303 98.2068C86.4929 103.114 79.2915 87.4159 78.042 78.9536Z" fill="#E52D33"/>
<ellipse cx="100.191" cy="76.8889" rx="10.5637" ry="6.64489" fill="#F7C9A3"/>
<path d="M243.092 165.213H453.4" stroke="#C4C4C4" stroke-width="5" stroke-linecap="round" stroke-linejoin="round"/>
<path d="M243.198 30C243.198 14.8122 255.51 2.5 270.698 2.5H425.396C440.584 2.5 452.896 14.8122 452.896 30V286.424H243.198V30Z" stroke="#C4C4C4" stroke-width="5"/>
<rect x="258.257" y="181.176" width="158.828" height="12.7701" rx="6.38506" fill="#C4C4C4"/>
<rect x="258.257" y="201.129" width="92.5834" height="12.7701" rx="6.38506" fill="#C4C4C4"/>
<rect x="258.257" y="241.834" width="67.0432" height="12.7701" rx="6.38506" fill="#C4C4C4"/>
<rect x="258.257" y="262.586" width="78.217" height="12.7701" rx="6.38506" fill="#C4C4C4"/>
<path d="M273.812 110.811C263.589 67.65 295.298 46.2588 312.43 40.9583C317.427 35.9607 341.961 33.3862 353.603 32.7236C407.838 34.4274 422.036 58.8474 425.443 63.3907C428.851 67.9339 437.085 110.811 415.505 131.824C398.24 148.634 370.072 154.729 358.146 155.676C334.294 158.705 284.034 153.972 273.812 110.811Z" fill="#885A4A"/>
<path d="M292.503 119.583C267.288 107.771 272.532 79.8297 278.305 67.3358C293.525 44.3924 324.211 34.8704 337.652 32.9773C354.973 31.9362 393.932 33.5452 411.196 48.3108C432.777 66.7679 435.332 90.0521 411.196 111.917C387.06 133.781 324.022 134.349 292.503 119.583Z" fill="#603932"/>
<path d="M372.628 46.6369L370.784 42.3776C355.563 52.5999 361.413 64.4313 366.241 69.0692L367.944 64.526C360.913 60.3978 367.858 46.8939 372.628 46.6369Z" fill="#016A2D"/>
<path d="M372.627 46.6372L371.207 43.2297C357.011 53.736 363.131 64.5786 366.664 67.9337L368.083 64.5263C362.939 61.54 369.136 46.8231 372.627 46.6372Z" fill="#A3B164"/>
<path d="M365.246 38.6863L363.401 34.427C348.181 44.6493 354.03 56.4808 358.858 61.1187L360.561 56.5754C353.53 52.4473 360.476 38.9434 365.246 38.6863Z" fill="#016A2D"/>
<path d="M365.244 38.6864L363.824 35.2789C349.628 45.7852 355.749 56.6278 359.281 59.9829L360.701 56.5755C355.556 53.5891 361.754 38.8723 365.244 38.6864Z" fill="#A3B164"/>
<path d="M360.784 73.2444L364.953 75.2861C369.892 57.6295 357.761 52.4288 351.078 52.0356L352.733 56.597C360.76 55.1719 364.245 69.9518 360.784 73.2444Z" fill="#016A2D"/>
<path d="M360.786 73.2444L364.078 74.9144C368.054 57.7068 356.359 53.4338 351.495 53.1753L352.627 56.6887C358.479 55.6199 363.32 70.8369 360.786 73.2444Z" fill="#A3B164"/>
<path d="M364.831 62.5351L362.826 58.3485C348.003 69.1378 354.295 80.7401 359.294 85.1926L360.825 80.5883C353.643 76.7283 360.074 62.972 364.831 62.5351Z" fill="#016A2D"/>
<path d="M364.828 62.5352L363.281 59.1837C349.492 70.2182 356.016 80.8221 359.673 84.0415L360.963 80.583C355.709 77.7929 361.347 62.8527 364.828 62.5352Z" fill="#A3B164"/>
<path d="M363.695 55.7203L361.691 51.5337C346.867 62.323 353.159 73.9253 358.158 78.3777L359.689 73.7734C352.507 69.9135 358.938 56.1572 363.695 55.7203Z" fill="#016A2D"/>
<path d="M363.692 55.7207L362.145 52.3693C348.356 63.4037 354.881 74.0077 358.537 77.2271L359.827 73.7685C354.574 70.9784 360.211 56.0382 363.692 55.7207Z" fill="#A3B164"/>
<path d="M353.401 59.6145L357.57 61.6562C362.509 43.9996 350.378 38.799 343.696 38.4057L345.35 42.9672C353.377 41.5421 356.863 56.322 353.401 59.6145Z" fill="#016A2D"/>
<path d="M353.403 59.6133L356.695 61.2833C360.671 44.0757 348.977 39.8027 344.112 39.5442L345.244 43.0576C351.096 41.9888 355.937 57.2058 353.403 59.6133Z" fill="#A3B164"/>
<path d="M364.192 59.0467L368.361 61.0884C373.3 43.4319 361.169 38.2312 354.487 37.8379L356.141 42.3994C364.168 40.9743 367.654 55.7542 364.192 59.0467Z" fill="#016A2D"/>
<path d="M364.193 59.0449L367.485 60.7148C371.461 43.5073 359.767 39.2342 354.902 38.9758L356.034 42.4892C361.886 41.4203 366.727 56.6373 364.193 59.0449Z" fill="#A3B164"/>
<path d="M365.556 54.4924L365.645 49.8515C347.555 52.8346 347.966 66.0268 350.433 72.2499L353.869 68.8235C349.185 62.1495 361.109 52.7464 365.556 54.4924Z" fill="#016A2D"/>
<path d="M365.554 54.4921L365.677 50.8028C348.401 54.4693 349.469 66.8741 351.29 71.3926L353.996 68.8818C350.555 64.0296 362.301 53.2126 365.554 54.4921Z" fill="#A3B164"/>
<path d="M360.444 49.3809L360.534 44.7401C342.444 47.7232 342.855 60.9153 345.322 67.1385L348.757 63.7121C344.074 57.0381 355.998 47.6349 360.444 49.3809Z" fill="#016A2D"/>
<path d="M360.443 49.3813L360.566 45.6921C343.289 49.3586 344.357 61.7634 346.178 66.2819L348.884 63.7711C345.443 58.9188 357.19 48.1019 360.443 49.3813Z" fill="#A3B164"/>
<path d="M387.136 59.0357L387.225 54.3949C369.135 57.378 369.546 70.5701 372.013 76.7933L375.449 73.3669C370.766 66.6929 382.689 57.2897 387.136 59.0357Z" fill="#016A2D"/>
<path d="M387.134 59.0349L387.257 55.3456C369.981 59.0122 371.049 71.4169 372.87 75.9355L375.576 73.4246C372.135 68.5724 383.881 57.7554 387.134 59.0349Z" fill="#A3B164"/>
<path d="M379.335 64.1468L383.964 63.8027C379.306 46.07 366.209 47.7106 360.244 50.7474L363.976 53.8483C370.184 48.5626 380.658 59.5568 379.335 64.1468Z" fill="#016A2D"/>
<path d="M379.336 64.1445L383.021 63.9225C377.758 47.0639 365.507 49.2846 361.179 51.5194L363.931 53.9793C368.441 50.1004 380.307 60.7867 379.336 64.1445Z" fill="#A3B164"/>
<path d="M382.743 55.6284L387.372 55.2843C382.714 37.5515 369.618 39.1921 363.652 42.229L367.384 45.3298C373.592 40.0442 384.066 51.0383 382.743 55.6284Z" fill="#016A2D"/>
<path d="M382.744 55.6266L386.428 55.4046C381.166 38.546 368.915 40.7667 364.586 43.0014L367.338 45.4613C371.848 41.5825 383.714 52.2687 382.744 55.6266Z" fill="#A3B164"/>
<path d="M381.039 60.7395L385.668 60.3954C381.01 42.6626 367.914 44.3032 361.948 47.3401L365.68 50.4409C371.888 45.1553 382.362 56.1494 381.039 60.7395Z" fill="#016A2D"/>
<path d="M381.041 60.7374L384.725 60.5154C379.463 43.6568 367.212 45.8775 362.883 48.1123L365.635 50.5721C370.145 46.6933 382.011 57.3795 381.041 60.7374Z" fill="#A3B164"/>
<path d="M370.705 77.2973L374.38 80.1322C382.754 63.8218 371.91 56.298 365.441 54.5749L366.148 59.3751C374.299 59.5859 374.755 74.7643 370.705 77.2973Z" fill="#016A2D"/>
<path d="M370.707 77.2963L373.598 79.5915C380.938 63.5281 370.335 57.0005 365.621 55.7734L366.027 59.4424C371.974 59.5666 373.671 75.4448 370.707 77.2963Z" fill="#A3B164"/>
<path d="M376.952 78.4329L380.627 81.2678C389.001 64.9574 378.157 57.4336 371.688 55.7105L372.396 60.5107C380.546 60.7215 381.002 75.8999 376.952 78.4329Z" fill="#016A2D"/>
<path d="M376.954 78.4325L379.845 80.7277C387.185 64.6644 376.582 58.1367 371.868 56.9096L372.274 60.5786C378.221 60.7029 379.918 76.581 376.954 78.4325Z" fill="#A3B164"/>
<path d="M381.126 69.1295L382.799 73.4589C398.414 63.8505 393.04 51.7956 388.401 46.9692L386.518 51.4411C393.379 55.8458 385.902 69.0625 381.126 69.1295Z" fill="#016A2D"/>
<path d="M381.127 69.1291L382.41 72.5904C397.013 62.6574 391.329 51.5798 387.934 48.0868L386.379 51.435C391.401 54.6238 384.622 69.0822 381.127 69.1291Z" fill="#A3B164"/>
<path d="M381.033 84.1015L382.707 88.4308C398.322 78.8224 392.947 66.7675 388.309 61.9411L386.426 66.413C393.287 70.8177 385.809 84.0345 381.033 84.1015Z" fill="#016A2D"/>
<path d="M381.036 84.1016L382.318 87.5629C396.921 77.63 391.238 66.5524 387.842 63.0593L386.287 66.4076C391.309 69.5963 384.531 84.0548 381.036 84.1016Z" fill="#A3B164"/>
<path d="M365.984 71.5995L361.356 71.948C366.03 89.6763 379.125 88.0233 385.088 84.9808L381.353 81.8835C375.15 87.1751 364.665 76.1908 365.984 71.5995Z" fill="#016A2D"/>
<path d="M365.984 71.6007L362.299 71.8262C367.578 88.6798 379.827 86.4475 384.153 84.2086L381.399 81.7513C376.892 85.6344 365.016 74.9595 365.984 71.6007Z" fill="#A3B164"/>
<path d="M368.823 64.7846L364.194 65.1331C368.869 82.8614 381.964 81.2084 387.927 78.1659L384.192 75.0686C377.989 80.3601 367.504 69.3759 368.823 64.7846Z" fill="#016A2D"/>
<path d="M368.823 64.7861L365.139 65.0116C370.418 81.8652 382.666 79.6329 386.993 77.394L384.238 74.9368C379.732 78.8198 367.856 68.1449 368.823 64.7861Z" fill="#A3B164"/>
<path d="M375.07 56.2658L370.442 56.6143C375.116 74.3426 388.211 72.6896 394.174 69.6471L390.439 66.5498C384.236 71.8413 373.751 60.8571 375.07 56.2658Z" fill="#016A2D"/>
<path d="M375.07 56.2665L371.386 56.4919C376.665 73.3455 388.913 71.1132 393.24 68.8744L390.486 66.4171C385.979 70.3002 374.103 59.6252 375.07 56.2665Z" fill="#A3B164"/>
<path d="M389.551 80.126L391.225 84.4554C406.84 74.847 401.466 62.7921 396.827 57.9657L394.944 62.4375C401.805 66.8423 394.328 80.059 389.551 80.126Z" fill="#016A2D"/>
<path d="M389.554 80.1259L390.837 83.5872C405.44 73.6543 399.756 62.5766 396.36 59.0836L394.806 62.4319C399.828 65.6206 393.049 80.0791 389.554 80.1259Z" fill="#A3B164"/>
<path d="M383.906 73.8858L382.811 78.3967C401.118 79.4106 403.579 66.4436 402.521 59.8334L398.424 62.4325C401.547 69.9638 387.867 76.5552 383.906 73.8858Z" fill="#016A2D"/>
<path d="M383.907 73.8862L382.987 77.4609C400.647 77.6311 402.296 65.2902 401.499 60.4842L398.313 62.3479C400.619 67.8312 386.805 75.8411 383.907 73.8862Z" fill="#A3B164"/>
<path d="M378.319 69.9338L377.224 74.4446C395.531 75.4586 397.992 62.4916 396.935 55.8813L392.837 58.4805C395.961 66.0118 382.28 72.6031 378.319 69.9338Z" fill="#016A2D"/>
<path d="M378.32 69.9338L377.4 73.5085C395.06 73.6787 396.709 61.3378 395.912 56.5318L392.726 58.3955C395.032 63.8789 381.218 71.8887 378.32 69.9338Z" fill="#A3B164"/>
<path d="M412.246 83.9546L407.656 85.9966C411.308 94.7431 404.919 107.182 400.931 113.09L403.238 115.63C417.341 102.413 414.622 89.2038 412.246 83.9546Z" fill="#AB191A"/>
<path d="M413.738 83.3611L409.148 85.4031C412.8 94.1496 405.737 108.153 401.749 114.061L403.237 115.63C417.341 102.413 416.114 88.6103 413.738 83.3611Z" fill="#DB4E19"/>
<path d="M409.802 104.474L407.333 100.099C398.973 104.565 385.984 99.3864 379.723 95.9773L377.414 98.515C391.911 111.3 404.802 107.338 409.802 104.474Z" fill="#AB191A"/>
<path d="M410.534 105.904L408.066 101.529C399.705 105.995 385.095 100.294 378.834 96.8847L377.414 98.5154C391.911 111.3 405.534 108.768 410.534 105.904Z" fill="#DB4E19"/>
<path d="M416.74 105.103L418.739 100.495C410.133 96.5234 406.425 83.0404 405.366 75.9911L401.949 75.681C400.502 94.9557 411.439 102.845 416.74 105.103Z" fill="#AB191A"/>
<path d="M416.044 106.551L418.043 101.942C409.437 97.9708 405.167 82.8794 404.107 75.8301L401.95 75.6815C400.503 94.9562 410.743 104.292 416.044 106.551Z" fill="#DB4E19"/>
<path d="M355.46 81.0351L352.551 85.1313C360.151 90.7952 360.994 104.753 360.573 111.87L363.853 112.879C369.251 94.3193 360.179 84.3404 355.46 81.0351Z" fill="#AB191A"/>
<path d="M356.441 79.7632L353.533 83.8593C361.133 89.5232 362.192 105.171 361.772 112.287L363.852 112.879C369.251 94.3188 361.161 83.0684 356.441 79.7632Z" fill="#DB4E19"/>
<path d="M354.807 93.1839L355.606 98.1436C364.997 96.8518 375.385 106.212 380.076 111.58L383.121 110C373.955 92.983 360.49 92.2304 354.807 93.1839Z" fill="#AB191A"/>
<path d="M354.615 91.5899L355.414 96.5496C364.804 95.2578 376.533 105.67 381.223 111.038L383.121 110.001C373.955 92.9838 360.298 90.6364 354.615 91.5899Z" fill="#DB4E19"/>
<path d="M394.469 112.426L392 108.051C383.64 112.517 370.651 107.338 364.39 103.929L362.081 106.467C376.578 119.252 389.469 115.29 394.469 112.426Z" fill="#AB191A"/>
<path d="M395.201 113.856L392.733 109.48C384.372 113.947 369.762 108.246 363.501 104.836L362.081 106.467C376.578 119.252 390.201 116.72 395.201 113.856Z" fill="#DB4E19"/>
<path d="M397.681 82.2948L392.659 82.1741C392.213 91.6421 381.112 100.146 374.977 103.776L375.974 107.059C394.38 101.157 397.58 88.056 397.681 82.2948Z" fill="#AB191A"/>
<path d="M399.284 82.3977L394.261 82.277C393.816 91.745 381.435 101.374 375.301 105.004L375.974 107.06C394.379 101.157 399.183 88.1589 399.284 82.3977Z" fill="#DB4E19"/>
<path d="M385.302 100.552L390.221 101.571C392.356 92.3362 404.802 85.9595 411.487 83.4867L411.095 80.0782C391.93 82.5873 386.434 94.9026 385.302 100.552Z" fill="#AB191A"/>
<path d="M383.743 100.164L388.663 101.183C390.798 91.9477 404.703 84.6932 411.389 82.2204L411.095 80.0779C391.93 82.587 384.875 94.5141 383.743 100.164Z" fill="#DB4E19"/>
<path d="M403.09 88.8472L398.068 88.7265C397.622 98.1945 386.521 106.698 380.387 110.329L381.383 113.612C399.789 107.709 402.989 94.6084 403.09 88.8472Z" fill="#AB191A"/>
<path d="M404.693 88.9501L399.671 88.8294C399.225 98.2974 386.844 107.926 380.71 111.557L381.383 113.612C399.789 107.709 404.592 94.7113 404.693 88.9501Z" fill="#DB4E19"/>
<path d="M365.457 99.7621L370.346 100.918C372.738 91.7464 385.357 85.7203 392.109 83.4354L391.812 80.0172C372.584 81.9893 366.746 94.1461 365.457 99.7621Z" fill="#AB191A"/>
<path d="M363.91 99.3302L368.799 100.486C371.191 91.3145 385.294 84.4518 392.046 82.1669L391.813 80.0171C372.584 81.9892 365.199 93.7142 363.91 99.3302Z" fill="#DB4E19"/>
<path d="M355.22 115.105L360.228 114.718C359.716 105.254 369.903 95.6735 375.639 91.4422L374.316 88.2765C356.601 96.0064 354.739 109.363 355.22 115.105Z" fill="#AB191A"/>
<path d="M353.614 115.164L358.623 114.777C358.111 105.313 369.456 94.4838 375.193 90.2525L374.316 88.2758C356.6 96.0057 353.133 109.422 353.614 115.164Z" fill="#DB4E19"/>
<path d="M417.72 83.9623L412.739 83.3058C411.285 92.672 399.339 99.9408 392.851 102.895L393.492 106.266C412.423 102.364 417.004 89.6798 417.72 83.9623Z" fill="#AB191A"/>
<path d="M419.304 84.2363L414.323 83.5798C412.869 92.9459 399.53 101.197 393.043 104.151L393.493 106.267C412.424 102.364 418.588 89.9537 419.304 84.2363Z" fill="#DB4E19"/>
<path d="M382.175 91.8251L380.419 96.5318C389.221 100.049 393.627 113.32 395.052 120.305L398.481 120.436C398.921 101.112 387.587 93.8044 382.175 91.8251Z" fill="#AB191A"/>
<path d="M382.797 90.3435L381.041 95.0501C389.843 98.5673 394.894 113.416 396.319 120.4L398.482 120.436C398.922 101.112 388.209 92.3227 382.797 90.3435Z" fill="#DB4E19"/>
<path d="M394.417 113.733L397.108 109.49C389.223 104.23 387.654 90.3349 387.703 83.2067L384.376 82.3696C379.952 101.185 389.531 110.678 394.417 113.733Z" fill="#AB191A"/>
<path d="M393.503 115.053L396.194 110.81C388.309 105.55 386.435 89.9789 386.483 82.8506L384.375 82.3687C379.952 101.185 388.617 111.998 393.503 115.053Z" fill="#DB4E19"/>
<path d="M360.114 124.451L365.123 124.064C364.611 114.6 374.797 105.019 380.534 100.788L379.211 97.6222C361.495 105.352 359.633 118.709 360.114 124.451Z" fill="#AB191A"/>
<path d="M358.509 124.51L363.517 124.123C363.006 114.658 374.351 103.83 380.088 99.5982L379.211 97.6215C361.495 105.351 358.028 118.768 358.509 124.51Z" fill="#DB4E19"/>
<path d="M414.863 73.8071L409.882 73.1506C408.427 82.5167 396.481 89.7855 389.994 92.7402L390.634 96.1109C409.565 92.2084 414.147 79.5245 414.863 73.8071Z" fill="#AB191A"/>
<path d="M416.447 74.081L411.466 73.4245C410.011 82.7906 396.673 91.0415 390.186 93.9962L390.635 96.1114C409.566 92.2089 415.731 79.7984 416.447 74.081Z" fill="#DB4E19"/>
<path d="M376.454 96.036L371.75 97.7989C374.871 106.749 367.747 118.782 363.411 124.44L365.561 127.114C380.433 114.767 378.511 101.418 376.454 96.036Z" fill="#AB191A"/>
<path d="M377.979 95.5332L373.275 97.2961C376.396 106.246 368.505 119.8 364.17 125.459L365.561 127.114C380.433 114.767 380.036 100.916 377.979 95.5332Z" fill="#DB4E19"/>
<path d="M389.271 116.884L385.201 113.939C379.47 121.489 365.505 122.207 358.393 121.723L357.354 124.993C375.865 130.557 385.924 121.574 389.271 116.884Z" fill="#AB191A"/>
<path d="M390.533 117.877L386.463 114.932C380.731 122.482 365.075 123.402 357.963 122.919L357.353 124.994C375.864 130.557 387.186 122.567 390.533 117.877Z" fill="#DB4E19"/>
<path d="M334.656 100.706L337.889 100.547C338.654 116.068 343.006 124.764 345.086 127.171L342.111 129.038C339.617 125.79 336.102 108.797 334.656 100.706Z" fill="#F0A155"/>
<path d="M327.84 98.4343L331.074 98.2749C331.839 113.796 336.191 122.492 338.271 124.9L335.296 126.767C332.802 123.518 329.286 106.525 327.84 98.4343Z" fill="#F0A155"/>
<path d="M332.686 106.365L330.277 108.527C319.899 96.9599 311.039 92.9526 307.907 92.3949L309.039 89.0701C313.023 90.0197 326.464 100.996 332.686 106.365Z" fill="#F0A155"/>
<path d="M319.274 101.187L319.584 97.9647C335.053 99.4511 344.286 96.4019 346.969 94.6915L348.386 97.9051C344.812 99.9034 327.489 100.926 319.274 101.187Z" fill="#F0A155"/>
<path d="M333.518 107.113L336.287 105.435C344.345 118.723 352.309 124.3 355.285 125.428L353.556 128.486C349.817 126.816 338.64 113.542 333.518 107.113Z" fill="#F3C45D"/>
<path d="M322.806 103.206L321.716 106.255C307.084 101.018 297.385 101.709 294.364 102.709L293.779 99.2458C297.734 98.1856 314.779 101.444 322.806 103.206Z" fill="#F3C45D"/>
<path d="M328.683 96.8233L327.422 93.8414C341.735 87.7886 348.405 80.7136 349.951 77.9327L352.727 80.0847C350.534 83.5431 335.784 92.6848 328.683 96.8233Z" fill="#F3C45D"/>
<path d="M283.979 103.8L282.718 100.818C297.031 94.7655 303.701 87.6905 305.247 84.9096L308.023 87.0616C305.83 90.52 291.079 99.6617 283.979 103.8Z" fill="#F3C45D"/>
<path d="M334.655 100.298L337.423 98.6197C345.481 111.908 353.446 117.485 356.421 118.613L354.693 121.671C350.954 120.001 339.776 106.727 334.655 100.298Z" fill="#F3C45D"/>
<path d="M326.221 109.213L325.13 112.261C310.498 107.025 300.799 107.716 297.778 108.716L297.193 105.253C301.148 104.192 318.193 107.451 326.221 109.213Z" fill="#F3C45D"/>
<path d="M312.584 108.139L311.493 111.187C296.861 105.951 287.162 106.642 284.142 107.642L283.556 104.178C287.512 103.118 304.556 106.377 312.584 108.139Z" fill="#F3C45D"/>
<path d="M322.104 94.7137L320.843 91.7318C335.156 85.6789 341.826 78.6039 343.372 75.823L346.148 77.9751C343.955 81.4335 329.204 90.5751 322.104 94.7137Z" fill="#F3C45D"/>
<path d="M348.423 93.0404L350.48 95.5403C338.48 105.415 334.098 114.096 333.408 117.201L330.134 115.928C331.253 111.988 342.793 99.0281 348.423 93.0404Z" fill="#EF894E"/>
<path d="M324.924 124.44L321.801 123.588C325.89 108.596 324.451 98.979 323.221 96.0449L326.628 95.193C327.991 99.0548 326.06 116.3 324.924 124.44Z" fill="#EF894E"/>
<path d="M354.51 110.594C350.675 107.288 336.66 108.425 330.132 109.407L330.259 111.435L353.909 112.7L354.51 110.594Z" fill="#F4C35D"/>
<path d="M304.317 113.737C309.378 113.885 319.54 104.168 323.989 99.2913L322.612 97.7972L303.455 111.723L304.317 113.737Z" fill="#F4C35D"/>
<path d="M335.161 76.5543C331.335 79.8716 330.435 93.9033 330.463 100.505L332.488 100.672L337.158 77.4529L335.161 76.5543Z" fill="#F4C35D"/>
<path d="M331.387 107.687C326.324 107.687 316.45 117.698 312.146 122.703L313.566 124.156L332.307 109.675L331.387 107.687Z" fill="#F4C35D"/>
<path d="M355.709 102.929C353.542 98.3528 340.27 93.7117 333.904 91.9633L333.198 93.8683L354.306 104.611L355.709 102.929Z" fill="#F1A055"/>
<path d="M324.004 105.415C318.941 105.415 309.067 115.426 304.764 120.431L306.183 121.884L324.924 107.403L324.004 105.415Z" fill="#F1A055"/>
<path d="M331.264 98.5267C335.194 95.3351 336.549 81.3399 336.735 74.7412L334.716 74.5081L329.296 97.5638L331.264 98.5267Z" fill="#F1A055"/>
<path d="M299.959 116.132C303.89 112.94 305.244 98.9449 305.43 92.3462L303.412 92.1131L297.992 115.169L299.959 116.132Z" fill="#F1A055"/>
<path d="M325.627 105.993C324.896 111.003 333.374 122.22 337.705 127.202L339.348 126.007L327.727 105.37L325.627 105.993Z" fill="#F1A055"/>
<path d="M339.337 97.4647C334.274 97.4647 324.4 107.475 320.097 112.481L321.516 113.934L340.257 99.4524L339.337 97.4647Z" fill="#F1A055"/>
<path d="M324.941 109.973C326.599 114.757 339.29 120.809 345.429 123.236L346.337 121.419L326.518 108.452L324.941 109.973Z" fill="#D77F28"/>
<path d="M355.714 106.939C352.594 102.951 338.626 101.344 332.032 101.038L331.762 103.052L354.716 108.889L355.714 106.939Z" fill="#D77F28"/>
<path d="M343.788 105.037C340.668 101.049 326.699 99.4415 320.105 99.1362L319.836 101.15L342.789 106.986L343.788 105.037Z" fill="#D77F28"/>
<path d="M306.875 115.458C303.755 111.47 289.786 109.862 283.192 109.557L282.922 111.571L305.876 117.407L306.875 115.458Z" fill="#D77F28"/>
<path d="M327.528 81.6262C327.789 86.6828 338.295 96.0279 343.515 100.068L344.893 98.5756L329.466 80.6049L327.528 81.6262Z" fill="#D77F28"/>
<path d="M305.687 117.333C310.623 118.462 322.48 110.905 327.792 106.985L326.732 105.252L305.233 115.19L305.687 117.333Z" fill="#D77F28"/>
<path d="M331.719 74.8358C327.322 77.3467 323.712 90.9361 322.457 97.417L324.411 97.9748L333.504 76.1055L331.719 74.8358Z" fill="#D77F28"/>
<path d="M319.793 72.9336C315.396 75.4445 311.787 89.0339 310.532 95.5147L312.485 96.0726L321.578 74.2033L319.793 72.9336Z" fill="#D77F28"/>
<path d="M328.706 121.689C333.747 122.162 344.512 113.117 349.265 108.536L347.987 106.956L327.975 119.624L328.706 121.689Z" fill="#D77F28"/>
<path d="M327.979 96.8969C322.915 96.8969 313.042 106.908 308.738 111.913L310.158 113.366L328.899 98.8845L327.979 96.8969Z" fill="#D57C26"/>
<path d="M333.547 107.645C337.478 104.454 338.832 90.4584 339.018 83.8598L337 83.6266L331.58 106.682L333.547 107.645Z" fill="#D57C26"/>
<path d="M317.774 100.827C317.042 105.837 325.521 117.054 329.852 122.036L331.495 120.841L319.874 100.204L317.774 100.827Z" fill="#D57C26"/>
<path d="M305.847 98.9252C305.115 103.935 313.594 115.152 317.925 120.134L319.568 118.939L307.947 98.3018L305.847 98.9252Z" fill="#D57C26"/>
<path d="M355.059 108.437C358.538 104.759 358.048 90.7065 357.368 84.1404L355.336 84.1735L352.982 107.74L355.059 108.437Z" fill="#D57C26"/>
<path d="M343.881 105.415C338.818 105.415 328.944 115.426 324.641 120.431L326.06 121.884L344.801 107.403L343.881 105.415Z" fill="#D57C26"/>
<path d="M309.238 102.008C304.175 102.008 294.302 112.019 289.998 117.024L291.418 118.477L310.159 103.996L309.238 102.008Z" fill="#D57C26"/>
<path d="M345.015 86.7933L347.073 89.2932C335.073 99.1681 330.691 107.848 330 110.954L326.727 109.681C327.846 105.741 339.385 92.7811 345.015 86.7933Z" fill="#EF894E"/>
<path d="M326.691 126.228L323.518 125.584C326.609 110.354 324.539 100.854 323.117 98.007L326.461 96.9322C328.076 100.696 327.288 118.031 326.691 126.228Z" fill="#EF894E"/>
<path d="M314.766 124.326L311.593 123.682C314.683 108.452 312.613 98.951 311.192 96.1045L314.535 95.0296C316.15 98.793 315.362 116.128 314.766 124.326Z" fill="#EF894E"/>
<path d="M362.363 82.5268L364.589 84.8776C353.305 95.563 349.538 104.527 349.065 107.673L345.711 106.631C346.553 102.623 357.163 88.8915 362.363 82.5268Z" fill="#EF894E"/>
<path d="M307.62 80.9882L309.846 83.339C298.562 94.0244 294.795 102.988 294.321 106.135L290.967 105.092C291.809 101.084 302.42 87.353 307.62 80.9882Z" fill="#EF894E"/>
<path d="M310.237 82.5108L313.008 80.8365C321.045 94.1372 329.001 99.7275 331.974 100.86L330.241 103.915C326.505 102.239 315.348 88.9471 310.237 82.5108Z" fill="#EF894E"/>
<path d="M298.311 80.6087L301.082 78.9344C309.119 92.2351 317.075 97.8254 320.049 98.958L318.315 102.013C314.579 100.337 303.422 87.045 298.311 80.6087Z" fill="#EF894E"/>
<path d="M283.546 99.7269L286.317 98.0525C294.354 111.353 302.31 116.944 305.283 118.076L303.55 121.131C299.813 119.455 288.657 106.163 283.546 99.7269Z" fill="#EF894E"/>
<path d="M350.697 127.757L347.467 127.534C348.537 112.03 345.241 102.882 343.459 100.247L346.633 98.743C348.727 102.263 350.215 119.552 350.697 127.757Z" fill="#EF894E"/>
<path d="M335.999 46.353C330.32 48.1514 317.598 50.6691 312.146 46.353C315.081 47.1102 323.959 48.1703 335.999 46.353Z" fill="#F8F7F1"/>
<path d="M302.657 50.3421C308.614 50.2655 321.519 51.5397 325.487 57.2498C322.898 55.6752 314.707 52.0894 302.657 50.3421Z" fill="#F8F7F1"/>
<path d="M301.522 61.7003C307.478 61.6236 320.383 62.8979 324.352 68.6079C321.762 67.0334 313.572 63.4476 301.522 61.7003Z" fill="#F8F7F1"/>
<path d="M302.628 71.1575C306.472 66.607 315.889 57.6915 322.803 58.4341C319.917 59.3588 311.842 63.198 302.628 71.1575Z" fill="#F8F7F1"/>
<path d="M286.158 84.2195C290.002 79.669 299.419 70.7535 306.333 71.4961C303.447 72.4208 295.372 76.2601 286.158 84.2195Z" fill="#F8F7F1"/>
<path d="M286.692 75.4715C292.457 73.9708 305.292 72.1179 310.512 76.7117C307.621 75.8029 298.81 74.2826 286.692 75.4715Z" fill="#F8F7F1"/>
<path d="M336.567 62.8223C330.888 64.6206 318.167 67.1384 312.715 62.8223C315.649 63.5795 324.527 64.6396 336.567 62.8223Z" fill="#F8F7F1"/>
<path d="M347.871 62.0031C341.96 61.2627 329.351 58.2319 326.203 52.0319C328.552 53.9464 336.174 58.6209 347.871 62.0031Z" fill="#F8F7F1"/>
<path d="M346.735 73.3614C340.824 72.621 328.216 69.5901 325.067 63.3901C327.416 65.3046 335.038 69.9792 346.735 73.3614Z" fill="#F8F7F1"/>
<path d="M341.058 44.637C336.626 48.6177 326.076 56.1584 319.329 54.4753C322.314 53.9549 330.84 51.2585 341.058 44.637Z" fill="#F8F7F1"/>
<path d="M324.589 57.699C320.157 61.6797 309.607 69.2204 302.86 67.5374C305.846 67.0169 314.371 64.3205 324.589 57.699Z" fill="#F8F7F1"/>
<path d="M333.382 75.968C327.466 76.6645 314.498 76.7409 309.957 71.4751C312.696 72.7715 321.216 75.485 333.382 75.968Z" fill="#F8F7F1"/>
<path d="M314.366 65.4108C308.455 64.6704 295.847 61.6396 292.698 55.4396C295.047 57.3541 302.669 62.0286 314.366 65.4108Z" fill="#F8F7F1"/>
<path d="M291.135 75.8838C297.062 75.29 310.029 75.4385 314.479 80.7822C311.762 79.4386 303.291 76.5778 291.135 75.8838Z" fill="#F8F7F1"/>
<path d="M308.171 74.1804C302.492 75.9788 289.771 78.4965 284.319 74.1804C287.254 74.9376 296.132 75.9977 308.171 74.1804Z" fill="#F8F7F1"/>
<path d="M313.154 64.8736C318.699 62.6968 331.222 59.3279 336.952 63.267C333.974 62.7091 325.044 62.2495 313.154 64.8736Z" fill="#F8F7F1"/>
<path d="M310.958 75.6497C305.047 74.9093 292.438 71.8785 289.29 65.6785C291.639 67.593 299.261 72.2675 310.958 75.6497Z" fill="#F8F7F1"/>
<path d="M309.822 87.0079C303.911 86.2675 291.303 83.2366 288.154 77.0366C290.503 78.9511 298.125 83.6257 309.822 87.0079Z" fill="#F8F7F1"/>
<path d="M327.186 81.4657C322.754 85.4464 312.204 92.9871 305.457 91.3041C308.442 90.7836 316.967 88.0872 327.186 81.4657Z" fill="#F8F7F1"/>
<path d="M310.716 94.5277C306.284 98.5084 295.734 106.049 288.987 104.366C291.973 103.846 300.498 101.149 310.716 94.5277Z" fill="#F8F7F1"/>
<path d="M300.81 98.0554C294.894 98.7519 281.926 98.8283 277.385 93.5625C280.124 94.8589 288.643 97.5724 300.81 98.0554Z" fill="#F8F7F1"/>
<path d="M324.084 54.3646C330.011 53.7709 342.978 53.9193 347.428 59.2631C344.712 57.9194 336.24 55.0586 324.084 54.3646Z" fill="#F8F7F1"/>
<path d="M322.948 65.7224C328.876 65.1287 341.843 65.2771 346.292 70.6208C343.576 69.2772 335.105 66.4164 322.948 65.7224Z" fill="#F8F7F1"/>
<path d="M319.704 57.6051C323.138 52.7378 331.745 43.0381 338.697 43.1772C335.903 44.3491 328.192 48.8753 319.704 57.6051Z" fill="#F8F7F1"/>
<path d="M303.235 70.6671C306.669 65.7998 315.276 56.1001 322.229 56.2393C319.434 57.4111 311.723 61.9373 303.235 70.6671Z" fill="#F8F7F1"/>
<path d="M308.458 74.2463C314.071 72.2506 326.696 69.2898 332.296 73.4127C329.337 72.7585 320.427 72.0093 308.458 74.2463Z" fill="#F8F7F1"/>
<path d="M321.801 43.0063C327.728 42.4126 340.695 42.561 345.145 47.9048C342.428 46.5611 333.957 43.7003 321.801 43.0063Z" fill="#F8F7F1"/>
<path d="M320.665 54.3646C326.592 53.7709 339.559 53.9193 344.009 59.2631C341.293 57.9194 332.821 55.0586 320.665 54.3646Z" fill="#F8F7F1"/>
<path d="M302.023 85.4873C296.149 86.4789 283.202 87.2043 278.402 82.1724C281.203 83.33 289.848 85.6137 302.023 85.4873Z" fill="#F8F7F1"/>
<path d="M309.626 51.8883C313.061 47.021 321.668 37.3213 328.62 37.4604C325.826 38.6323 318.114 43.1585 309.626 51.8883Z" fill="#F8F7F1"/>
<path d="M293.158 64.9504C296.592 60.0831 305.199 50.3834 312.151 50.5226C309.357 51.6945 301.646 56.2206 293.158 64.9504Z" fill="#F8F7F1"/>
<path d="M303.522 63.7657C309.135 61.77 321.76 58.8092 327.359 62.9321C324.401 62.2779 315.491 61.5288 303.522 63.7657Z" fill="#F8F7F1"/>
<path d="M324.072 57.1433C318.393 58.9417 305.672 61.4594 300.22 57.1433C303.154 57.9005 312.032 58.9606 324.072 57.1433Z" fill="#F8F7F1"/>
<path d="M331.432 67.8343C326.733 71.4959 315.682 78.2814 309.069 76.1313C312.084 75.8206 320.776 73.7262 331.432 67.8343Z" fill="#F8F7F1"/>
<path d="M332.526 66.8193C326.615 66.0789 314.007 63.048 310.858 56.848C313.207 58.7625 320.829 63.4371 332.526 66.8193Z" fill="#F8F7F1"/>
<path d="M289.35 73.8594C295.298 74.2 308.082 76.3747 311.641 82.3485C309.168 80.5966 301.248 76.4461 289.35 73.8594Z" fill="#F8F7F1"/>
<path d="M331.391 78.1774C325.48 77.437 312.871 74.4062 309.723 68.2062C312.072 70.1207 319.694 74.7952 331.391 78.1774Z" fill="#F8F7F1"/>
<path d="M334.644 59.3849C330.212 63.3656 319.662 70.9063 312.915 69.2233C315.9 68.7028 324.425 66.0064 334.644 59.3849Z" fill="#F8F7F1"/>
<path d="M318.174 72.4469C313.742 76.4276 303.192 83.9683 296.445 82.2853C299.431 81.7648 307.956 79.0684 318.174 72.4469Z" fill="#F8F7F1"/>
<path d="M319.637 84.3168C313.721 85.0132 300.753 85.0896 296.212 79.8239C298.951 81.1202 307.471 83.8337 319.637 84.3168Z" fill="#F8F7F1"/>
<path d="M301.032 55.5328C306.888 54.4394 319.821 53.4897 324.707 58.4376C321.887 57.3287 313.204 55.1952 301.032 55.5328Z" fill="#F8F7F1"/>
<path d="M305.022 67.7734C310.949 67.1797 323.916 67.3281 328.365 72.6719C325.649 71.3282 317.178 68.4674 305.022 67.7734Z" fill="#F8F7F1"/>
<path d="M316.69 66.2295C311.011 68.0279 298.29 70.5456 292.838 66.2295C295.772 66.9867 304.65 68.0468 316.69 66.2295Z" fill="#F8F7F1"/>
<path d="M305.19 73.3802C310.735 71.2034 323.258 67.8345 328.988 71.7736C326.01 71.2157 317.08 70.7561 305.19 73.3802Z" fill="#F8F7F1"/>
<path d="M315.554 77.5878C309.875 79.3861 297.154 81.9039 291.702 77.5878C294.636 78.345 303.515 79.4051 315.554 77.5878Z" fill="#F8F7F1"/>
<path d="M323.823 70.9651C321.461 76.434 315.03 87.6945 308.197 88.9861C310.692 87.2653 317.309 81.252 323.823 70.9651Z" fill="#F8F7F1"/>
<path d="M307.354 84.0268C304.993 89.4956 298.561 100.756 291.729 102.048C294.223 100.327 300.84 94.3136 307.354 84.0268Z" fill="#F8F7F1"/>
<path d="M304.119 87.5375C299.036 90.6434 287.288 96.1339 280.961 93.2488C283.991 93.2814 292.865 92.1848 304.119 87.5375Z" fill="#F8F7F1"/>
<path d="M322.021 71.9884C316.111 71.2479 303.502 68.2171 300.354 62.0171C302.702 63.9316 310.325 68.6061 322.021 71.9884Z" fill="#F8F7F1"/>
<path d="M314.112 60.3961C320.04 59.8024 333.007 59.9508 337.456 65.2946C334.74 63.9509 326.269 61.0901 314.112 60.3961Z" fill="#F8F7F1"/>
<path d="M325.451 65.0719C328.508 66.1103 333.186 69.8008 327.04 74.0183C325.152 74.1677 322.033 71.7075 325.451 65.0719Z" fill="#ABB655"/>
<path d="M325.857 65.2882C328.654 66.4255 332.879 69.7511 327.396 73.9551C325.685 74.0667 322.903 72.0422 325.857 65.2882Z" fill="#E7D631"/>
<path d="M327.457 51.3703C330.458 50.1787 336.412 49.9556 334.468 57.1509C333.127 58.4893 329.158 58.6381 327.457 51.3703Z" fill="#ABB655"/>
<path d="M327.907 51.272C330.774 50.3239 336.146 50.1166 334.698 56.872C333.468 58.0661 330.037 58.3288 327.907 51.272Z" fill="#E7D631"/>
<path d="M311.908 68.96C309.619 67.7713 306.37 64.293 311.731 61.7036C313.241 61.8133 315.407 64.1321 311.908 68.96Z" fill="#ABB655"/>
<path d="M311.613 68.7402C309.541 67.5048 306.606 64.3693 311.443 61.7106C312.807 61.8287 314.76 63.7629 311.613 68.7402Z" fill="#E7D631"/>
<path d="M319.981 48.7443C318.026 47.729 315.251 44.758 319.83 42.5462C321.119 42.6399 322.969 44.6206 319.981 48.7443Z" fill="#ABB655"/>
<path d="M319.729 48.5566C317.959 47.5014 315.452 44.8231 319.583 42.5522C320.749 42.6531 322.417 44.3051 319.729 48.5566Z" fill="#E7D631"/>
<path d="M291.226 61.4274C291.662 58.3165 294.337 53.1741 299.487 58.2792C299.974 60.057 298.19 63.4854 291.226 61.4274Z" fill="#ABB655"/>
<path d="M291.359 61.0004C291.937 58.1195 294.345 53.4763 299.362 57.9505C299.78 59.5651 298.352 62.5929 291.359 61.0004Z" fill="#E7D631"/>
<path d="M298.549 72.7345C301.606 73.7729 306.283 77.4634 300.138 81.6809C298.249 81.8303 295.131 79.3701 298.549 72.7345Z" fill="#ABB655"/>
<path d="M298.954 72.9508C301.752 74.0881 305.976 77.4137 300.494 81.6177C298.783 81.7293 296.001 79.7048 298.954 72.9508Z" fill="#E7D631"/>
<path d="M308.569 51.9681C311.18 52.8551 315.175 56.0073 309.926 59.6097C308.313 59.7374 305.649 57.6359 308.569 51.9681Z" fill="#ABB655"/>
<path d="M308.915 52.1528C311.305 53.1243 314.913 55.9649 310.23 59.5557C308.769 59.6511 306.392 57.9218 308.915 52.1528Z" fill="#E7D631"/>
<path d="M300.618 63.9499C303.23 64.8369 307.225 67.9891 301.976 71.5915C300.363 71.7192 297.699 69.6177 300.618 63.9499Z" fill="#ABB655"/>
<path d="M300.965 64.1347C303.354 65.1061 306.963 67.9467 302.28 71.5375C300.819 71.6329 298.442 69.9037 300.965 64.1347Z" fill="#E7D631"/>
<path d="M311.946 74.6458C314.947 73.4542 320.9 73.2311 318.956 80.4264C317.615 81.7648 313.646 81.9136 311.946 74.6458Z" fill="#ABB655"/>
<path d="M312.395 74.5475C315.262 73.5994 320.635 73.3921 319.186 80.1475C317.956 81.3416 314.526 81.6044 312.395 74.5475Z" fill="#E7D631"/>
<path d="M323.391 40.1586C326.392 38.967 332.346 38.7439 330.402 45.9393C329.061 47.2776 325.091 47.4265 323.391 40.1586Z" fill="#ABB655"/>
<path d="M323.84 40.0603C326.707 39.1122 332.08 38.905 330.632 45.6604C329.402 46.8545 325.971 47.1172 323.84 40.0603Z" fill="#E7D631"/>
<path d="M334.074 66.1518C331.785 64.9631 328.536 61.4848 333.897 58.8953C335.407 59.0051 337.573 61.3239 334.074 66.1518Z" fill="#ABB655"/>
<path d="M333.779 65.932C331.707 64.6966 328.772 61.561 333.609 58.9023C334.973 59.0205 336.926 60.9546 333.779 65.932Z" fill="#E7D631"/>
<path d="M338.912 46.3451C336.957 45.3298 334.182 42.3588 338.762 40.147C340.051 40.2408 341.901 42.2214 338.912 46.3451Z" fill="#ABB655"/>
<path d="M338.661 46.1574C336.891 45.1022 334.384 42.4239 338.515 40.153C339.68 40.2539 341.349 41.906 338.661 46.1574Z" fill="#E7D631"/>
<path d="M296.112 93.4814C294.157 92.466 291.382 89.4951 295.962 87.2833C297.251 87.377 299.101 89.3576 296.112 93.4814Z" fill="#ABB655"/>
<path d="M295.861 93.2937C294.091 92.2384 291.584 89.5602 295.715 87.2892C296.881 87.3901 298.549 89.0422 295.861 93.2937Z" fill="#E7D631"/>
<path d="M303.449 85.7374C303.885 82.6265 306.56 77.484 311.71 82.5891C312.196 84.3669 310.413 87.7953 303.449 85.7374Z" fill="#ABB655"/>
<path d="M303.582 85.3103C304.159 82.4294 306.568 77.7863 311.584 82.2605C312.003 83.875 310.575 86.9028 303.582 85.3103Z" fill="#E7D631"/>
<path d="M303.77 62.1483C304.008 60.4485 305.47 57.6386 308.284 60.4281C308.55 61.3995 307.575 63.2728 303.77 62.1483Z" fill="#ABB655"/>
<path d="M303.843 61.915C304.158 60.3408 305.474 57.8037 308.215 60.2485C308.444 61.1307 307.664 62.7851 303.843 61.915Z" fill="#E7D631"/>
<path d="M279.35 78.8982C279.588 77.1983 281.05 74.3884 283.864 77.1779C284.13 78.1494 283.155 80.0227 279.35 78.8982Z" fill="#ABB655"/>
<path d="M279.423 78.6648C279.738 77.0907 281.054 74.5536 283.795 76.9984C284.024 77.8806 283.244 79.535 279.423 78.6648Z" fill="#E7D631"/>
<path d="M316.231 58.6342C319.288 59.6727 323.966 63.3632 317.82 67.5807C315.932 67.7301 312.813 65.2698 316.231 58.6342Z" fill="#ABB655"/>
<path d="M316.637 58.8506C319.434 59.9879 323.659 63.3135 318.176 67.5175C316.466 67.6291 313.683 65.6046 316.637 58.8506Z" fill="#E7D631"/>
<path d="M310.753 47.3387C312.423 47.9062 314.979 49.9227 311.621 52.2272C310.589 52.3089 308.885 50.9645 310.753 47.3387Z" fill="#ABB655"/>
<path d="M310.975 47.4569C312.503 48.0784 314.812 49.8955 311.816 52.1927C310.881 52.2536 309.361 51.1474 310.975 47.4569Z" fill="#E7D631"/>
<path d="M323.714 63.2402C325.384 63.8077 327.94 65.8242 324.582 68.1287C323.55 68.2103 321.846 66.866 323.714 63.2402Z" fill="#ABB655"/>
<path d="M323.935 63.3584C325.464 63.9799 327.772 65.797 324.777 68.0942C323.842 68.1551 322.322 67.0489 323.935 63.3584Z" fill="#E7D631"/>
<path d="M306.107 73.4624C307.778 74.0298 310.334 76.0464 306.976 78.3509C305.944 78.4325 304.24 77.0882 306.107 73.4624Z" fill="#ABB655"/>
<path d="M306.329 73.5806C307.858 74.202 310.166 76.0192 307.17 78.3163C306.236 78.3773 304.715 77.2711 306.329 73.5806Z" fill="#E7D631"/>
<path d="M291.343 78.5735C293.013 79.1409 295.569 81.1574 292.211 83.4619C291.179 83.5436 289.475 82.1993 291.343 78.5735Z" fill="#ABB655"/>
<path d="M291.564 78.6917C293.093 79.3131 295.401 81.1303 292.406 83.4274C291.471 83.4884 289.951 82.3822 291.564 78.6917Z" fill="#E7D631"/>
<path d="M279.416 91.6355C281.086 92.2029 283.642 94.2195 280.284 96.524C279.252 96.6056 277.548 95.2613 279.416 91.6355Z" fill="#ABB655"/>
<path d="M279.638 91.7537C281.166 92.3751 283.475 94.1923 280.479 96.4894C279.544 96.5504 278.024 95.4442 279.638 91.7537Z" fill="#E7D631"/>
<path d="M316.265 52.4462C319.266 51.2546 325.22 51.0315 323.276 58.2269C321.935 59.5652 317.965 59.714 316.265 52.4462Z" fill="#ABB655"/>
<path d="M316.714 52.3479C319.581 51.3998 324.954 51.1926 323.506 57.948C322.276 59.1421 318.845 59.4048 316.714 52.3479Z" fill="#E7D631"/>
<path d="M310.771 43.958C312.41 43.3069 315.664 43.1849 314.601 47.1166C313.869 47.8479 311.7 47.9292 310.771 43.958Z" fill="#ABB655"/>
<path d="M311.016 43.9043C312.583 43.3862 315.518 43.273 314.727 46.9642C314.055 47.6167 312.18 47.7602 311.016 43.9043Z" fill="#E7D631"/>
<path d="M323.732 59.8595C325.371 59.2084 328.625 59.0864 327.562 63.0181C326.83 63.7494 324.661 63.8307 323.732 59.8595Z" fill="#ABB655"/>
<path d="M323.977 59.8058C325.544 59.2877 328.479 59.1744 327.688 62.8657C327.016 63.5182 325.141 63.6617 323.977 59.8058Z" fill="#E7D631"/>
<path d="M330.053 46.2297C331.693 45.5786 334.946 45.4567 333.884 49.3883C333.151 50.1196 330.982 50.201 330.053 46.2297Z" fill="#ABB655"/>
<path d="M330.298 46.176C331.865 45.658 334.801 45.5447 334.009 49.2359C333.337 49.8884 331.463 50.032 330.298 46.176Z" fill="#E7D631"/>
<path d="M306.126 70.0816C307.766 69.4305 311.019 69.3086 309.957 73.2403C309.224 73.9716 307.055 74.0529 306.126 70.0816Z" fill="#ABB655"/>
<path d="M306.372 70.0279C307.938 69.5099 310.874 69.3966 310.083 73.0879C309.41 73.7404 307.536 73.8839 306.372 70.0279Z" fill="#E7D631"/>
<path d="M291.361 75.1932C293 74.5421 296.253 74.4202 295.191 78.3518C294.459 79.0831 292.29 79.1645 291.361 75.1932Z" fill="#ABB655"/>
<path d="M291.606 75.1395C293.173 74.6215 296.108 74.5082 295.317 78.1994C294.645 78.8519 292.77 78.9955 291.606 75.1395Z" fill="#E7D631"/>
<path d="M279.435 88.2547C281.074 87.6036 284.328 87.4817 283.265 91.4134C282.533 92.1447 280.364 92.226 279.435 88.2547Z" fill="#ABB655"/>
<path d="M279.68 88.201C281.247 87.683 284.182 87.5697 283.391 91.261C282.719 91.9134 280.844 92.057 279.68 88.201Z" fill="#E7D631"/>
<path d="M318.411 75.1549C316.122 73.9662 312.873 70.488 318.234 67.8985C319.744 68.0082 321.91 70.3271 318.411 75.1549Z" fill="#ABB655"/>
<path d="M318.116 74.9352C316.044 73.6997 313.109 70.5642 317.946 67.9055C319.31 68.0237 321.263 69.9578 318.116 74.9352Z" fill="#E7D631"/>
<path d="M340.304 59.9047C338.015 58.716 334.767 55.2377 340.128 52.6483C341.637 52.758 343.803 55.0768 340.304 59.9047Z" fill="#ABB655"/>
<path d="M340.01 59.6849C337.938 58.4495 335.003 55.314 339.839 52.6553C341.204 52.7734 343.157 54.7076 340.01 59.6849Z" fill="#E7D631"/>
<path d="M325.535 54.035C323.58 53.0196 320.805 50.0486 325.385 47.8368C326.674 47.9306 328.524 49.9112 325.535 54.035Z" fill="#ABB655"/>
<path d="M325.284 53.8473C323.514 52.792 321.007 50.1138 325.138 47.8428C326.304 47.9437 327.972 49.5958 325.284 53.8473Z" fill="#E7D631"/>
<path d="M285.89 86.6666C283.935 85.6512 281.16 82.6802 285.739 80.4684C287.029 80.5622 288.879 82.5428 285.89 86.6666Z" fill="#ABB655"/>
<path d="M285.638 86.4789C283.869 85.4236 281.362 82.7454 285.493 80.4744C286.658 80.5753 288.326 82.2274 285.638 86.4789Z" fill="#E7D631"/>
<path d="M286.754 71.4088C287.189 68.2978 289.864 63.1554 295.014 68.2605C295.501 70.0383 293.718 73.4667 286.754 71.4088Z" fill="#ABB655"/>
<path d="M286.886 70.9817C287.464 68.1008 289.873 63.4577 294.889 67.9319C295.307 69.5464 293.879 72.5742 286.886 70.9817Z" fill="#E7D631"/>
<path d="M283.914 93.7982C284.349 90.6872 287.025 85.5448 292.175 90.6499C292.661 92.4277 290.878 95.8561 283.914 93.7982Z" fill="#ABB655"/>
<path d="M284.047 93.3711C284.624 90.4902 287.033 85.8471 292.049 90.3213C292.468 91.9358 291.039 94.9636 284.047 93.3711Z" fill="#E7D631"/>
<path d="M322.14 120.248C318.304 116.942 304.29 118.08 297.762 119.061L297.889 121.089L321.539 122.354L322.14 120.248Z" fill="#F4C35D"/>
<path d="M322.14 98.0998C318.304 94.7942 304.29 95.9315 297.762 96.9133L297.889 98.9409L321.539 100.206L322.14 98.0998Z" fill="#F4C35D"/>
<path d="M345.707 52.6045C337.792 52.4114 331.504 58.6304 328.342 63.1749C327.354 64.5939 326.397 66.0525 325.181 67.2818C323.747 68.7326 323.16 68.7573 317.348 71.1088C314.699 72.1806 312.23 73.7855 310.622 76.1476C306.027 82.8949 307.366 88.2508 310.085 91.7553C312.407 94.747 316.477 95.2835 320.263 95.367C327.84 95.5341 338.335 96.8927 344.287 101.445C353.942 108.827 361.893 111.383 379.782 107.124C391.338 104.372 393.674 97.3624 393.248 92.3733C393.066 90.2456 391.843 88.4026 390.591 86.6729C389.116 84.6355 388.343 83.2122 387.932 82.0868C386.65 78.5755 388.051 74.6117 388.402 70.8902C388.757 67.1263 387.222 65.1629 383.757 60.2713C378.93 53.4564 366.152 57.4318 360.757 57.9997C355.362 58.5676 357.349 52.8884 345.707 52.6045Z" fill="white"/>
<ellipse cx="352.183" cy="79.5755" rx="17.8891" ry="11.6421" fill="#F9A532"/>
<path d="M350.177 71.1769C350.858 72.9942 348.378 73.8272 347.053 74.0165C346.201 74.1967 345.065 73.4486 345.349 72.3128C345.633 71.1769 349.325 68.9053 350.177 71.1769Z" fill="white"/>
<path d="M340.522 80.5471C340.757 80.3904 340.909 80.1392 341.003 79.854C341.335 78.8462 340.709 77.3305 341.658 76.8557C343.298 76.0349 344.578 73.1685 342.745 73.1098C342.26 73.0942 342.006 73.2748 341.606 73.5494C340.448 74.3446 338.723 75.9125 337.967 77.9915C336.831 81.115 339.67 81.115 340.522 80.5471Z" fill="white"/>
<path d="M117.013 184L98.4023 191.009L117.013 216.871V184Z" fill="#FFC470"/>
<path d="M81 216.388L88.4926 199.952L111.937 221.947L81 216.388Z" fill="#FFC470"/>
<path d="M111.937 228.956L85.1089 247.808L81 231.856L111.937 228.956Z" fill="#FFC470"/>
<path d="M120.155 298.323L127.648 291.314L127.89 290.831L136.832 300.015L128.856 307.266L120.155 298.323Z" fill="#A2A4A1"/>
<circle cx="162.693" cy="257.959" r="45.3063" fill="#E1F1FC" fill-opacity="0.9" stroke="#A7A7A7" stroke-width="8"/>
<circle cx="145.851" cy="239.878" r="9.38092" fill="white"/>
<path d="M116.697 297.294L99.2952 314.696L82.3764 331.615C80.6362 333.549 80.4486 336.028 82.3764 338.383L88.9022 344.667C92.5335 347.871 94.6224 345.634 96.1532 344.667L129.749 311.071C132.263 308.171 132.086 305.19 131.683 304.062L124.19 296.569C121.29 294.635 117.987 296.247 116.697 297.294Z" fill="#858585"/>
</svg>
