<svg width="468" height="395" viewBox="0 0 468 395" fill="none" xmlns="http://www.w3.org/2000/svg">
<g clip-path="url(#clip0)">
<g opacity="0.7">
<path opacity="0.7" d="M468 197.5C468 263.674 429.443 322.255 370.241 358.084C348.186 371.357 324.231 381.186 299.204 387.23C277.86 392.422 255.968 395.031 234 395C104.765 395 0 306.576 0 197.5C0 103.388 77.9876 24.648 182.362 4.81435C197.973 1.8508 213.812 0.240026 229.701 0C231.125 0 232.558 0 234 0H236.066H240.038C245.813 0.130118 251.535 0.439922 257.205 0.929412C271.832 2.14146 286.338 4.53162 300.581 8.07659C397.391 32.3156 468 107.951 468 197.5Z" fill="#EAEAEA"/>
</g>
<path d="M192.596 159.859H128.806C127.217 159.859 125.693 160.489 124.569 161.612C123.446 162.734 122.814 164.257 122.814 165.844V210.568C122.814 212.155 123.446 213.677 124.569 214.8C125.693 215.922 127.217 216.553 128.806 216.553H204.366C205.282 216.553 206.185 216.343 207.008 215.94C207.83 215.536 208.548 214.949 209.108 214.225C209.668 213.501 210.054 212.658 210.237 211.761C210.419 210.864 210.394 209.938 210.162 209.053L198.42 164.329C198.085 163.043 197.33 161.906 196.276 161.096C195.221 160.286 193.926 159.851 192.596 159.859Z" fill="#0A58E2"/>
<path d="M363.393 358.195C346.393 370.393 327.431 379.6 307.326 385.418C306.832 384.681 306.291 383.976 305.707 383.308C301.65 378.661 295.761 376.161 290.82 372.536C275.636 361.476 270.5 341.605 261.354 325.201C259.623 322.116 257.679 319.048 254.925 316.836C247.528 310.888 236.8 312.561 227.533 314.643C218.266 316.725 207.659 318.621 200.03 312.979C198.96 312.189 197.909 311.121 197.862 309.773C197.862 308.286 199.007 307.078 200.142 306.111C202.003 304.519 203.947 303.027 205.966 301.641C210.847 298.268 216.125 295.508 221.681 293.425L206.999 284.865L196.811 278.926L192.624 276.481L184.799 271.918C182.743 270.719 180.528 269.325 179.793 267.066C178.63 263.451 182.017 259.826 185.636 258.702C187.921 258.099 190.263 257.738 192.624 257.624C194.033 257.517 195.433 257.305 196.811 256.992H196.876C202.347 255.598 206.664 251.527 210.832 247.698C213.276 245.448 215.757 243.233 218.276 241.052C219.997 239.565 221.727 238.078 223.477 236.61C228.352 232.52 233.311 228.514 238.298 224.527C242.262 221.377 246.253 218.263 250.245 215.15C261.289 206.525 272.733 197.686 286.28 194.089C288.349 193.409 290.554 193.249 292.7 193.624C293.31 193.773 293.901 193.995 294.458 194.284C295.804 194.998 297.054 195.879 298.18 196.905C301.936 200.141 305.39 203.713 308.498 207.575C309.974 209.396 311.37 211.277 312.685 213.216C316.316 218.575 319.302 224.343 321.58 230.401C323.562 235.69 325.078 241.322 328.604 245.736C333.322 251.638 341.137 254.715 345.064 261.174C347.362 264.966 348.041 269.483 348.674 273.87C350.962 289.744 353.254 305.612 355.549 321.474C356.722 329.597 357.903 337.73 359.82 345.713C360.769 349.933 361.997 354.106 363.393 358.195Z" fill="#F7AC77"/>
<path d="M290.84 80.8588H205.074C195.614 80.8588 187.945 88.5194 187.945 97.9693V284.019C187.945 293.469 195.614 301.129 205.074 301.129H290.84C300.3 301.129 307.969 293.469 307.969 284.019V97.9693C307.969 88.5194 300.3 80.8588 290.84 80.8588Z" fill="black"/>
<path d="M303.781 115.712H192.131V283.935H303.781V115.712Z" fill="#E2D7FF"/>
<path d="M190.27 98.9824L164.219 118.5C164.219 118.5 174.453 143.594 187.944 118.5C187.479 118.5 205.157 98.9824 205.157 98.9824H190.27Z" fill="#FB1631"/>
<path d="M175.849 130.118H175.467C168.424 129.746 164.014 119.132 163.837 118.686L163.697 118.351L190.112 98.5176H206.208L205.501 99.2983C199.137 106.325 189.684 116.901 188.465 118.509L188.353 118.723C184.287 126.288 180.063 130.118 175.849 130.118ZM164.842 118.649C165.633 120.433 169.717 128.872 175.514 129.179C179.524 129.383 183.58 125.722 187.609 118.277C188.093 117.348 190.819 114.141 204.143 99.4192H190.465L164.842 118.649Z" fill="#FB1631"/>
<path d="M222.836 98.9824L212.601 118.5C212.601 118.5 199.575 147.312 188.41 118.5L206.088 98.9824H222.836Z" fill="#F0E3DF"/>
<path d="M199.648 131.772H199.462C195.164 131.651 191.293 127.246 187.971 118.667L187.869 118.398L188.065 118.184L205.882 98.5176H223.606L213.009 118.714C212.776 119.234 207.026 131.772 199.648 131.772ZM188.948 118.602C192.093 126.614 195.638 130.685 199.49 130.843H199.639C206.431 130.843 212.116 118.435 212.172 118.305L222.062 99.4471H206.291L188.948 118.602Z" fill="#F0E3DF"/>
<path d="M239.583 98.9824L235.861 118.5C235.861 118.5 223.766 146.382 213.531 118.5L223.766 98.9824H239.583Z" fill="#FB1633"/>
<path d="M223.868 131.354H223.701C219.719 131.242 216.146 126.967 213.094 118.658L213.02 118.463L223.487 98.5176H240.141L236.326 118.686C236.066 119.206 230.744 131.354 223.868 131.354ZM214.043 118.537C216.927 126.326 220.184 130.322 223.729 130.424H223.868C229.907 130.424 235.033 119.178 235.415 118.342L239.025 99.4471H224.045L214.043 118.537Z" fill="#FB1633"/>
<path d="M257.26 99.9118L260.051 118.5C260.051 118.5 248.886 147.312 236.791 118.5L240.513 98.9824H257.26V99.9118Z" fill="#E8E6DC"/>
<path d="M248.197 131.772C243.992 131.772 240.01 127.367 236.362 118.677L236.307 118.546L240.131 98.5176H257.725V99.8746L260.516 118.556V118.667C260.311 119.197 255.39 131.679 248.309 131.772H248.197ZM237.256 118.454C240.726 126.67 244.401 130.843 248.179 130.843H248.244C254.375 130.759 259.046 119.69 259.558 118.444L256.767 99.9118V99.4471H240.894L237.256 118.454Z" fill="#E8E6DC"/>
<path d="M283.313 118.5C283.313 118.5 274.009 149.171 260.983 118.5L258.191 98.9824H273.078L283.313 118.5Z" fill="#FB182F"/>
<path d="M272.611 132.599C268.564 132.599 264.526 127.952 260.6 118.658V118.537L257.65 98.5176H273.356L283.776 118.454L283.721 118.63C283.553 119.188 279.515 132.227 272.807 132.571L272.611 132.599ZM261.446 118.37C265.168 127.199 268.936 131.67 272.565 131.67H272.798C278.473 131.363 282.316 120.117 282.818 118.556L272.798 99.4471H258.73L261.446 118.37Z" fill="#FB182F"/>
<path d="M290.756 98.9824L307.969 119.151C307.969 119.151 297.269 145.453 283.313 118.5L273.078 98.9824H290.756Z" fill="#DDECDF"/>
<path d="M296.086 131.112C291.592 131.112 287.163 126.948 282.902 118.714L272.305 98.5176H290.969L308.507 119.067L308.396 119.327C308.209 119.792 303.66 130.778 296.412 131.103L296.086 131.112ZM273.849 99.4471L283.721 118.286C287.908 126.372 292.16 130.369 296.375 130.183C302.45 129.904 306.702 120.889 307.428 119.234L290.541 99.4471H273.849Z" fill="#DDECDF"/>
<path d="M307.969 98.9824L332.625 118.5C332.625 118.5 324.251 146.382 307.969 118.5C308.434 118.5 290.756 98.9824 290.756 98.9824H307.969Z" fill="#F91B35"/>
<path d="M321.6 131.354C317.18 131.354 312.463 127.116 307.569 118.732L307.402 118.444C306.034 116.65 296.702 106.232 290.412 99.2983L289.705 98.5176H308.127L333.165 118.333L333.072 118.63C332.923 119.113 329.434 130.471 322.409 131.307C322.141 131.341 321.87 131.357 321.6 131.354ZM308.369 118.268C313.356 126.809 318.046 130.898 322.326 130.35C328.159 129.662 331.518 120.415 332.114 118.63L307.811 99.4471H291.808C305.066 114.095 307.839 117.375 308.332 118.286L308.369 118.268Z" fill="#F91B35"/>
<path d="M255.4 264.185H238.653C238.491 264.186 238.334 264.131 238.208 264.03C238.083 263.928 237.996 263.786 237.964 263.628L235.173 249.686C235.155 249.584 235.159 249.479 235.185 249.378C235.211 249.277 235.257 249.183 235.322 249.101C235.388 249.022 235.471 248.959 235.564 248.916C235.657 248.873 235.759 248.85 235.861 248.85H258.191C258.294 248.85 258.396 248.873 258.489 248.916C258.582 248.959 258.665 249.022 258.731 249.101C258.795 249.183 258.842 249.277 258.868 249.378C258.893 249.479 258.897 249.584 258.88 249.686L256.089 263.628C256.056 263.786 255.97 263.928 255.844 264.03C255.719 264.131 255.562 264.186 255.4 264.185ZM239.229 262.791H254.823L257.335 250.244H236.717L239.229 262.791Z" fill="#FC0000"/>
<path d="M235.862 250.244C235.701 250.242 235.546 250.186 235.421 250.084C235.296 249.983 235.209 249.843 235.173 249.686L234.354 245.597H231.21C231.024 245.597 230.847 245.524 230.716 245.393C230.585 245.262 230.512 245.085 230.512 244.9C230.512 244.715 230.585 244.538 230.716 244.407C230.847 244.276 231.024 244.203 231.21 244.203H234.931C235.093 244.202 235.25 244.257 235.375 244.359C235.501 244.46 235.587 244.602 235.62 244.761L236.55 249.408C236.583 249.59 236.545 249.777 236.442 249.932C236.34 250.086 236.182 250.195 236.001 250.235L235.862 250.244Z" fill="#FC0000"/>
<path d="M240.048 269.529C241.076 269.529 241.909 268.697 241.909 267.671C241.909 266.644 241.076 265.812 240.048 265.812C239.021 265.812 238.188 266.644 238.188 267.671C238.188 268.697 239.021 269.529 240.048 269.529Z" fill="#FC0000"/>
<path d="M240.047 270.226C239.541 270.226 239.046 270.077 238.625 269.796C238.205 269.515 237.877 269.116 237.683 268.649C237.489 268.182 237.439 267.668 237.537 267.172C237.636 266.676 237.88 266.221 238.238 265.863C238.596 265.506 239.051 265.262 239.548 265.164C240.044 265.065 240.559 265.116 241.026 265.309C241.494 265.503 241.893 265.83 242.174 266.251C242.456 266.671 242.606 267.165 242.606 267.671C242.606 268.348 242.336 268.999 241.856 269.478C241.376 269.957 240.726 270.226 240.047 270.226ZM240.047 266.509C239.817 266.509 239.592 266.577 239.401 266.705C239.21 266.832 239.06 267.014 238.972 267.226C238.884 267.438 238.861 267.672 238.906 267.897C238.951 268.123 239.062 268.33 239.225 268.492C239.387 268.655 239.594 268.765 239.82 268.81C240.046 268.855 240.279 268.832 240.492 268.744C240.705 268.656 240.886 268.507 241.014 268.316C241.142 268.125 241.21 267.9 241.21 267.671C241.21 267.362 241.087 267.067 240.869 266.849C240.651 266.631 240.355 266.509 240.047 266.509Z" fill="#FC0000"/>
<path d="M254.003 269.529C255.031 269.529 255.864 268.697 255.864 267.671C255.864 266.644 255.031 265.812 254.003 265.812C252.976 265.812 252.143 266.644 252.143 267.671C252.143 268.697 252.976 269.529 254.003 269.529Z" fill="#FC0000"/>
<path d="M254.004 270.226C253.498 270.226 253.003 270.077 252.582 269.796C252.162 269.515 251.834 269.116 251.64 268.649C251.446 268.182 251.396 267.668 251.494 267.172C251.593 266.676 251.837 266.221 252.195 265.863C252.553 265.506 253.008 265.262 253.505 265.164C254.001 265.065 254.516 265.116 254.983 265.309C255.451 265.503 255.85 265.83 256.131 266.251C256.413 266.671 256.563 267.165 256.563 267.671C256.563 268.348 256.293 268.999 255.813 269.478C255.333 269.957 254.683 270.226 254.004 270.226ZM254.004 266.509C253.774 266.509 253.549 266.577 253.358 266.705C253.167 266.832 253.018 267.014 252.929 267.226C252.841 267.438 252.818 267.672 252.863 267.897C252.908 268.123 253.019 268.33 253.182 268.492C253.344 268.655 253.551 268.765 253.777 268.81C254.003 268.855 254.237 268.832 254.449 268.744C254.662 268.656 254.843 268.507 254.971 268.316C255.099 268.125 255.167 267.9 255.167 267.671C255.167 267.362 255.044 267.067 254.826 266.849C254.608 266.631 254.312 266.509 254.004 266.509Z" fill="#FC0000"/>
<path d="M330.819 357.898C315.16 336.624 310.154 309.048 294.803 287.551C294.243 286.667 293.52 285.897 292.672 285.283C291.478 284.662 290.164 284.307 288.82 284.242C278.632 282.941 267.951 278.545 263.15 269.483C262.45 268.322 262.065 266.999 262.033 265.644C262.173 261.546 267.076 259.548 271.142 258.916C297.194 254.91 325.106 267.159 339.797 289.075" fill="#F7AC77"/>
<path d="M332.019 357.192C323.291 345.276 317.858 331.465 312.164 317.961C309.307 311.195 306.376 304.457 302.859 297.988C301.129 294.763 299.238 291.627 297.193 288.592C296.273 286.972 295.08 285.522 293.667 284.307C292.234 283.266 290.494 283.08 288.792 282.848C282.427 282.002 276.008 280.013 270.797 276.175C268.25 274.327 266.128 271.957 264.573 269.223C263.782 267.829 263.01 266.156 263.642 264.576C264.198 263.402 265.145 262.459 266.322 261.908C268.964 260.458 272.118 260.133 275.068 259.864C278.331 259.566 281.612 259.51 284.884 259.696C294.721 260.292 304.325 262.931 313.083 267.444C321.842 271.956 329.561 278.244 335.75 285.906C336.755 287.17 337.685 288.471 338.587 289.809C339.49 291.148 342.002 289.893 340.997 288.396C333.23 277.02 322.348 268.117 309.651 262.754C303.387 260.079 296.784 258.274 290.029 257.391C283.285 256.413 276.427 256.548 269.727 257.791C266.936 258.367 263.847 259.548 262.023 261.88C259.735 264.827 260.739 268.303 262.517 271.24C266.006 277.03 271.821 280.85 278.11 283.145C281.289 284.299 284.583 285.106 287.936 285.552C289.796 285.813 291.657 285.906 292.969 287.476C294.181 289.001 295.288 290.606 296.281 292.281C300.289 298.732 303.794 305.481 306.767 312.468C312.917 326.409 318.044 340.964 326.306 353.864C327.348 355.481 328.437 357.071 329.572 358.632C330.623 360.063 333.051 358.632 331.981 357.219L332.019 357.192Z" fill="#FFC299"/>
<path d="M143.284 164.506H129.328V178.447H143.284V164.506Z" fill="#CCCCCC"/>
<path d="M137.702 210.512C142.069 210.512 145.61 206.975 145.61 202.612C145.61 198.249 142.069 194.712 137.702 194.712C133.334 194.712 129.793 198.249 129.793 202.612C129.793 206.975 133.334 210.512 137.702 210.512Z" fill="#FB1631"/>
<path d="M137.702 210.976C136.046 210.976 134.427 210.486 133.05 209.567C131.673 208.648 130.599 207.341 129.966 205.813C129.332 204.284 129.166 202.602 129.489 200.98C129.812 199.357 130.61 197.867 131.781 196.697C132.952 195.527 134.444 194.731 136.068 194.408C137.693 194.085 139.376 194.251 140.906 194.884C142.436 195.517 143.744 196.589 144.664 197.965C145.585 199.34 146.076 200.957 146.076 202.612C146.076 204.83 145.193 206.958 143.623 208.527C142.053 210.095 139.923 210.976 137.702 210.976ZM137.702 195.176C136.23 195.176 134.791 195.613 133.567 196.43C132.343 197.247 131.389 198.408 130.825 199.766C130.262 201.125 130.114 202.62 130.402 204.062C130.689 205.505 131.398 206.829 132.439 207.869C133.48 208.909 134.806 209.617 136.25 209.904C137.694 210.191 139.19 210.044 140.55 209.481C141.91 208.918 143.073 207.965 143.891 206.743C144.709 205.52 145.145 204.082 145.145 202.612C145.145 200.64 144.361 198.749 142.965 197.354C141.569 195.96 139.676 195.176 137.702 195.176Z" fill="#FB1631"/>
<g opacity="0.7">
<path opacity="0.7" d="M149.332 210.976C153.7 210.976 157.241 207.44 157.241 203.076C157.241 198.713 153.7 195.176 149.332 195.176C144.965 195.176 141.424 198.713 141.424 203.076C141.424 207.44 144.965 210.976 149.332 210.976Z" fill="#F8AE0F"/>
</g>
<path d="M173.057 93.8706L153.519 105.024L149.797 93.8706H173.057Z" fill="#F99B2C"/>
<path d="M174.919 88.2941L153.52 73.4235L166.545 62.2706L174.919 88.2941Z" fill="#F99B2C"/>
<path d="M181.432 88.1547L180.529 69.3806L187.935 70.1241L181.432 88.1547Z" fill="#F99B2C"/>
<path d="M248.022 234.909C248.022 234.909 193.983 176.932 224.38 147.219C230.722 141.097 239.197 137.675 248.017 137.675C256.837 137.675 265.312 141.097 271.654 147.219C302.051 176.932 248.022 234.909 248.022 234.909Z" fill="#A9DBFF"/>
<path d="M263.699 172.62C265.118 172.199 266.433 171.487 267.56 170.528C268.407 169.804 269.923 168.242 269.542 167.554C269.16 166.867 266.751 167.759 266.304 166.978C266.09 166.56 266.648 166.049 267.56 164.59C268.586 163.235 269.229 161.63 269.421 159.942C269.421 159.357 269.486 158.084 268.695 157.554C267.904 157.024 266.62 157.675 266.471 157.749C263.913 159.115 263.838 163.511 263.522 163.465C263.206 163.418 263.643 161.076 263.02 158.13C262.843 157.294 262.48 155.611 261.978 155.602C261.047 155.602 260.368 161.448 259.679 161.392C259.242 161.392 259.419 158.939 257.819 156.132C257.344 155.286 256.814 154.357 256.246 154.412C255.316 154.505 254.785 157.024 254.655 158.855C254.367 162.861 255.995 165.881 255.381 166.188C254.767 166.495 253.976 164.701 253.204 164.961C252.432 165.222 252.273 167.266 252.766 168.874C253.087 169.878 253.672 170.777 254.46 171.476C257.726 174.395 262.992 172.871 263.699 172.62Z" fill="#18A357"/>
<path d="M262.824 172.694C263.738 172.425 264.585 171.966 265.308 171.346C265.848 170.882 266.825 169.887 266.583 169.441C266.341 168.995 264.768 169.571 264.499 169.069C264.359 168.809 264.722 168.474 265.308 167.536C265.96 166.671 266.369 165.647 266.49 164.571C266.49 164.19 266.49 163.363 266.024 163.037C265.559 162.712 264.694 163.102 264.601 163.158C262.954 164.041 262.908 166.876 262.74 166.829C262.573 166.783 262.824 165.287 262.414 163.409C262.303 162.87 262.07 161.783 261.754 161.783C261.158 161.783 260.721 165.5 260.274 165.5C259.995 165.5 260.107 163.93 259.102 162.127C258.795 161.588 258.46 160.993 258.097 161.03C257.52 161.086 257.167 162.703 257.074 163.874C256.888 166.448 257.93 168.382 257.53 168.586C257.13 168.79 256.599 167.657 256.134 167.796C255.669 167.935 255.539 169.274 255.855 170.305C256.067 170.947 256.442 171.524 256.944 171.978C258.981 173.8 262.377 172.871 262.824 172.694Z" fill="#077B46"/>
<path d="M267.114 175.148C267.272 175.705 267.356 176.467 265.253 181.97C264.62 183.624 264.015 185.111 262.806 188.076C260.945 192.723 261.206 192.091 260.685 193.336C259.308 196.598 258.424 198.364 256.647 201.905C255.597 203.789 254.366 205.567 252.971 207.212C252.554 207.749 252.015 208.179 251.399 208.467C250.743 208.804 249.994 208.915 249.268 208.783C247.938 208.356 247.528 206.181 247.361 205.158C246.347 198.894 247.166 190.362 247.277 189.21C247.715 184.563 248.999 180.092 249.352 175.473C249.37 173.927 249.926 172.435 250.925 171.253C252.092 170.157 253.605 169.5 255.204 169.395C258.053 169.01 260.946 169.642 263.374 171.179C264.909 172.174 266.583 173.233 267.114 175.148Z" fill="#F9922B"/>
<path d="M249.835 209.796C249.548 209.798 249.262 209.754 248.989 209.666C247.258 209.108 246.709 206.878 246.449 205.316C245.518 199.554 246.067 192.072 246.346 189.126C246.56 186.886 246.97 184.646 247.37 182.49C247.845 180.146 248.199 177.779 248.431 175.399C248.468 173.634 249.127 171.939 250.291 170.612C251.602 169.374 253.302 168.628 255.102 168.502C258.17 168.09 261.285 168.768 263.903 170.417C265.55 171.458 267.42 172.638 268.044 174.897C268.286 175.761 268.286 176.756 266.183 182.332C265.541 184.005 264.936 185.492 263.736 188.457C262.74 190.91 262.35 191.886 262.126 192.444C261.903 193.002 261.856 193.132 261.605 193.727C260.21 197.035 259.316 198.81 257.539 202.352C256.457 204.294 255.189 206.127 253.753 207.826C253.258 208.468 252.621 208.987 251.892 209.341C251.248 209.64 250.546 209.796 249.835 209.796ZM256.869 170.222C256.359 170.223 255.849 170.26 255.344 170.333C253.963 170.417 252.652 170.964 251.622 171.885C250.782 172.908 250.316 174.187 250.301 175.51C250.073 177.969 249.713 180.414 249.221 182.834C248.831 184.953 248.421 187.137 248.217 189.293C248.012 191.45 247.379 199.312 248.3 205.01C248.672 207.287 249.231 207.798 249.575 207.9C250.076 207.972 250.587 207.873 251.026 207.621C251.512 207.392 251.936 207.051 252.264 206.627C253.611 205.029 254.804 203.308 255.827 201.487C257.586 197.983 258.47 196.227 259.837 192.974C260.089 192.398 260.154 192.221 260.349 191.738C260.545 191.254 260.963 190.186 261.968 187.732C263.168 184.776 263.764 183.299 264.397 181.644C266.257 176.876 266.35 175.808 266.257 175.389C265.82 173.828 264.341 172.898 262.908 171.997C261.098 170.858 259.008 170.244 256.869 170.222Z" fill="#F9922B"/>
<path d="M262.379 179.46C261.75 179.319 261.128 179.146 260.518 178.94C259.983 178.788 259.439 178.671 258.889 178.586C257.903 178.438 256.647 178.382 256.498 178.373C255.847 178.373 255.614 178.373 255.568 178.27C255.521 178.168 256.591 177.518 257.596 177.341C258.505 177.284 259.414 177.447 260.247 177.816C261.079 178.185 261.811 178.749 262.379 179.46Z" fill="#E2662E"/>
<path d="M252.441 204.108C252.441 204.108 252.292 204.043 251.743 203.876C251.474 203.792 251.325 203.746 251.12 203.699C250.812 203.641 250.502 203.601 250.19 203.578C249.938 203.578 249.845 203.578 249.836 203.513C249.827 203.448 250.245 203.253 250.636 203.216C250.987 203.208 251.334 203.286 251.648 203.441C251.963 203.596 252.235 203.825 252.441 204.108Z" fill="#E2662E"/>
<path d="M253.613 187.472C253.373 187.406 253.137 187.329 252.906 187.239C252.636 187.156 252.496 187.109 252.282 187.063C251.975 187.005 251.664 186.964 251.352 186.942C251.101 186.942 251.008 186.942 251.008 186.877C251.008 186.812 251.408 186.617 251.799 186.579C252.151 186.572 252.499 186.649 252.815 186.804C253.131 186.96 253.404 187.189 253.613 187.472Z" fill="#E2662E"/>
<path d="M253.315 199.926C252.926 199.82 252.543 199.69 252.171 199.535C251.841 199.428 251.505 199.338 251.166 199.266C250.552 199.145 249.77 199.061 249.677 199.052C249.268 199.052 249.119 199.052 249.109 198.959C249.1 198.866 249.77 198.522 250.403 198.467C250.97 198.459 251.53 198.587 252.037 198.841C252.544 199.095 252.982 199.467 253.315 199.926Z" fill="#E2662E"/>
<path d="M257.176 194.108C257.176 194.163 256.841 193.959 255.604 193.578C255.155 193.425 254.699 193.297 254.236 193.197C253.399 193.03 252.329 192.927 252.198 192.909C251.64 192.853 251.445 192.853 251.426 192.788C251.407 192.723 252.356 192.184 253.203 192.109C253.977 192.099 254.743 192.275 255.434 192.623C256.126 192.971 256.723 193.48 257.176 194.108Z" fill="#E2662E"/>
<path d="M238.039 174.051C238.909 173.277 239.604 172.327 240.076 171.263C240.43 170.473 241.007 168.865 240.486 168.474C239.965 168.084 238.56 169.553 238.002 169.144C237.713 168.921 237.936 168.372 238.095 167.034C238.364 165.741 238.28 164.399 237.853 163.149C237.676 162.731 237.276 161.801 236.55 161.699C235.824 161.597 235.117 162.47 235.043 162.582C233.684 164.441 235.099 167.526 234.857 167.601C234.615 167.675 234.15 165.863 232.726 163.995C232.326 163.465 231.507 162.396 231.154 162.554C230.484 162.852 231.954 167.201 231.451 167.406C231.135 167.526 230.456 165.761 228.409 164.301C227.786 163.855 227.106 163.372 226.725 163.604C226.12 163.967 226.557 165.937 227.078 167.276C228.204 170.203 230.363 171.802 230.028 172.22C229.693 172.638 228.539 171.634 228.083 172.071C227.627 172.508 228.195 174.014 229.079 174.98C229.639 175.582 230.348 176.024 231.135 176.263C234.401 177.295 237.611 174.432 238.039 174.051Z" fill="#18A357"/>
<path d="M237.452 174.386C238.009 173.894 238.453 173.289 238.754 172.61C238.987 172.108 239.34 171.077 239.024 170.844C238.708 170.612 237.786 171.532 237.433 171.272C237.238 171.123 237.386 170.779 237.489 169.915C237.66 169.086 237.606 168.225 237.331 167.424C237.219 167.155 236.958 166.56 236.493 166.495C236.028 166.43 235.563 166.987 235.563 167.062C234.697 168.224 235.563 170.231 235.451 170.278C235.339 170.324 234.995 169.172 234.083 167.973C233.823 167.629 233.293 166.941 233.069 167.043C232.641 167.229 233.581 170.036 233.265 170.157C232.948 170.278 232.623 169.097 231.311 168.158C230.911 167.88 230.473 167.573 230.231 167.722C229.841 167.954 230.12 169.209 230.455 170.073C231.181 171.932 232.567 172.973 232.316 173.242C232.064 173.512 231.385 172.871 231.06 173.149C230.734 173.428 231.134 174.395 231.702 175.008C232.06 175.395 232.517 175.677 233.023 175.826C235.116 176.467 237.172 174.636 237.452 174.386Z" fill="#077B46"/>
<path d="M241.293 174.729C241.591 175.073 241.908 175.584 242.224 180.176C242.326 181.551 242.391 182.806 242.531 185.306C242.745 189.182 242.736 188.671 242.782 189.73C242.894 192.518 242.857 194.033 242.782 197.165C242.673 198.846 242.396 200.512 241.954 202.138C241.838 202.653 241.602 203.134 241.266 203.541C240.917 203.998 240.426 204.325 239.87 204.471C238.781 204.61 237.767 203.207 237.311 202.547C234.52 198.448 232.24 192.156 231.933 191.301C230.715 187.899 230.073 184.284 228.835 180.901C228.33 179.803 228.225 178.564 228.537 177.397C229.006 176.243 229.857 175.285 230.947 174.683C232.833 173.462 235.091 172.948 237.321 173.233C238.753 173.326 240.289 173.521 241.293 174.729Z" fill="#F9922B"/>
<path d="M239.723 205.335C238.337 205.335 237.267 204.024 236.569 203.002C233.889 199.099 231.693 193.243 231.079 191.542C230.465 189.842 230.028 188.159 229.591 186.496C229.152 184.69 228.614 182.909 227.981 181.161C227.403 179.863 227.294 178.404 227.674 177.034C228.199 175.674 229.187 174.542 230.465 173.837C232.537 172.499 235.013 171.93 237.462 172.229C238.941 172.415 240.765 172.638 242.012 174.088C242.505 174.664 242.84 175.361 243.193 180.074C243.296 181.412 243.361 182.629 243.491 184.999V185.213C243.603 187.267 243.649 188.085 243.677 188.559C243.705 189.033 243.677 189.145 243.733 189.656C243.854 192.444 243.817 194.024 243.733 197.091C243.621 198.841 243.334 200.575 242.877 202.268C242.716 202.929 242.397 203.542 241.947 204.052C241.459 204.698 240.75 205.141 239.955 205.298C239.879 205.317 239.801 205.329 239.723 205.335ZM236.169 174.014C234.519 174.003 232.901 174.474 231.517 175.371C230.603 175.868 229.882 176.656 229.47 177.611C229.232 178.568 229.327 179.577 229.739 180.473C230.401 182.3 230.963 184.162 231.424 186.05C231.852 187.676 232.289 189.358 232.856 190.938C234.204 194.801 235.973 198.504 238.132 201.98C239.174 203.504 239.695 203.513 239.797 203.504C240.122 203.394 240.403 203.182 240.597 202.9C240.846 202.601 241.018 202.248 241.1 201.868C241.525 200.287 241.796 198.669 241.909 197.035C241.993 193.987 242.03 192.453 241.909 189.702C241.909 189.21 241.909 189.07 241.854 188.652C241.798 188.234 241.77 187.351 241.658 185.288V185.074C241.528 182.722 241.463 181.514 241.36 180.185C241.137 177.192 240.895 175.538 240.625 175.268C239.853 174.339 238.597 174.218 237.267 174.051C236.902 174.013 236.535 174 236.169 174.014Z" fill="#F9922B"/>
<path d="M239.369 179.376C239.369 179.432 239.035 179.376 237.881 179.618C237.451 179.693 237.025 179.792 236.606 179.916C235.862 180.139 234.959 180.52 234.848 180.557C234.373 180.761 234.215 180.845 234.178 180.789C234.141 180.733 234.643 179.925 235.304 179.488C235.923 179.145 236.615 178.955 237.323 178.936C238.031 178.917 238.733 179.068 239.369 179.376Z" fill="#E2662E"/>
<path d="M240.568 200.047C240.568 200.047 240.447 200.047 239.991 200.112L239.498 200.195C239.265 200.253 239.035 200.324 238.81 200.409C238.624 200.474 238.558 200.502 238.549 200.483C238.54 200.465 238.745 200.158 239.005 200C239.25 199.881 239.52 199.823 239.792 199.831C240.065 199.839 240.331 199.913 240.568 200.047Z" fill="#E2662E"/>
<path d="M235.861 187.899C235.861 187.899 235.73 187.899 235.274 187.964L234.781 188.048C234.493 188.122 234.139 188.243 234.093 188.262C234.046 188.28 233.842 188.355 233.832 188.336C233.823 188.317 234.028 188.011 234.288 187.853C234.535 187.734 234.806 187.676 235.08 187.684C235.354 187.692 235.622 187.766 235.861 187.899Z" fill="#E2662E"/>
<path d="M239.796 196.794C239.488 196.847 239.177 196.884 238.865 196.905C238.596 196.935 238.329 196.981 238.065 197.045C237.684 197.14 237.309 197.255 236.939 197.388C236.642 197.5 236.539 197.546 236.511 197.509C236.483 197.472 236.837 196.98 237.265 196.729C237.662 196.539 238.098 196.447 238.538 196.458C238.978 196.469 239.409 196.584 239.796 196.794Z" fill="#E2662E"/>
<path d="M240.587 191.394C240.162 191.466 239.734 191.515 239.303 191.542C238.933 191.583 238.567 191.648 238.205 191.738C237.563 191.896 236.763 192.174 236.67 192.202C236.261 192.351 236.121 192.416 236.084 192.37C236.047 192.323 236.521 191.654 237.117 191.31C237.66 191.047 238.259 190.917 238.862 190.931C239.466 190.946 240.057 191.104 240.587 191.394Z" fill="#E2662E"/>
</g>
<defs>
<clipPath id="clip0">
<rect width="468" height="395" fill="white"/>
</clipPath>
</defs>
</svg>
